<?xml version="1.0" encoding="utf-8" standalone="no"?>
<!DOCTYPE svg PUBLIC "-//W3C//DTD SVG 1.1//EN"
  "http://www.w3.org/Graphics/SVG/1.1/DTD/svg11.dtd">
<svg xmlns:xlink="http://www.w3.org/1999/xlink" width="366.140313pt" height="257.673625pt" viewBox="0 0 366.140313 257.673625" xmlns="http://www.w3.org/2000/svg" version="1.1">
 <metadata>
  <rdf:RDF xmlns:dc="http://purl.org/dc/elements/1.1/" xmlns:cc="http://creativecommons.org/ns#" xmlns:rdf="http://www.w3.org/1999/02/22-rdf-syntax-ns#">
   <cc:Work>
    <dc:type rdf:resource="http://purl.org/dc/dcmitype/StillImage"/>
    <dc:date>2024-10-27T18:40:24.843107</dc:date>
    <dc:format>image/svg+xml</dc:format>
    <dc:creator>
     <cc:Agent>
      <dc:title>Matplotlib v3.8.4, https://matplotlib.org/</dc:title>
     </cc:Agent>
    </dc:creator>
   </cc:Work>
  </rdf:RDF>
 </metadata>
 <defs>
  <style type="text/css">*{stroke-linejoin: round; stroke-linecap: butt}</style>
 </defs>
 <g id="figure_1">
  <g id="patch_1">
   <path d="M 0 257.673625 
L 366.140313 257.673625 
L 366.140313 -0 
L 0 -0 
z
" style="fill: #ffffff"/>
  </g>
  <g id="axes_1">
   <g id="patch_2">
    <path d="M 52.040313 112.34175 
L 358.940313 112.34175 
L 358.940313 24.14175 
L 52.040313 24.14175 
z
" style="fill: #e5e5e5"/>
   </g>
   <g id="matplotlib.axis_1">
    <g id="xtick_1">
     <g id="line2d_1">
      <path d="M 84.590313 112.34175 
L 84.590313 24.14175 
" clip-path="url(#p084756aaa4)" style="fill: none; stroke: #ffffff; stroke-width: 0.8; stroke-linecap: square"/>
     </g>
     <g id="line2d_2">
      <defs>
       <path id="m200c4175aa" d="M 0 0 
L 0 3.5 
" style="stroke: #555555; stroke-width: 0.8"/>
      </defs>
      <g>
       <use xlink:href="#m200c4175aa" x="84.590313" y="112.34175" style="fill: #555555; stroke: #555555; stroke-width: 0.8"/>
      </g>
     </g>
     <g id="text_1">
      <!-- −4 -->
      <g style="fill: #555555" transform="translate(77.219219 126.940187) scale(0.1 -0.1)">
       <defs>
        <path id="DejaVuSans-2212" d="M 678 2272 
L 4684 2272 
L 4684 1741 
L 678 1741 
L 678 2272 
z
" transform="scale(0.015625)"/>
        <path id="DejaVuSans-34" d="M 2419 4116 
L 825 1625 
L 2419 1625 
L 2419 4116 
z
M 2253 4666 
L 3047 4666 
L 3047 1625 
L 3713 1625 
L 3713 1100 
L 3047 1100 
L 3047 0 
L 2419 0 
L 2419 1100 
L 313 1100 
L 313 1709 
L 2253 4666 
z
" transform="scale(0.015625)"/>
       </defs>
       <use xlink:href="#DejaVuSans-2212"/>
       <use xlink:href="#DejaVuSans-34" x="83.789062"/>
      </g>
     </g>
    </g>
    <g id="xtick_2">
     <g id="line2d_3">
      <path d="M 121.790313 112.34175 
L 121.790313 24.14175 
" clip-path="url(#p084756aaa4)" style="fill: none; stroke: #ffffff; stroke-width: 0.8; stroke-linecap: square"/>
     </g>
     <g id="line2d_4">
      <g>
       <use xlink:href="#m200c4175aa" x="121.790313" y="112.34175" style="fill: #555555; stroke: #555555; stroke-width: 0.8"/>
      </g>
     </g>
     <g id="text_2">
      <!-- −2 -->
      <g style="fill: #555555" transform="translate(114.419219 126.940187) scale(0.1 -0.1)">
       <defs>
        <path id="DejaVuSans-32" d="M 1228 531 
L 3431 531 
L 3431 0 
L 469 0 
L 469 531 
Q 828 903 1448 1529 
Q 2069 2156 2228 2338 
Q 2531 2678 2651 2914 
Q 2772 3150 2772 3378 
Q 2772 3750 2511 3984 
Q 2250 4219 1831 4219 
Q 1534 4219 1204 4116 
Q 875 4013 500 3803 
L 500 4441 
Q 881 4594 1212 4672 
Q 1544 4750 1819 4750 
Q 2544 4750 2975 4387 
Q 3406 4025 3406 3419 
Q 3406 3131 3298 2873 
Q 3191 2616 2906 2266 
Q 2828 2175 2409 1742 
Q 1991 1309 1228 531 
z
" transform="scale(0.015625)"/>
       </defs>
       <use xlink:href="#DejaVuSans-2212"/>
       <use xlink:href="#DejaVuSans-32" x="83.789062"/>
      </g>
     </g>
    </g>
    <g id="xtick_3">
     <g id="line2d_5">
      <path d="M 158.990313 112.34175 
L 158.990313 24.14175 
" clip-path="url(#p084756aaa4)" style="fill: none; stroke: #ffffff; stroke-width: 0.8; stroke-linecap: square"/>
     </g>
     <g id="line2d_6">
      <g>
       <use xlink:href="#m200c4175aa" x="158.990313" y="112.34175" style="fill: #555555; stroke: #555555; stroke-width: 0.8"/>
      </g>
     </g>
     <g id="text_3">
      <!-- 0 -->
      <g style="fill: #555555" transform="translate(155.809063 126.940187) scale(0.1 -0.1)">
       <defs>
        <path id="DejaVuSans-30" d="M 2034 4250 
Q 1547 4250 1301 3770 
Q 1056 3291 1056 2328 
Q 1056 1369 1301 889 
Q 1547 409 2034 409 
Q 2525 409 2770 889 
Q 3016 1369 3016 2328 
Q 3016 3291 2770 3770 
Q 2525 4250 2034 4250 
z
M 2034 4750 
Q 2819 4750 3233 4129 
Q 3647 3509 3647 2328 
Q 3647 1150 3233 529 
Q 2819 -91 2034 -91 
Q 1250 -91 836 529 
Q 422 1150 422 2328 
Q 422 3509 836 4129 
Q 1250 4750 2034 4750 
z
" transform="scale(0.015625)"/>
       </defs>
       <use xlink:href="#DejaVuSans-30"/>
      </g>
     </g>
    </g>
    <g id="xtick_4">
     <g id="line2d_7">
      <path d="M 196.190313 112.34175 
L 196.190313 24.14175 
" clip-path="url(#p084756aaa4)" style="fill: none; stroke: #ffffff; stroke-width: 0.8; stroke-linecap: square"/>
     </g>
     <g id="line2d_8">
      <g>
       <use xlink:href="#m200c4175aa" x="196.190313" y="112.34175" style="fill: #555555; stroke: #555555; stroke-width: 0.8"/>
      </g>
     </g>
     <g id="text_4">
      <!-- 2 -->
      <g style="fill: #555555" transform="translate(193.009062 126.940187) scale(0.1 -0.1)">
       <use xlink:href="#DejaVuSans-32"/>
      </g>
     </g>
    </g>
    <g id="xtick_5">
     <g id="line2d_9">
      <path d="M 233.390313 112.34175 
L 233.390313 24.14175 
" clip-path="url(#p084756aaa4)" style="fill: none; stroke: #ffffff; stroke-width: 0.8; stroke-linecap: square"/>
     </g>
     <g id="line2d_10">
      <g>
       <use xlink:href="#m200c4175aa" x="233.390313" y="112.34175" style="fill: #555555; stroke: #555555; stroke-width: 0.8"/>
      </g>
     </g>
     <g id="text_5">
      <!-- 4 -->
      <g style="fill: #555555" transform="translate(230.209063 126.940187) scale(0.1 -0.1)">
       <use xlink:href="#DejaVuSans-34"/>
      </g>
     </g>
    </g>
    <g id="xtick_6">
     <g id="line2d_11">
      <path d="M 270.590313 112.34175 
L 270.590313 24.14175 
" clip-path="url(#p084756aaa4)" style="fill: none; stroke: #ffffff; stroke-width: 0.8; stroke-linecap: square"/>
     </g>
     <g id="line2d_12">
      <g>
       <use xlink:href="#m200c4175aa" x="270.590313" y="112.34175" style="fill: #555555; stroke: #555555; stroke-width: 0.8"/>
      </g>
     </g>
     <g id="text_6">
      <!-- 6 -->
      <g style="fill: #555555" transform="translate(267.409063 126.940187) scale(0.1 -0.1)">
       <defs>
        <path id="DejaVuSans-36" d="M 2113 2584 
Q 1688 2584 1439 2293 
Q 1191 2003 1191 1497 
Q 1191 994 1439 701 
Q 1688 409 2113 409 
Q 2538 409 2786 701 
Q 3034 994 3034 1497 
Q 3034 2003 2786 2293 
Q 2538 2584 2113 2584 
z
M 3366 4563 
L 3366 3988 
Q 3128 4100 2886 4159 
Q 2644 4219 2406 4219 
Q 1781 4219 1451 3797 
Q 1122 3375 1075 2522 
Q 1259 2794 1537 2939 
Q 1816 3084 2150 3084 
Q 2853 3084 3261 2657 
Q 3669 2231 3669 1497 
Q 3669 778 3244 343 
Q 2819 -91 2113 -91 
Q 1303 -91 875 529 
Q 447 1150 447 2328 
Q 447 3434 972 4092 
Q 1497 4750 2381 4750 
Q 2619 4750 2861 4703 
Q 3103 4656 3366 4563 
z
" transform="scale(0.015625)"/>
       </defs>
       <use xlink:href="#DejaVuSans-36"/>
      </g>
     </g>
    </g>
    <g id="xtick_7">
     <g id="line2d_13">
      <path d="M 307.790313 112.34175 
L 307.790313 24.14175 
" clip-path="url(#p084756aaa4)" style="fill: none; stroke: #ffffff; stroke-width: 0.8; stroke-linecap: square"/>
     </g>
     <g id="line2d_14">
      <g>
       <use xlink:href="#m200c4175aa" x="307.790313" y="112.34175" style="fill: #555555; stroke: #555555; stroke-width: 0.8"/>
      </g>
     </g>
     <g id="text_7">
      <!-- 8 -->
      <g style="fill: #555555" transform="translate(304.609063 126.940187) scale(0.1 -0.1)">
       <defs>
        <path id="DejaVuSans-38" d="M 2034 2216 
Q 1584 2216 1326 1975 
Q 1069 1734 1069 1313 
Q 1069 891 1326 650 
Q 1584 409 2034 409 
Q 2484 409 2743 651 
Q 3003 894 3003 1313 
Q 3003 1734 2745 1975 
Q 2488 2216 2034 2216 
z
M 1403 2484 
Q 997 2584 770 2862 
Q 544 3141 544 3541 
Q 544 4100 942 4425 
Q 1341 4750 2034 4750 
Q 2731 4750 3128 4425 
Q 3525 4100 3525 3541 
Q 3525 3141 3298 2862 
Q 3072 2584 2669 2484 
Q 3125 2378 3379 2068 
Q 3634 1759 3634 1313 
Q 3634 634 3220 271 
Q 2806 -91 2034 -91 
Q 1263 -91 848 271 
Q 434 634 434 1313 
Q 434 1759 690 2068 
Q 947 2378 1403 2484 
z
M 1172 3481 
Q 1172 3119 1398 2916 
Q 1625 2713 2034 2713 
Q 2441 2713 2670 2916 
Q 2900 3119 2900 3481 
Q 2900 3844 2670 4047 
Q 2441 4250 2034 4250 
Q 1625 4250 1398 4047 
Q 1172 3844 1172 3481 
z
" transform="scale(0.015625)"/>
       </defs>
       <use xlink:href="#DejaVuSans-38"/>
      </g>
     </g>
    </g>
    <g id="xtick_8">
     <g id="line2d_15">
      <path d="M 344.990313 112.34175 
L 344.990313 24.14175 
" clip-path="url(#p084756aaa4)" style="fill: none; stroke: #ffffff; stroke-width: 0.8; stroke-linecap: square"/>
     </g>
     <g id="line2d_16">
      <g>
       <use xlink:href="#m200c4175aa" x="344.990313" y="112.34175" style="fill: #555555; stroke: #555555; stroke-width: 0.8"/>
      </g>
     </g>
     <g id="text_8">
      <!-- 10 -->
      <g style="fill: #555555" transform="translate(338.627813 126.940187) scale(0.1 -0.1)">
       <defs>
        <path id="DejaVuSans-31" d="M 794 531 
L 1825 531 
L 1825 4091 
L 703 3866 
L 703 4441 
L 1819 4666 
L 2450 4666 
L 2450 531 
L 3481 531 
L 3481 0 
L 794 0 
L 794 531 
z
" transform="scale(0.015625)"/>
       </defs>
       <use xlink:href="#DejaVuSans-31"/>
       <use xlink:href="#DejaVuSans-30" x="63.623047"/>
      </g>
     </g>
    </g>
   </g>
   <g id="matplotlib.axis_2">
    <g id="ytick_1">
     <g id="line2d_17">
      <path d="M 52.040313 112.34175 
L 358.940313 112.34175 
" clip-path="url(#p084756aaa4)" style="fill: none; stroke: #ffffff; stroke-width: 0.8; stroke-linecap: square"/>
     </g>
     <g id="line2d_18">
      <defs>
       <path id="m8bede3af24" d="M 0 0 
L -3.5 0 
" style="stroke: #555555; stroke-width: 0.8"/>
      </defs>
      <g>
       <use xlink:href="#m8bede3af24" x="52.040313" y="112.34175" style="fill: #555555; stroke: #555555; stroke-width: 0.8"/>
      </g>
     </g>
     <g id="text_9">
      <!-- 0 -->
      <g style="fill: #555555" transform="translate(38.677813 116.140969) scale(0.1 -0.1)">
       <use xlink:href="#DejaVuSans-30"/>
      </g>
     </g>
    </g>
    <g id="ytick_2">
     <g id="line2d_19">
      <path d="M 52.040313 74.3327 
L 358.940313 74.3327 
" clip-path="url(#p084756aaa4)" style="fill: none; stroke: #ffffff; stroke-width: 0.8; stroke-linecap: square"/>
     </g>
     <g id="line2d_20">
      <g>
       <use xlink:href="#m8bede3af24" x="52.040313" y="74.3327" style="fill: #555555; stroke: #555555; stroke-width: 0.8"/>
      </g>
     </g>
     <g id="text_10">
      <!-- 200 -->
      <g style="fill: #555555" transform="translate(25.952813 78.131919) scale(0.1 -0.1)">
       <use xlink:href="#DejaVuSans-32"/>
       <use xlink:href="#DejaVuSans-30" x="63.623047"/>
       <use xlink:href="#DejaVuSans-30" x="127.246094"/>
      </g>
     </g>
    </g>
    <g id="ytick_3">
     <g id="line2d_21">
      <path d="M 52.040313 36.32365 
L 358.940313 36.32365 
" clip-path="url(#p084756aaa4)" style="fill: none; stroke: #ffffff; stroke-width: 0.8; stroke-linecap: square"/>
     </g>
     <g id="line2d_22">
      <g>
       <use xlink:href="#m8bede3af24" x="52.040313" y="36.32365" style="fill: #555555; stroke: #555555; stroke-width: 0.8"/>
      </g>
     </g>
     <g id="text_11">
      <!-- 400 -->
      <g style="fill: #555555" transform="translate(25.952813 40.122869) scale(0.1 -0.1)">
       <use xlink:href="#DejaVuSans-34"/>
       <use xlink:href="#DejaVuSans-30" x="63.623047"/>
       <use xlink:href="#DejaVuSans-30" x="127.246094"/>
      </g>
     </g>
    </g>
    <g id="text_12">
     <!-- Count -->
     <g style="fill: #555555" transform="translate(19.457188 86.059875) rotate(-90) scale(0.12 -0.12)">
      <defs>
       <path id="DejaVuSans-43" d="M 4122 4306 
L 4122 3641 
Q 3803 3938 3442 4084 
Q 3081 4231 2675 4231 
Q 1875 4231 1450 3742 
Q 1025 3253 1025 2328 
Q 1025 1406 1450 917 
Q 1875 428 2675 428 
Q 3081 428 3442 575 
Q 3803 722 4122 1019 
L 4122 359 
Q 3791 134 3420 21 
Q 3050 -91 2638 -91 
Q 1578 -91 968 557 
Q 359 1206 359 2328 
Q 359 3453 968 4101 
Q 1578 4750 2638 4750 
Q 3056 4750 3426 4639 
Q 3797 4528 4122 4306 
z
" transform="scale(0.015625)"/>
       <path id="DejaVuSans-6f" d="M 1959 3097 
Q 1497 3097 1228 2736 
Q 959 2375 959 1747 
Q 959 1119 1226 758 
Q 1494 397 1959 397 
Q 2419 397 2687 759 
Q 2956 1122 2956 1747 
Q 2956 2369 2687 2733 
Q 2419 3097 1959 3097 
z
M 1959 3584 
Q 2709 3584 3137 3096 
Q 3566 2609 3566 1747 
Q 3566 888 3137 398 
Q 2709 -91 1959 -91 
Q 1206 -91 779 398 
Q 353 888 353 1747 
Q 353 2609 779 3096 
Q 1206 3584 1959 3584 
z
" transform="scale(0.015625)"/>
       <path id="DejaVuSans-75" d="M 544 1381 
L 544 3500 
L 1119 3500 
L 1119 1403 
Q 1119 906 1312 657 
Q 1506 409 1894 409 
Q 2359 409 2629 706 
Q 2900 1003 2900 1516 
L 2900 3500 
L 3475 3500 
L 3475 0 
L 2900 0 
L 2900 538 
Q 2691 219 2414 64 
Q 2138 -91 1772 -91 
Q 1169 -91 856 284 
Q 544 659 544 1381 
z
M 1991 3584 
L 1991 3584 
z
" transform="scale(0.015625)"/>
       <path id="DejaVuSans-6e" d="M 3513 2113 
L 3513 0 
L 2938 0 
L 2938 2094 
Q 2938 2591 2744 2837 
Q 2550 3084 2163 3084 
Q 1697 3084 1428 2787 
Q 1159 2491 1159 1978 
L 1159 0 
L 581 0 
L 581 3500 
L 1159 3500 
L 1159 2956 
Q 1366 3272 1645 3428 
Q 1925 3584 2291 3584 
Q 2894 3584 3203 3211 
Q 3513 2838 3513 2113 
z
" transform="scale(0.015625)"/>
       <path id="DejaVuSans-74" d="M 1172 4494 
L 1172 3500 
L 2356 3500 
L 2356 3053 
L 1172 3053 
L 1172 1153 
Q 1172 725 1289 603 
Q 1406 481 1766 481 
L 2356 481 
L 2356 0 
L 1766 0 
Q 1100 0 847 248 
Q 594 497 594 1153 
L 594 3053 
L 172 3053 
L 172 3500 
L 594 3500 
L 594 4494 
L 1172 4494 
z
" transform="scale(0.015625)"/>
      </defs>
      <use xlink:href="#DejaVuSans-43"/>
      <use xlink:href="#DejaVuSans-6f" x="69.824219"/>
      <use xlink:href="#DejaVuSans-75" x="131.005859"/>
      <use xlink:href="#DejaVuSans-6e" x="194.384766"/>
      <use xlink:href="#DejaVuSans-74" x="257.763672"/>
     </g>
    </g>
   </g>
   <g id="patch_3">
    <path d="M 65.990313 112.34175 
L 89.240313 112.34175 
L 89.240313 97.13813 
L 65.990313 97.13813 
z
" clip-path="url(#p084756aaa4)" style="fill: #e24a33; fill-opacity: 0.5; stroke: #eeeeee; stroke-width: 0.5; stroke-linejoin: miter"/>
   </g>
   <g id="patch_4">
    <path d="M 89.240313 112.34175 
L 112.490313 112.34175 
L 112.490313 106.450347 
L 89.240313 106.450347 
z
" clip-path="url(#p084756aaa4)" style="fill: #e24a33; fill-opacity: 0.5; stroke: #eeeeee; stroke-width: 0.5; stroke-linejoin: miter"/>
   </g>
   <g id="patch_5">
    <path d="M 112.490313 112.34175 
L 135.740313 112.34175 
L 135.740313 109.681117 
L 112.490313 109.681117 
z
" clip-path="url(#p084756aaa4)" style="fill: #e24a33; fill-opacity: 0.5; stroke: #eeeeee; stroke-width: 0.5; stroke-linejoin: miter"/>
   </g>
   <g id="patch_6">
    <path d="M 135.740313 112.34175 
L 158.990313 112.34175 
L 158.990313 110.061207 
L 135.740313 110.061207 
z
" clip-path="url(#p084756aaa4)" style="fill: #e24a33; fill-opacity: 0.5; stroke: #eeeeee; stroke-width: 0.5; stroke-linejoin: miter"/>
   </g>
   <g id="patch_7">
    <path d="M 158.990313 112.34175 
L 182.240313 112.34175 
L 182.240313 109.491071 
L 158.990313 109.491071 
z
" clip-path="url(#p084756aaa4)" style="fill: #e24a33; fill-opacity: 0.5; stroke: #eeeeee; stroke-width: 0.5; stroke-linejoin: miter"/>
   </g>
   <g id="patch_8">
    <path d="M 182.240313 112.34175 
L 205.490313 112.34175 
L 205.490313 109.491071 
L 182.240313 109.491071 
z
" clip-path="url(#p084756aaa4)" style="fill: #e24a33; fill-opacity: 0.5; stroke: #eeeeee; stroke-width: 0.5; stroke-linejoin: miter"/>
   </g>
   <g id="patch_9">
    <path d="M 205.490313 112.34175 
L 228.740313 112.34175 
L 228.740313 107.590619 
L 205.490313 107.590619 
z
" clip-path="url(#p084756aaa4)" style="fill: #e24a33; fill-opacity: 0.5; stroke: #eeeeee; stroke-width: 0.5; stroke-linejoin: miter"/>
   </g>
   <g id="patch_10">
    <path d="M 228.740313 112.34175 
L 251.990313 112.34175 
L 251.990313 107.590619 
L 228.740313 107.590619 
z
" clip-path="url(#p084756aaa4)" style="fill: #e24a33; fill-opacity: 0.5; stroke: #eeeeee; stroke-width: 0.5; stroke-linejoin: miter"/>
   </g>
   <g id="patch_11">
    <path d="M 251.990313 112.34175 
L 275.240313 112.34175 
L 275.240313 99.418673 
L 251.990313 99.418673 
z
" clip-path="url(#p084756aaa4)" style="fill: #e24a33; fill-opacity: 0.5; stroke: #eeeeee; stroke-width: 0.5; stroke-linejoin: miter"/>
   </g>
   <g id="patch_12">
    <path d="M 275.240313 112.34175 
L 298.490313 112.34175 
L 298.490313 106.640393 
L 275.240313 106.640393 
z
" clip-path="url(#p084756aaa4)" style="fill: #e24a33; fill-opacity: 0.5; stroke: #eeeeee; stroke-width: 0.5; stroke-linejoin: miter"/>
   </g>
   <g id="patch_13">
    <path d="M 298.490313 112.34175 
L 321.740313 112.34175 
L 321.740313 98.848537 
L 298.490313 98.848537 
z
" clip-path="url(#p084756aaa4)" style="fill: #e24a33; fill-opacity: 0.5; stroke: #eeeeee; stroke-width: 0.5; stroke-linejoin: miter"/>
   </g>
   <g id="patch_14">
    <path d="M 321.740313 112.34175 
L 344.990313 112.34175 
L 344.990313 28.34175 
L 321.740313 28.34175 
z
" clip-path="url(#p084756aaa4)" style="fill: #e24a33; fill-opacity: 0.5; stroke: #eeeeee; stroke-width: 0.5; stroke-linejoin: miter"/>
   </g>
   <g id="patch_15">
    <path d="M 65.990313 112.34175 
L 89.240313 112.34175 
L 89.240313 99.798764 
L 65.990313 99.798764 
z
" clip-path="url(#p084756aaa4)" style="fill: #348abd; fill-opacity: 0.5; stroke: #eeeeee; stroke-width: 0.5; stroke-linejoin: miter"/>
   </g>
   <g id="patch_16">
    <path d="M 89.240313 112.34175 
L 112.490313 112.34175 
L 112.490313 109.301026 
L 89.240313 109.301026 
z
" clip-path="url(#p084756aaa4)" style="fill: #348abd; fill-opacity: 0.5; stroke: #eeeeee; stroke-width: 0.5; stroke-linejoin: miter"/>
   </g>
   <g id="patch_17">
    <path d="M 112.490313 112.34175 
L 135.740313 112.34175 
L 135.740313 109.871162 
L 112.490313 109.871162 
z
" clip-path="url(#p084756aaa4)" style="fill: #348abd; fill-opacity: 0.5; stroke: #eeeeee; stroke-width: 0.5; stroke-linejoin: miter"/>
   </g>
   <g id="patch_18">
    <path d="M 135.740313 112.34175 
L 158.990313 112.34175 
L 158.990313 110.441298 
L 135.740313 110.441298 
z
" clip-path="url(#p084756aaa4)" style="fill: #348abd; fill-opacity: 0.5; stroke: #eeeeee; stroke-width: 0.5; stroke-linejoin: miter"/>
   </g>
   <g id="patch_19">
    <path d="M 158.990313 112.34175 
L 182.240313 112.34175 
L 182.240313 109.681117 
L 158.990313 109.681117 
z
" clip-path="url(#p084756aaa4)" style="fill: #348abd; fill-opacity: 0.5; stroke: #eeeeee; stroke-width: 0.5; stroke-linejoin: miter"/>
   </g>
   <g id="patch_20">
    <path d="M 182.240313 112.34175 
L 205.490313 112.34175 
L 205.490313 110.061207 
L 182.240313 110.061207 
z
" clip-path="url(#p084756aaa4)" style="fill: #348abd; fill-opacity: 0.5; stroke: #eeeeee; stroke-width: 0.5; stroke-linejoin: miter"/>
   </g>
   <g id="patch_21">
    <path d="M 205.490313 112.34175 
L 228.740313 112.34175 
L 228.740313 108.160755 
L 205.490313 108.160755 
z
" clip-path="url(#p084756aaa4)" style="fill: #348abd; fill-opacity: 0.5; stroke: #eeeeee; stroke-width: 0.5; stroke-linejoin: miter"/>
   </g>
   <g id="patch_22">
    <path d="M 228.740313 112.34175 
L 251.990313 112.34175 
L 251.990313 108.73089 
L 228.740313 108.73089 
z
" clip-path="url(#p084756aaa4)" style="fill: #348abd; fill-opacity: 0.5; stroke: #eeeeee; stroke-width: 0.5; stroke-linejoin: miter"/>
   </g>
   <g id="patch_23">
    <path d="M 251.990313 112.34175 
L 275.240313 112.34175 
L 275.240313 101.699216 
L 251.990313 101.699216 
z
" clip-path="url(#p084756aaa4)" style="fill: #348abd; fill-opacity: 0.5; stroke: #eeeeee; stroke-width: 0.5; stroke-linejoin: miter"/>
   </g>
   <g id="patch_24">
    <path d="M 275.240313 112.34175 
L 298.490313 112.34175 
L 298.490313 107.400574 
L 275.240313 107.400574 
z
" clip-path="url(#p084756aaa4)" style="fill: #348abd; fill-opacity: 0.5; stroke: #eeeeee; stroke-width: 0.5; stroke-linejoin: miter"/>
   </g>
   <g id="patch_25">
    <path d="M 298.490313 112.34175 
L 321.740313 112.34175 
L 321.740313 103.979759 
L 298.490313 103.979759 
z
" clip-path="url(#p084756aaa4)" style="fill: #348abd; fill-opacity: 0.5; stroke: #eeeeee; stroke-width: 0.5; stroke-linejoin: miter"/>
   </g>
   <g id="patch_26">
    <path d="M 321.740313 112.34175 
L 344.990313 112.34175 
L 344.990313 55.13813 
L 321.740313 55.13813 
z
" clip-path="url(#p084756aaa4)" style="fill: #348abd; fill-opacity: 0.5; stroke: #eeeeee; stroke-width: 0.5; stroke-linejoin: miter"/>
   </g>
   <g id="line2d_23">
    <path d="M 65.990313 105.926656 
L 71.598353 105.666157 
L 77.206393 105.626694 
L 84.216443 105.839758 
L 92.628503 106.347004 
L 124.874735 108.526676 
L 138.894835 109.185198 
L 151.512926 109.55078 
L 162.729006 109.649535 
L 173.945086 109.522309 
L 185.161167 109.175212 
L 196.377247 108.621047 
L 210.397348 107.682993 
L 255.261669 104.423208 
L 267.87976 103.534 
L 274.88981 102.795016 
L 280.49785 101.942939 
L 284.70388 101.089581 
L 288.90991 100.00928 
L 293.115941 98.669741 
L 297.321971 97.050928 
L 301.528001 95.151623 
L 305.734031 92.995965 
L 311.342071 89.822733 
L 321.156142 84.142653 
L 325.362172 82.030635 
L 328.166192 80.850294 
L 330.970212 79.906289 
L 333.774232 79.239571 
L 336.578252 78.883509 
L 339.382272 78.861755 
L 342.186292 79.186595 
L 344.990313 79.85795 
L 344.990313 79.85795 
" clip-path="url(#p084756aaa4)" style="fill: none; stroke: #e24a33; stroke-width: 1.5; stroke-linecap: square"/>
   </g>
   <g id="line2d_24">
    <path d="M 65.990313 107.528796 
L 73.000363 107.374166 
L 80.010413 107.450667 
L 88.422473 107.776939 
L 124.874735 109.543445 
L 138.894835 109.857499 
L 154.316946 109.993424 
L 169.739056 109.899527 
L 183.759157 109.585296 
L 197.779257 109.044688 
L 214.603378 108.152193 
L 251.055639 106.133166 
L 269.28177 105.164727 
L 276.29182 104.596492 
L 281.89986 103.968915 
L 287.5079 103.133153 
L 293.115941 102.049641 
L 298.723981 100.701922 
L 304.332021 99.109895 
L 312.744081 96.424305 
L 321.156142 93.787351 
L 325.362172 92.676467 
L 329.568202 91.812496 
L 332.372222 91.410241 
L 335.176242 91.168207 
L 337.980262 91.099925 
L 340.784282 91.213898 
L 343.588302 91.51307 
L 344.990313 91.731436 
L 344.990313 91.731436 
" clip-path="url(#p084756aaa4)" style="fill: none; stroke: #348abd; stroke-width: 1.5; stroke-linecap: square"/>
   </g>
   <g id="patch_27">
    <path d="M 52.040313 112.34175 
L 52.040313 24.14175 
" style="fill: none; stroke: #ffffff; stroke-linejoin: miter; stroke-linecap: square"/>
   </g>
   <g id="patch_28">
    <path d="M 358.940313 112.34175 
L 358.940313 24.14175 
" style="fill: none; stroke: #ffffff; stroke-linejoin: miter; stroke-linecap: square"/>
   </g>
   <g id="patch_29">
    <path d="M 52.040313 112.34175 
L 358.940313 112.34175 
" style="fill: none; stroke: #ffffff; stroke-linejoin: miter; stroke-linecap: square"/>
   </g>
   <g id="patch_30">
    <path d="M 52.040313 24.14175 
L 358.940313 24.14175 
" style="fill: none; stroke: #ffffff; stroke-linejoin: miter; stroke-linecap: square"/>
   </g>
   <g id="text_13">
    <!-- Completenes of Types for HECATE -->
    <g transform="translate(83.460438 18.14175) scale(0.144 -0.144)">
     <defs>
      <path id="DejaVuSans-6d" d="M 3328 2828 
Q 3544 3216 3844 3400 
Q 4144 3584 4550 3584 
Q 5097 3584 5394 3201 
Q 5691 2819 5691 2113 
L 5691 0 
L 5113 0 
L 5113 2094 
Q 5113 2597 4934 2840 
Q 4756 3084 4391 3084 
Q 3944 3084 3684 2787 
Q 3425 2491 3425 1978 
L 3425 0 
L 2847 0 
L 2847 2094 
Q 2847 2600 2669 2842 
Q 2491 3084 2119 3084 
Q 1678 3084 1418 2786 
Q 1159 2488 1159 1978 
L 1159 0 
L 581 0 
L 581 3500 
L 1159 3500 
L 1159 2956 
Q 1356 3278 1631 3431 
Q 1906 3584 2284 3584 
Q 2666 3584 2933 3390 
Q 3200 3197 3328 2828 
z
" transform="scale(0.015625)"/>
      <path id="DejaVuSans-70" d="M 1159 525 
L 1159 -1331 
L 581 -1331 
L 581 3500 
L 1159 3500 
L 1159 2969 
Q 1341 3281 1617 3432 
Q 1894 3584 2278 3584 
Q 2916 3584 3314 3078 
Q 3713 2572 3713 1747 
Q 3713 922 3314 415 
Q 2916 -91 2278 -91 
Q 1894 -91 1617 61 
Q 1341 213 1159 525 
z
M 3116 1747 
Q 3116 2381 2855 2742 
Q 2594 3103 2138 3103 
Q 1681 3103 1420 2742 
Q 1159 2381 1159 1747 
Q 1159 1113 1420 752 
Q 1681 391 2138 391 
Q 2594 391 2855 752 
Q 3116 1113 3116 1747 
z
" transform="scale(0.015625)"/>
      <path id="DejaVuSans-6c" d="M 603 4863 
L 1178 4863 
L 1178 0 
L 603 0 
L 603 4863 
z
" transform="scale(0.015625)"/>
      <path id="DejaVuSans-65" d="M 3597 1894 
L 3597 1613 
L 953 1613 
Q 991 1019 1311 708 
Q 1631 397 2203 397 
Q 2534 397 2845 478 
Q 3156 559 3463 722 
L 3463 178 
Q 3153 47 2828 -22 
Q 2503 -91 2169 -91 
Q 1331 -91 842 396 
Q 353 884 353 1716 
Q 353 2575 817 3079 
Q 1281 3584 2069 3584 
Q 2775 3584 3186 3129 
Q 3597 2675 3597 1894 
z
M 3022 2063 
Q 3016 2534 2758 2815 
Q 2500 3097 2075 3097 
Q 1594 3097 1305 2825 
Q 1016 2553 972 2059 
L 3022 2063 
z
" transform="scale(0.015625)"/>
      <path id="DejaVuSans-73" d="M 2834 3397 
L 2834 2853 
Q 2591 2978 2328 3040 
Q 2066 3103 1784 3103 
Q 1356 3103 1142 2972 
Q 928 2841 928 2578 
Q 928 2378 1081 2264 
Q 1234 2150 1697 2047 
L 1894 2003 
Q 2506 1872 2764 1633 
Q 3022 1394 3022 966 
Q 3022 478 2636 193 
Q 2250 -91 1575 -91 
Q 1294 -91 989 -36 
Q 684 19 347 128 
L 347 722 
Q 666 556 975 473 
Q 1284 391 1588 391 
Q 1994 391 2212 530 
Q 2431 669 2431 922 
Q 2431 1156 2273 1281 
Q 2116 1406 1581 1522 
L 1381 1569 
Q 847 1681 609 1914 
Q 372 2147 372 2553 
Q 372 3047 722 3315 
Q 1072 3584 1716 3584 
Q 2034 3584 2315 3537 
Q 2597 3491 2834 3397 
z
" transform="scale(0.015625)"/>
      <path id="DejaVuSans-20" transform="scale(0.015625)"/>
      <path id="DejaVuSans-66" d="M 2375 4863 
L 2375 4384 
L 1825 4384 
Q 1516 4384 1395 4259 
Q 1275 4134 1275 3809 
L 1275 3500 
L 2222 3500 
L 2222 3053 
L 1275 3053 
L 1275 0 
L 697 0 
L 697 3053 
L 147 3053 
L 147 3500 
L 697 3500 
L 697 3744 
Q 697 4328 969 4595 
Q 1241 4863 1831 4863 
L 2375 4863 
z
" transform="scale(0.015625)"/>
      <path id="DejaVuSans-54" d="M -19 4666 
L 3928 4666 
L 3928 4134 
L 2272 4134 
L 2272 0 
L 1638 0 
L 1638 4134 
L -19 4134 
L -19 4666 
z
" transform="scale(0.015625)"/>
      <path id="DejaVuSans-79" d="M 2059 -325 
Q 1816 -950 1584 -1140 
Q 1353 -1331 966 -1331 
L 506 -1331 
L 506 -850 
L 844 -850 
Q 1081 -850 1212 -737 
Q 1344 -625 1503 -206 
L 1606 56 
L 191 3500 
L 800 3500 
L 1894 763 
L 2988 3500 
L 3597 3500 
L 2059 -325 
z
" transform="scale(0.015625)"/>
      <path id="DejaVuSans-72" d="M 2631 2963 
Q 2534 3019 2420 3045 
Q 2306 3072 2169 3072 
Q 1681 3072 1420 2755 
Q 1159 2438 1159 1844 
L 1159 0 
L 581 0 
L 581 3500 
L 1159 3500 
L 1159 2956 
Q 1341 3275 1631 3429 
Q 1922 3584 2338 3584 
Q 2397 3584 2469 3576 
Q 2541 3569 2628 3553 
L 2631 2963 
z
" transform="scale(0.015625)"/>
      <path id="DejaVuSans-48" d="M 628 4666 
L 1259 4666 
L 1259 2753 
L 3553 2753 
L 3553 4666 
L 4184 4666 
L 4184 0 
L 3553 0 
L 3553 2222 
L 1259 2222 
L 1259 0 
L 628 0 
L 628 4666 
z
" transform="scale(0.015625)"/>
      <path id="DejaVuSans-45" d="M 628 4666 
L 3578 4666 
L 3578 4134 
L 1259 4134 
L 1259 2753 
L 3481 2753 
L 3481 2222 
L 1259 2222 
L 1259 531 
L 3634 531 
L 3634 0 
L 628 0 
L 628 4666 
z
" transform="scale(0.015625)"/>
      <path id="DejaVuSans-41" d="M 2188 4044 
L 1331 1722 
L 3047 1722 
L 2188 4044 
z
M 1831 4666 
L 2547 4666 
L 4325 0 
L 3669 0 
L 3244 1197 
L 1141 1197 
L 716 0 
L 50 0 
L 1831 4666 
z
" transform="scale(0.015625)"/>
     </defs>
     <use xlink:href="#DejaVuSans-43"/>
     <use xlink:href="#DejaVuSans-6f" x="69.824219"/>
     <use xlink:href="#DejaVuSans-6d" x="131.005859"/>
     <use xlink:href="#DejaVuSans-70" x="228.417969"/>
     <use xlink:href="#DejaVuSans-6c" x="291.894531"/>
     <use xlink:href="#DejaVuSans-65" x="319.677734"/>
     <use xlink:href="#DejaVuSans-74" x="381.201172"/>
     <use xlink:href="#DejaVuSans-65" x="420.410156"/>
     <use xlink:href="#DejaVuSans-6e" x="481.933594"/>
     <use xlink:href="#DejaVuSans-65" x="545.3125"/>
     <use xlink:href="#DejaVuSans-73" x="606.835938"/>
     <use xlink:href="#DejaVuSans-20" x="658.935547"/>
     <use xlink:href="#DejaVuSans-6f" x="690.722656"/>
     <use xlink:href="#DejaVuSans-66" x="751.904297"/>
     <use xlink:href="#DejaVuSans-20" x="787.109375"/>
     <use xlink:href="#DejaVuSans-54" x="818.896484"/>
     <use xlink:href="#DejaVuSans-79" x="864.355469"/>
     <use xlink:href="#DejaVuSans-70" x="923.535156"/>
     <use xlink:href="#DejaVuSans-65" x="987.011719"/>
     <use xlink:href="#DejaVuSans-73" x="1048.535156"/>
     <use xlink:href="#DejaVuSans-20" x="1100.634766"/>
     <use xlink:href="#DejaVuSans-66" x="1132.421875"/>
     <use xlink:href="#DejaVuSans-6f" x="1167.626953"/>
     <use xlink:href="#DejaVuSans-72" x="1228.808594"/>
     <use xlink:href="#DejaVuSans-20" x="1269.921875"/>
     <use xlink:href="#DejaVuSans-48" x="1301.708984"/>
     <use xlink:href="#DejaVuSans-45" x="1376.904297"/>
     <use xlink:href="#DejaVuSans-43" x="1440.087891"/>
     <use xlink:href="#DejaVuSans-41" x="1509.912109"/>
     <use xlink:href="#DejaVuSans-54" x="1570.570312"/>
     <use xlink:href="#DejaVuSans-45" x="1631.654297"/>
    </g>
   </g>
   <g id="legend_1">
    <g id="patch_31">
     <path d="M 59.040313 61.498 
L 185.734063 61.498 
Q 187.734063 61.498 187.734063 59.498 
L 187.734063 31.14175 
Q 187.734063 29.14175 185.734063 29.14175 
L 59.040313 29.14175 
Q 57.040313 29.14175 57.040313 31.14175 
L 57.040313 59.498 
Q 57.040313 61.498 59.040313 61.498 
z
" style="fill: #e5e5e5; opacity: 0.8; stroke: #cccccc; stroke-width: 0.5; stroke-linejoin: miter"/>
    </g>
    <g id="patch_32">
     <path d="M 61.040313 40.740187 
L 81.040312 40.740187 
L 81.040312 33.740187 
L 61.040313 33.740187 
z
" style="fill: #e24a33; fill-opacity: 0.5; stroke: #eeeeee; stroke-width: 0.5; stroke-linejoin: miter"/>
    </g>
    <g id="text_14">
     <!-- HECATE -->
     <g transform="translate(89.040312 40.740187) scale(0.1 -0.1)">
      <use xlink:href="#DejaVuSans-48"/>
      <use xlink:href="#DejaVuSans-45" x="75.195312"/>
      <use xlink:href="#DejaVuSans-43" x="138.378906"/>
      <use xlink:href="#DejaVuSans-41" x="208.203125"/>
      <use xlink:href="#DejaVuSans-54" x="268.861328"/>
      <use xlink:href="#DejaVuSans-45" x="329.945312"/>
     </g>
    </g>
    <g id="patch_33">
     <path d="M 61.040313 55.418312 
L 81.040312 55.418312 
L 81.040312 48.418312 
L 61.040313 48.418312 
z
" style="fill: #348abd; fill-opacity: 0.5; stroke: #eeeeee; stroke-width: 0.5; stroke-linejoin: miter"/>
    </g>
    <g id="text_15">
     <!-- Unique for HECATE -->
     <g transform="translate(89.040312 55.418312) scale(0.1 -0.1)">
      <defs>
       <path id="DejaVuSans-55" d="M 556 4666 
L 1191 4666 
L 1191 1831 
Q 1191 1081 1462 751 
Q 1734 422 2344 422 
Q 2950 422 3222 751 
Q 3494 1081 3494 1831 
L 3494 4666 
L 4128 4666 
L 4128 1753 
Q 4128 841 3676 375 
Q 3225 -91 2344 -91 
Q 1459 -91 1007 375 
Q 556 841 556 1753 
L 556 4666 
z
" transform="scale(0.015625)"/>
       <path id="DejaVuSans-69" d="M 603 3500 
L 1178 3500 
L 1178 0 
L 603 0 
L 603 3500 
z
M 603 4863 
L 1178 4863 
L 1178 4134 
L 603 4134 
L 603 4863 
z
" transform="scale(0.015625)"/>
       <path id="DejaVuSans-71" d="M 947 1747 
Q 947 1113 1208 752 
Q 1469 391 1925 391 
Q 2381 391 2643 752 
Q 2906 1113 2906 1747 
Q 2906 2381 2643 2742 
Q 2381 3103 1925 3103 
Q 1469 3103 1208 2742 
Q 947 2381 947 1747 
z
M 2906 525 
Q 2725 213 2448 61 
Q 2172 -91 1784 -91 
Q 1150 -91 751 415 
Q 353 922 353 1747 
Q 353 2572 751 3078 
Q 1150 3584 1784 3584 
Q 2172 3584 2448 3432 
Q 2725 3281 2906 2969 
L 2906 3500 
L 3481 3500 
L 3481 -1331 
L 2906 -1331 
L 2906 525 
z
" transform="scale(0.015625)"/>
      </defs>
      <use xlink:href="#DejaVuSans-55"/>
      <use xlink:href="#DejaVuSans-6e" x="73.193359"/>
      <use xlink:href="#DejaVuSans-69" x="136.572266"/>
      <use xlink:href="#DejaVuSans-71" x="164.355469"/>
      <use xlink:href="#DejaVuSans-75" x="227.832031"/>
      <use xlink:href="#DejaVuSans-65" x="291.210938"/>
      <use xlink:href="#DejaVuSans-20" x="352.734375"/>
      <use xlink:href="#DejaVuSans-66" x="384.521484"/>
      <use xlink:href="#DejaVuSans-6f" x="419.726562"/>
      <use xlink:href="#DejaVuSans-72" x="480.908203"/>
      <use xlink:href="#DejaVuSans-20" x="522.021484"/>
      <use xlink:href="#DejaVuSans-48" x="553.808594"/>
      <use xlink:href="#DejaVuSans-45" x="629.003906"/>
      <use xlink:href="#DejaVuSans-43" x="692.1875"/>
      <use xlink:href="#DejaVuSans-41" x="762.011719"/>
      <use xlink:href="#DejaVuSans-54" x="822.669922"/>
      <use xlink:href="#DejaVuSans-45" x="883.753906"/>
     </g>
    </g>
   </g>
  </g>
  <g id="axes_2">
   <g id="patch_34">
    <path d="M 52.040313 218.18175 
L 358.940313 218.18175 
L 358.940313 129.98175 
L 52.040313 129.98175 
z
" style="fill: #e5e5e5"/>
   </g>
   <g id="matplotlib.axis_3">
    <g id="xtick_9">
     <g id="line2d_25">
      <path d="M 84.590313 218.18175 
L 84.590313 129.98175 
" clip-path="url(#p028d57cfda)" style="fill: none; stroke: #ffffff; stroke-width: 0.8; stroke-linecap: square"/>
     </g>
     <g id="line2d_26">
      <g>
       <use xlink:href="#m200c4175aa" x="84.590313" y="218.18175" style="fill: #555555; stroke: #555555; stroke-width: 0.8"/>
      </g>
     </g>
     <g id="text_16">
      <!-- −4 -->
      <g style="fill: #555555" transform="translate(77.219219 232.780188) scale(0.1 -0.1)">
       <use xlink:href="#DejaVuSans-2212"/>
       <use xlink:href="#DejaVuSans-34" x="83.789062"/>
      </g>
     </g>
    </g>
    <g id="xtick_10">
     <g id="line2d_27">
      <path d="M 121.790313 218.18175 
L 121.790313 129.98175 
" clip-path="url(#p028d57cfda)" style="fill: none; stroke: #ffffff; stroke-width: 0.8; stroke-linecap: square"/>
     </g>
     <g id="line2d_28">
      <g>
       <use xlink:href="#m200c4175aa" x="121.790313" y="218.18175" style="fill: #555555; stroke: #555555; stroke-width: 0.8"/>
      </g>
     </g>
     <g id="text_17">
      <!-- −2 -->
      <g style="fill: #555555" transform="translate(114.419219 232.780188) scale(0.1 -0.1)">
       <use xlink:href="#DejaVuSans-2212"/>
       <use xlink:href="#DejaVuSans-32" x="83.789062"/>
      </g>
     </g>
    </g>
    <g id="xtick_11">
     <g id="line2d_29">
      <path d="M 158.990313 218.18175 
L 158.990313 129.98175 
" clip-path="url(#p028d57cfda)" style="fill: none; stroke: #ffffff; stroke-width: 0.8; stroke-linecap: square"/>
     </g>
     <g id="line2d_30">
      <g>
       <use xlink:href="#m200c4175aa" x="158.990313" y="218.18175" style="fill: #555555; stroke: #555555; stroke-width: 0.8"/>
      </g>
     </g>
     <g id="text_18">
      <!-- 0 -->
      <g style="fill: #555555" transform="translate(155.809063 232.780188) scale(0.1 -0.1)">
       <use xlink:href="#DejaVuSans-30"/>
      </g>
     </g>
    </g>
    <g id="xtick_12">
     <g id="line2d_31">
      <path d="M 196.190313 218.18175 
L 196.190313 129.98175 
" clip-path="url(#p028d57cfda)" style="fill: none; stroke: #ffffff; stroke-width: 0.8; stroke-linecap: square"/>
     </g>
     <g id="line2d_32">
      <g>
       <use xlink:href="#m200c4175aa" x="196.190313" y="218.18175" style="fill: #555555; stroke: #555555; stroke-width: 0.8"/>
      </g>
     </g>
     <g id="text_19">
      <!-- 2 -->
      <g style="fill: #555555" transform="translate(193.009062 232.780188) scale(0.1 -0.1)">
       <use xlink:href="#DejaVuSans-32"/>
      </g>
     </g>
    </g>
    <g id="xtick_13">
     <g id="line2d_33">
      <path d="M 233.390313 218.18175 
L 233.390313 129.98175 
" clip-path="url(#p028d57cfda)" style="fill: none; stroke: #ffffff; stroke-width: 0.8; stroke-linecap: square"/>
     </g>
     <g id="line2d_34">
      <g>
       <use xlink:href="#m200c4175aa" x="233.390313" y="218.18175" style="fill: #555555; stroke: #555555; stroke-width: 0.8"/>
      </g>
     </g>
     <g id="text_20">
      <!-- 4 -->
      <g style="fill: #555555" transform="translate(230.209063 232.780188) scale(0.1 -0.1)">
       <use xlink:href="#DejaVuSans-34"/>
      </g>
     </g>
    </g>
    <g id="xtick_14">
     <g id="line2d_35">
      <path d="M 270.590313 218.18175 
L 270.590313 129.98175 
" clip-path="url(#p028d57cfda)" style="fill: none; stroke: #ffffff; stroke-width: 0.8; stroke-linecap: square"/>
     </g>
     <g id="line2d_36">
      <g>
       <use xlink:href="#m200c4175aa" x="270.590313" y="218.18175" style="fill: #555555; stroke: #555555; stroke-width: 0.8"/>
      </g>
     </g>
     <g id="text_21">
      <!-- 6 -->
      <g style="fill: #555555" transform="translate(267.409063 232.780188) scale(0.1 -0.1)">
       <use xlink:href="#DejaVuSans-36"/>
      </g>
     </g>
    </g>
    <g id="xtick_15">
     <g id="line2d_37">
      <path d="M 307.790313 218.18175 
L 307.790313 129.98175 
" clip-path="url(#p028d57cfda)" style="fill: none; stroke: #ffffff; stroke-width: 0.8; stroke-linecap: square"/>
     </g>
     <g id="line2d_38">
      <g>
       <use xlink:href="#m200c4175aa" x="307.790313" y="218.18175" style="fill: #555555; stroke: #555555; stroke-width: 0.8"/>
      </g>
     </g>
     <g id="text_22">
      <!-- 8 -->
      <g style="fill: #555555" transform="translate(304.609063 232.780188) scale(0.1 -0.1)">
       <use xlink:href="#DejaVuSans-38"/>
      </g>
     </g>
    </g>
    <g id="xtick_16">
     <g id="line2d_39">
      <path d="M 344.990313 218.18175 
L 344.990313 129.98175 
" clip-path="url(#p028d57cfda)" style="fill: none; stroke: #ffffff; stroke-width: 0.8; stroke-linecap: square"/>
     </g>
     <g id="line2d_40">
      <g>
       <use xlink:href="#m200c4175aa" x="344.990313" y="218.18175" style="fill: #555555; stroke: #555555; stroke-width: 0.8"/>
      </g>
     </g>
     <g id="text_23">
      <!-- 10 -->
      <g style="fill: #555555" transform="translate(338.627813 232.780188) scale(0.1 -0.1)">
       <use xlink:href="#DejaVuSans-31"/>
       <use xlink:href="#DejaVuSans-30" x="63.623047"/>
      </g>
     </g>
    </g>
    <g id="text_24">
     <!-- Types of galaxies -->
     <g style="fill: #555555" transform="translate(154.122813 247.978) scale(0.12 -0.12)">
      <defs>
       <path id="DejaVuSans-67" d="M 2906 1791 
Q 2906 2416 2648 2759 
Q 2391 3103 1925 3103 
Q 1463 3103 1205 2759 
Q 947 2416 947 1791 
Q 947 1169 1205 825 
Q 1463 481 1925 481 
Q 2391 481 2648 825 
Q 2906 1169 2906 1791 
z
M 3481 434 
Q 3481 -459 3084 -895 
Q 2688 -1331 1869 -1331 
Q 1566 -1331 1297 -1286 
Q 1028 -1241 775 -1147 
L 775 -588 
Q 1028 -725 1275 -790 
Q 1522 -856 1778 -856 
Q 2344 -856 2625 -561 
Q 2906 -266 2906 331 
L 2906 616 
Q 2728 306 2450 153 
Q 2172 0 1784 0 
Q 1141 0 747 490 
Q 353 981 353 1791 
Q 353 2603 747 3093 
Q 1141 3584 1784 3584 
Q 2172 3584 2450 3431 
Q 2728 3278 2906 2969 
L 2906 3500 
L 3481 3500 
L 3481 434 
z
" transform="scale(0.015625)"/>
       <path id="DejaVuSans-61" d="M 2194 1759 
Q 1497 1759 1228 1600 
Q 959 1441 959 1056 
Q 959 750 1161 570 
Q 1363 391 1709 391 
Q 2188 391 2477 730 
Q 2766 1069 2766 1631 
L 2766 1759 
L 2194 1759 
z
M 3341 1997 
L 3341 0 
L 2766 0 
L 2766 531 
Q 2569 213 2275 61 
Q 1981 -91 1556 -91 
Q 1019 -91 701 211 
Q 384 513 384 1019 
Q 384 1609 779 1909 
Q 1175 2209 1959 2209 
L 2766 2209 
L 2766 2266 
Q 2766 2663 2505 2880 
Q 2244 3097 1772 3097 
Q 1472 3097 1187 3025 
Q 903 2953 641 2809 
L 641 3341 
Q 956 3463 1253 3523 
Q 1550 3584 1831 3584 
Q 2591 3584 2966 3190 
Q 3341 2797 3341 1997 
z
" transform="scale(0.015625)"/>
       <path id="DejaVuSans-78" d="M 3513 3500 
L 2247 1797 
L 3578 0 
L 2900 0 
L 1881 1375 
L 863 0 
L 184 0 
L 1544 1831 
L 300 3500 
L 978 3500 
L 1906 2253 
L 2834 3500 
L 3513 3500 
z
" transform="scale(0.015625)"/>
      </defs>
      <use xlink:href="#DejaVuSans-54"/>
      <use xlink:href="#DejaVuSans-79" x="45.458984"/>
      <use xlink:href="#DejaVuSans-70" x="104.638672"/>
      <use xlink:href="#DejaVuSans-65" x="168.115234"/>
      <use xlink:href="#DejaVuSans-73" x="229.638672"/>
      <use xlink:href="#DejaVuSans-20" x="281.738281"/>
      <use xlink:href="#DejaVuSans-6f" x="313.525391"/>
      <use xlink:href="#DejaVuSans-66" x="374.707031"/>
      <use xlink:href="#DejaVuSans-20" x="409.912109"/>
      <use xlink:href="#DejaVuSans-67" x="441.699219"/>
      <use xlink:href="#DejaVuSans-61" x="505.175781"/>
      <use xlink:href="#DejaVuSans-6c" x="566.455078"/>
      <use xlink:href="#DejaVuSans-61" x="594.238281"/>
      <use xlink:href="#DejaVuSans-78" x="655.517578"/>
      <use xlink:href="#DejaVuSans-69" x="714.697266"/>
      <use xlink:href="#DejaVuSans-65" x="742.480469"/>
      <use xlink:href="#DejaVuSans-73" x="804.003906"/>
     </g>
    </g>
   </g>
   <g id="matplotlib.axis_4">
    <g id="ytick_4">
     <g id="line2d_41">
      <path d="M 52.040313 214.172659 
L 358.940313 214.172659 
" clip-path="url(#p028d57cfda)" style="fill: none; stroke: #ffffff; stroke-width: 0.8; stroke-linecap: square"/>
     </g>
     <g id="line2d_42">
      <g>
       <use xlink:href="#m8bede3af24" x="52.040313" y="214.172659" style="fill: #555555; stroke: #555555; stroke-width: 0.8"/>
      </g>
     </g>
     <g id="text_25">
      <!-- 52% -->
      <g style="fill: #555555" transform="translate(22.81375 217.971878) scale(0.1 -0.1)">
       <defs>
        <path id="DejaVuSans-35" d="M 691 4666 
L 3169 4666 
L 3169 4134 
L 1269 4134 
L 1269 2991 
Q 1406 3038 1543 3061 
Q 1681 3084 1819 3084 
Q 2600 3084 3056 2656 
Q 3513 2228 3513 1497 
Q 3513 744 3044 326 
Q 2575 -91 1722 -91 
Q 1428 -91 1123 -41 
Q 819 9 494 109 
L 494 744 
Q 775 591 1075 516 
Q 1375 441 1709 441 
Q 2250 441 2565 725 
Q 2881 1009 2881 1497 
Q 2881 1984 2565 2268 
Q 2250 2553 1709 2553 
Q 1456 2553 1204 2497 
Q 953 2441 691 2322 
L 691 4666 
z
" transform="scale(0.015625)"/>
        <path id="DejaVuSans-25" d="M 4653 2053 
Q 4381 2053 4226 1822 
Q 4072 1591 4072 1178 
Q 4072 772 4226 539 
Q 4381 306 4653 306 
Q 4919 306 5073 539 
Q 5228 772 5228 1178 
Q 5228 1588 5073 1820 
Q 4919 2053 4653 2053 
z
M 4653 2450 
Q 5147 2450 5437 2106 
Q 5728 1763 5728 1178 
Q 5728 594 5436 251 
Q 5144 -91 4653 -91 
Q 4153 -91 3862 251 
Q 3572 594 3572 1178 
Q 3572 1766 3864 2108 
Q 4156 2450 4653 2450 
z
M 1428 4353 
Q 1159 4353 1004 4120 
Q 850 3888 850 3481 
Q 850 3069 1003 2837 
Q 1156 2606 1428 2606 
Q 1700 2606 1854 2837 
Q 2009 3069 2009 3481 
Q 2009 3884 1853 4118 
Q 1697 4353 1428 4353 
z
M 4250 4750 
L 4750 4750 
L 1831 -91 
L 1331 -91 
L 4250 4750 
z
M 1428 4750 
Q 1922 4750 2215 4408 
Q 2509 4066 2509 3481 
Q 2509 2891 2217 2550 
Q 1925 2209 1428 2209 
Q 931 2209 642 2551 
Q 353 2894 353 3481 
Q 353 4063 643 4406 
Q 934 4750 1428 4750 
z
" transform="scale(0.015625)"/>
       </defs>
       <use xlink:href="#DejaVuSans-35"/>
       <use xlink:href="#DejaVuSans-32" x="63.623047"/>
       <use xlink:href="#DejaVuSans-25" x="127.246094"/>
      </g>
     </g>
    </g>
    <g id="ytick_5">
     <g id="line2d_43">
      <path d="M 52.040313 204.56324 
L 358.940313 204.56324 
" clip-path="url(#p028d57cfda)" style="fill: none; stroke: #ffffff; stroke-width: 0.8; stroke-linecap: square"/>
     </g>
     <g id="line2d_44">
      <g>
       <use xlink:href="#m8bede3af24" x="52.040313" y="204.56324" style="fill: #555555; stroke: #555555; stroke-width: 0.8"/>
      </g>
     </g>
     <g id="text_26">
      <!-- 57% -->
      <g style="fill: #555555" transform="translate(22.81375 208.362459) scale(0.1 -0.1)">
       <defs>
        <path id="DejaVuSans-37" d="M 525 4666 
L 3525 4666 
L 3525 4397 
L 1831 0 
L 1172 0 
L 2766 4134 
L 525 4134 
L 525 4666 
z
" transform="scale(0.015625)"/>
       </defs>
       <use xlink:href="#DejaVuSans-35"/>
       <use xlink:href="#DejaVuSans-37" x="63.623047"/>
       <use xlink:href="#DejaVuSans-25" x="127.246094"/>
      </g>
     </g>
    </g>
    <g id="ytick_6">
     <g id="line2d_45">
      <path d="M 52.040313 194.953821 
L 358.940313 194.953821 
" clip-path="url(#p028d57cfda)" style="fill: none; stroke: #ffffff; stroke-width: 0.8; stroke-linecap: square"/>
     </g>
     <g id="line2d_46">
      <g>
       <use xlink:href="#m8bede3af24" x="52.040313" y="194.953821" style="fill: #555555; stroke: #555555; stroke-width: 0.8"/>
      </g>
     </g>
     <g id="text_27">
      <!-- 62% -->
      <g style="fill: #555555" transform="translate(22.81375 198.75304) scale(0.1 -0.1)">
       <use xlink:href="#DejaVuSans-36"/>
       <use xlink:href="#DejaVuSans-32" x="63.623047"/>
       <use xlink:href="#DejaVuSans-25" x="127.246094"/>
      </g>
     </g>
    </g>
    <g id="ytick_7">
     <g id="line2d_47">
      <path d="M 52.040313 185.344402 
L 358.940313 185.344402 
" clip-path="url(#p028d57cfda)" style="fill: none; stroke: #ffffff; stroke-width: 0.8; stroke-linecap: square"/>
     </g>
     <g id="line2d_48">
      <g>
       <use xlink:href="#m8bede3af24" x="52.040313" y="185.344402" style="fill: #555555; stroke: #555555; stroke-width: 0.8"/>
      </g>
     </g>
     <g id="text_28">
      <!-- 67% -->
      <g style="fill: #555555" transform="translate(22.81375 189.143621) scale(0.1 -0.1)">
       <use xlink:href="#DejaVuSans-36"/>
       <use xlink:href="#DejaVuSans-37" x="63.623047"/>
       <use xlink:href="#DejaVuSans-25" x="127.246094"/>
      </g>
     </g>
    </g>
    <g id="ytick_8">
     <g id="line2d_49">
      <path d="M 52.040313 175.734983 
L 358.940313 175.734983 
" clip-path="url(#p028d57cfda)" style="fill: none; stroke: #ffffff; stroke-width: 0.8; stroke-linecap: square"/>
     </g>
     <g id="line2d_50">
      <g>
       <use xlink:href="#m8bede3af24" x="52.040313" y="175.734983" style="fill: #555555; stroke: #555555; stroke-width: 0.8"/>
      </g>
     </g>
     <g id="text_29">
      <!-- 72% -->
      <g style="fill: #555555" transform="translate(22.81375 179.534202) scale(0.1 -0.1)">
       <use xlink:href="#DejaVuSans-37"/>
       <use xlink:href="#DejaVuSans-32" x="63.623047"/>
       <use xlink:href="#DejaVuSans-25" x="127.246094"/>
      </g>
     </g>
    </g>
    <g id="ytick_9">
     <g id="line2d_51">
      <path d="M 52.040313 166.125564 
L 358.940313 166.125564 
" clip-path="url(#p028d57cfda)" style="fill: none; stroke: #ffffff; stroke-width: 0.8; stroke-linecap: square"/>
     </g>
     <g id="line2d_52">
      <g>
       <use xlink:href="#m8bede3af24" x="52.040313" y="166.125564" style="fill: #555555; stroke: #555555; stroke-width: 0.8"/>
      </g>
     </g>
     <g id="text_30">
      <!-- 77% -->
      <g style="fill: #555555" transform="translate(22.81375 169.924783) scale(0.1 -0.1)">
       <use xlink:href="#DejaVuSans-37"/>
       <use xlink:href="#DejaVuSans-37" x="63.623047"/>
       <use xlink:href="#DejaVuSans-25" x="127.246094"/>
      </g>
     </g>
    </g>
    <g id="ytick_10">
     <g id="line2d_53">
      <path d="M 52.040313 156.516146 
L 358.940313 156.516146 
" clip-path="url(#p028d57cfda)" style="fill: none; stroke: #ffffff; stroke-width: 0.8; stroke-linecap: square"/>
     </g>
     <g id="line2d_54">
      <g>
       <use xlink:href="#m8bede3af24" x="52.040313" y="156.516146" style="fill: #555555; stroke: #555555; stroke-width: 0.8"/>
      </g>
     </g>
     <g id="text_31">
      <!-- 82% -->
      <g style="fill: #555555" transform="translate(22.81375 160.315364) scale(0.1 -0.1)">
       <use xlink:href="#DejaVuSans-38"/>
       <use xlink:href="#DejaVuSans-32" x="63.623047"/>
       <use xlink:href="#DejaVuSans-25" x="127.246094"/>
      </g>
     </g>
    </g>
    <g id="ytick_11">
     <g id="line2d_55">
      <path d="M 52.040313 146.906727 
L 358.940313 146.906727 
" clip-path="url(#p028d57cfda)" style="fill: none; stroke: #ffffff; stroke-width: 0.8; stroke-linecap: square"/>
     </g>
     <g id="line2d_56">
      <g>
       <use xlink:href="#m8bede3af24" x="52.040313" y="146.906727" style="fill: #555555; stroke: #555555; stroke-width: 0.8"/>
      </g>
     </g>
     <g id="text_32">
      <!-- 87% -->
      <g style="fill: #555555" transform="translate(22.81375 150.705945) scale(0.1 -0.1)">
       <use xlink:href="#DejaVuSans-38"/>
       <use xlink:href="#DejaVuSans-37" x="63.623047"/>
       <use xlink:href="#DejaVuSans-25" x="127.246094"/>
      </g>
     </g>
    </g>
    <g id="ytick_12">
     <g id="line2d_57">
      <path d="M 52.040313 137.297308 
L 358.940313 137.297308 
" clip-path="url(#p028d57cfda)" style="fill: none; stroke: #ffffff; stroke-width: 0.8; stroke-linecap: square"/>
     </g>
     <g id="line2d_58">
      <g>
       <use xlink:href="#m8bede3af24" x="52.040313" y="137.297308" style="fill: #555555; stroke: #555555; stroke-width: 0.8"/>
      </g>
     </g>
     <g id="text_33">
      <!-- 92% -->
      <g style="fill: #555555" transform="translate(22.81375 141.096526) scale(0.1 -0.1)">
       <defs>
        <path id="DejaVuSans-39" d="M 703 97 
L 703 672 
Q 941 559 1184 500 
Q 1428 441 1663 441 
Q 2288 441 2617 861 
Q 2947 1281 2994 2138 
Q 2813 1869 2534 1725 
Q 2256 1581 1919 1581 
Q 1219 1581 811 2004 
Q 403 2428 403 3163 
Q 403 3881 828 4315 
Q 1253 4750 1959 4750 
Q 2769 4750 3195 4129 
Q 3622 3509 3622 2328 
Q 3622 1225 3098 567 
Q 2575 -91 1691 -91 
Q 1453 -91 1209 -44 
Q 966 3 703 97 
z
M 1959 2075 
Q 2384 2075 2632 2365 
Q 2881 2656 2881 3163 
Q 2881 3666 2632 3958 
Q 2384 4250 1959 4250 
Q 1534 4250 1286 3958 
Q 1038 3666 1038 3163 
Q 1038 2656 1286 2365 
Q 1534 2075 1959 2075 
z
" transform="scale(0.015625)"/>
       </defs>
       <use xlink:href="#DejaVuSans-39"/>
       <use xlink:href="#DejaVuSans-32" x="63.623047"/>
       <use xlink:href="#DejaVuSans-25" x="127.246094"/>
      </g>
     </g>
    </g>
    <g id="text_34">
     <!-- Completeness % -->
     <g style="fill: #555555" transform="translate(16.318125 224.352375) rotate(-90) scale(0.12 -0.12)">
      <use xlink:href="#DejaVuSans-43"/>
      <use xlink:href="#DejaVuSans-6f" x="69.824219"/>
      <use xlink:href="#DejaVuSans-6d" x="131.005859"/>
      <use xlink:href="#DejaVuSans-70" x="228.417969"/>
      <use xlink:href="#DejaVuSans-6c" x="291.894531"/>
      <use xlink:href="#DejaVuSans-65" x="319.677734"/>
      <use xlink:href="#DejaVuSans-74" x="381.201172"/>
      <use xlink:href="#DejaVuSans-65" x="420.410156"/>
      <use xlink:href="#DejaVuSans-6e" x="481.933594"/>
      <use xlink:href="#DejaVuSans-65" x="545.3125"/>
      <use xlink:href="#DejaVuSans-73" x="606.835938"/>
      <use xlink:href="#DejaVuSans-73" x="658.935547"/>
      <use xlink:href="#DejaVuSans-20" x="711.035156"/>
      <use xlink:href="#DejaVuSans-25" x="742.822266"/>
     </g>
    </g>
   </g>
   <g id="PolyCollection_1"/>
   <g id="line2d_59">
    <path d="M 89.240313 154.811249 
L 112.490313 214.172659 
L 135.740313 134.906024 
L 158.990313 153.209679 
L 182.240313 133.990841 
L 205.490313 159.615958 
L 228.740313 144.240888 
L 251.990313 167.303493 
L 275.240313 155.093879 
L 298.490313 146.803399 
L 321.740313 194.264004 
L 344.990313 182.487245 
" clip-path="url(#p028d57cfda)" style="fill: none; stroke: #e24a33; stroke-width: 1.5; stroke-linecap: square"/>
    <defs>
     <path id="mdf7f317631" d="M 0 3 
C 0.795609 3 1.55874 2.683901 2.12132 2.12132 
C 2.683901 1.55874 3 0.795609 3 0 
C 3 -0.795609 2.683901 -1.55874 2.12132 -2.12132 
C 1.55874 -2.683901 0.795609 -3 0 -3 
C -0.795609 -3 -1.55874 -2.683901 -2.12132 -2.12132 
C -2.683901 -1.55874 -3 -0.795609 -3 0 
C -3 0.795609 -2.683901 1.55874 -2.12132 2.12132 
C -1.55874 2.683901 -0.795609 3 0 3 
z
" style="stroke: #ffffff; stroke-width: 0.75"/>
    </defs>
    <g clip-path="url(#p028d57cfda)">
     <use xlink:href="#mdf7f317631" x="89.240313" y="154.811249" style="fill: #e24a33; stroke: #ffffff; stroke-width: 0.75"/>
     <use xlink:href="#mdf7f317631" x="112.490313" y="214.172659" style="fill: #e24a33; stroke: #ffffff; stroke-width: 0.75"/>
     <use xlink:href="#mdf7f317631" x="135.740313" y="134.906024" style="fill: #e24a33; stroke: #ffffff; stroke-width: 0.75"/>
     <use xlink:href="#mdf7f317631" x="158.990313" y="153.209679" style="fill: #e24a33; stroke: #ffffff; stroke-width: 0.75"/>
     <use xlink:href="#mdf7f317631" x="182.240313" y="133.990841" style="fill: #e24a33; stroke: #ffffff; stroke-width: 0.75"/>
     <use xlink:href="#mdf7f317631" x="205.490313" y="159.615958" style="fill: #e24a33; stroke: #ffffff; stroke-width: 0.75"/>
     <use xlink:href="#mdf7f317631" x="228.740313" y="144.240888" style="fill: #e24a33; stroke: #ffffff; stroke-width: 0.75"/>
     <use xlink:href="#mdf7f317631" x="251.990313" y="167.303493" style="fill: #e24a33; stroke: #ffffff; stroke-width: 0.75"/>
     <use xlink:href="#mdf7f317631" x="275.240313" y="155.093879" style="fill: #e24a33; stroke: #ffffff; stroke-width: 0.75"/>
     <use xlink:href="#mdf7f317631" x="298.490313" y="146.803399" style="fill: #e24a33; stroke: #ffffff; stroke-width: 0.75"/>
     <use xlink:href="#mdf7f317631" x="321.740313" y="194.264004" style="fill: #e24a33; stroke: #ffffff; stroke-width: 0.75"/>
     <use xlink:href="#mdf7f317631" x="344.990313" y="182.487245" style="fill: #e24a33; stroke: #ffffff; stroke-width: 0.75"/>
    </g>
   </g>
   <g id="patch_35">
    <path d="M 52.040313 218.18175 
L 52.040313 129.98175 
" style="fill: none; stroke: #ffffff; stroke-linejoin: miter; stroke-linecap: square"/>
   </g>
   <g id="patch_36">
    <path d="M 358.940313 218.18175 
L 358.940313 129.98175 
" style="fill: none; stroke: #ffffff; stroke-linejoin: miter; stroke-linecap: square"/>
   </g>
   <g id="patch_37">
    <path d="M 52.040313 218.18175 
L 358.940313 218.18175 
" style="fill: none; stroke: #ffffff; stroke-linejoin: miter; stroke-linecap: square"/>
   </g>
   <g id="patch_38">
    <path d="M 52.040313 129.98175 
L 358.940313 129.98175 
" style="fill: none; stroke: #ffffff; stroke-linejoin: miter; stroke-linecap: square"/>
   </g>
  </g>
 </g>
 <defs>
  <clipPath id="p084756aaa4">
   <rect x="52.040313" y="24.14175" width="306.9" height="88.2"/>
  </clipPath>
  <clipPath id="p028d57cfda">
   <rect x="52.040313" y="129.98175" width="306.9" height="88.2"/>
  </clipPath>
 </defs>
</svg>
