<?xml version="1.0" encoding="utf-8" standalone="no"?>
<!DOCTYPE svg PUBLIC "-//W3C//DTD SVG 1.1//EN"
  "http://www.w3.org/Graphics/SVG/1.1/DTD/svg11.dtd">
<svg xmlns:xlink="http://www.w3.org/1999/xlink" width="358.27625pt" height="241.238125pt" viewBox="0 0 358.27625 241.238125" xmlns="http://www.w3.org/2000/svg" version="1.1">
 <metadata>
  <rdf:RDF xmlns:dc="http://purl.org/dc/elements/1.1/" xmlns:cc="http://creativecommons.org/ns#" xmlns:rdf="http://www.w3.org/1999/02/22-rdf-syntax-ns#">
   <cc:Work>
    <dc:type rdf:resource="http://purl.org/dc/dcmitype/StillImage"/>
    <dc:date>2024-10-27T18:40:32.678182</dc:date>
    <dc:format>image/svg+xml</dc:format>
    <dc:creator>
     <cc:Agent>
      <dc:title>Matplotlib v3.8.4, https://matplotlib.org/</dc:title>
     </cc:Agent>
    </dc:creator>
   </cc:Work>
  </rdf:RDF>
 </metadata>
 <defs>
  <style type="text/css">*{stroke-linejoin: round; stroke-linecap: butt}</style>
 </defs>
 <g id="figure_1">
  <g id="patch_1">
   <path d="M 0 241.238125 
L 358.27625 241.238125 
L 358.27625 0 
L 0 0 
z
" style="fill: #ffffff"/>
  </g>
  <g id="axes_1">
   <g id="patch_2">
    <path d="M 43.045 201.24 
L 349.945 201.24 
L 349.945 7.2 
L 43.045 7.2 
z
" style="fill: #e5e5e5"/>
   </g>
   <g id="matplotlib.axis_1">
    <g id="xtick_1">
     <g id="line2d_1">
      <path d="M 54.08875 201.24 
L 54.08875 7.2 
" clip-path="url(#p5fcdfe47e8)" style="fill: none; stroke: #ffffff; stroke-width: 0.8; stroke-linecap: square"/>
     </g>
     <g id="line2d_2">
      <defs>
       <path id="md0aac5c6b7" d="M 0 0 
L 0 3.5 
" style="stroke: #555555; stroke-width: 0.8"/>
      </defs>
      <g>
       <use xlink:href="#md0aac5c6b7" x="54.08875" y="201.24" style="fill: #555555; stroke: #555555; stroke-width: 0.8"/>
      </g>
     </g>
     <g id="text_1">
      <!-- 4 -->
      <g style="fill: #555555" transform="translate(50.9075 215.838438) scale(0.1 -0.1)">
       <defs>
        <path id="DejaVuSans-34" d="M 2419 4116 
L 825 1625 
L 2419 1625 
L 2419 4116 
z
M 2253 4666 
L 3047 4666 
L 3047 1625 
L 3713 1625 
L 3713 1100 
L 3047 1100 
L 3047 0 
L 2419 0 
L 2419 1100 
L 313 1100 
L 313 1709 
L 2253 4666 
z
" transform="scale(0.015625)"/>
       </defs>
       <use xlink:href="#DejaVuSans-34"/>
      </g>
     </g>
    </g>
    <g id="xtick_2">
     <g id="line2d_3">
      <path d="M 112.21375 201.24 
L 112.21375 7.2 
" clip-path="url(#p5fcdfe47e8)" style="fill: none; stroke: #ffffff; stroke-width: 0.8; stroke-linecap: square"/>
     </g>
     <g id="line2d_4">
      <g>
       <use xlink:href="#md0aac5c6b7" x="112.21375" y="201.24" style="fill: #555555; stroke: #555555; stroke-width: 0.8"/>
      </g>
     </g>
     <g id="text_2">
      <!-- 6 -->
      <g style="fill: #555555" transform="translate(109.0325 215.838438) scale(0.1 -0.1)">
       <defs>
        <path id="DejaVuSans-36" d="M 2113 2584 
Q 1688 2584 1439 2293 
Q 1191 2003 1191 1497 
Q 1191 994 1439 701 
Q 1688 409 2113 409 
Q 2538 409 2786 701 
Q 3034 994 3034 1497 
Q 3034 2003 2786 2293 
Q 2538 2584 2113 2584 
z
M 3366 4563 
L 3366 3988 
Q 3128 4100 2886 4159 
Q 2644 4219 2406 4219 
Q 1781 4219 1451 3797 
Q 1122 3375 1075 2522 
Q 1259 2794 1537 2939 
Q 1816 3084 2150 3084 
Q 2853 3084 3261 2657 
Q 3669 2231 3669 1497 
Q 3669 778 3244 343 
Q 2819 -91 2113 -91 
Q 1303 -91 875 529 
Q 447 1150 447 2328 
Q 447 3434 972 4092 
Q 1497 4750 2381 4750 
Q 2619 4750 2861 4703 
Q 3103 4656 3366 4563 
z
" transform="scale(0.015625)"/>
       </defs>
       <use xlink:href="#DejaVuSans-36"/>
      </g>
     </g>
    </g>
    <g id="xtick_3">
     <g id="line2d_5">
      <path d="M 170.33875 201.24 
L 170.33875 7.2 
" clip-path="url(#p5fcdfe47e8)" style="fill: none; stroke: #ffffff; stroke-width: 0.8; stroke-linecap: square"/>
     </g>
     <g id="line2d_6">
      <g>
       <use xlink:href="#md0aac5c6b7" x="170.33875" y="201.24" style="fill: #555555; stroke: #555555; stroke-width: 0.8"/>
      </g>
     </g>
     <g id="text_3">
      <!-- 8 -->
      <g style="fill: #555555" transform="translate(167.1575 215.838438) scale(0.1 -0.1)">
       <defs>
        <path id="DejaVuSans-38" d="M 2034 2216 
Q 1584 2216 1326 1975 
Q 1069 1734 1069 1313 
Q 1069 891 1326 650 
Q 1584 409 2034 409 
Q 2484 409 2743 651 
Q 3003 894 3003 1313 
Q 3003 1734 2745 1975 
Q 2488 2216 2034 2216 
z
M 1403 2484 
Q 997 2584 770 2862 
Q 544 3141 544 3541 
Q 544 4100 942 4425 
Q 1341 4750 2034 4750 
Q 2731 4750 3128 4425 
Q 3525 4100 3525 3541 
Q 3525 3141 3298 2862 
Q 3072 2584 2669 2484 
Q 3125 2378 3379 2068 
Q 3634 1759 3634 1313 
Q 3634 634 3220 271 
Q 2806 -91 2034 -91 
Q 1263 -91 848 271 
Q 434 634 434 1313 
Q 434 1759 690 2068 
Q 947 2378 1403 2484 
z
M 1172 3481 
Q 1172 3119 1398 2916 
Q 1625 2713 2034 2713 
Q 2441 2713 2670 2916 
Q 2900 3119 2900 3481 
Q 2900 3844 2670 4047 
Q 2441 4250 2034 4250 
Q 1625 4250 1398 4047 
Q 1172 3844 1172 3481 
z
" transform="scale(0.015625)"/>
       </defs>
       <use xlink:href="#DejaVuSans-38"/>
      </g>
     </g>
    </g>
    <g id="xtick_4">
     <g id="line2d_7">
      <path d="M 228.46375 201.24 
L 228.46375 7.2 
" clip-path="url(#p5fcdfe47e8)" style="fill: none; stroke: #ffffff; stroke-width: 0.8; stroke-linecap: square"/>
     </g>
     <g id="line2d_8">
      <g>
       <use xlink:href="#md0aac5c6b7" x="228.46375" y="201.24" style="fill: #555555; stroke: #555555; stroke-width: 0.8"/>
      </g>
     </g>
     <g id="text_4">
      <!-- 10 -->
      <g style="fill: #555555" transform="translate(222.10125 215.838438) scale(0.1 -0.1)">
       <defs>
        <path id="DejaVuSans-31" d="M 794 531 
L 1825 531 
L 1825 4091 
L 703 3866 
L 703 4441 
L 1819 4666 
L 2450 4666 
L 2450 531 
L 3481 531 
L 3481 0 
L 794 0 
L 794 531 
z
" transform="scale(0.015625)"/>
        <path id="DejaVuSans-30" d="M 2034 4250 
Q 1547 4250 1301 3770 
Q 1056 3291 1056 2328 
Q 1056 1369 1301 889 
Q 1547 409 2034 409 
Q 2525 409 2770 889 
Q 3016 1369 3016 2328 
Q 3016 3291 2770 3770 
Q 2525 4250 2034 4250 
z
M 2034 4750 
Q 2819 4750 3233 4129 
Q 3647 3509 3647 2328 
Q 3647 1150 3233 529 
Q 2819 -91 2034 -91 
Q 1250 -91 836 529 
Q 422 1150 422 2328 
Q 422 3509 836 4129 
Q 1250 4750 2034 4750 
z
" transform="scale(0.015625)"/>
       </defs>
       <use xlink:href="#DejaVuSans-31"/>
       <use xlink:href="#DejaVuSans-30" x="63.623047"/>
      </g>
     </g>
    </g>
    <g id="xtick_5">
     <g id="line2d_9">
      <path d="M 286.58875 201.24 
L 286.58875 7.2 
" clip-path="url(#p5fcdfe47e8)" style="fill: none; stroke: #ffffff; stroke-width: 0.8; stroke-linecap: square"/>
     </g>
     <g id="line2d_10">
      <g>
       <use xlink:href="#md0aac5c6b7" x="286.58875" y="201.24" style="fill: #555555; stroke: #555555; stroke-width: 0.8"/>
      </g>
     </g>
     <g id="text_5">
      <!-- 12 -->
      <g style="fill: #555555" transform="translate(280.22625 215.838438) scale(0.1 -0.1)">
       <defs>
        <path id="DejaVuSans-32" d="M 1228 531 
L 3431 531 
L 3431 0 
L 469 0 
L 469 531 
Q 828 903 1448 1529 
Q 2069 2156 2228 2338 
Q 2531 2678 2651 2914 
Q 2772 3150 2772 3378 
Q 2772 3750 2511 3984 
Q 2250 4219 1831 4219 
Q 1534 4219 1204 4116 
Q 875 4013 500 3803 
L 500 4441 
Q 881 4594 1212 4672 
Q 1544 4750 1819 4750 
Q 2544 4750 2975 4387 
Q 3406 4025 3406 3419 
Q 3406 3131 3298 2873 
Q 3191 2616 2906 2266 
Q 2828 2175 2409 1742 
Q 1991 1309 1228 531 
z
" transform="scale(0.015625)"/>
       </defs>
       <use xlink:href="#DejaVuSans-31"/>
       <use xlink:href="#DejaVuSans-32" x="63.623047"/>
      </g>
     </g>
    </g>
    <g id="xtick_6">
     <g id="line2d_11">
      <path d="M 344.71375 201.24 
L 344.71375 7.2 
" clip-path="url(#p5fcdfe47e8)" style="fill: none; stroke: #ffffff; stroke-width: 0.8; stroke-linecap: square"/>
     </g>
     <g id="line2d_12">
      <g>
       <use xlink:href="#md0aac5c6b7" x="344.71375" y="201.24" style="fill: #555555; stroke: #555555; stroke-width: 0.8"/>
      </g>
     </g>
     <g id="text_6">
      <!-- 14 -->
      <g style="fill: #555555" transform="translate(338.35125 215.838438) scale(0.1 -0.1)">
       <use xlink:href="#DejaVuSans-31"/>
       <use xlink:href="#DejaVuSans-34" x="63.623047"/>
      </g>
     </g>
    </g>
    <g id="text_7">
     <!-- $M_{K,LVG}$ [$\mathrm{mag}$] -->
     <g style="fill: #555555" transform="translate(157.855 231.038125) scale(0.12 -0.12)">
      <defs>
       <path id="DejaVuSans-Oblique-4d" d="M 1081 4666 
L 2028 4666 
L 2572 1522 
L 4378 4666 
L 5350 4666 
L 4441 0 
L 3828 0 
L 4622 4091 
L 2791 897 
L 2175 897 
L 1581 4103 
L 788 0 
L 172 0 
L 1081 4666 
z
" transform="scale(0.015625)"/>
       <path id="DejaVuSans-Oblique-4b" d="M 1081 4666 
L 1716 4666 
L 1331 2700 
L 3781 4666 
L 4622 4666 
L 1850 2438 
L 3878 0 
L 3109 0 
L 1247 2272 
L 806 0 
L 172 0 
L 1081 4666 
z
" transform="scale(0.015625)"/>
       <path id="DejaVuSans-2c" d="M 750 794 
L 1409 794 
L 1409 256 
L 897 -744 
L 494 -744 
L 750 256 
L 750 794 
z
" transform="scale(0.015625)"/>
       <path id="DejaVuSans-Oblique-4c" d="M 1075 4666 
L 1709 4666 
L 909 525 
L 3181 525 
L 3078 0 
L 172 0 
L 1075 4666 
z
" transform="scale(0.015625)"/>
       <path id="DejaVuSans-Oblique-56" d="M 1319 0 
L 500 4666 
L 1119 4666 
L 1797 653 
L 4063 4666 
L 4750 4666 
L 2053 0 
L 1319 0 
z
" transform="scale(0.015625)"/>
       <path id="DejaVuSans-Oblique-47" d="M 3494 697 
L 3738 1919 
L 2700 1919 
L 2797 2438 
L 4453 2438 
L 4050 384 
Q 3634 156 3143 32 
Q 2653 -91 2156 -91 
Q 1278 -91 783 396 
Q 288 884 288 1753 
Q 288 2475 589 3126 
Q 891 3778 1422 4213 
Q 1756 4484 2153 4617 
Q 2550 4750 3034 4750 
Q 3472 4750 3873 4639 
Q 4275 4528 4641 4306 
L 4513 3634 
Q 4231 3928 3853 4083 
Q 3475 4238 3047 4238 
Q 2550 4238 2172 4048 
Q 1794 3859 1497 3463 
Q 1244 3125 1098 2667 
Q 953 2209 953 1734 
Q 953 1081 1287 751 
Q 1622 422 2284 422 
Q 2616 422 2925 492 
Q 3234 563 3494 697 
z
" transform="scale(0.015625)"/>
       <path id="DejaVuSans-20" transform="scale(0.015625)"/>
       <path id="DejaVuSans-5b" d="M 550 4863 
L 1875 4863 
L 1875 4416 
L 1125 4416 
L 1125 -397 
L 1875 -397 
L 1875 -844 
L 550 -844 
L 550 4863 
z
" transform="scale(0.015625)"/>
       <path id="DejaVuSans-6d" d="M 3328 2828 
Q 3544 3216 3844 3400 
Q 4144 3584 4550 3584 
Q 5097 3584 5394 3201 
Q 5691 2819 5691 2113 
L 5691 0 
L 5113 0 
L 5113 2094 
Q 5113 2597 4934 2840 
Q 4756 3084 4391 3084 
Q 3944 3084 3684 2787 
Q 3425 2491 3425 1978 
L 3425 0 
L 2847 0 
L 2847 2094 
Q 2847 2600 2669 2842 
Q 2491 3084 2119 3084 
Q 1678 3084 1418 2786 
Q 1159 2488 1159 1978 
L 1159 0 
L 581 0 
L 581 3500 
L 1159 3500 
L 1159 2956 
Q 1356 3278 1631 3431 
Q 1906 3584 2284 3584 
Q 2666 3584 2933 3390 
Q 3200 3197 3328 2828 
z
" transform="scale(0.015625)"/>
       <path id="DejaVuSans-61" d="M 2194 1759 
Q 1497 1759 1228 1600 
Q 959 1441 959 1056 
Q 959 750 1161 570 
Q 1363 391 1709 391 
Q 2188 391 2477 730 
Q 2766 1069 2766 1631 
L 2766 1759 
L 2194 1759 
z
M 3341 1997 
L 3341 0 
L 2766 0 
L 2766 531 
Q 2569 213 2275 61 
Q 1981 -91 1556 -91 
Q 1019 -91 701 211 
Q 384 513 384 1019 
Q 384 1609 779 1909 
Q 1175 2209 1959 2209 
L 2766 2209 
L 2766 2266 
Q 2766 2663 2505 2880 
Q 2244 3097 1772 3097 
Q 1472 3097 1187 3025 
Q 903 2953 641 2809 
L 641 3341 
Q 956 3463 1253 3523 
Q 1550 3584 1831 3584 
Q 2591 3584 2966 3190 
Q 3341 2797 3341 1997 
z
" transform="scale(0.015625)"/>
       <path id="DejaVuSans-67" d="M 2906 1791 
Q 2906 2416 2648 2759 
Q 2391 3103 1925 3103 
Q 1463 3103 1205 2759 
Q 947 2416 947 1791 
Q 947 1169 1205 825 
Q 1463 481 1925 481 
Q 2391 481 2648 825 
Q 2906 1169 2906 1791 
z
M 3481 434 
Q 3481 -459 3084 -895 
Q 2688 -1331 1869 -1331 
Q 1566 -1331 1297 -1286 
Q 1028 -1241 775 -1147 
L 775 -588 
Q 1028 -725 1275 -790 
Q 1522 -856 1778 -856 
Q 2344 -856 2625 -561 
Q 2906 -266 2906 331 
L 2906 616 
Q 2728 306 2450 153 
Q 2172 0 1784 0 
Q 1141 0 747 490 
Q 353 981 353 1791 
Q 353 2603 747 3093 
Q 1141 3584 1784 3584 
Q 2172 3584 2450 3431 
Q 2728 3278 2906 2969 
L 2906 3500 
L 3481 3500 
L 3481 434 
z
" transform="scale(0.015625)"/>
       <path id="DejaVuSans-5d" d="M 1947 4863 
L 1947 -844 
L 622 -844 
L 622 -397 
L 1369 -397 
L 1369 4416 
L 622 4416 
L 622 4863 
L 1947 4863 
z
" transform="scale(0.015625)"/>
      </defs>
      <use xlink:href="#DejaVuSans-Oblique-4d" transform="translate(0 0.015625)"/>
      <use xlink:href="#DejaVuSans-Oblique-4b" transform="translate(86.279297 -16.390625) scale(0.7)"/>
      <use xlink:href="#DejaVuSans-2c" transform="translate(132.182617 -16.390625) scale(0.7)"/>
      <use xlink:href="#DejaVuSans-Oblique-4c" transform="translate(168.071289 -16.390625) scale(0.7)"/>
      <use xlink:href="#DejaVuSans-Oblique-56" transform="translate(207.070312 -16.390625) scale(0.7)"/>
      <use xlink:href="#DejaVuSans-Oblique-47" transform="translate(254.956055 -16.390625) scale(0.7)"/>
      <use xlink:href="#DejaVuSans-20" transform="translate(311.933594 0.015625)"/>
      <use xlink:href="#DejaVuSans-5b" transform="translate(343.720703 0.015625)"/>
      <use xlink:href="#DejaVuSans-6d" transform="translate(382.734375 0.015625)"/>
      <use xlink:href="#DejaVuSans-61" transform="translate(480.146484 0.015625)"/>
      <use xlink:href="#DejaVuSans-67" transform="translate(541.425781 0.015625)"/>
      <use xlink:href="#DejaVuSans-5d" transform="translate(604.902344 0.015625)"/>
     </g>
    </g>
   </g>
   <g id="matplotlib.axis_2">
    <g id="ytick_1">
     <g id="line2d_13">
      <path d="M 43.045 184.39652 
L 349.945 184.39652 
" clip-path="url(#p5fcdfe47e8)" style="fill: none; stroke: #ffffff; stroke-width: 0.8; stroke-linecap: square"/>
     </g>
     <g id="line2d_14">
      <defs>
       <path id="m3fcf30ed3c" d="M 0 0 
L -3.5 0 
" style="stroke: #555555; stroke-width: 0.8"/>
      </defs>
      <g>
       <use xlink:href="#m3fcf30ed3c" x="43.045" y="184.39652" style="fill: #555555; stroke: #555555; stroke-width: 0.8"/>
      </g>
     </g>
     <g id="text_8">
      <!-- 4 -->
      <g style="fill: #555555" transform="translate(29.6825 188.195739) scale(0.1 -0.1)">
       <use xlink:href="#DejaVuSans-34"/>
      </g>
     </g>
    </g>
    <g id="ytick_2">
     <g id="line2d_15">
      <path d="M 43.045 155.911234 
L 349.945 155.911234 
" clip-path="url(#p5fcdfe47e8)" style="fill: none; stroke: #ffffff; stroke-width: 0.8; stroke-linecap: square"/>
     </g>
     <g id="line2d_16">
      <g>
       <use xlink:href="#m3fcf30ed3c" x="43.045" y="155.911234" style="fill: #555555; stroke: #555555; stroke-width: 0.8"/>
      </g>
     </g>
     <g id="text_9">
      <!-- 6 -->
      <g style="fill: #555555" transform="translate(29.6825 159.710453) scale(0.1 -0.1)">
       <use xlink:href="#DejaVuSans-36"/>
      </g>
     </g>
    </g>
    <g id="ytick_3">
     <g id="line2d_17">
      <path d="M 43.045 127.425948 
L 349.945 127.425948 
" clip-path="url(#p5fcdfe47e8)" style="fill: none; stroke: #ffffff; stroke-width: 0.8; stroke-linecap: square"/>
     </g>
     <g id="line2d_18">
      <g>
       <use xlink:href="#m3fcf30ed3c" x="43.045" y="127.425948" style="fill: #555555; stroke: #555555; stroke-width: 0.8"/>
      </g>
     </g>
     <g id="text_10">
      <!-- 8 -->
      <g style="fill: #555555" transform="translate(29.6825 131.225167) scale(0.1 -0.1)">
       <use xlink:href="#DejaVuSans-38"/>
      </g>
     </g>
    </g>
    <g id="ytick_4">
     <g id="line2d_19">
      <path d="M 43.045 98.940662 
L 349.945 98.940662 
" clip-path="url(#p5fcdfe47e8)" style="fill: none; stroke: #ffffff; stroke-width: 0.8; stroke-linecap: square"/>
     </g>
     <g id="line2d_20">
      <g>
       <use xlink:href="#m3fcf30ed3c" x="43.045" y="98.940662" style="fill: #555555; stroke: #555555; stroke-width: 0.8"/>
      </g>
     </g>
     <g id="text_11">
      <!-- 10 -->
      <g style="fill: #555555" transform="translate(23.32 102.73988) scale(0.1 -0.1)">
       <use xlink:href="#DejaVuSans-31"/>
       <use xlink:href="#DejaVuSans-30" x="63.623047"/>
      </g>
     </g>
    </g>
    <g id="ytick_5">
     <g id="line2d_21">
      <path d="M 43.045 70.455375 
L 349.945 70.455375 
" clip-path="url(#p5fcdfe47e8)" style="fill: none; stroke: #ffffff; stroke-width: 0.8; stroke-linecap: square"/>
     </g>
     <g id="line2d_22">
      <g>
       <use xlink:href="#m3fcf30ed3c" x="43.045" y="70.455375" style="fill: #555555; stroke: #555555; stroke-width: 0.8"/>
      </g>
     </g>
     <g id="text_12">
      <!-- 12 -->
      <g style="fill: #555555" transform="translate(23.32 74.254594) scale(0.1 -0.1)">
       <use xlink:href="#DejaVuSans-31"/>
       <use xlink:href="#DejaVuSans-32" x="63.623047"/>
      </g>
     </g>
    </g>
    <g id="ytick_6">
     <g id="line2d_23">
      <path d="M 43.045 41.970089 
L 349.945 41.970089 
" clip-path="url(#p5fcdfe47e8)" style="fill: none; stroke: #ffffff; stroke-width: 0.8; stroke-linecap: square"/>
     </g>
     <g id="line2d_24">
      <g>
       <use xlink:href="#m3fcf30ed3c" x="43.045" y="41.970089" style="fill: #555555; stroke: #555555; stroke-width: 0.8"/>
      </g>
     </g>
     <g id="text_13">
      <!-- 14 -->
      <g style="fill: #555555" transform="translate(23.32 45.769308) scale(0.1 -0.1)">
       <use xlink:href="#DejaVuSans-31"/>
       <use xlink:href="#DejaVuSans-34" x="63.623047"/>
      </g>
     </g>
    </g>
    <g id="ytick_7">
     <g id="line2d_25">
      <path d="M 43.045 13.484803 
L 349.945 13.484803 
" clip-path="url(#p5fcdfe47e8)" style="fill: none; stroke: #ffffff; stroke-width: 0.8; stroke-linecap: square"/>
     </g>
     <g id="line2d_26">
      <g>
       <use xlink:href="#m3fcf30ed3c" x="43.045" y="13.484803" style="fill: #555555; stroke: #555555; stroke-width: 0.8"/>
      </g>
     </g>
     <g id="text_14">
      <!-- 16 -->
      <g style="fill: #555555" transform="translate(23.32 17.284022) scale(0.1 -0.1)">
       <use xlink:href="#DejaVuSans-31"/>
       <use xlink:href="#DejaVuSans-36" x="63.623047"/>
      </g>
     </g>
    </g>
    <g id="text_15">
     <!-- $M_{K,HECATE} $ [$\mathrm{mag}$] -->
     <g style="fill: #555555" transform="translate(16.32 151.26) rotate(-90) scale(0.12 -0.12)">
      <defs>
       <path id="DejaVuSans-Oblique-48" d="M 1081 4666 
L 1716 4666 
L 1344 2753 
L 3634 2753 
L 4006 4666 
L 4641 4666 
L 3731 0 
L 3097 0 
L 3531 2222 
L 1241 2222 
L 806 0 
L 172 0 
L 1081 4666 
z
" transform="scale(0.015625)"/>
       <path id="DejaVuSans-Oblique-45" d="M 1081 4666 
L 4031 4666 
L 3928 4134 
L 1606 4134 
L 1338 2753 
L 3566 2753 
L 3463 2222 
L 1234 2222 
L 909 531 
L 3284 531 
L 3181 0 
L 172 0 
L 1081 4666 
z
" transform="scale(0.015625)"/>
       <path id="DejaVuSans-Oblique-43" d="M 4447 4306 
L 4319 3641 
Q 4019 3944 3683 4091 
Q 3347 4238 2956 4238 
Q 2422 4238 2017 3981 
Q 1613 3725 1319 3200 
Q 1131 2863 1032 2486 
Q 934 2109 934 1728 
Q 934 1091 1264 756 
Q 1594 422 2222 422 
Q 2656 422 3056 561 
Q 3456 700 3834 978 
L 3688 231 
Q 3316 72 2936 -9 
Q 2556 -91 2175 -91 
Q 1278 -91 773 396 
Q 269 884 269 1753 
Q 269 2309 461 2846 
Q 653 3384 1013 3828 
Q 1394 4300 1883 4525 
Q 2372 4750 3022 4750 
Q 3422 4750 3780 4639 
Q 4138 4528 4447 4306 
z
" transform="scale(0.015625)"/>
       <path id="DejaVuSans-Oblique-41" d="M 2356 4666 
L 3072 4666 
L 3938 0 
L 3278 0 
L 3084 1197 
L 984 1197 
L 325 0 
L -341 0 
L 2356 4666 
z
M 2584 4044 
L 1275 1722 
L 2988 1722 
L 2584 4044 
z
" transform="scale(0.015625)"/>
       <path id="DejaVuSans-Oblique-54" d="M 378 4666 
L 4325 4666 
L 4225 4134 
L 2559 4134 
L 1759 0 
L 1125 0 
L 1925 4134 
L 275 4134 
L 378 4666 
z
" transform="scale(0.015625)"/>
      </defs>
      <use xlink:href="#DejaVuSans-Oblique-4d" transform="translate(0 0.015625)"/>
      <use xlink:href="#DejaVuSans-Oblique-4b" transform="translate(86.279297 -16.390625) scale(0.7)"/>
      <use xlink:href="#DejaVuSans-2c" transform="translate(132.182617 -16.390625) scale(0.7)"/>
      <use xlink:href="#DejaVuSans-Oblique-48" transform="translate(168.071289 -16.390625) scale(0.7)"/>
      <use xlink:href="#DejaVuSans-Oblique-45" transform="translate(220.708008 -16.390625) scale(0.7)"/>
      <use xlink:href="#DejaVuSans-Oblique-43" transform="translate(264.936523 -16.390625) scale(0.7)"/>
      <use xlink:href="#DejaVuSans-Oblique-41" transform="translate(313.813477 -16.390625) scale(0.7)"/>
      <use xlink:href="#DejaVuSans-Oblique-54" transform="translate(361.699219 -16.390625) scale(0.7)"/>
      <use xlink:href="#DejaVuSans-Oblique-45" transform="translate(404.458008 -16.390625) scale(0.7)"/>
      <use xlink:href="#DejaVuSans-20" transform="translate(451.420898 0.015625)"/>
      <use xlink:href="#DejaVuSans-5b" transform="translate(483.208008 0.015625)"/>
      <use xlink:href="#DejaVuSans-6d" transform="translate(522.22168 0.015625)"/>
      <use xlink:href="#DejaVuSans-61" transform="translate(619.633789 0.015625)"/>
      <use xlink:href="#DejaVuSans-67" transform="translate(680.913086 0.015625)"/>
      <use xlink:href="#DejaVuSans-5d" transform="translate(744.389648 0.015625)"/>
     </g>
    </g>
   </g>
   <g id="PathCollection_1">
    <defs>
     <path id="m153bffafb9" d="M 0 3 
C 0.795609 3 1.55874 2.683901 2.12132 2.12132 
C 2.683901 1.55874 3 0.795609 3 0 
C 3 -0.795609 2.683901 -1.55874 2.12132 -2.12132 
C 1.55874 -2.683901 0.795609 -3 0 -3 
C -0.795609 -3 -1.55874 -2.683901 -2.12132 -2.12132 
C -2.683901 -1.55874 -3 -0.795609 -3 0 
C -3 0.795609 -2.683901 1.55874 -2.12132 2.12132 
C -1.55874 2.683901 -0.795609 3 0 3 
z
" style="stroke: #ffffff; stroke-opacity: 0.5"/>
    </defs>
    <g clip-path="url(#p5fcdfe47e8)">
     <use xlink:href="#m153bffafb9" x="240.08875" y="56.298182" style="fill: #0000ff; fill-opacity: 0.5; stroke: #ffffff; stroke-opacity: 0.5"/>
     <use xlink:href="#m153bffafb9" x="283.6825" y="26.602271" style="fill: #0000ff; fill-opacity: 0.5; stroke: #ffffff; stroke-opacity: 0.5"/>
     <use xlink:href="#m153bffafb9" x="295.3075" y="30.689919" style="fill: #0000ff; fill-opacity: 0.5; stroke: #ffffff; stroke-opacity: 0.5"/>
     <use xlink:href="#m153bffafb9" x="222.65125" y="101.917369" style="fill: #0000ff; fill-opacity: 0.5; stroke: #ffffff; stroke-opacity: 0.5"/>
     <use xlink:href="#m153bffafb9" x="196.495" y="114.935152" style="fill: #0000ff; fill-opacity: 0.5; stroke: #ffffff; stroke-opacity: 0.5"/>
     <use xlink:href="#m153bffafb9" x="251.71375" y="86.991088" style="fill: #0000ff; fill-opacity: 0.5; stroke: #ffffff; stroke-opacity: 0.5"/>
     <use xlink:href="#m153bffafb9" x="199.40125" y="113.126338" style="fill: #0000ff; fill-opacity: 0.5; stroke: #ffffff; stroke-opacity: 0.5"/>
     <use xlink:href="#m153bffafb9" x="286.58875" y="27.969574" style="fill: #0000ff; fill-opacity: 0.5; stroke: #ffffff; stroke-opacity: 0.5"/>
     <use xlink:href="#m153bffafb9" x="272.0575" y="56.568793" style="fill: #0000ff; fill-opacity: 0.5; stroke: #ffffff; stroke-opacity: 0.5"/>
     <use xlink:href="#m153bffafb9" x="228.46375" y="99.125809" style="fill: #0000ff; fill-opacity: 0.5; stroke: #ffffff; stroke-opacity: 0.5"/>
     <use xlink:href="#m153bffafb9" x="272.0575" y="61.268864" style="fill: #0000ff; fill-opacity: 0.5; stroke: #ffffff; stroke-opacity: 0.5"/>
     <use xlink:href="#m153bffafb9" x="306.9325" y="60.699159" style="fill: #0000ff; fill-opacity: 0.5; stroke: #ffffff; stroke-opacity: 0.5"/>
     <use xlink:href="#m153bffafb9" x="216.83875" y="90.010527" style="fill: #0000ff; fill-opacity: 0.5; stroke: #ffffff; stroke-opacity: 0.5"/>
     <use xlink:href="#m153bffafb9" x="289.495" y="68.817475" style="fill: #0000ff; fill-opacity: 0.5; stroke: #ffffff; stroke-opacity: 0.5"/>
     <use xlink:href="#m153bffafb9" x="190.6825" y="117.39912" style="fill: #0000ff; fill-opacity: 0.5; stroke: #ffffff; stroke-opacity: 0.5"/>
     <use xlink:href="#m153bffafb9" x="274.96375" y="16.02" style="fill: #0000ff; fill-opacity: 0.5; stroke: #ffffff; stroke-opacity: 0.5"/>
     <use xlink:href="#m153bffafb9" x="333.08875" y="17.572437" style="fill: #0000ff; fill-opacity: 0.5; stroke: #ffffff; stroke-opacity: 0.5"/>
     <use xlink:href="#m153bffafb9" x="286.58875" y="40.175511" style="fill: #0000ff; fill-opacity: 0.5; stroke: #ffffff; stroke-opacity: 0.5"/>
     <use xlink:href="#m153bffafb9" x="301.12" y="62.693134" style="fill: #0000ff; fill-opacity: 0.5; stroke: #ffffff; stroke-opacity: 0.5"/>
     <use xlink:href="#m153bffafb9" x="280.77625" y="73.375116" style="fill: #0000ff; fill-opacity: 0.5; stroke: #ffffff; stroke-opacity: 0.5"/>
     <use xlink:href="#m153bffafb9" x="56.995" y="182.943767" style="fill: #0000ff; fill-opacity: 0.5; stroke: #ffffff; stroke-opacity: 0.5"/>
     <use xlink:href="#m153bffafb9" x="100.58875" y="174.75425" style="fill: #0000ff; fill-opacity: 0.5; stroke: #ffffff; stroke-opacity: 0.5"/>
     <use xlink:href="#m153bffafb9" x="68.62" y="166.963525" style="fill: #0000ff; fill-opacity: 0.5; stroke: #ffffff; stroke-opacity: 0.5"/>
     <use xlink:href="#m153bffafb9" x="199.40125" y="113.824225" style="fill: #0000ff; fill-opacity: 0.5; stroke: #ffffff; stroke-opacity: 0.5"/>
     <use xlink:href="#m153bffafb9" x="202.3075" y="111.844498" style="fill: #0000ff; fill-opacity: 0.5; stroke: #ffffff; stroke-opacity: 0.5"/>
     <use xlink:href="#m153bffafb9" x="118.02625" y="152.364815" style="fill: #0000ff; fill-opacity: 0.5; stroke: #ffffff; stroke-opacity: 0.5"/>
     <use xlink:href="#m153bffafb9" x="155.8075" y="134.091504" style="fill: #0000ff; fill-opacity: 0.5; stroke: #ffffff; stroke-opacity: 0.5"/>
     <use xlink:href="#m153bffafb9" x="222.65125" y="101.333429" style="fill: #0000ff; fill-opacity: 0.5; stroke: #ffffff; stroke-opacity: 0.5"/>
     <use xlink:href="#m153bffafb9" x="103.495" y="160.782218" style="fill: #0000ff; fill-opacity: 0.5; stroke: #ffffff; stroke-opacity: 0.5"/>
     <use xlink:href="#m153bffafb9" x="155.8075" y="129.448406" style="fill: #0000ff; fill-opacity: 0.5; stroke: #ffffff; stroke-opacity: 0.5"/>
     <use xlink:href="#m153bffafb9" x="306.9325" y="61.083716" style="fill: #0000ff; fill-opacity: 0.5; stroke: #ffffff; stroke-opacity: 0.5"/>
     <use xlink:href="#m153bffafb9" x="234.27625" y="95.935458" style="fill: #0000ff; fill-opacity: 0.5; stroke: #ffffff; stroke-opacity: 0.5"/>
     <use xlink:href="#m153bffafb9" x="149.995" y="137.922776" style="fill: #0000ff; fill-opacity: 0.5; stroke: #ffffff; stroke-opacity: 0.5"/>
     <use xlink:href="#m153bffafb9" x="219.745" y="101.418879" style="fill: #0000ff; fill-opacity: 0.5; stroke: #ffffff; stroke-opacity: 0.5"/>
     <use xlink:href="#m153bffafb9" x="109.3075" y="157.577625" style="fill: #0000ff; fill-opacity: 0.5; stroke: #ffffff; stroke-opacity: 0.5"/>
     <use xlink:href="#m153bffafb9" x="199.40125" y="88.75717" style="fill: #0000ff; fill-opacity: 0.5; stroke: #ffffff; stroke-opacity: 0.5"/>
     <use xlink:href="#m153bffafb9" x="132.5575" y="146.439877" style="fill: #0000ff; fill-opacity: 0.5; stroke: #ffffff; stroke-opacity: 0.5"/>
     <use xlink:href="#m153bffafb9" x="120.9325" y="151.353586" style="fill: #0000ff; fill-opacity: 0.5; stroke: #ffffff; stroke-opacity: 0.5"/>
     <use xlink:href="#m153bffafb9" x="152.90125" y="135.387586" style="fill: #0000ff; fill-opacity: 0.5; stroke: #ffffff; stroke-opacity: 0.5"/>
     <use xlink:href="#m153bffafb9" x="135.46375" y="145.229252" style="fill: #0000ff; fill-opacity: 0.5; stroke: #ffffff; stroke-opacity: 0.5"/>
     <use xlink:href="#m153bffafb9" x="141.27625" y="141.084644" style="fill: #0000ff; fill-opacity: 0.5; stroke: #ffffff; stroke-opacity: 0.5"/>
     <use xlink:href="#m153bffafb9" x="115.12" y="154.85728" style="fill: #0000ff; fill-opacity: 0.5; stroke: #ffffff; stroke-opacity: 0.5"/>
     <use xlink:href="#m153bffafb9" x="216.83875" y="105.364097" style="fill: #0000ff; fill-opacity: 0.5; stroke: #ffffff; stroke-opacity: 0.5"/>
     <use xlink:href="#m153bffafb9" x="208.12" y="108.810811" style="fill: #0000ff; fill-opacity: 0.5; stroke: #ffffff; stroke-opacity: 0.5"/>
     <use xlink:href="#m153bffafb9" x="228.46375" y="72.691465" style="fill: #0000ff; fill-opacity: 0.5; stroke: #ffffff; stroke-opacity: 0.5"/>
     <use xlink:href="#m153bffafb9" x="202.3075" y="111.531156" style="fill: #0000ff; fill-opacity: 0.5; stroke: #ffffff; stroke-opacity: 0.5"/>
     <use xlink:href="#m153bffafb9" x="245.90125" y="90.594467" style="fill: #0000ff; fill-opacity: 0.5; stroke: #ffffff; stroke-opacity: 0.5"/>
     <use xlink:href="#m153bffafb9" x="97.6825" y="163.545288" style="fill: #0000ff; fill-opacity: 0.5; stroke: #ffffff; stroke-opacity: 0.5"/>
     <use xlink:href="#m153bffafb9" x="152.90125" y="136.655177" style="fill: #0000ff; fill-opacity: 0.5; stroke: #ffffff; stroke-opacity: 0.5"/>
     <use xlink:href="#m153bffafb9" x="149.995" y="136.982761" style="fill: #0000ff; fill-opacity: 0.5; stroke: #ffffff; stroke-opacity: 0.5"/>
     <use xlink:href="#m153bffafb9" x="158.71375" y="133.350886" style="fill: #0000ff; fill-opacity: 0.5; stroke: #ffffff; stroke-opacity: 0.5"/>
     <use xlink:href="#m153bffafb9" x="216.83875" y="75.027265" style="fill: #0000ff; fill-opacity: 0.5; stroke: #ffffff; stroke-opacity: 0.5"/>
     <use xlink:href="#m153bffafb9" x="222.65125" y="101.589791" style="fill: #0000ff; fill-opacity: 0.5; stroke: #ffffff; stroke-opacity: 0.5"/>
     <use xlink:href="#m153bffafb9" x="190.6825" y="117.997322" style="fill: #0000ff; fill-opacity: 0.5; stroke: #ffffff; stroke-opacity: 0.5"/>
     <use xlink:href="#m153bffafb9" x="251.71375" y="87.204719" style="fill: #0000ff; fill-opacity: 0.5; stroke: #ffffff; stroke-opacity: 0.5"/>
     <use xlink:href="#m153bffafb9" x="100.58875" y="161.494353" style="fill: #0000ff; fill-opacity: 0.5; stroke: #ffffff; stroke-opacity: 0.5"/>
     <use xlink:href="#m153bffafb9" x="184.87" y="120.518271" style="fill: #0000ff; fill-opacity: 0.5; stroke: #ffffff; stroke-opacity: 0.5"/>
     <use xlink:href="#m153bffafb9" x="277.87" y="75.198178" style="fill: #0000ff; fill-opacity: 0.5; stroke: #ffffff; stroke-opacity: 0.5"/>
     <use xlink:href="#m153bffafb9" x="272.0575" y="31.644168" style="fill: #0000ff; fill-opacity: 0.5; stroke: #ffffff; stroke-opacity: 0.5"/>
     <use xlink:href="#m153bffafb9" x="109.3075" y="156.837007" style="fill: #0000ff; fill-opacity: 0.5; stroke: #ffffff; stroke-opacity: 0.5"/>
     <use xlink:href="#m153bffafb9" x="187.77625" y="118.908853" style="fill: #0000ff; fill-opacity: 0.5; stroke: #ffffff; stroke-opacity: 0.5"/>
     <use xlink:href="#m153bffafb9" x="330.1825" y="49.333539" style="fill: #0000ff; fill-opacity: 0.5; stroke: #ffffff; stroke-opacity: 0.5"/>
     <use xlink:href="#m153bffafb9" x="304.02625" y="61.980999" style="fill: #0000ff; fill-opacity: 0.5; stroke: #ffffff; stroke-opacity: 0.5"/>
     <use xlink:href="#m153bffafb9" x="286.58875" y="52.338729" style="fill: #0000ff; fill-opacity: 0.5; stroke: #ffffff; stroke-opacity: 0.5"/>
     <use xlink:href="#m153bffafb9" x="298.21375" y="65.185599" style="fill: #0000ff; fill-opacity: 0.5; stroke: #ffffff; stroke-opacity: 0.5"/>
     <use xlink:href="#m153bffafb9" x="335.995" y="25.704988" style="fill: #0000ff; fill-opacity: 0.5; stroke: #ffffff; stroke-opacity: 0.5"/>
     <use xlink:href="#m153bffafb9" x="277.87" y="74.144218" style="fill: #0000ff; fill-opacity: 0.5; stroke: #ffffff; stroke-opacity: 0.5"/>
     <use xlink:href="#m153bffafb9" x="289.495" y="68.959904" style="fill: #0000ff; fill-opacity: 0.5; stroke: #ffffff; stroke-opacity: 0.5"/>
     <use xlink:href="#m153bffafb9" x="301.12" y="59.10399" style="fill: #0000ff; fill-opacity: 0.5; stroke: #ffffff; stroke-opacity: 0.5"/>
     <use xlink:href="#m153bffafb9" x="199.40125" y="24.024356" style="fill: #0000ff; fill-opacity: 0.5; stroke: #ffffff; stroke-opacity: 0.5"/>
    </g>
   </g>
   <g id="PolyCollection_1">
    <path d="M 56.995 180.621981 
L 56.995 192.42 
L 59.813182 190.715548 
L 62.631364 189.011096 
L 65.449545 187.306643 
L 68.267727 185.627487 
L 71.085909 183.959906 
L 73.904091 182.292325 
L 76.722273 180.612007 
L 79.540455 178.871908 
L 82.358636 177.17809 
L 85.176818 175.461592 
L 87.995 173.750587 
L 90.813182 172.027646 
L 93.631364 170.366779 
L 96.449545 168.653857 
L 99.267727 166.926883 
L 102.085909 165.269367 
L 104.904091 163.587969 
L 107.722273 161.928933 
L 110.540455 160.255247 
L 113.358636 158.508378 
L 116.176818 156.81932 
L 118.995 155.135821 
L 121.813182 153.494301 
L 124.631364 151.854833 
L 127.449545 150.207588 
L 130.267727 148.535682 
L 133.085909 146.809435 
L 135.904091 145.159433 
L 138.722273 143.521944 
L 141.540455 141.904777 
L 144.358636 140.272022 
L 147.176818 138.679645 
L 149.995 137.007814 
L 152.813182 135.393773 
L 155.631364 133.758516 
L 158.449545 132.15037 
L 161.267727 130.53379 
L 164.085909 128.894607 
L 166.904091 127.305262 
L 169.722273 125.739682 
L 172.540455 124.174304 
L 175.358636 122.618711 
L 178.176818 121.061348 
L 180.995 119.519512 
L 183.813182 117.96926 
L 186.631364 116.417141 
L 189.449545 114.804341 
L 192.267727 113.224581 
L 195.085909 111.663 
L 197.904091 110.095026 
L 200.722273 108.540303 
L 203.540455 106.998575 
L 206.358636 105.463725 
L 209.176818 103.944092 
L 211.995 102.381482 
L 214.813182 100.82228 
L 217.631364 99.304033 
L 220.449545 97.785604 
L 223.267727 96.250552 
L 226.085909 94.724926 
L 228.904091 93.164057 
L 231.722273 91.632964 
L 234.540455 90.102831 
L 237.358636 88.571758 
L 240.176818 86.99582 
L 242.995 85.508185 
L 245.813182 83.98315 
L 248.631364 82.45867 
L 251.449545 80.952687 
L 254.267727 79.444048 
L 257.085909 77.932453 
L 259.904091 76.402681 
L 262.722273 74.872495 
L 265.540455 73.34188 
L 268.358636 71.811264 
L 271.176818 70.299263 
L 273.995 68.82177 
L 276.813182 67.347863 
L 279.631364 65.830053 
L 282.449545 64.344461 
L 285.267727 62.870957 
L 288.085909 61.358856 
L 290.904091 59.841369 
L 293.722273 58.323882 
L 296.540455 56.840902 
L 299.358636 55.355089 
L 302.176818 53.836979 
L 304.995 52.318657 
L 307.813182 50.800266 
L 310.631364 49.281875 
L 313.449545 47.763484 
L 316.267727 46.245092 
L 319.085909 44.727752 
L 321.904091 43.236496 
L 324.722273 41.732687 
L 327.540455 40.216668 
L 330.358636 38.701018 
L 333.176818 37.185368 
L 335.995 35.669014 
L 335.995 19.680937 
L 335.995 19.680937 
L 333.176818 21.41678 
L 330.358636 23.167283 
L 327.540455 24.938637 
L 324.722273 26.621282 
L 321.904091 28.317169 
L 319.085909 30.085756 
L 316.267727 31.823315 
L 313.449545 33.558391 
L 310.631364 35.293468 
L 307.813182 37.028545 
L 304.995 38.763622 
L 302.176818 40.490947 
L 299.358636 42.158659 
L 296.540455 43.871054 
L 293.722273 45.534582 
L 290.904091 47.198981 
L 288.085909 48.864993 
L 285.267727 50.534003 
L 282.449545 52.232165 
L 279.631364 53.865276 
L 276.813182 55.616712 
L 273.995 57.369476 
L 271.176818 59.121603 
L 268.358636 60.872441 
L 265.540455 62.571269 
L 262.722273 64.212918 
L 259.904091 65.854566 
L 257.085909 67.536885 
L 254.267727 69.222053 
L 251.449545 70.846078 
L 248.631364 72.573039 
L 245.813182 74.280283 
L 242.995 75.938995 
L 240.176818 77.61629 
L 237.358636 79.313607 
L 234.540455 80.978777 
L 231.722273 82.640336 
L 228.904091 84.303701 
L 226.085909 85.968061 
L 223.267727 87.635057 
L 220.449545 89.296537 
L 217.631364 90.937721 
L 214.813182 92.565998 
L 211.995 94.139731 
L 209.176818 95.77618 
L 206.358636 97.446739 
L 203.540455 99.100339 
L 200.722273 100.711175 
L 197.904091 102.388005 
L 195.085909 104.049545 
L 192.267727 105.655806 
L 189.449545 107.263189 
L 186.631364 108.862721 
L 183.813182 110.414435 
L 180.995 111.913762 
L 178.176818 113.626577 
L 175.358636 115.26998 
L 172.540455 116.888419 
L 169.722273 118.499855 
L 166.904091 120.108287 
L 164.085909 121.711643 
L 161.267727 123.27192 
L 158.449545 124.85297 
L 155.631364 126.388196 
L 152.813182 127.914854 
L 149.995 129.441581 
L 147.176818 131.005511 
L 144.358636 132.5425 
L 141.540455 134.144147 
L 138.722273 135.613149 
L 135.904091 137.106214 
L 133.085909 138.689366 
L 130.267727 140.203092 
L 127.449545 141.813988 
L 124.631364 143.443245 
L 121.813182 144.975963 
L 118.995 146.531972 
L 116.176818 148.119342 
L 113.358636 149.635809 
L 110.540455 151.192534 
L 107.722273 152.774055 
L 104.904091 154.242762 
L 102.085909 155.713627 
L 99.267727 157.282576 
L 96.449545 158.86476 
L 93.631364 160.446943 
L 90.813182 162.029127 
L 87.995 163.61131 
L 85.176818 165.193494 
L 82.358636 166.775677 
L 79.540455 168.33973 
L 76.722273 169.878222 
L 73.904091 171.416714 
L 71.085909 172.955207 
L 68.267727 174.455401 
L 65.449545 175.926568 
L 62.631364 177.463924 
L 59.813182 179.042952 
L 56.995 180.621981 
z
" clip-path="url(#p5fcdfe47e8)" style="fill: #ff0000; fill-opacity: 0.15"/>
   </g>
   <g id="line2d_27">
    <path d="M 56.995 186.646887 
L 59.813182 185.046809 
L 62.631364 183.44673 
L 65.449545 181.846651 
L 68.267727 180.246573 
L 71.085909 178.646494 
L 73.904091 177.046415 
L 76.722273 175.446336 
L 79.540455 173.846258 
L 82.358636 172.246179 
L 85.176818 170.6461 
L 87.995 169.046022 
L 90.813182 167.445943 
L 93.631364 165.845864 
L 96.449545 164.245786 
L 99.267727 162.645707 
L 102.085909 161.045628 
L 104.904091 159.44555 
L 107.722273 157.845471 
L 110.540455 156.245392 
L 113.358636 154.645314 
L 116.176818 153.045235 
L 118.995 151.445156 
L 121.813182 149.845077 
L 124.631364 148.244999 
L 127.449545 146.64492 
L 130.267727 145.044841 
L 133.085909 143.444763 
L 135.904091 141.844684 
L 138.722273 140.244605 
L 141.540455 138.644527 
L 144.358636 137.044448 
L 147.176818 135.444369 
L 149.995 133.844291 
L 152.813182 132.244212 
L 155.631364 130.644133 
L 158.449545 129.044055 
L 161.267727 127.443976 
L 164.085909 125.843897 
L 166.904091 124.243819 
L 169.722273 122.64374 
L 172.540455 121.043661 
L 175.358636 119.443582 
L 178.176818 117.843504 
L 180.995 116.243425 
L 183.813182 114.643346 
L 186.631364 113.043268 
L 189.449545 111.443189 
L 192.267727 109.84311 
L 195.085909 108.243032 
L 197.904091 106.642953 
L 200.722273 105.042874 
L 203.540455 103.442796 
L 206.358636 101.842717 
L 209.176818 100.242638 
L 211.995 98.64256 
L 214.813182 97.042481 
L 217.631364 95.442402 
L 220.449545 93.842323 
L 223.267727 92.242245 
L 226.085909 90.642166 
L 228.904091 89.042087 
L 231.722273 87.442009 
L 234.540455 85.84193 
L 237.358636 84.241851 
L 240.176818 82.641773 
L 242.995 81.041694 
L 245.813182 79.441615 
L 248.631364 77.841537 
L 251.449545 76.241458 
L 254.267727 74.641379 
L 257.085909 73.041301 
L 259.904091 71.441222 
L 262.722273 69.841143 
L 265.540455 68.241064 
L 268.358636 66.640986 
L 271.176818 65.040907 
L 273.995 63.440828 
L 276.813182 61.84075 
L 279.631364 60.240671 
L 282.449545 58.640592 
L 285.267727 57.040514 
L 288.085909 55.440435 
L 290.904091 53.840356 
L 293.722273 52.240278 
L 296.540455 50.640199 
L 299.358636 49.04012 
L 302.176818 47.440042 
L 304.995 45.839963 
L 307.813182 44.239884 
L 310.631364 42.639806 
L 313.449545 41.039727 
L 316.267727 39.439648 
L 319.085909 37.839569 
L 321.904091 36.239491 
L 324.722273 34.639412 
L 327.540455 33.039333 
L 330.358636 31.439255 
L 333.176818 29.839176 
L 335.995 28.239097 
" clip-path="url(#p5fcdfe47e8)" style="fill: none; stroke: #ff0000; stroke-opacity: 0.7; stroke-width: 3; stroke-linecap: square"/>
   </g>
   <g id="patch_3">
    <path d="M 43.045 201.24 
L 43.045 7.2 
" style="fill: none; stroke: #ffffff; stroke-linejoin: miter; stroke-linecap: square"/>
   </g>
   <g id="patch_4">
    <path d="M 349.945 201.24 
L 349.945 7.2 
" style="fill: none; stroke: #ffffff; stroke-linejoin: miter; stroke-linecap: square"/>
   </g>
   <g id="patch_5">
    <path d="M 43.045 201.24 
L 349.945 201.24 
" style="fill: none; stroke: #ffffff; stroke-linejoin: miter; stroke-linecap: square"/>
   </g>
   <g id="patch_6">
    <path d="M 43.045 7.2 
L 349.945 7.2 
" style="fill: none; stroke: #ffffff; stroke-linejoin: miter; stroke-linecap: square"/>
   </g>
   <g id="legend_1">
    <g id="patch_7">
     <path d="M 179.645 196.24 
L 342.945 196.24 
Q 344.945 196.24 344.945 194.24 
L 344.945 154.364063 
Q 344.945 152.364063 342.945 152.364063 
L 179.645 152.364063 
Q 177.645 152.364063 177.645 154.364063 
L 177.645 194.24 
Q 177.645 196.24 179.645 196.24 
z
" style="fill: #e5e5e5; opacity: 0.8; stroke: #cccccc; stroke-width: 0.5; stroke-linejoin: miter"/>
    </g>
    <g id="PathCollection_2">
     <g>
      <use xlink:href="#m153bffafb9" x="191.645" y="161.3375" style="fill: #0000ff; fill-opacity: 0.5; stroke: #ffffff; stroke-opacity: 0.5"/>
     </g>
    </g>
    <g id="text_16">
     <!-- Data -->
     <g transform="translate(209.645 163.9625) scale(0.1 -0.1)">
      <defs>
       <path id="DejaVuSans-44" d="M 1259 4147 
L 1259 519 
L 2022 519 
Q 2988 519 3436 956 
Q 3884 1394 3884 2338 
Q 3884 3275 3436 3711 
Q 2988 4147 2022 4147 
L 1259 4147 
z
M 628 4666 
L 1925 4666 
Q 3281 4666 3915 4102 
Q 4550 3538 4550 2338 
Q 4550 1131 3912 565 
Q 3275 0 1925 0 
L 628 0 
L 628 4666 
z
" transform="scale(0.015625)"/>
       <path id="DejaVuSans-74" d="M 1172 4494 
L 1172 3500 
L 2356 3500 
L 2356 3053 
L 1172 3053 
L 1172 1153 
Q 1172 725 1289 603 
Q 1406 481 1766 481 
L 2356 481 
L 2356 0 
L 1766 0 
Q 1100 0 847 248 
Q 594 497 594 1153 
L 594 3053 
L 172 3053 
L 172 3500 
L 594 3500 
L 594 4494 
L 1172 4494 
z
" transform="scale(0.015625)"/>
      </defs>
      <use xlink:href="#DejaVuSans-44"/>
      <use xlink:href="#DejaVuSans-61" x="77.001953"/>
      <use xlink:href="#DejaVuSans-74" x="138.28125"/>
      <use xlink:href="#DejaVuSans-61" x="177.490234"/>
     </g>
    </g>
    <g id="line2d_28">
     <path d="M 181.645 181.940313 
L 191.645 181.940313 
L 201.645 181.940313 
" style="fill: none; stroke: #ff0000; stroke-opacity: 0.7; stroke-width: 3; stroke-linecap: square"/>
    </g>
    <g id="text_17">
     <!-- $M_{K,HEC}=$1.16$\cdot M_{K,LVG}$$-0.91$ -->
     <g transform="translate(209.645 178.542188) scale(0.1 -0.1)">
      <defs>
       <path id="DejaVuSans-3d" d="M 678 2906 
L 4684 2906 
L 4684 2381 
L 678 2381 
L 678 2906 
z
M 678 1631 
L 4684 1631 
L 4684 1100 
L 678 1100 
L 678 1631 
z
" transform="scale(0.015625)"/>
       <path id="DejaVuSans-2e" d="M 684 794 
L 1344 794 
L 1344 0 
L 684 0 
L 684 794 
z
" transform="scale(0.015625)"/>
       <path id="DejaVuSans-22c5" d="M 684 2619 
L 1344 2619 
L 1344 1825 
L 684 1825 
L 684 2619 
z
" transform="scale(0.015625)"/>
       <path id="DejaVuSans-2212" d="M 678 2272 
L 4684 2272 
L 4684 1741 
L 678 1741 
L 678 2272 
z
" transform="scale(0.015625)"/>
       <path id="DejaVuSans-39" d="M 703 97 
L 703 672 
Q 941 559 1184 500 
Q 1428 441 1663 441 
Q 2288 441 2617 861 
Q 2947 1281 2994 2138 
Q 2813 1869 2534 1725 
Q 2256 1581 1919 1581 
Q 1219 1581 811 2004 
Q 403 2428 403 3163 
Q 403 3881 828 4315 
Q 1253 4750 1959 4750 
Q 2769 4750 3195 4129 
Q 3622 3509 3622 2328 
Q 3622 1225 3098 567 
Q 2575 -91 1691 -91 
Q 1453 -91 1209 -44 
Q 966 3 703 97 
z
M 1959 2075 
Q 2384 2075 2632 2365 
Q 2881 2656 2881 3163 
Q 2881 3666 2632 3958 
Q 2384 4250 1959 4250 
Q 1534 4250 1286 3958 
Q 1038 3666 1038 3163 
Q 1038 2656 1286 2365 
Q 1534 2075 1959 2075 
z
" transform="scale(0.015625)"/>
      </defs>
      <use xlink:href="#DejaVuSans-Oblique-4d" transform="translate(0 0.78125)"/>
      <use xlink:href="#DejaVuSans-Oblique-4b" transform="translate(86.279297 -15.625) scale(0.7)"/>
      <use xlink:href="#DejaVuSans-2c" transform="translate(132.182617 -15.625) scale(0.7)"/>
      <use xlink:href="#DejaVuSans-Oblique-48" transform="translate(168.071289 -15.625) scale(0.7)"/>
      <use xlink:href="#DejaVuSans-Oblique-45" transform="translate(220.708008 -15.625) scale(0.7)"/>
      <use xlink:href="#DejaVuSans-Oblique-43" transform="translate(264.936523 -15.625) scale(0.7)"/>
      <use xlink:href="#DejaVuSans-3d" transform="translate(336.030273 0.78125)"/>
      <use xlink:href="#DejaVuSans-31" transform="translate(439.301758 0.78125)"/>
      <use xlink:href="#DejaVuSans-2e" transform="translate(502.924805 0.78125)"/>
      <use xlink:href="#DejaVuSans-31" transform="translate(534.711914 0.78125)"/>
      <use xlink:href="#DejaVuSans-36" transform="translate(598.334961 0.78125)"/>
      <use xlink:href="#DejaVuSans-22c5" transform="translate(661.958008 0.78125)"/>
      <use xlink:href="#DejaVuSans-Oblique-4d" transform="translate(693.745117 0.78125)"/>
      <use xlink:href="#DejaVuSans-Oblique-4b" transform="translate(780.024414 -15.625) scale(0.7)"/>
      <use xlink:href="#DejaVuSans-2c" transform="translate(825.927734 -15.625) scale(0.7)"/>
      <use xlink:href="#DejaVuSans-Oblique-4c" transform="translate(861.816406 -15.625) scale(0.7)"/>
      <use xlink:href="#DejaVuSans-Oblique-56" transform="translate(900.81543 -15.625) scale(0.7)"/>
      <use xlink:href="#DejaVuSans-Oblique-47" transform="translate(948.701172 -15.625) scale(0.7)"/>
      <use xlink:href="#DejaVuSans-2212" transform="translate(1005.678711 0.78125)"/>
      <use xlink:href="#DejaVuSans-30" transform="translate(1089.467773 0.78125)"/>
      <use xlink:href="#DejaVuSans-2e" transform="translate(1153.09082 0.78125)"/>
      <use xlink:href="#DejaVuSans-39" transform="translate(1184.87793 0.78125)"/>
      <use xlink:href="#DejaVuSans-31" transform="translate(1248.500977 0.78125)"/>
     </g>
     <!--  $R^2 = 85.79\%$ -->
     <g transform="translate(209.645 190.160313) scale(0.1 -0.1)">
      <defs>
       <path id="DejaVuSans-Oblique-52" d="M 1613 4147 
L 1294 2491 
L 2106 2491 
Q 2584 2491 2879 2755 
Q 3175 3019 3175 3444 
Q 3175 3784 2976 3965 
Q 2778 4147 2406 4147 
L 1613 4147 
z
M 2772 2241 
Q 2972 2194 3105 2009 
Q 3238 1825 3413 1275 
L 3809 0 
L 3144 0 
L 2778 1197 
Q 2638 1659 2453 1815 
Q 2269 1972 1888 1972 
L 1191 1972 
L 806 0 
L 172 0 
L 1081 4666 
L 2503 4666 
Q 3150 4666 3495 4373 
Q 3841 4081 3841 3531 
Q 3841 3044 3547 2687 
Q 3253 2331 2772 2241 
z
" transform="scale(0.015625)"/>
       <path id="DejaVuSans-35" d="M 691 4666 
L 3169 4666 
L 3169 4134 
L 1269 4134 
L 1269 2991 
Q 1406 3038 1543 3061 
Q 1681 3084 1819 3084 
Q 2600 3084 3056 2656 
Q 3513 2228 3513 1497 
Q 3513 744 3044 326 
Q 2575 -91 1722 -91 
Q 1428 -91 1123 -41 
Q 819 9 494 109 
L 494 744 
Q 775 591 1075 516 
Q 1375 441 1709 441 
Q 2250 441 2565 725 
Q 2881 1009 2881 1497 
Q 2881 1984 2565 2268 
Q 2250 2553 1709 2553 
Q 1456 2553 1204 2497 
Q 953 2441 691 2322 
L 691 4666 
z
" transform="scale(0.015625)"/>
       <path id="DejaVuSans-37" d="M 525 4666 
L 3525 4666 
L 3525 4397 
L 1831 0 
L 1172 0 
L 2766 4134 
L 525 4134 
L 525 4666 
z
" transform="scale(0.015625)"/>
       <path id="DejaVuSans-25" d="M 4653 2053 
Q 4381 2053 4226 1822 
Q 4072 1591 4072 1178 
Q 4072 772 4226 539 
Q 4381 306 4653 306 
Q 4919 306 5073 539 
Q 5228 772 5228 1178 
Q 5228 1588 5073 1820 
Q 4919 2053 4653 2053 
z
M 4653 2450 
Q 5147 2450 5437 2106 
Q 5728 1763 5728 1178 
Q 5728 594 5436 251 
Q 5144 -91 4653 -91 
Q 4153 -91 3862 251 
Q 3572 594 3572 1178 
Q 3572 1766 3864 2108 
Q 4156 2450 4653 2450 
z
M 1428 4353 
Q 1159 4353 1004 4120 
Q 850 3888 850 3481 
Q 850 3069 1003 2837 
Q 1156 2606 1428 2606 
Q 1700 2606 1854 2837 
Q 2009 3069 2009 3481 
Q 2009 3884 1853 4118 
Q 1697 4353 1428 4353 
z
M 4250 4750 
L 4750 4750 
L 1831 -91 
L 1331 -91 
L 4250 4750 
z
M 1428 4750 
Q 1922 4750 2215 4408 
Q 2509 4066 2509 3481 
Q 2509 2891 2217 2550 
Q 1925 2209 1428 2209 
Q 931 2209 642 2551 
Q 353 2894 353 3481 
Q 353 4063 643 4406 
Q 934 4750 1428 4750 
z
" transform="scale(0.015625)"/>
      </defs>
      <use xlink:href="#DejaVuSans-20" transform="translate(0 0.765625)"/>
      <use xlink:href="#DejaVuSans-Oblique-52" transform="translate(31.787109 0.765625)"/>
      <use xlink:href="#DejaVuSans-32" transform="translate(108.286302 39.046875) scale(0.7)"/>
      <use xlink:href="#DejaVuSans-3d" transform="translate(175.039232 0.765625)"/>
      <use xlink:href="#DejaVuSans-38" transform="translate(278.310716 0.765625)"/>
      <use xlink:href="#DejaVuSans-35" transform="translate(341.933763 0.765625)"/>
      <use xlink:href="#DejaVuSans-2e" transform="translate(405.55681 0.765625)"/>
      <use xlink:href="#DejaVuSans-37" transform="translate(429.593919 0.765625)"/>
      <use xlink:href="#DejaVuSans-39" transform="translate(493.216966 0.765625)"/>
      <use xlink:href="#DejaVuSans-25" transform="translate(556.840013 0.765625)"/>
     </g>
    </g>
   </g>
  </g>
 </g>
 <defs>
  <clipPath id="p5fcdfe47e8">
   <rect x="43.045" y="7.2" width="306.9" height="194.04"/>
  </clipPath>
 </defs>
</svg>
