<?xml version="1.0" encoding="utf-8" standalone="no"?>
<!DOCTYPE svg PUBLIC "-//W3C//DTD SVG 1.1//EN"
  "http://www.w3.org/Graphics/SVG/1.1/DTD/svg11.dtd">
<svg xmlns:xlink="http://www.w3.org/1999/xlink" width="366.597355pt" height="240.758125pt" viewBox="0 0 366.597355 240.758125" xmlns="http://www.w3.org/2000/svg" version="1.1">
 <metadata>
  <rdf:RDF xmlns:dc="http://purl.org/dc/elements/1.1/" xmlns:cc="http://creativecommons.org/ns#" xmlns:rdf="http://www.w3.org/1999/02/22-rdf-syntax-ns#">
   <cc:Work>
    <dc:type rdf:resource="http://purl.org/dc/dcmitype/StillImage"/>
    <dc:date>2024-10-27T18:40:31.295278</dc:date>
    <dc:format>image/svg+xml</dc:format>
    <dc:creator>
     <cc:Agent>
      <dc:title>Matplotlib v3.8.4, https://matplotlib.org/</dc:title>
     </cc:Agent>
    </dc:creator>
   </cc:Work>
  </rdf:RDF>
 </metadata>
 <defs>
  <style type="text/css">*{stroke-linejoin: round; stroke-linecap: butt}</style>
 </defs>
 <g id="figure_1">
  <g id="patch_1">
   <path d="M 0 240.758125 
L 366.597355 240.758125 
L 366.597355 -0 
L 0 -0 
z
" style="fill: #ffffff"/>
  </g>
  <g id="axes_1">
   <g id="patch_2">
    <path d="M 44.582188 201.24 
L 351.482188 201.24 
L 351.482188 7.2 
L 44.582188 7.2 
z
" style="fill: #e5e5e5"/>
   </g>
   <g id="matplotlib.axis_1">
    <g id="xtick_1">
     <g id="line2d_1">
      <path d="M 58.532187 201.24 
L 58.532187 7.2 
" clip-path="url(#p63f6e7e639)" style="fill: none; stroke: #ffffff; stroke-width: 0.8; stroke-linecap: square"/>
     </g>
     <g id="line2d_2">
      <defs>
       <path id="mac1e30370a" d="M 0 0 
L 0 3.5 
" style="stroke: #555555; stroke-width: 0.8"/>
      </defs>
      <g>
       <use xlink:href="#mac1e30370a" x="58.532187" y="201.24" style="fill: #555555; stroke: #555555; stroke-width: 0.8"/>
      </g>
     </g>
     <g id="text_1">
      <!-- −1.0 -->
      <g style="fill: #555555" transform="translate(46.390781 215.838437) scale(0.1 -0.1)">
       <defs>
        <path id="DejaVuSans-2212" d="M 678 2272 
L 4684 2272 
L 4684 1741 
L 678 1741 
L 678 2272 
z
" transform="scale(0.015625)"/>
        <path id="DejaVuSans-31" d="M 794 531 
L 1825 531 
L 1825 4091 
L 703 3866 
L 703 4441 
L 1819 4666 
L 2450 4666 
L 2450 531 
L 3481 531 
L 3481 0 
L 794 0 
L 794 531 
z
" transform="scale(0.015625)"/>
        <path id="DejaVuSans-2e" d="M 684 794 
L 1344 794 
L 1344 0 
L 684 0 
L 684 794 
z
" transform="scale(0.015625)"/>
        <path id="DejaVuSans-30" d="M 2034 4250 
Q 1547 4250 1301 3770 
Q 1056 3291 1056 2328 
Q 1056 1369 1301 889 
Q 1547 409 2034 409 
Q 2525 409 2770 889 
Q 3016 1369 3016 2328 
Q 3016 3291 2770 3770 
Q 2525 4250 2034 4250 
z
M 2034 4750 
Q 2819 4750 3233 4129 
Q 3647 3509 3647 2328 
Q 3647 1150 3233 529 
Q 2819 -91 2034 -91 
Q 1250 -91 836 529 
Q 422 1150 422 2328 
Q 422 3509 836 4129 
Q 1250 4750 2034 4750 
z
" transform="scale(0.015625)"/>
       </defs>
       <use xlink:href="#DejaVuSans-2212"/>
       <use xlink:href="#DejaVuSans-31" x="83.789062"/>
       <use xlink:href="#DejaVuSans-2e" x="147.412109"/>
       <use xlink:href="#DejaVuSans-30" x="179.199219"/>
      </g>
     </g>
    </g>
    <g id="xtick_2">
     <g id="line2d_3">
      <path d="M 95.146388 201.24 
L 95.146388 7.2 
" clip-path="url(#p63f6e7e639)" style="fill: none; stroke: #ffffff; stroke-width: 0.8; stroke-linecap: square"/>
     </g>
     <g id="line2d_4">
      <g>
       <use xlink:href="#mac1e30370a" x="95.146388" y="201.24" style="fill: #555555; stroke: #555555; stroke-width: 0.8"/>
      </g>
     </g>
     <g id="text_2">
      <!-- −0.5 -->
      <g style="fill: #555555" transform="translate(83.004982 215.838437) scale(0.1 -0.1)">
       <defs>
        <path id="DejaVuSans-35" d="M 691 4666 
L 3169 4666 
L 3169 4134 
L 1269 4134 
L 1269 2991 
Q 1406 3038 1543 3061 
Q 1681 3084 1819 3084 
Q 2600 3084 3056 2656 
Q 3513 2228 3513 1497 
Q 3513 744 3044 326 
Q 2575 -91 1722 -91 
Q 1428 -91 1123 -41 
Q 819 9 494 109 
L 494 744 
Q 775 591 1075 516 
Q 1375 441 1709 441 
Q 2250 441 2565 725 
Q 2881 1009 2881 1497 
Q 2881 1984 2565 2268 
Q 2250 2553 1709 2553 
Q 1456 2553 1204 2497 
Q 953 2441 691 2322 
L 691 4666 
z
" transform="scale(0.015625)"/>
       </defs>
       <use xlink:href="#DejaVuSans-2212"/>
       <use xlink:href="#DejaVuSans-30" x="83.789062"/>
       <use xlink:href="#DejaVuSans-2e" x="147.412109"/>
       <use xlink:href="#DejaVuSans-35" x="179.199219"/>
      </g>
     </g>
    </g>
    <g id="xtick_3">
     <g id="line2d_5">
      <path d="M 131.760589 201.24 
L 131.760589 7.2 
" clip-path="url(#p63f6e7e639)" style="fill: none; stroke: #ffffff; stroke-width: 0.8; stroke-linecap: square"/>
     </g>
     <g id="line2d_6">
      <g>
       <use xlink:href="#mac1e30370a" x="131.760589" y="201.24" style="fill: #555555; stroke: #555555; stroke-width: 0.8"/>
      </g>
     </g>
     <g id="text_3">
      <!-- 0.0 -->
      <g style="fill: #555555" transform="translate(123.809026 215.838437) scale(0.1 -0.1)">
       <use xlink:href="#DejaVuSans-30"/>
       <use xlink:href="#DejaVuSans-2e" x="63.623047"/>
       <use xlink:href="#DejaVuSans-30" x="95.410156"/>
      </g>
     </g>
    </g>
    <g id="xtick_4">
     <g id="line2d_7">
      <path d="M 168.374789 201.24 
L 168.374789 7.2 
" clip-path="url(#p63f6e7e639)" style="fill: none; stroke: #ffffff; stroke-width: 0.8; stroke-linecap: square"/>
     </g>
     <g id="line2d_8">
      <g>
       <use xlink:href="#mac1e30370a" x="168.374789" y="201.24" style="fill: #555555; stroke: #555555; stroke-width: 0.8"/>
      </g>
     </g>
     <g id="text_4">
      <!-- 0.5 -->
      <g style="fill: #555555" transform="translate(160.423227 215.838437) scale(0.1 -0.1)">
       <use xlink:href="#DejaVuSans-30"/>
       <use xlink:href="#DejaVuSans-2e" x="63.623047"/>
       <use xlink:href="#DejaVuSans-35" x="95.410156"/>
      </g>
     </g>
    </g>
    <g id="xtick_5">
     <g id="line2d_9">
      <path d="M 204.98899 201.24 
L 204.98899 7.2 
" clip-path="url(#p63f6e7e639)" style="fill: none; stroke: #ffffff; stroke-width: 0.8; stroke-linecap: square"/>
     </g>
     <g id="line2d_10">
      <g>
       <use xlink:href="#mac1e30370a" x="204.98899" y="201.24" style="fill: #555555; stroke: #555555; stroke-width: 0.8"/>
      </g>
     </g>
     <g id="text_5">
      <!-- 1.0 -->
      <g style="fill: #555555" transform="translate(197.037427 215.838437) scale(0.1 -0.1)">
       <use xlink:href="#DejaVuSans-31"/>
       <use xlink:href="#DejaVuSans-2e" x="63.623047"/>
       <use xlink:href="#DejaVuSans-30" x="95.410156"/>
      </g>
     </g>
    </g>
    <g id="xtick_6">
     <g id="line2d_11">
      <path d="M 241.60319 201.24 
L 241.60319 7.2 
" clip-path="url(#p63f6e7e639)" style="fill: none; stroke: #ffffff; stroke-width: 0.8; stroke-linecap: square"/>
     </g>
     <g id="line2d_12">
      <g>
       <use xlink:href="#mac1e30370a" x="241.60319" y="201.24" style="fill: #555555; stroke: #555555; stroke-width: 0.8"/>
      </g>
     </g>
     <g id="text_6">
      <!-- 1.5 -->
      <g style="fill: #555555" transform="translate(233.651628 215.838437) scale(0.1 -0.1)">
       <use xlink:href="#DejaVuSans-31"/>
       <use xlink:href="#DejaVuSans-2e" x="63.623047"/>
       <use xlink:href="#DejaVuSans-35" x="95.410156"/>
      </g>
     </g>
    </g>
    <g id="xtick_7">
     <g id="line2d_13">
      <path d="M 278.217391 201.24 
L 278.217391 7.2 
" clip-path="url(#p63f6e7e639)" style="fill: none; stroke: #ffffff; stroke-width: 0.8; stroke-linecap: square"/>
     </g>
     <g id="line2d_14">
      <g>
       <use xlink:href="#mac1e30370a" x="278.217391" y="201.24" style="fill: #555555; stroke: #555555; stroke-width: 0.8"/>
      </g>
     </g>
     <g id="text_7">
      <!-- 2.0 -->
      <g style="fill: #555555" transform="translate(270.265828 215.838437) scale(0.1 -0.1)">
       <defs>
        <path id="DejaVuSans-32" d="M 1228 531 
L 3431 531 
L 3431 0 
L 469 0 
L 469 531 
Q 828 903 1448 1529 
Q 2069 2156 2228 2338 
Q 2531 2678 2651 2914 
Q 2772 3150 2772 3378 
Q 2772 3750 2511 3984 
Q 2250 4219 1831 4219 
Q 1534 4219 1204 4116 
Q 875 4013 500 3803 
L 500 4441 
Q 881 4594 1212 4672 
Q 1544 4750 1819 4750 
Q 2544 4750 2975 4387 
Q 3406 4025 3406 3419 
Q 3406 3131 3298 2873 
Q 3191 2616 2906 2266 
Q 2828 2175 2409 1742 
Q 1991 1309 1228 531 
z
" transform="scale(0.015625)"/>
       </defs>
       <use xlink:href="#DejaVuSans-32"/>
       <use xlink:href="#DejaVuSans-2e" x="63.623047"/>
       <use xlink:href="#DejaVuSans-30" x="95.410156"/>
      </g>
     </g>
    </g>
    <g id="xtick_8">
     <g id="line2d_15">
      <path d="M 314.831591 201.24 
L 314.831591 7.2 
" clip-path="url(#p63f6e7e639)" style="fill: none; stroke: #ffffff; stroke-width: 0.8; stroke-linecap: square"/>
     </g>
     <g id="line2d_16">
      <g>
       <use xlink:href="#mac1e30370a" x="314.831591" y="201.24" style="fill: #555555; stroke: #555555; stroke-width: 0.8"/>
      </g>
     </g>
     <g id="text_8">
      <!-- 2.5 -->
      <g style="fill: #555555" transform="translate(306.880029 215.838437) scale(0.1 -0.1)">
       <use xlink:href="#DejaVuSans-32"/>
       <use xlink:href="#DejaVuSans-2e" x="63.623047"/>
       <use xlink:href="#DejaVuSans-35" x="95.410156"/>
      </g>
     </g>
    </g>
    <g id="xtick_9">
     <g id="line2d_17">
      <path d="M 351.445792 201.24 
L 351.445792 7.2 
" clip-path="url(#p63f6e7e639)" style="fill: none; stroke: #ffffff; stroke-width: 0.8; stroke-linecap: square"/>
     </g>
     <g id="line2d_18">
      <g>
       <use xlink:href="#mac1e30370a" x="351.445792" y="201.24" style="fill: #555555; stroke: #555555; stroke-width: 0.8"/>
      </g>
     </g>
     <g id="text_9">
      <!-- 3.0 -->
      <g style="fill: #555555" transform="translate(343.49423 215.838437) scale(0.1 -0.1)">
       <defs>
        <path id="DejaVuSans-33" d="M 2597 2516 
Q 3050 2419 3304 2112 
Q 3559 1806 3559 1356 
Q 3559 666 3084 287 
Q 2609 -91 1734 -91 
Q 1441 -91 1130 -33 
Q 819 25 488 141 
L 488 750 
Q 750 597 1062 519 
Q 1375 441 1716 441 
Q 2309 441 2620 675 
Q 2931 909 2931 1356 
Q 2931 1769 2642 2001 
Q 2353 2234 1838 2234 
L 1294 2234 
L 1294 2753 
L 1863 2753 
Q 2328 2753 2575 2939 
Q 2822 3125 2822 3475 
Q 2822 3834 2567 4026 
Q 2313 4219 1838 4219 
Q 1578 4219 1281 4162 
Q 984 4106 628 3988 
L 628 4550 
Q 988 4650 1302 4700 
Q 1616 4750 1894 4750 
Q 2613 4750 3031 4423 
Q 3450 4097 3450 3541 
Q 3450 3153 3228 2886 
Q 3006 2619 2597 2516 
z
" transform="scale(0.015625)"/>
       </defs>
       <use xlink:href="#DejaVuSans-33"/>
       <use xlink:href="#DejaVuSans-2e" x="63.623047"/>
       <use xlink:href="#DejaVuSans-30" x="95.410156"/>
      </g>
     </g>
    </g>
    <g id="text_10">
     <!-- (Major angular diameter$)_{LVG}$ [arcmin] -->
     <g style="fill: #555555" transform="translate(86.732188 231.038125) scale(0.12 -0.12)">
      <defs>
       <path id="DejaVuSans-28" d="M 1984 4856 
Q 1566 4138 1362 3434 
Q 1159 2731 1159 2009 
Q 1159 1288 1364 580 
Q 1569 -128 1984 -844 
L 1484 -844 
Q 1016 -109 783 600 
Q 550 1309 550 2009 
Q 550 2706 781 3412 
Q 1013 4119 1484 4856 
L 1984 4856 
z
" transform="scale(0.015625)"/>
       <path id="DejaVuSans-4d" d="M 628 4666 
L 1569 4666 
L 2759 1491 
L 3956 4666 
L 4897 4666 
L 4897 0 
L 4281 0 
L 4281 4097 
L 3078 897 
L 2444 897 
L 1241 4097 
L 1241 0 
L 628 0 
L 628 4666 
z
" transform="scale(0.015625)"/>
       <path id="DejaVuSans-61" d="M 2194 1759 
Q 1497 1759 1228 1600 
Q 959 1441 959 1056 
Q 959 750 1161 570 
Q 1363 391 1709 391 
Q 2188 391 2477 730 
Q 2766 1069 2766 1631 
L 2766 1759 
L 2194 1759 
z
M 3341 1997 
L 3341 0 
L 2766 0 
L 2766 531 
Q 2569 213 2275 61 
Q 1981 -91 1556 -91 
Q 1019 -91 701 211 
Q 384 513 384 1019 
Q 384 1609 779 1909 
Q 1175 2209 1959 2209 
L 2766 2209 
L 2766 2266 
Q 2766 2663 2505 2880 
Q 2244 3097 1772 3097 
Q 1472 3097 1187 3025 
Q 903 2953 641 2809 
L 641 3341 
Q 956 3463 1253 3523 
Q 1550 3584 1831 3584 
Q 2591 3584 2966 3190 
Q 3341 2797 3341 1997 
z
" transform="scale(0.015625)"/>
       <path id="DejaVuSans-6a" d="M 603 3500 
L 1178 3500 
L 1178 -63 
Q 1178 -731 923 -1031 
Q 669 -1331 103 -1331 
L -116 -1331 
L -116 -844 
L 38 -844 
Q 366 -844 484 -692 
Q 603 -541 603 -63 
L 603 3500 
z
M 603 4863 
L 1178 4863 
L 1178 4134 
L 603 4134 
L 603 4863 
z
" transform="scale(0.015625)"/>
       <path id="DejaVuSans-6f" d="M 1959 3097 
Q 1497 3097 1228 2736 
Q 959 2375 959 1747 
Q 959 1119 1226 758 
Q 1494 397 1959 397 
Q 2419 397 2687 759 
Q 2956 1122 2956 1747 
Q 2956 2369 2687 2733 
Q 2419 3097 1959 3097 
z
M 1959 3584 
Q 2709 3584 3137 3096 
Q 3566 2609 3566 1747 
Q 3566 888 3137 398 
Q 2709 -91 1959 -91 
Q 1206 -91 779 398 
Q 353 888 353 1747 
Q 353 2609 779 3096 
Q 1206 3584 1959 3584 
z
" transform="scale(0.015625)"/>
       <path id="DejaVuSans-72" d="M 2631 2963 
Q 2534 3019 2420 3045 
Q 2306 3072 2169 3072 
Q 1681 3072 1420 2755 
Q 1159 2438 1159 1844 
L 1159 0 
L 581 0 
L 581 3500 
L 1159 3500 
L 1159 2956 
Q 1341 3275 1631 3429 
Q 1922 3584 2338 3584 
Q 2397 3584 2469 3576 
Q 2541 3569 2628 3553 
L 2631 2963 
z
" transform="scale(0.015625)"/>
       <path id="DejaVuSans-20" transform="scale(0.015625)"/>
       <path id="DejaVuSans-6e" d="M 3513 2113 
L 3513 0 
L 2938 0 
L 2938 2094 
Q 2938 2591 2744 2837 
Q 2550 3084 2163 3084 
Q 1697 3084 1428 2787 
Q 1159 2491 1159 1978 
L 1159 0 
L 581 0 
L 581 3500 
L 1159 3500 
L 1159 2956 
Q 1366 3272 1645 3428 
Q 1925 3584 2291 3584 
Q 2894 3584 3203 3211 
Q 3513 2838 3513 2113 
z
" transform="scale(0.015625)"/>
       <path id="DejaVuSans-67" d="M 2906 1791 
Q 2906 2416 2648 2759 
Q 2391 3103 1925 3103 
Q 1463 3103 1205 2759 
Q 947 2416 947 1791 
Q 947 1169 1205 825 
Q 1463 481 1925 481 
Q 2391 481 2648 825 
Q 2906 1169 2906 1791 
z
M 3481 434 
Q 3481 -459 3084 -895 
Q 2688 -1331 1869 -1331 
Q 1566 -1331 1297 -1286 
Q 1028 -1241 775 -1147 
L 775 -588 
Q 1028 -725 1275 -790 
Q 1522 -856 1778 -856 
Q 2344 -856 2625 -561 
Q 2906 -266 2906 331 
L 2906 616 
Q 2728 306 2450 153 
Q 2172 0 1784 0 
Q 1141 0 747 490 
Q 353 981 353 1791 
Q 353 2603 747 3093 
Q 1141 3584 1784 3584 
Q 2172 3584 2450 3431 
Q 2728 3278 2906 2969 
L 2906 3500 
L 3481 3500 
L 3481 434 
z
" transform="scale(0.015625)"/>
       <path id="DejaVuSans-75" d="M 544 1381 
L 544 3500 
L 1119 3500 
L 1119 1403 
Q 1119 906 1312 657 
Q 1506 409 1894 409 
Q 2359 409 2629 706 
Q 2900 1003 2900 1516 
L 2900 3500 
L 3475 3500 
L 3475 0 
L 2900 0 
L 2900 538 
Q 2691 219 2414 64 
Q 2138 -91 1772 -91 
Q 1169 -91 856 284 
Q 544 659 544 1381 
z
M 1991 3584 
L 1991 3584 
z
" transform="scale(0.015625)"/>
       <path id="DejaVuSans-6c" d="M 603 4863 
L 1178 4863 
L 1178 0 
L 603 0 
L 603 4863 
z
" transform="scale(0.015625)"/>
       <path id="DejaVuSans-64" d="M 2906 2969 
L 2906 4863 
L 3481 4863 
L 3481 0 
L 2906 0 
L 2906 525 
Q 2725 213 2448 61 
Q 2172 -91 1784 -91 
Q 1150 -91 751 415 
Q 353 922 353 1747 
Q 353 2572 751 3078 
Q 1150 3584 1784 3584 
Q 2172 3584 2448 3432 
Q 2725 3281 2906 2969 
z
M 947 1747 
Q 947 1113 1208 752 
Q 1469 391 1925 391 
Q 2381 391 2643 752 
Q 2906 1113 2906 1747 
Q 2906 2381 2643 2742 
Q 2381 3103 1925 3103 
Q 1469 3103 1208 2742 
Q 947 2381 947 1747 
z
" transform="scale(0.015625)"/>
       <path id="DejaVuSans-69" d="M 603 3500 
L 1178 3500 
L 1178 0 
L 603 0 
L 603 3500 
z
M 603 4863 
L 1178 4863 
L 1178 4134 
L 603 4134 
L 603 4863 
z
" transform="scale(0.015625)"/>
       <path id="DejaVuSans-6d" d="M 3328 2828 
Q 3544 3216 3844 3400 
Q 4144 3584 4550 3584 
Q 5097 3584 5394 3201 
Q 5691 2819 5691 2113 
L 5691 0 
L 5113 0 
L 5113 2094 
Q 5113 2597 4934 2840 
Q 4756 3084 4391 3084 
Q 3944 3084 3684 2787 
Q 3425 2491 3425 1978 
L 3425 0 
L 2847 0 
L 2847 2094 
Q 2847 2600 2669 2842 
Q 2491 3084 2119 3084 
Q 1678 3084 1418 2786 
Q 1159 2488 1159 1978 
L 1159 0 
L 581 0 
L 581 3500 
L 1159 3500 
L 1159 2956 
Q 1356 3278 1631 3431 
Q 1906 3584 2284 3584 
Q 2666 3584 2933 3390 
Q 3200 3197 3328 2828 
z
" transform="scale(0.015625)"/>
       <path id="DejaVuSans-65" d="M 3597 1894 
L 3597 1613 
L 953 1613 
Q 991 1019 1311 708 
Q 1631 397 2203 397 
Q 2534 397 2845 478 
Q 3156 559 3463 722 
L 3463 178 
Q 3153 47 2828 -22 
Q 2503 -91 2169 -91 
Q 1331 -91 842 396 
Q 353 884 353 1716 
Q 353 2575 817 3079 
Q 1281 3584 2069 3584 
Q 2775 3584 3186 3129 
Q 3597 2675 3597 1894 
z
M 3022 2063 
Q 3016 2534 2758 2815 
Q 2500 3097 2075 3097 
Q 1594 3097 1305 2825 
Q 1016 2553 972 2059 
L 3022 2063 
z
" transform="scale(0.015625)"/>
       <path id="DejaVuSans-74" d="M 1172 4494 
L 1172 3500 
L 2356 3500 
L 2356 3053 
L 1172 3053 
L 1172 1153 
Q 1172 725 1289 603 
Q 1406 481 1766 481 
L 2356 481 
L 2356 0 
L 1766 0 
Q 1100 0 847 248 
Q 594 497 594 1153 
L 594 3053 
L 172 3053 
L 172 3500 
L 594 3500 
L 594 4494 
L 1172 4494 
z
" transform="scale(0.015625)"/>
       <path id="DejaVuSans-29" d="M 513 4856 
L 1013 4856 
Q 1481 4119 1714 3412 
Q 1947 2706 1947 2009 
Q 1947 1309 1714 600 
Q 1481 -109 1013 -844 
L 513 -844 
Q 928 -128 1133 580 
Q 1338 1288 1338 2009 
Q 1338 2731 1133 3434 
Q 928 4138 513 4856 
z
" transform="scale(0.015625)"/>
       <path id="DejaVuSans-Oblique-4c" d="M 1075 4666 
L 1709 4666 
L 909 525 
L 3181 525 
L 3078 0 
L 172 0 
L 1075 4666 
z
" transform="scale(0.015625)"/>
       <path id="DejaVuSans-Oblique-56" d="M 1319 0 
L 500 4666 
L 1119 4666 
L 1797 653 
L 4063 4666 
L 4750 4666 
L 2053 0 
L 1319 0 
z
" transform="scale(0.015625)"/>
       <path id="DejaVuSans-Oblique-47" d="M 3494 697 
L 3738 1919 
L 2700 1919 
L 2797 2438 
L 4453 2438 
L 4050 384 
Q 3634 156 3143 32 
Q 2653 -91 2156 -91 
Q 1278 -91 783 396 
Q 288 884 288 1753 
Q 288 2475 589 3126 
Q 891 3778 1422 4213 
Q 1756 4484 2153 4617 
Q 2550 4750 3034 4750 
Q 3472 4750 3873 4639 
Q 4275 4528 4641 4306 
L 4513 3634 
Q 4231 3928 3853 4083 
Q 3475 4238 3047 4238 
Q 2550 4238 2172 4048 
Q 1794 3859 1497 3463 
Q 1244 3125 1098 2667 
Q 953 2209 953 1734 
Q 953 1081 1287 751 
Q 1622 422 2284 422 
Q 2616 422 2925 492 
Q 3234 563 3494 697 
z
" transform="scale(0.015625)"/>
       <path id="DejaVuSans-5b" d="M 550 4863 
L 1875 4863 
L 1875 4416 
L 1125 4416 
L 1125 -397 
L 1875 -397 
L 1875 -844 
L 550 -844 
L 550 4863 
z
" transform="scale(0.015625)"/>
       <path id="DejaVuSans-63" d="M 3122 3366 
L 3122 2828 
Q 2878 2963 2633 3030 
Q 2388 3097 2138 3097 
Q 1578 3097 1268 2742 
Q 959 2388 959 1747 
Q 959 1106 1268 751 
Q 1578 397 2138 397 
Q 2388 397 2633 464 
Q 2878 531 3122 666 
L 3122 134 
Q 2881 22 2623 -34 
Q 2366 -91 2075 -91 
Q 1284 -91 818 406 
Q 353 903 353 1747 
Q 353 2603 823 3093 
Q 1294 3584 2113 3584 
Q 2378 3584 2631 3529 
Q 2884 3475 3122 3366 
z
" transform="scale(0.015625)"/>
       <path id="DejaVuSans-5d" d="M 1947 4863 
L 1947 -844 
L 622 -844 
L 622 -397 
L 1369 -397 
L 1369 4416 
L 622 4416 
L 622 4863 
L 1947 4863 
z
" transform="scale(0.015625)"/>
      </defs>
      <use xlink:href="#DejaVuSans-28" transform="translate(0 0.015625)"/>
      <use xlink:href="#DejaVuSans-4d" transform="translate(39.013672 0.015625)"/>
      <use xlink:href="#DejaVuSans-61" transform="translate(125.292969 0.015625)"/>
      <use xlink:href="#DejaVuSans-6a" transform="translate(186.572266 0.015625)"/>
      <use xlink:href="#DejaVuSans-6f" transform="translate(214.355469 0.015625)"/>
      <use xlink:href="#DejaVuSans-72" transform="translate(275.537109 0.015625)"/>
      <use xlink:href="#DejaVuSans-20" transform="translate(316.650391 0.015625)"/>
      <use xlink:href="#DejaVuSans-61" transform="translate(348.4375 0.015625)"/>
      <use xlink:href="#DejaVuSans-6e" transform="translate(409.716797 0.015625)"/>
      <use xlink:href="#DejaVuSans-67" transform="translate(473.095703 0.015625)"/>
      <use xlink:href="#DejaVuSans-75" transform="translate(536.572266 0.015625)"/>
      <use xlink:href="#DejaVuSans-6c" transform="translate(599.951172 0.015625)"/>
      <use xlink:href="#DejaVuSans-61" transform="translate(627.734375 0.015625)"/>
      <use xlink:href="#DejaVuSans-72" transform="translate(689.013672 0.015625)"/>
      <use xlink:href="#DejaVuSans-20" transform="translate(730.126953 0.015625)"/>
      <use xlink:href="#DejaVuSans-64" transform="translate(761.914062 0.015625)"/>
      <use xlink:href="#DejaVuSans-69" transform="translate(825.390625 0.015625)"/>
      <use xlink:href="#DejaVuSans-61" transform="translate(853.173828 0.015625)"/>
      <use xlink:href="#DejaVuSans-6d" transform="translate(914.453125 0.015625)"/>
      <use xlink:href="#DejaVuSans-65" transform="translate(1011.865234 0.015625)"/>
      <use xlink:href="#DejaVuSans-74" transform="translate(1073.388672 0.015625)"/>
      <use xlink:href="#DejaVuSans-65" transform="translate(1112.597656 0.015625)"/>
      <use xlink:href="#DejaVuSans-72" transform="translate(1174.121094 0.015625)"/>
      <use xlink:href="#DejaVuSans-29" transform="translate(1215.234375 0.015625)"/>
      <use xlink:href="#DejaVuSans-Oblique-4c" transform="translate(1255.205078 -16.390625) scale(0.7)"/>
      <use xlink:href="#DejaVuSans-Oblique-56" transform="translate(1294.204102 -16.390625) scale(0.7)"/>
      <use xlink:href="#DejaVuSans-Oblique-47" transform="translate(1342.089844 -16.390625) scale(0.7)"/>
      <use xlink:href="#DejaVuSans-20" transform="translate(1399.067383 0.015625)"/>
      <use xlink:href="#DejaVuSans-5b" transform="translate(1430.854492 0.015625)"/>
      <use xlink:href="#DejaVuSans-61" transform="translate(1469.868164 0.015625)"/>
      <use xlink:href="#DejaVuSans-72" transform="translate(1531.147461 0.015625)"/>
      <use xlink:href="#DejaVuSans-63" transform="translate(1572.260742 0.015625)"/>
      <use xlink:href="#DejaVuSans-6d" transform="translate(1627.241211 0.015625)"/>
      <use xlink:href="#DejaVuSans-69" transform="translate(1724.65332 0.015625)"/>
      <use xlink:href="#DejaVuSans-6e" transform="translate(1752.436523 0.015625)"/>
      <use xlink:href="#DejaVuSans-5d" transform="translate(1815.81543 0.015625)"/>
     </g>
    </g>
   </g>
   <g id="matplotlib.axis_2">
    <g id="ytick_1">
     <g id="line2d_19">
      <path d="M 44.582188 165.271545 
L 351.482188 165.271545 
" clip-path="url(#p63f6e7e639)" style="fill: none; stroke: #ffffff; stroke-width: 0.8; stroke-linecap: square"/>
     </g>
     <g id="line2d_20">
      <defs>
       <path id="mda0949be29" d="M 0 0 
L -3.5 0 
" style="stroke: #555555; stroke-width: 0.8"/>
      </defs>
      <g>
       <use xlink:href="#mda0949be29" x="44.582188" y="165.271545" style="fill: #555555; stroke: #555555; stroke-width: 0.8"/>
      </g>
     </g>
     <g id="text_11">
      <!-- −1 -->
      <g style="fill: #555555" transform="translate(22.84 169.070764) scale(0.1 -0.1)">
       <use xlink:href="#DejaVuSans-2212"/>
       <use xlink:href="#DejaVuSans-31" x="83.789062"/>
      </g>
     </g>
    </g>
    <g id="ytick_2">
     <g id="line2d_21">
      <path d="M 44.582188 122.737253 
L 351.482188 122.737253 
" clip-path="url(#p63f6e7e639)" style="fill: none; stroke: #ffffff; stroke-width: 0.8; stroke-linecap: square"/>
     </g>
     <g id="line2d_22">
      <g>
       <use xlink:href="#mda0949be29" x="44.582188" y="122.737253" style="fill: #555555; stroke: #555555; stroke-width: 0.8"/>
      </g>
     </g>
     <g id="text_12">
      <!-- 0 -->
      <g style="fill: #555555" transform="translate(31.219688 126.536472) scale(0.1 -0.1)">
       <use xlink:href="#DejaVuSans-30"/>
      </g>
     </g>
    </g>
    <g id="ytick_3">
     <g id="line2d_23">
      <path d="M 44.582188 80.202961 
L 351.482188 80.202961 
" clip-path="url(#p63f6e7e639)" style="fill: none; stroke: #ffffff; stroke-width: 0.8; stroke-linecap: square"/>
     </g>
     <g id="line2d_24">
      <g>
       <use xlink:href="#mda0949be29" x="44.582188" y="80.202961" style="fill: #555555; stroke: #555555; stroke-width: 0.8"/>
      </g>
     </g>
     <g id="text_13">
      <!-- 1 -->
      <g style="fill: #555555" transform="translate(31.219688 84.00218) scale(0.1 -0.1)">
       <use xlink:href="#DejaVuSans-31"/>
      </g>
     </g>
    </g>
    <g id="ytick_4">
     <g id="line2d_25">
      <path d="M 44.582188 37.668669 
L 351.482188 37.668669 
" clip-path="url(#p63f6e7e639)" style="fill: none; stroke: #ffffff; stroke-width: 0.8; stroke-linecap: square"/>
     </g>
     <g id="line2d_26">
      <g>
       <use xlink:href="#mda0949be29" x="44.582188" y="37.668669" style="fill: #555555; stroke: #555555; stroke-width: 0.8"/>
      </g>
     </g>
     <g id="text_14">
      <!-- 2 -->
      <g style="fill: #555555" transform="translate(31.219688 41.467888) scale(0.1 -0.1)">
       <use xlink:href="#DejaVuSans-32"/>
      </g>
     </g>
    </g>
    <g id="text_15">
     <!-- (Semi major axis$)_{HEC}$ [arcmin] -->
     <g style="fill: #555555" transform="translate(16.32 193.44) rotate(-90) scale(0.12 -0.12)">
      <defs>
       <path id="DejaVuSans-53" d="M 3425 4513 
L 3425 3897 
Q 3066 4069 2747 4153 
Q 2428 4238 2131 4238 
Q 1616 4238 1336 4038 
Q 1056 3838 1056 3469 
Q 1056 3159 1242 3001 
Q 1428 2844 1947 2747 
L 2328 2669 
Q 3034 2534 3370 2195 
Q 3706 1856 3706 1288 
Q 3706 609 3251 259 
Q 2797 -91 1919 -91 
Q 1588 -91 1214 -16 
Q 841 59 441 206 
L 441 856 
Q 825 641 1194 531 
Q 1563 422 1919 422 
Q 2459 422 2753 634 
Q 3047 847 3047 1241 
Q 3047 1584 2836 1778 
Q 2625 1972 2144 2069 
L 1759 2144 
Q 1053 2284 737 2584 
Q 422 2884 422 3419 
Q 422 4038 858 4394 
Q 1294 4750 2059 4750 
Q 2388 4750 2728 4690 
Q 3069 4631 3425 4513 
z
" transform="scale(0.015625)"/>
       <path id="DejaVuSans-78" d="M 3513 3500 
L 2247 1797 
L 3578 0 
L 2900 0 
L 1881 1375 
L 863 0 
L 184 0 
L 1544 1831 
L 300 3500 
L 978 3500 
L 1906 2253 
L 2834 3500 
L 3513 3500 
z
" transform="scale(0.015625)"/>
       <path id="DejaVuSans-73" d="M 2834 3397 
L 2834 2853 
Q 2591 2978 2328 3040 
Q 2066 3103 1784 3103 
Q 1356 3103 1142 2972 
Q 928 2841 928 2578 
Q 928 2378 1081 2264 
Q 1234 2150 1697 2047 
L 1894 2003 
Q 2506 1872 2764 1633 
Q 3022 1394 3022 966 
Q 3022 478 2636 193 
Q 2250 -91 1575 -91 
Q 1294 -91 989 -36 
Q 684 19 347 128 
L 347 722 
Q 666 556 975 473 
Q 1284 391 1588 391 
Q 1994 391 2212 530 
Q 2431 669 2431 922 
Q 2431 1156 2273 1281 
Q 2116 1406 1581 1522 
L 1381 1569 
Q 847 1681 609 1914 
Q 372 2147 372 2553 
Q 372 3047 722 3315 
Q 1072 3584 1716 3584 
Q 2034 3584 2315 3537 
Q 2597 3491 2834 3397 
z
" transform="scale(0.015625)"/>
       <path id="DejaVuSans-Oblique-48" d="M 1081 4666 
L 1716 4666 
L 1344 2753 
L 3634 2753 
L 4006 4666 
L 4641 4666 
L 3731 0 
L 3097 0 
L 3531 2222 
L 1241 2222 
L 806 0 
L 172 0 
L 1081 4666 
z
" transform="scale(0.015625)"/>
       <path id="DejaVuSans-Oblique-45" d="M 1081 4666 
L 4031 4666 
L 3928 4134 
L 1606 4134 
L 1338 2753 
L 3566 2753 
L 3463 2222 
L 1234 2222 
L 909 531 
L 3284 531 
L 3181 0 
L 172 0 
L 1081 4666 
z
" transform="scale(0.015625)"/>
       <path id="DejaVuSans-Oblique-43" d="M 4447 4306 
L 4319 3641 
Q 4019 3944 3683 4091 
Q 3347 4238 2956 4238 
Q 2422 4238 2017 3981 
Q 1613 3725 1319 3200 
Q 1131 2863 1032 2486 
Q 934 2109 934 1728 
Q 934 1091 1264 756 
Q 1594 422 2222 422 
Q 2656 422 3056 561 
Q 3456 700 3834 978 
L 3688 231 
Q 3316 72 2936 -9 
Q 2556 -91 2175 -91 
Q 1278 -91 773 396 
Q 269 884 269 1753 
Q 269 2309 461 2846 
Q 653 3384 1013 3828 
Q 1394 4300 1883 4525 
Q 2372 4750 3022 4750 
Q 3422 4750 3780 4639 
Q 4138 4528 4447 4306 
z
" transform="scale(0.015625)"/>
      </defs>
      <use xlink:href="#DejaVuSans-28" transform="translate(0 0.015625)"/>
      <use xlink:href="#DejaVuSans-53" transform="translate(39.013672 0.015625)"/>
      <use xlink:href="#DejaVuSans-65" transform="translate(102.490234 0.015625)"/>
      <use xlink:href="#DejaVuSans-6d" transform="translate(164.013672 0.015625)"/>
      <use xlink:href="#DejaVuSans-69" transform="translate(261.425781 0.015625)"/>
      <use xlink:href="#DejaVuSans-20" transform="translate(289.208984 0.015625)"/>
      <use xlink:href="#DejaVuSans-6d" transform="translate(320.996094 0.015625)"/>
      <use xlink:href="#DejaVuSans-61" transform="translate(418.408203 0.015625)"/>
      <use xlink:href="#DejaVuSans-6a" transform="translate(479.6875 0.015625)"/>
      <use xlink:href="#DejaVuSans-6f" transform="translate(507.470703 0.015625)"/>
      <use xlink:href="#DejaVuSans-72" transform="translate(568.652344 0.015625)"/>
      <use xlink:href="#DejaVuSans-20" transform="translate(609.765625 0.015625)"/>
      <use xlink:href="#DejaVuSans-61" transform="translate(641.552734 0.015625)"/>
      <use xlink:href="#DejaVuSans-78" transform="translate(702.832031 0.015625)"/>
      <use xlink:href="#DejaVuSans-69" transform="translate(762.011719 0.015625)"/>
      <use xlink:href="#DejaVuSans-73" transform="translate(789.794922 0.015625)"/>
      <use xlink:href="#DejaVuSans-29" transform="translate(841.894531 0.015625)"/>
      <use xlink:href="#DejaVuSans-Oblique-48" transform="translate(881.865234 -16.390625) scale(0.7)"/>
      <use xlink:href="#DejaVuSans-Oblique-45" transform="translate(934.501953 -16.390625) scale(0.7)"/>
      <use xlink:href="#DejaVuSans-Oblique-43" transform="translate(978.730469 -16.390625) scale(0.7)"/>
      <use xlink:href="#DejaVuSans-20" transform="translate(1030.341797 0.015625)"/>
      <use xlink:href="#DejaVuSans-5b" transform="translate(1062.128906 0.015625)"/>
      <use xlink:href="#DejaVuSans-61" transform="translate(1101.142578 0.015625)"/>
      <use xlink:href="#DejaVuSans-72" transform="translate(1162.421875 0.015625)"/>
      <use xlink:href="#DejaVuSans-63" transform="translate(1203.535156 0.015625)"/>
      <use xlink:href="#DejaVuSans-6d" transform="translate(1258.515625 0.015625)"/>
      <use xlink:href="#DejaVuSans-69" transform="translate(1355.927734 0.015625)"/>
      <use xlink:href="#DejaVuSans-6e" transform="translate(1383.710938 0.015625)"/>
      <use xlink:href="#DejaVuSans-5d" transform="translate(1447.089844 0.015625)"/>
     </g>
    </g>
   </g>
   <g id="PathCollection_1">
    <defs>
     <path id="m88d505ed79" d="M 0 3 
C 0.795609 3 1.55874 2.683901 2.12132 2.12132 
C 2.683901 1.55874 3 0.795609 3 0 
C 3 -0.795609 2.683901 -1.55874 2.12132 -2.12132 
C 1.55874 -2.683901 0.795609 -3 0 -3 
C -0.795609 -3 -1.55874 -2.683901 -2.12132 -2.12132 
C -2.683901 -1.55874 -3 -0.795609 -3 0 
C -3 0.795609 -2.683901 1.55874 -2.12132 2.12132 
C -1.55874 2.683901 -0.795609 3 0 3 
z
" style="stroke: #ffffff; stroke-opacity: 0.5"/>
    </defs>
    <g clip-path="url(#p63f6e7e639)">
     <use xlink:href="#m88d505ed79" x="123.858849" y="156.359974" style="fill: #0000ff; fill-opacity: 0.5; stroke: #ffffff; stroke-opacity: 0.5"/>
     <use xlink:href="#m88d505ed79" x="126.592049" y="148.1251" style="fill: #0000ff; fill-opacity: 0.5; stroke: #ffffff; stroke-opacity: 0.5"/>
     <use xlink:href="#m88d505ed79" x="116.557764" y="139.66335" style="fill: #0000ff; fill-opacity: 0.5; stroke: #ffffff; stroke-opacity: 0.5"/>
     <use xlink:href="#m88d505ed79" x="102.620078" y="155.361221" style="fill: #0000ff; fill-opacity: 0.5; stroke: #ffffff; stroke-opacity: 0.5"/>
     <use xlink:href="#m88d505ed79" x="97.451539" y="158.280914" style="fill: #0000ff; fill-opacity: 0.5; stroke: #ffffff; stroke-opacity: 0.5"/>
     <use xlink:href="#m88d505ed79" x="99.26933" y="139.252328" style="fill: #0000ff; fill-opacity: 0.5; stroke: #ffffff; stroke-opacity: 0.5"/>
     <use xlink:href="#m88d505ed79" x="80.576133" y="161.002356" style="fill: #0000ff; fill-opacity: 0.5; stroke: #ffffff; stroke-opacity: 0.5"/>
     <use xlink:href="#m88d505ed79" x="100.988813" y="151.921426" style="fill: #0000ff; fill-opacity: 0.5; stroke: #ffffff; stroke-opacity: 0.5"/>
     <use xlink:href="#m88d505ed79" x="83.607253" y="159.056092" style="fill: #0000ff; fill-opacity: 0.5; stroke: #ffffff; stroke-opacity: 0.5"/>
     <use xlink:href="#m88d505ed79" x="125.834807" y="148.271707" style="fill: #0000ff; fill-opacity: 0.5; stroke: #ffffff; stroke-opacity: 0.5"/>
     <use xlink:href="#m88d505ed79" x="95.523513" y="141.456313" style="fill: #0000ff; fill-opacity: 0.5; stroke: #ffffff; stroke-opacity: 0.5"/>
     <use xlink:href="#m88d505ed79" x="108.418394" y="151.30415" style="fill: #0000ff; fill-opacity: 0.5; stroke: #ffffff; stroke-opacity: 0.5"/>
     <use xlink:href="#m88d505ed79" x="100.988813" y="157.415826" style="fill: #0000ff; fill-opacity: 0.5; stroke: #ffffff; stroke-opacity: 0.5"/>
     <use xlink:href="#m88d505ed79" x="95.523513" y="159.456234" style="fill: #0000ff; fill-opacity: 0.5; stroke: #ffffff; stroke-opacity: 0.5"/>
     <use xlink:href="#m88d505ed79" x="97.451539" y="158.280914" style="fill: #0000ff; fill-opacity: 0.5; stroke: #ffffff; stroke-opacity: 0.5"/>
     <use xlink:href="#m88d505ed79" x="121.313275" y="140.226005" style="fill: #0000ff; fill-opacity: 0.5; stroke: #ffffff; stroke-opacity: 0.5"/>
     <use xlink:href="#m88d505ed79" x="131.760589" y="130.694852" style="fill: #0000ff; fill-opacity: 0.5; stroke: #ffffff; stroke-opacity: 0.5"/>
     <use xlink:href="#m88d505ed79" x="172.497731" y="126.561488" style="fill: #0000ff; fill-opacity: 0.5; stroke: #ffffff; stroke-opacity: 0.5"/>
     <use xlink:href="#m88d505ed79" x="146.707969" y="133.580317" style="fill: #0000ff; fill-opacity: 0.5; stroke: #ffffff; stroke-opacity: 0.5"/>
     <use xlink:href="#m88d505ed79" x="238.184767" y="104.706927" style="fill: #0000ff; fill-opacity: 0.5; stroke: #ffffff; stroke-opacity: 0.5"/>
     <use xlink:href="#m88d505ed79" x="198.677716" y="106.922728" style="fill: #0000ff; fill-opacity: 0.5; stroke: #ffffff; stroke-opacity: 0.5"/>
     <use xlink:href="#m88d505ed79" x="150.453786" y="132.204247" style="fill: #0000ff; fill-opacity: 0.5; stroke: #ffffff; stroke-opacity: 0.5"/>
     <use xlink:href="#m88d505ed79" x="163.348667" y="120.059386" style="fill: #0000ff; fill-opacity: 0.5; stroke: #ffffff; stroke-opacity: 0.5"/>
     <use xlink:href="#m88d505ed79" x="164.505256" y="119.400149" style="fill: #0000ff; fill-opacity: 0.5; stroke: #ffffff; stroke-opacity: 0.5"/>
     <use xlink:href="#m88d505ed79" x="153.804534" y="139.802414" style="fill: #0000ff; fill-opacity: 0.5; stroke: #ffffff; stroke-opacity: 0.5"/>
     <use xlink:href="#m88d505ed79" x="58.532187" y="180.861703" style="fill: #0000ff; fill-opacity: 0.5; stroke: #ffffff; stroke-opacity: 0.5"/>
     <use xlink:href="#m88d505ed79" x="95.523513" y="161.59829" style="fill: #0000ff; fill-opacity: 0.5; stroke: #ffffff; stroke-opacity: 0.5"/>
     <use xlink:href="#m88d505ed79" x="129.108829" y="139.388322" style="fill: #0000ff; fill-opacity: 0.5; stroke: #ffffff; stroke-opacity: 0.5"/>
     <use xlink:href="#m88d505ed79" x="139.361969" y="138.327413" style="fill: #0000ff; fill-opacity: 0.5; stroke: #ffffff; stroke-opacity: 0.5"/>
     <use xlink:href="#m88d505ed79" x="126.592049" y="142.774447" style="fill: #0000ff; fill-opacity: 0.5; stroke: #ffffff; stroke-opacity: 0.5"/>
     <use xlink:href="#m88d505ed79" x="233.551837" y="72.717971" style="fill: #0000ff; fill-opacity: 0.5; stroke: #ffffff; stroke-opacity: 0.5"/>
     <use xlink:href="#m88d505ed79" x="77.225385" y="170.099583" style="fill: #0000ff; fill-opacity: 0.5; stroke: #ffffff; stroke-opacity: 0.5"/>
     <use xlink:href="#m88d505ed79" x="58.532187" y="180.861703" style="fill: #0000ff; fill-opacity: 0.5; stroke: #ffffff; stroke-opacity: 0.5"/>
     <use xlink:href="#m88d505ed79" x="203.357725" y="186.319641" style="fill: #0000ff; fill-opacity: 0.5; stroke: #ffffff; stroke-opacity: 0.5"/>
     <use xlink:href="#m88d505ed79" x="155.956261" y="116.233776" style="fill: #0000ff; fill-opacity: 0.5; stroke: #ffffff; stroke-opacity: 0.5"/>
     <use xlink:href="#m88d505ed79" x="149.375625" y="123.452889" style="fill: #0000ff; fill-opacity: 0.5; stroke: #ffffff; stroke-opacity: 0.5"/>
     <use xlink:href="#m88d505ed79" x="161.779336" y="118.019084" style="fill: #0000ff; fill-opacity: 0.5; stroke: #ffffff; stroke-opacity: 0.5"/>
     <use xlink:href="#m88d505ed79" x="149.375625" y="123.93929" style="fill: #0000ff; fill-opacity: 0.5; stroke: #ffffff; stroke-opacity: 0.5"/>
     <use xlink:href="#m88d505ed79" x="156.690767" y="126.813129" style="fill: #0000ff; fill-opacity: 0.5; stroke: #ffffff; stroke-opacity: 0.5"/>
     <use xlink:href="#m88d505ed79" x="153.804534" y="122.737253" style="fill: #0000ff; fill-opacity: 0.5; stroke: #ffffff; stroke-opacity: 0.5"/>
     <use xlink:href="#m88d505ed79" x="154.434311" y="132.578068" style="fill: #0000ff; fill-opacity: 0.5; stroke: #ffffff; stroke-opacity: 0.5"/>
     <use xlink:href="#m88d505ed79" x="177.925814" y="109.933155" style="fill: #0000ff; fill-opacity: 0.5; stroke: #ffffff; stroke-opacity: 0.5"/>
     <use xlink:href="#m88d505ed79" x="165.401166" y="112.148187" style="fill: #0000ff; fill-opacity: 0.5; stroke: #ffffff; stroke-opacity: 0.5"/>
     <use xlink:href="#m88d505ed79" x="157.408691" y="120.398043" style="fill: #0000ff; fill-opacity: 0.5; stroke: #ffffff; stroke-opacity: 0.5"/>
     <use xlink:href="#m88d505ed79" x="143.577309" y="124.277512" style="fill: #0000ff; fill-opacity: 0.5; stroke: #ffffff; stroke-opacity: 0.5"/>
     <use xlink:href="#m88d505ed79" x="197.653005" y="100.410359" style="fill: #0000ff; fill-opacity: 0.5; stroke: #ffffff; stroke-opacity: 0.5"/>
     <use xlink:href="#m88d505ed79" x="123.858849" y="142.99436" style="fill: #0000ff; fill-opacity: 0.5; stroke: #ffffff; stroke-opacity: 0.5"/>
     <use xlink:href="#m88d505ed79" x="159.60285" y="120.059386" style="fill: #0000ff; fill-opacity: 0.5; stroke: #ffffff; stroke-opacity: 0.5"/>
     <use xlink:href="#m88d505ed79" x="140.590025" y="123.93929" style="fill: #0000ff; fill-opacity: 0.5; stroke: #ffffff; stroke-opacity: 0.5"/>
     <use xlink:href="#m88d505ed79" x="159.60285" y="121.977262" style="fill: #0000ff; fill-opacity: 0.5; stroke: #ffffff; stroke-opacity: 0.5"/>
     <use xlink:href="#m88d505ed79" x="148.635995" y="134.604927" style="fill: #0000ff; fill-opacity: 0.5; stroke: #ffffff; stroke-opacity: 0.5"/>
     <use xlink:href="#m88d505ed79" x="159.60285" y="126.744159" style="fill: #0000ff; fill-opacity: 0.5; stroke: #ffffff; stroke-opacity: 0.5"/>
     <use xlink:href="#m88d505ed79" x="162.513277" y="121.384141" style="fill: #0000ff; fill-opacity: 0.5; stroke: #ffffff; stroke-opacity: 0.5"/>
     <use xlink:href="#m88d505ed79" x="184.496703" y="108.874224" style="fill: #0000ff; fill-opacity: 0.5; stroke: #ffffff; stroke-opacity: 0.5"/>
     <use xlink:href="#m88d505ed79" x="131.760589" y="135.541352" style="fill: #0000ff; fill-opacity: 0.5; stroke: #ffffff; stroke-opacity: 0.5"/>
     <use xlink:href="#m88d505ed79" x="150.098445" y="132.421389" style="fill: #0000ff; fill-opacity: 0.5; stroke: #ffffff; stroke-opacity: 0.5"/>
     <use xlink:href="#m88d505ed79" x="162.513277" y="130.217937" style="fill: #0000ff; fill-opacity: 0.5; stroke: #ffffff; stroke-opacity: 0.5"/>
     <use xlink:href="#m88d505ed79" x="133.912316" y="141.053629" style="fill: #0000ff; fill-opacity: 0.5; stroke: #ffffff; stroke-opacity: 0.5"/>
     <use xlink:href="#m88d505ed79" x="105.651198" y="137.611176" style="fill: #0000ff; fill-opacity: 0.5; stroke: #ffffff; stroke-opacity: 0.5"/>
     <use xlink:href="#m88d505ed79" x="146.307929" y="133.580317" style="fill: #0000ff; fill-opacity: 0.5; stroke: #ffffff; stroke-opacity: 0.5"/>
     <use xlink:href="#m88d505ed79" x="174.217214" y="106.534475" style="fill: #0000ff; fill-opacity: 0.5; stroke: #ffffff; stroke-opacity: 0.5"/>
     <use xlink:href="#m88d505ed79" x="144.866784" y="128.349383" style="fill: #0000ff; fill-opacity: 0.5; stroke: #ffffff; stroke-opacity: 0.5"/>
     <use xlink:href="#m88d505ed79" x="142.687666" y="130.468887" style="fill: #0000ff; fill-opacity: 0.5; stroke: #ffffff; stroke-opacity: 0.5"/>
     <use xlink:href="#m88d505ed79" x="152.340213" y="127.326934" style="fill: #0000ff; fill-opacity: 0.5; stroke: #ffffff; stroke-opacity: 0.5"/>
     <use xlink:href="#m88d505ed79" x="135.079518" y="138.894497" style="fill: #0000ff; fill-opacity: 0.5; stroke: #ffffff; stroke-opacity: 0.5"/>
     <use xlink:href="#m88d505ed79" x="190.944586" y="111.38328" style="fill: #0000ff; fill-opacity: 0.5; stroke: #ffffff; stroke-opacity: 0.5"/>
     <use xlink:href="#m88d505ed79" x="122.184637" y="141.003906" style="fill: #0000ff; fill-opacity: 0.5; stroke: #ffffff; stroke-opacity: 0.5"/>
     <use xlink:href="#m88d505ed79" x="164.731611" y="125.587867" style="fill: #0000ff; fill-opacity: 0.5; stroke: #ffffff; stroke-opacity: 0.5"/>
     <use xlink:href="#m88d505ed79" x="137.558905" y="134.534823" style="fill: #0000ff; fill-opacity: 0.5; stroke: #ffffff; stroke-opacity: 0.5"/>
     <use xlink:href="#m88d505ed79" x="120.868475" y="153.414959" style="fill: #0000ff; fill-opacity: 0.5; stroke: #ffffff; stroke-opacity: 0.5"/>
     <use xlink:href="#m88d505ed79" x="146.307929" y="125.848351" style="fill: #0000ff; fill-opacity: 0.5; stroke: #ffffff; stroke-opacity: 0.5"/>
     <use xlink:href="#m88d505ed79" x="121.313275" y="147.479399" style="fill: #0000ff; fill-opacity: 0.5; stroke: #ffffff; stroke-opacity: 0.5"/>
     <use xlink:href="#m88d505ed79" x="155.204389" y="122.997694" style="fill: #0000ff; fill-opacity: 0.5; stroke: #ffffff; stroke-opacity: 0.5"/>
     <use xlink:href="#m88d505ed79" x="171.328052" y="115.6331" style="fill: #0000ff; fill-opacity: 0.5; stroke: #ffffff; stroke-opacity: 0.5"/>
     <use xlink:href="#m88d505ed79" x="144.866784" y="131.627411" style="fill: #0000ff; fill-opacity: 0.5; stroke: #ffffff; stroke-opacity: 0.5"/>
     <use xlink:href="#m88d505ed79" x="135.364746" y="134.888035" style="fill: #0000ff; fill-opacity: 0.5; stroke: #ffffff; stroke-opacity: 0.5"/>
     <use xlink:href="#m88d505ed79" x="121.313275" y="140.321469" style="fill: #0000ff; fill-opacity: 0.5; stroke: #ffffff; stroke-opacity: 0.5"/>
     <use xlink:href="#m88d505ed79" x="140.590025" y="133.185873" style="fill: #0000ff; fill-opacity: 0.5; stroke: #ffffff; stroke-opacity: 0.5"/>
     <use xlink:href="#m88d505ed79" x="128.0545" y="140.806338" style="fill: #0000ff; fill-opacity: 0.5; stroke: #ffffff; stroke-opacity: 0.5"/>
     <use xlink:href="#m88d505ed79" x="156.690767" y="120.993446" style="fill: #0000ff; fill-opacity: 0.5; stroke: #ffffff; stroke-opacity: 0.5"/>
     <use xlink:href="#m88d505ed79" x="129.452645" y="133.382044" style="fill: #0000ff; fill-opacity: 0.5; stroke: #ffffff; stroke-opacity: 0.5"/>
     <use xlink:href="#m88d505ed79" x="90.120266" y="170.833682" style="fill: #0000ff; fill-opacity: 0.5; stroke: #ffffff; stroke-opacity: 0.5"/>
     <use xlink:href="#m88d505ed79" x="119.495484" y="161.750328" style="fill: #0000ff; fill-opacity: 0.5; stroke: #ffffff; stroke-opacity: 0.5"/>
     <use xlink:href="#m88d505ed79" x="132.390365" y="141.304276" style="fill: #0000ff; fill-opacity: 0.5; stroke: #ffffff; stroke-opacity: 0.5"/>
     <use xlink:href="#m88d505ed79" x="118.54608" y="137.121812" style="fill: #0000ff; fill-opacity: 0.5; stroke: #ffffff; stroke-opacity: 0.5"/>
     <use xlink:href="#m88d505ed79" x="110.963968" y="150.373993" style="fill: #0000ff; fill-opacity: 0.5; stroke: #ffffff; stroke-opacity: 0.5"/>
     <use xlink:href="#m88d505ed79" x="144.866784" y="128.051435" style="fill: #0000ff; fill-opacity: 0.5; stroke: #ffffff; stroke-opacity: 0.5"/>
     <use xlink:href="#m88d505ed79" x="214.533123" y="90.335586" style="fill: #0000ff; fill-opacity: 0.5; stroke: #ffffff; stroke-opacity: 0.5"/>
     <use xlink:href="#m88d505ed79" x="125.059093" y="140.610861" style="fill: #0000ff; fill-opacity: 0.5; stroke: #ffffff; stroke-opacity: 0.5"/>
     <use xlink:href="#m88d505ed79" x="150.098445" y="134.222607" style="fill: #0000ff; fill-opacity: 0.5; stroke: #ffffff; stroke-opacity: 0.5"/>
     <use xlink:href="#m88d505ed79" x="173.540536" y="119.586114" style="fill: #0000ff; fill-opacity: 0.5; stroke: #ffffff; stroke-opacity: 0.5"/>
     <use xlink:href="#m88d505ed79" x="147.878752" y="129.618484" style="fill: #0000ff; fill-opacity: 0.5; stroke: #ffffff; stroke-opacity: 0.5"/>
     <use xlink:href="#m88d505ed79" x="173.540536" y="112.442072" style="fill: #0000ff; fill-opacity: 0.5; stroke: #ffffff; stroke-opacity: 0.5"/>
     <use xlink:href="#m88d505ed79" x="149.375625" y="126.046154" style="fill: #0000ff; fill-opacity: 0.5; stroke: #ffffff; stroke-opacity: 0.5"/>
     <use xlink:href="#m88d505ed79" x="169.146983" y="114.821265" style="fill: #0000ff; fill-opacity: 0.5; stroke: #ffffff; stroke-opacity: 0.5"/>
     <use xlink:href="#m88d505ed79" x="199.139749" y="102.235063" style="fill: #0000ff; fill-opacity: 0.5; stroke: #ffffff; stroke-opacity: 0.5"/>
     <use xlink:href="#m88d505ed79" x="163.230661" y="117.207287" style="fill: #0000ff; fill-opacity: 0.5; stroke: #ffffff; stroke-opacity: 0.5"/>
     <use xlink:href="#m88d505ed79" x="66.876077" y="164.725523" style="fill: #0000ff; fill-opacity: 0.5; stroke: #ffffff; stroke-opacity: 0.5"/>
     <use xlink:href="#m88d505ed79" x="152.999359" y="125.501848" style="fill: #0000ff; fill-opacity: 0.5; stroke: #ffffff; stroke-opacity: 0.5"/>
     <use xlink:href="#m88d505ed79" x="139.858896" y="137.44661" style="fill: #0000ff; fill-opacity: 0.5; stroke: #ffffff; stroke-opacity: 0.5"/>
     <use xlink:href="#m88d505ed79" x="77.225385" y="170.833682" style="fill: #0000ff; fill-opacity: 0.5; stroke: #ffffff; stroke-opacity: 0.5"/>
     <use xlink:href="#m88d505ed79" x="103.40537" y="143.670256" style="fill: #0000ff; fill-opacity: 0.5; stroke: #ffffff; stroke-opacity: 0.5"/>
     <use xlink:href="#m88d505ed79" x="124.263984" y="126.859252" style="fill: #0000ff; fill-opacity: 0.5; stroke: #ffffff; stroke-opacity: 0.5"/>
     <use xlink:href="#m88d505ed79" x="129.452645" y="141.816009" style="fill: #0000ff; fill-opacity: 0.5; stroke: #ffffff; stroke-opacity: 0.5"/>
     <use xlink:href="#m88d505ed79" x="135.364746" y="134.888035" style="fill: #0000ff; fill-opacity: 0.5; stroke: #ffffff; stroke-opacity: 0.5"/>
     <use xlink:href="#m88d505ed79" x="133.912316" y="132.959612" style="fill: #0000ff; fill-opacity: 0.5; stroke: #ffffff; stroke-opacity: 0.5"/>
     <use xlink:href="#m88d505ed79" x="114.980448" y="161.447494" style="fill: #0000ff; fill-opacity: 0.5; stroke: #ffffff; stroke-opacity: 0.5"/>
     <use xlink:href="#m88d505ed79" x="134.791709" y="137.528708" style="fill: #0000ff; fill-opacity: 0.5; stroke: #ffffff; stroke-opacity: 0.5"/>
     <use xlink:href="#m88d505ed79" x="188.1549" y="102.449396" style="fill: #0000ff; fill-opacity: 0.5; stroke: #ffffff; stroke-opacity: 0.5"/>
     <use xlink:href="#m88d505ed79" x="148.635995" y="139.66335" style="fill: #0000ff; fill-opacity: 0.5; stroke: #ffffff; stroke-opacity: 0.5"/>
     <use xlink:href="#m88d505ed79" x="112.164212" y="150.373993" style="fill: #0000ff; fill-opacity: 0.5; stroke: #ffffff; stroke-opacity: 0.5"/>
     <use xlink:href="#m88d505ed79" x="148.635995" y="125.739369" style="fill: #0000ff; fill-opacity: 0.5; stroke: #ffffff; stroke-opacity: 0.5"/>
     <use xlink:href="#m88d505ed79" x="120.868475" y="142.129997" style="fill: #0000ff; fill-opacity: 0.5; stroke: #ffffff; stroke-opacity: 0.5"/>
     <use xlink:href="#m88d505ed79" x="136.205394" y="137.487615" style="fill: #0000ff; fill-opacity: 0.5; stroke: #ffffff; stroke-opacity: 0.5"/>
     <use xlink:href="#m88d505ed79" x="127.33168" y="143.49895" style="fill: #0000ff; fill-opacity: 0.5; stroke: #ffffff; stroke-opacity: 0.5"/>
     <use xlink:href="#m88d505ed79" x="127.33168" y="138.543467" style="fill: #0000ff; fill-opacity: 0.5; stroke: #ffffff; stroke-opacity: 0.5"/>
     <use xlink:href="#m88d505ed79" x="134.791709" y="136.645078" style="fill: #0000ff; fill-opacity: 0.5; stroke: #ffffff; stroke-opacity: 0.5"/>
     <use xlink:href="#m88d505ed79" x="115.514959" y="149.176659" style="fill: #0000ff; fill-opacity: 0.5; stroke: #ffffff; stroke-opacity: 0.5"/>
     <use xlink:href="#m88d505ed79" x="120.868475" y="144.73286" style="fill: #0000ff; fill-opacity: 0.5; stroke: #ffffff; stroke-opacity: 0.5"/>
     <use xlink:href="#m88d505ed79" x="120.868475" y="144.73286" style="fill: #0000ff; fill-opacity: 0.5; stroke: #ffffff; stroke-opacity: 0.5"/>
     <use xlink:href="#m88d505ed79" x="127.33168" y="142.774447" style="fill: #0000ff; fill-opacity: 0.5; stroke: #ffffff; stroke-opacity: 0.5"/>
     <use xlink:href="#m88d505ed79" x="337.532188" y="16.02" style="fill: #0000ff; fill-opacity: 0.5; stroke: #ffffff; stroke-opacity: 0.5"/>
     <use xlink:href="#m88d505ed79" x="107.748839" y="151.30415" style="fill: #0000ff; fill-opacity: 0.5; stroke: #ffffff; stroke-opacity: 0.5"/>
     <use xlink:href="#m88d505ed79" x="92.392854" y="154.209593" style="fill: #0000ff; fill-opacity: 0.5; stroke: #ffffff; stroke-opacity: 0.5"/>
     <use xlink:href="#m88d505ed79" x="112.164212" y="146.186142" style="fill: #0000ff; fill-opacity: 0.5; stroke: #ffffff; stroke-opacity: 0.5"/>
     <use xlink:href="#m88d505ed79" x="104.171737" y="162.058208" style="fill: #0000ff; fill-opacity: 0.5; stroke: #ffffff; stroke-opacity: 0.5"/>
     <use xlink:href="#m88d505ed79" x="117.066618" y="157.536957" style="fill: #0000ff; fill-opacity: 0.5; stroke: #ffffff; stroke-opacity: 0.5"/>
     <use xlink:href="#m88d505ed79" x="95.523513" y="150.875537" style="fill: #0000ff; fill-opacity: 0.5; stroke: #ffffff; stroke-opacity: 0.5"/>
     <use xlink:href="#m88d505ed79" x="129.452645" y="155.039955" style="fill: #0000ff; fill-opacity: 0.5; stroke: #ffffff; stroke-opacity: 0.5"/>
     <use xlink:href="#m88d505ed79" x="91.276855" y="165.644738" style="fill: #0000ff; fill-opacity: 0.5; stroke: #ffffff; stroke-opacity: 0.5"/>
     <use xlink:href="#m88d505ed79" x="118.060533" y="142.235857" style="fill: #0000ff; fill-opacity: 0.5; stroke: #ffffff; stroke-opacity: 0.5"/>
     <use xlink:href="#m88d505ed79" x="104.171737" y="154.209593" style="fill: #0000ff; fill-opacity: 0.5; stroke: #ffffff; stroke-opacity: 0.5"/>
     <use xlink:href="#m88d505ed79" x="105.651198" y="148.1251" style="fill: #0000ff; fill-opacity: 0.5; stroke: #ffffff; stroke-opacity: 0.5"/>
     <use xlink:href="#m88d505ed79" x="148.259627" y="177.70984" style="fill: #0000ff; fill-opacity: 0.5; stroke: #ffffff; stroke-opacity: 0.5"/>
     <use xlink:href="#m88d505ed79" x="108.418394" y="151.654348" style="fill: #0000ff; fill-opacity: 0.5; stroke: #ffffff; stroke-opacity: 0.5"/>
     <use xlink:href="#m88d505ed79" x="128.761255" y="139.709589" style="fill: #0000ff; fill-opacity: 0.5; stroke: #ffffff; stroke-opacity: 0.5"/>
     <use xlink:href="#m88d505ed79" x="135.92764" y="155.688176" style="fill: #0000ff; fill-opacity: 0.5; stroke: #ffffff; stroke-opacity: 0.5"/>
     <use xlink:href="#m88d505ed79" x="106.365895" y="146.318086" style="fill: #0000ff; fill-opacity: 0.5; stroke: #ffffff; stroke-opacity: 0.5"/>
     <use xlink:href="#m88d505ed79" x="93.471014" y="160.711445" style="fill: #0000ff; fill-opacity: 0.5; stroke: #ffffff; stroke-opacity: 0.5"/>
     <use xlink:href="#m88d505ed79" x="114.436799" y="144.916059" style="fill: #0000ff; fill-opacity: 0.5; stroke: #ffffff; stroke-opacity: 0.5"/>
     <use xlink:href="#m88d505ed79" x="187.38985" y="107.343386" style="fill: #0000ff; fill-opacity: 0.5; stroke: #ffffff; stroke-opacity: 0.5"/>
     <use xlink:href="#m88d505ed79" x="155.204389" y="124.786427" style="fill: #0000ff; fill-opacity: 0.5; stroke: #ffffff; stroke-opacity: 0.5"/>
     <use xlink:href="#m88d505ed79" x="176.633771" y="112.347099" style="fill: #0000ff; fill-opacity: 0.5; stroke: #ffffff; stroke-opacity: 0.5"/>
     <use xlink:href="#m88d505ed79" x="130.129324" y="138.500053" style="fill: #0000ff; fill-opacity: 0.5; stroke: #ffffff; stroke-opacity: 0.5"/>
     <use xlink:href="#m88d505ed79" x="133.312247" y="144.916059" style="fill: #0000ff; fill-opacity: 0.5; stroke: #ffffff; stroke-opacity: 0.5"/>
     <use xlink:href="#m88d505ed79" x="135.364746" y="144.193919" style="fill: #0000ff; fill-opacity: 0.5; stroke: #ffffff; stroke-opacity: 0.5"/>
     <use xlink:href="#m88d505ed79" x="138.344196" y="133.283697" style="fill: #0000ff; fill-opacity: 0.5; stroke: #ffffff; stroke-opacity: 0.5"/>
     <use xlink:href="#m88d505ed79" x="132.390365" y="141.816009" style="fill: #0000ff; fill-opacity: 0.5; stroke: #ffffff; stroke-opacity: 0.5"/>
     <use xlink:href="#m88d505ed79" x="166.272527" y="126.951846" style="fill: #0000ff; fill-opacity: 0.5; stroke: #ffffff; stroke-opacity: 0.5"/>
     <use xlink:href="#m88d505ed79" x="266.499423" y="59.277637" style="fill: #0000ff; fill-opacity: 0.5; stroke: #ffffff; stroke-opacity: 0.5"/>
     <use xlink:href="#m88d505ed79" x="163.230661" y="143.901164" style="fill: #0000ff; fill-opacity: 0.5; stroke: #ffffff; stroke-opacity: 0.5"/>
     <use xlink:href="#m88d505ed79" x="174.217214" y="142.235857" style="fill: #0000ff; fill-opacity: 0.5; stroke: #ffffff; stroke-opacity: 0.5"/>
     <use xlink:href="#m88d505ed79" x="194.717869" y="101.897217" style="fill: #0000ff; fill-opacity: 0.5; stroke: #ffffff; stroke-opacity: 0.5"/>
     <use xlink:href="#m88d505ed79" x="199.857843" y="101.897217" style="fill: #0000ff; fill-opacity: 0.5; stroke: #ffffff; stroke-opacity: 0.5"/>
     <use xlink:href="#m88d505ed79" x="246.726163" y="72.80316" style="fill: #0000ff; fill-opacity: 0.5; stroke: #ffffff; stroke-opacity: 0.5"/>
     <use xlink:href="#m88d505ed79" x="171.328052" y="112.913552" style="fill: #0000ff; fill-opacity: 0.5; stroke: #ffffff; stroke-opacity: 0.5"/>
     <use xlink:href="#m88d505ed79" x="167.639465" y="115.6331" style="fill: #0000ff; fill-opacity: 0.5; stroke: #ffffff; stroke-opacity: 0.5"/>
     <use xlink:href="#m88d505ed79" x="216.695857" y="90.96646" style="fill: #0000ff; fill-opacity: 0.5; stroke: #ffffff; stroke-opacity: 0.5"/>
     <use xlink:href="#m88d505ed79" x="175.689067" y="110.362984" style="fill: #0000ff; fill-opacity: 0.5; stroke: #ffffff; stroke-opacity: 0.5"/>
     <use xlink:href="#m88d505ed79" x="142.687666" y="135.103249" style="fill: #0000ff; fill-opacity: 0.5; stroke: #ffffff; stroke-opacity: 0.5"/>
     <use xlink:href="#m88d505ed79" x="153.804534" y="127.469578" style="fill: #0000ff; fill-opacity: 0.5; stroke: #ffffff; stroke-opacity: 0.5"/>
     <use xlink:href="#m88d505ed79" x="180.841621" y="104.321211" style="fill: #0000ff; fill-opacity: 0.5; stroke: #ffffff; stroke-opacity: 0.5"/>
     <use xlink:href="#m88d505ed79" x="98.37342" y="137.611176" style="fill: #0000ff; fill-opacity: 0.5; stroke: #ffffff; stroke-opacity: 0.5"/>
     <use xlink:href="#m88d505ed79" x="169.826761" y="113.848499" style="fill: #0000ff; fill-opacity: 0.5; stroke: #ffffff; stroke-opacity: 0.5"/>
     <use xlink:href="#m88d505ed79" x="90.120266" y="149.805567" style="fill: #0000ff; fill-opacity: 0.5; stroke: #ffffff; stroke-opacity: 0.5"/>
     <use xlink:href="#m88d505ed79" x="153.804534" y="124.520042" style="fill: #0000ff; fill-opacity: 0.5; stroke: #ffffff; stroke-opacity: 0.5"/>
     <use xlink:href="#m88d505ed79" x="199.857843" y="99.344089" style="fill: #0000ff; fill-opacity: 0.5; stroke: #ffffff; stroke-opacity: 0.5"/>
     <use xlink:href="#m88d505ed79" x="183.008586" y="111.80772" style="fill: #0000ff; fill-opacity: 0.5; stroke: #ffffff; stroke-opacity: 0.5"/>
     <use xlink:href="#m88d505ed79" x="159.60285" y="124.745193" style="fill: #0000ff; fill-opacity: 0.5; stroke: #ffffff; stroke-opacity: 0.5"/>
     <use xlink:href="#m88d505ed79" x="194.717869" y="99.003622" style="fill: #0000ff; fill-opacity: 0.5; stroke: #ffffff; stroke-opacity: 0.5"/>
     <use xlink:href="#m88d505ed79" x="201.318614" y="96.538254" style="fill: #0000ff; fill-opacity: 0.5; stroke: #ffffff; stroke-opacity: 0.5"/>
     <use xlink:href="#m88d505ed79" x="184.496703" y="110.533937" style="fill: #0000ff; fill-opacity: 0.5; stroke: #ffffff; stroke-opacity: 0.5"/>
     <use xlink:href="#m88d505ed79" x="185.976165" y="104.95921" style="fill: #0000ff; fill-opacity: 0.5; stroke: #ffffff; stroke-opacity: 0.5"/>
     <use xlink:href="#m88d505ed79" x="183.008586" y="110.016468" style="fill: #0000ff; fill-opacity: 0.5; stroke: #ffffff; stroke-opacity: 0.5"/>
     <use xlink:href="#m88d505ed79" x="217.241371" y="91.1794" style="fill: #0000ff; fill-opacity: 0.5; stroke: #ffffff; stroke-opacity: 0.5"/>
     <use xlink:href="#m88d505ed79" x="148.448368" y="129.2469" style="fill: #0000ff; fill-opacity: 0.5; stroke: #ffffff; stroke-opacity: 0.5"/>
     <use xlink:href="#m88d505ed79" x="175.689067" y="119.805465" style="fill: #0000ff; fill-opacity: 0.5; stroke: #ffffff; stroke-opacity: 0.5"/>
     <use xlink:href="#m88d505ed79" x="155.956261" y="127.661501" style="fill: #0000ff; fill-opacity: 0.5; stroke: #ffffff; stroke-opacity: 0.5"/>
     <use xlink:href="#m88d505ed79" x="179.381569" y="109.676334" style="fill: #0000ff; fill-opacity: 0.5; stroke: #ffffff; stroke-opacity: 0.5"/>
     <use xlink:href="#m88d505ed79" x="185.976165" y="110.870946" style="fill: #0000ff; fill-opacity: 0.5; stroke: #ffffff; stroke-opacity: 0.5"/>
     <use xlink:href="#m88d505ed79" x="169.826761" y="122.645122" style="fill: #0000ff; fill-opacity: 0.5; stroke: #ffffff; stroke-opacity: 0.5"/>
     <use xlink:href="#m88d505ed79" x="224.75917" y="83.224647" style="fill: #0000ff; fill-opacity: 0.5; stroke: #ffffff; stroke-opacity: 0.5"/>
     <use xlink:href="#m88d505ed79" x="190.345459" y="100.366284" style="fill: #0000ff; fill-opacity: 0.5; stroke: #ffffff; stroke-opacity: 0.5"/>
     <use xlink:href="#m88d505ed79" x="210.840266" y="94.920512" style="fill: #0000ff; fill-opacity: 0.5; stroke: #ffffff; stroke-opacity: 0.5"/>
     <use xlink:href="#m88d505ed79" x="207.904253" y="91.986543" style="fill: #0000ff; fill-opacity: 0.5; stroke: #ffffff; stroke-opacity: 0.5"/>
     <use xlink:href="#m88d505ed79" x="186.321224" y="112.148187" style="fill: #0000ff; fill-opacity: 0.5; stroke: #ffffff; stroke-opacity: 0.5"/>
     <use xlink:href="#m88d505ed79" x="147.103038" y="129.063875" style="fill: #0000ff; fill-opacity: 0.5; stroke: #ffffff; stroke-opacity: 0.5"/>
     <use xlink:href="#m88d505ed79" x="177.17216" y="112.065072" style="fill: #0000ff; fill-opacity: 0.5; stroke: #ffffff; stroke-opacity: 0.5"/>
     <use xlink:href="#m88d505ed79" x="151.496591" y="132.863485" style="fill: #0000ff; fill-opacity: 0.5; stroke: #ffffff; stroke-opacity: 0.5"/>
     <use xlink:href="#m88d505ed79" x="220.370678" y="89.902704" style="fill: #0000ff; fill-opacity: 0.5; stroke: #ffffff; stroke-opacity: 0.5"/>
     <use xlink:href="#m88d505ed79" x="173.540536" y="108.787212" style="fill: #0000ff; fill-opacity: 0.5; stroke: #ffffff; stroke-opacity: 0.5"/>
     <use xlink:href="#m88d505ed79" x="170.586265" y="120.316846" style="fill: #0000ff; fill-opacity: 0.5; stroke: #ffffff; stroke-opacity: 0.5"/>
     <use xlink:href="#m88d505ed79" x="155.204389" y="125.2039" style="fill: #0000ff; fill-opacity: 0.5; stroke: #ffffff; stroke-opacity: 0.5"/>
     <use xlink:href="#m88d505ed79" x="154.434311" y="133.613571" style="fill: #0000ff; fill-opacity: 0.5; stroke: #ffffff; stroke-opacity: 0.5"/>
     <use xlink:href="#m88d505ed79" x="229.154926" y="84.712294" style="fill: #0000ff; fill-opacity: 0.5; stroke: #ffffff; stroke-opacity: 0.5"/>
     <use xlink:href="#m88d505ed79" x="206.449653" y="96.922404" style="fill: #0000ff; fill-opacity: 0.5; stroke: #ffffff; stroke-opacity: 0.5"/>
     <use xlink:href="#m88d505ed79" x="116.557764" y="145.101092" style="fill: #0000ff; fill-opacity: 0.5; stroke: #ffffff; stroke-opacity: 0.5"/>
     <use xlink:href="#m88d505ed79" x="133.312247" y="140.659536" style="fill: #0000ff; fill-opacity: 0.5; stroke: #ffffff; stroke-opacity: 0.5"/>
     <use xlink:href="#m88d505ed79" x="128.409841" y="143.612976" style="fill: #0000ff; fill-opacity: 0.5; stroke: #ffffff; stroke-opacity: 0.5"/>
     <use xlink:href="#m88d505ed79" x="96.502134" y="160.856326" style="fill: #0000ff; fill-opacity: 0.5; stroke: #ffffff; stroke-opacity: 0.5"/>
     <use xlink:href="#m88d505ed79" x="129.452645" y="148.870055" style="fill: #0000ff; fill-opacity: 0.5; stroke: #ffffff; stroke-opacity: 0.5"/>
     <use xlink:href="#m88d505ed79" x="129.452645" y="139.388322" style="fill: #0000ff; fill-opacity: 0.5; stroke: #ffffff; stroke-opacity: 0.5"/>
     <use xlink:href="#m88d505ed79" x="85.020939" y="156.133313" style="fill: #0000ff; fill-opacity: 0.5; stroke: #ffffff; stroke-opacity: 0.5"/>
     <use xlink:href="#m88d505ed79" x="94.513819" y="157.905189" style="fill: #0000ff; fill-opacity: 0.5; stroke: #ffffff; stroke-opacity: 0.5"/>
     <use xlink:href="#m88d505ed79" x="101.814904" y="146.787466" style="fill: #0000ff; fill-opacity: 0.5; stroke: #ffffff; stroke-opacity: 0.5"/>
     <use xlink:href="#m88d505ed79" x="94.513819" y="152.467448" style="fill: #0000ff; fill-opacity: 0.5; stroke: #ffffff; stroke-opacity: 0.5"/>
     <use xlink:href="#m88d505ed79" x="105.651198" y="149.176659" style="fill: #0000ff; fill-opacity: 0.5; stroke: #ffffff; stroke-opacity: 0.5"/>
     <use xlink:href="#m88d505ed79" x="105.651198" y="143.612976" style="fill: #0000ff; fill-opacity: 0.5; stroke: #ffffff; stroke-opacity: 0.5"/>
     <use xlink:href="#m88d505ed79" x="125.834807" y="145.731614" style="fill: #0000ff; fill-opacity: 0.5; stroke: #ffffff; stroke-opacity: 0.5"/>
     <use xlink:href="#m88d505ed79" x="123.858849" y="143.21692" style="fill: #0000ff; fill-opacity: 0.5; stroke: #ffffff; stroke-opacity: 0.5"/>
     <use xlink:href="#m88d505ed79" x="103.40537" y="161.903627" style="fill: #0000ff; fill-opacity: 0.5; stroke: #ffffff; stroke-opacity: 0.5"/>
     <use xlink:href="#m88d505ed79" x="125.059093" y="133.414941" style="fill: #0000ff; fill-opacity: 0.5; stroke: #ffffff; stroke-opacity: 0.5"/>
     <use xlink:href="#m88d505ed79" x="173.369092" y="192.42" style="fill: #0000ff; fill-opacity: 0.5; stroke: #ffffff; stroke-opacity: 0.5"/>
     <use xlink:href="#m88d505ed79" x="185.976165" y="119.586114" style="fill: #0000ff; fill-opacity: 0.5; stroke: #ffffff; stroke-opacity: 0.5"/>
     <use xlink:href="#m88d505ed79" x="113.3208" y="141.92008" style="fill: #0000ff; fill-opacity: 0.5; stroke: #ffffff; stroke-opacity: 0.5"/>
     <use xlink:href="#m88d505ed79" x="150.453786" y="127.565291" style="fill: #0000ff; fill-opacity: 0.5; stroke: #ffffff; stroke-opacity: 0.5"/>
     <use xlink:href="#m88d505ed79" x="124.664023" y="144.371824" style="fill: #0000ff; fill-opacity: 0.5; stroke: #ffffff; stroke-opacity: 0.5"/>
     <use xlink:href="#m88d505ed79" x="320.689914" y="30.183927" style="fill: #0000ff; fill-opacity: 0.5; stroke: #ffffff; stroke-opacity: 0.5"/>
     <use xlink:href="#m88d505ed79" x="325.815596" y="22.697866" style="fill: #0000ff; fill-opacity: 0.5; stroke: #ffffff; stroke-opacity: 0.5"/>
     <use xlink:href="#m88d505ed79" x="248.925458" y="133.15338" style="fill: #0000ff; fill-opacity: 0.5; stroke: #ffffff; stroke-opacity: 0.5"/>
     <use xlink:href="#m88d505ed79" x="185.392613" y="107.26328" style="fill: #0000ff; fill-opacity: 0.5; stroke: #ffffff; stroke-opacity: 0.5"/>
     <use xlink:href="#m88d505ed79" x="188.1549" y="104.832639" style="fill: #0000ff; fill-opacity: 0.5; stroke: #ffffff; stroke-opacity: 0.5"/>
     <use xlink:href="#m88d505ed79" x="188.901978" y="106.237203" style="fill: #0000ff; fill-opacity: 0.5; stroke: #ffffff; stroke-opacity: 0.5"/>
     <use xlink:href="#m88d505ed79" x="240.139131" y="72.717971" style="fill: #0000ff; fill-opacity: 0.5; stroke: #ffffff; stroke-opacity: 0.5"/>
     <use xlink:href="#m88d505ed79" x="147.878752" y="143.329216" style="fill: #0000ff; fill-opacity: 0.5; stroke: #ffffff; stroke-opacity: 0.5"/>
     <use xlink:href="#m88d505ed79" x="159.60285" y="135.248132" style="fill: #0000ff; fill-opacity: 0.5; stroke: #ffffff; stroke-opacity: 0.5"/>
     <use xlink:href="#m88d505ed79" x="131.760589" y="138.156372" style="fill: #0000ff; fill-opacity: 0.5; stroke: #ffffff; stroke-opacity: 0.5"/>
     <use xlink:href="#m88d505ed79" x="138.344196" y="135.541352" style="fill: #0000ff; fill-opacity: 0.5; stroke: #ffffff; stroke-opacity: 0.5"/>
     <use xlink:href="#m88d505ed79" x="142.687666" y="127.279628" style="fill: #0000ff; fill-opacity: 0.5; stroke: #ffffff; stroke-opacity: 0.5"/>
     <use xlink:href="#m88d505ed79" x="186.66258" y="112.612131" style="fill: #0000ff; fill-opacity: 0.5; stroke: #ffffff; stroke-opacity: 0.5"/>
     <use xlink:href="#m88d505ed79" x="152.340213" y="132.736087" style="fill: #0000ff; fill-opacity: 0.5; stroke: #ffffff; stroke-opacity: 0.5"/>
     <use xlink:href="#m88d505ed79" x="149.375625" y="125.544807" style="fill: #0000ff; fill-opacity: 0.5; stroke: #ffffff; stroke-opacity: 0.5"/>
     <use xlink:href="#m88d505ed79" x="125.834807" y="138.370422" style="fill: #0000ff; fill-opacity: 0.5; stroke: #ffffff; stroke-opacity: 0.5"/>
     <use xlink:href="#m88d505ed79" x="133.912316" y="133.713694" style="fill: #0000ff; fill-opacity: 0.5; stroke: #ffffff; stroke-opacity: 0.5"/>
     <use xlink:href="#m88d505ed79" x="138.344196" y="138.241694" style="fill: #0000ff; fill-opacity: 0.5; stroke: #ffffff; stroke-opacity: 0.5"/>
     <use xlink:href="#m88d505ed79" x="134.791709" y="138.156372" style="fill: #0000ff; fill-opacity: 0.5; stroke: #ffffff; stroke-opacity: 0.5"/>
     <use xlink:href="#m88d505ed79" x="137.558905" y="136.411246" style="fill: #0000ff; fill-opacity: 0.5; stroke: #ffffff; stroke-opacity: 0.5"/>
     <use xlink:href="#m88d505ed79" x="146.307929" y="127.879824" style="fill: #0000ff; fill-opacity: 0.5; stroke: #ffffff; stroke-opacity: 0.5"/>
     <use xlink:href="#m88d505ed79" x="155.204389" y="129.753025" style="fill: #0000ff; fill-opacity: 0.5; stroke: #ffffff; stroke-opacity: 0.5"/>
     <use xlink:href="#m88d505ed79" x="126.592049" y="137.569896" style="fill: #0000ff; fill-opacity: 0.5; stroke: #ffffff; stroke-opacity: 0.5"/>
     <use xlink:href="#m88d505ed79" x="133.912316" y="139.571218" style="fill: #0000ff; fill-opacity: 0.5; stroke: #ffffff; stroke-opacity: 0.5"/>
     <use xlink:href="#m88d505ed79" x="123.032759" y="145.476817" style="fill: #0000ff; fill-opacity: 0.5; stroke: #ffffff; stroke-opacity: 0.5"/>
     <use xlink:href="#m88d505ed79" x="137.558905" y="141.764194" style="fill: #0000ff; fill-opacity: 0.5; stroke: #ffffff; stroke-opacity: 0.5"/>
     <use xlink:href="#m88d505ed79" x="156.690767" y="122.737253" style="fill: #0000ff; fill-opacity: 0.5; stroke: #ffffff; stroke-opacity: 0.5"/>
     <use xlink:href="#m88d505ed79" x="132.390365" y="138.327413" style="fill: #0000ff; fill-opacity: 0.5; stroke: #ffffff; stroke-opacity: 0.5"/>
     <use xlink:href="#m88d505ed79" x="155.956261" y="126.606987" style="fill: #0000ff; fill-opacity: 0.5; stroke: #ffffff; stroke-opacity: 0.5"/>
     <use xlink:href="#m88d505ed79" x="137.822829" y="144.672195" style="fill: #0000ff; fill-opacity: 0.5; stroke: #ffffff; stroke-opacity: 0.5"/>
     <use xlink:href="#m88d505ed79" x="119.959765" y="145.288" style="fill: #0000ff; fill-opacity: 0.5; stroke: #ffffff; stroke-opacity: 0.5"/>
     <use xlink:href="#m88d505ed79" x="132.390365" y="136.142133" style="fill: #0000ff; fill-opacity: 0.5; stroke: #ffffff; stroke-opacity: 0.5"/>
     <use xlink:href="#m88d505ed79" x="134.791709" y="143.049749" style="fill: #0000ff; fill-opacity: 0.5; stroke: #ffffff; stroke-opacity: 0.5"/>
     <use xlink:href="#m88d505ed79" x="139.110563" y="132.142671" style="fill: #0000ff; fill-opacity: 0.5; stroke: #ffffff; stroke-opacity: 0.5"/>
     <use xlink:href="#m88d505ed79" x="115.514959" y="142.449412" style="fill: #0000ff; fill-opacity: 0.5; stroke: #ffffff; stroke-opacity: 0.5"/>
     <use xlink:href="#m88d505ed79" x="142.687666" y="133.780742" style="fill: #0000ff; fill-opacity: 0.5; stroke: #ffffff; stroke-opacity: 0.5"/>
     <use xlink:href="#m88d505ed79" x="114.436799" y="146.584839" style="fill: #0000ff; fill-opacity: 0.5; stroke: #ffffff; stroke-opacity: 0.5"/>
     <use xlink:href="#m88d505ed79" x="125.834807" y="143.959344" style="fill: #0000ff; fill-opacity: 0.5; stroke: #ffffff; stroke-opacity: 0.5"/>
     <use xlink:href="#m88d505ed79" x="112.747764" y="145.795864" style="fill: #0000ff; fill-opacity: 0.5; stroke: #ffffff; stroke-opacity: 0.5"/>
     <use xlink:href="#m88d505ed79" x="209.378438" y="92.197498" style="fill: #0000ff; fill-opacity: 0.5; stroke: #ffffff; stroke-opacity: 0.5"/>
     <use xlink:href="#m88d505ed79" x="128.0545" y="140.562312" style="fill: #0000ff; fill-opacity: 0.5; stroke: #ffffff; stroke-opacity: 0.5"/>
     <use xlink:href="#m88d505ed79" x="120.868475" y="144.73286" style="fill: #0000ff; fill-opacity: 0.5; stroke: #ffffff; stroke-opacity: 0.5"/>
     <use xlink:href="#m88d505ed79" x="147.878752" y="130.694852" style="fill: #0000ff; fill-opacity: 0.5; stroke: #ffffff; stroke-opacity: 0.5"/>
     <use xlink:href="#m88d505ed79" x="130.129324" y="156.359974" style="fill: #0000ff; fill-opacity: 0.5; stroke: #ffffff; stroke-opacity: 0.5"/>
    </g>
   </g>
   <g id="PolyCollection_1">
    <path d="M 58.532187 173.210499 
L 58.532187 179.893373 
L 61.350369 178.324824 
L 64.168551 176.770108 
L 66.986733 175.20301 
L 69.804915 173.644025 
L 72.623097 172.103216 
L 75.441278 170.556888 
L 78.25946 168.999522 
L 81.077642 167.447918 
L 83.895824 165.886491 
L 86.714006 164.325931 
L 89.532188 162.769128 
L 92.350369 161.229778 
L 95.168551 159.686957 
L 97.986733 158.134165 
L 100.804915 156.592541 
L 103.623097 155.057103 
L 106.441278 153.542531 
L 109.25946 152.042101 
L 112.077642 150.537472 
L 114.895824 149.000874 
L 117.714006 147.497465 
L 120.532188 146.011459 
L 123.350369 144.491677 
L 126.168551 143.017662 
L 128.986733 141.5632 
L 131.804915 140.138378 
L 134.623097 138.689317 
L 137.441278 137.269377 
L 140.25946 135.88346 
L 143.077642 134.461553 
L 145.895824 133.101669 
L 148.714006 131.730185 
L 151.532188 130.365028 
L 154.350369 129.013605 
L 157.168551 127.661582 
L 159.986733 126.34522 
L 162.804915 125.006016 
L 165.623097 123.659117 
L 168.441278 122.355264 
L 171.25946 121.036132 
L 174.077642 119.693261 
L 176.895824 118.36608 
L 179.714006 117.070267 
L 182.532188 115.686886 
L 185.350369 114.377977 
L 188.168551 113.054903 
L 190.986733 111.734763 
L 193.804915 110.442831 
L 196.623097 109.14773 
L 199.441278 107.831535 
L 202.25946 106.529421 
L 205.077642 105.22564 
L 207.895824 103.896361 
L 210.714006 102.554917 
L 213.532188 101.213472 
L 216.350369 99.872028 
L 219.168551 98.532409 
L 221.986733 97.246061 
L 224.804915 95.959713 
L 227.623097 94.67293 
L 230.441278 93.385921 
L 233.25946 92.081083 
L 236.077642 90.748387 
L 238.895824 89.415276 
L 241.714006 88.08158 
L 244.532188 86.747884 
L 247.350369 85.414188 
L 250.168551 84.080492 
L 252.986733 82.746796 
L 255.804915 81.4131 
L 258.623097 80.079404 
L 261.441278 78.745707 
L 264.25946 77.412011 
L 267.077642 76.078315 
L 269.895824 74.747034 
L 272.714006 73.427553 
L 275.532188 72.108072 
L 278.350369 70.788591 
L 281.168551 69.46911 
L 283.986733 68.149629 
L 286.804915 66.830148 
L 289.623097 65.510667 
L 292.441278 64.191186 
L 295.25946 62.871705 
L 298.077642 61.552224 
L 300.895824 60.232743 
L 303.714006 58.913262 
L 306.532188 57.593781 
L 309.350369 56.2743 
L 312.168551 54.954819 
L 314.986733 53.635338 
L 317.804915 52.315857 
L 320.623097 50.996376 
L 323.441278 49.676895 
L 326.25946 48.357414 
L 329.077642 47.037933 
L 331.895824 45.718452 
L 334.714006 44.398971 
L 337.532188 43.07949 
L 337.532188 24.761204 
L 337.532188 24.761204 
L 334.714006 26.325256 
L 331.895824 27.889309 
L 329.077642 29.453362 
L 326.25946 31.017414 
L 323.441278 32.581467 
L 320.623097 34.14552 
L 317.804915 35.709572 
L 314.986733 37.273625 
L 312.168551 38.837678 
L 309.350369 40.40173 
L 306.532188 41.965783 
L 303.714006 43.529836 
L 300.895824 45.093888 
L 298.077642 46.657941 
L 295.25946 48.221994 
L 292.441278 49.786046 
L 289.623097 51.350099 
L 286.804915 52.914152 
L 283.986733 54.475365 
L 281.168551 56.028162 
L 278.350369 57.58096 
L 275.532188 59.133757 
L 272.714006 60.686555 
L 269.895824 62.252454 
L 267.077642 63.82049 
L 264.25946 65.388574 
L 261.441278 66.957207 
L 258.623097 68.504229 
L 255.804915 70.073911 
L 252.986733 71.649768 
L 250.168551 73.226233 
L 247.350369 74.799568 
L 244.532188 76.368372 
L 241.714006 77.937521 
L 238.895824 79.505538 
L 236.077642 81.066436 
L 233.25946 82.629518 
L 230.441278 84.176948 
L 227.623097 85.719444 
L 224.804915 87.261941 
L 221.986733 88.823709 
L 219.168551 90.392494 
L 216.350369 91.946883 
L 213.532188 93.492328 
L 210.714006 95.044779 
L 207.895824 96.589201 
L 205.077642 98.144091 
L 202.25946 99.719355 
L 199.441278 101.274537 
L 196.623097 102.819599 
L 193.804915 104.386771 
L 190.986733 105.940203 
L 188.168551 107.498174 
L 185.350369 109.053392 
L 182.532188 110.626875 
L 179.714006 112.171882 
L 176.895824 113.725412 
L 174.077642 115.270482 
L 171.25946 116.803658 
L 168.441278 118.334887 
L 165.623097 119.879211 
L 162.804915 121.429527 
L 159.986733 122.952519 
L 157.168551 124.47958 
L 154.350369 126.013264 
L 151.532188 127.54309 
L 148.714006 129.060083 
L 145.895824 130.574698 
L 143.077642 132.094101 
L 140.25946 133.588241 
L 137.441278 135.056543 
L 134.623097 136.526009 
L 131.804915 138.010768 
L 128.986733 139.463132 
L 126.168551 140.883824 
L 123.350369 142.301025 
L 120.532188 143.723365 
L 117.714006 145.112566 
L 114.895824 146.482479 
L 112.077642 147.861471 
L 109.25946 149.220237 
L 106.441278 150.60403 
L 103.623097 151.934221 
L 100.804915 153.27442 
L 97.986733 154.656567 
L 95.168551 156.010689 
L 92.350369 157.374522 
L 89.532188 158.710193 
L 86.714006 160.016161 
L 83.895824 161.315504 
L 81.077642 162.615343 
L 78.25946 163.915366 
L 75.441278 165.215389 
L 72.623097 166.567755 
L 69.804915 167.876113 
L 66.986733 169.22726 
L 64.168551 170.578412 
L 61.350369 171.901756 
L 58.532187 173.210499 
z
" clip-path="url(#p63f6e7e639)" style="fill: #ff0000; fill-opacity: 0.15"/>
   </g>
   <g id="line2d_27">
    <path d="M 58.532187 177.109222 
L 61.350369 175.645632 
L 64.168551 174.182042 
L 66.986733 172.718452 
L 69.804915 171.254862 
L 72.623097 169.791272 
L 75.441278 168.327682 
L 78.25946 166.864092 
L 81.077642 165.400502 
L 83.895824 163.936912 
L 86.714006 162.473322 
L 89.532188 161.009732 
L 92.350369 159.546142 
L 95.168551 158.082551 
L 97.986733 156.618961 
L 100.804915 155.155371 
L 103.623097 153.691781 
L 106.441278 152.228191 
L 109.25946 150.764601 
L 112.077642 149.301011 
L 114.895824 147.837421 
L 117.714006 146.373831 
L 120.532188 144.910241 
L 123.350369 143.446651 
L 126.168551 141.983061 
L 128.986733 140.519471 
L 131.804915 139.055881 
L 134.623097 137.592291 
L 137.441278 136.128701 
L 140.25946 134.665111 
L 143.077642 133.201521 
L 145.895824 131.737931 
L 148.714006 130.274341 
L 151.532188 128.810751 
L 154.350369 127.347161 
L 157.168551 125.883571 
L 159.986733 124.419981 
L 162.804915 122.956391 
L 165.623097 121.4928 
L 168.441278 120.02921 
L 171.25946 118.56562 
L 174.077642 117.10203 
L 176.895824 115.63844 
L 179.714006 114.17485 
L 182.532188 112.71126 
L 185.350369 111.24767 
L 188.168551 109.78408 
L 190.986733 108.32049 
L 193.804915 106.8569 
L 196.623097 105.39331 
L 199.441278 103.92972 
L 202.25946 102.46613 
L 205.077642 101.00254 
L 207.895824 99.53895 
L 210.714006 98.07536 
L 213.532188 96.61177 
L 216.350369 95.14818 
L 219.168551 93.68459 
L 221.986733 92.221 
L 224.804915 90.75741 
L 227.623097 89.29382 
L 230.441278 87.83023 
L 233.25946 86.366639 
L 236.077642 84.903049 
L 238.895824 83.439459 
L 241.714006 81.975869 
L 244.532188 80.512279 
L 247.350369 79.048689 
L 250.168551 77.585099 
L 252.986733 76.121509 
L 255.804915 74.657919 
L 258.623097 73.194329 
L 261.441278 71.730739 
L 264.25946 70.267149 
L 267.077642 68.803559 
L 269.895824 67.339969 
L 272.714006 65.876379 
L 275.532188 64.412789 
L 278.350369 62.949199 
L 281.168551 61.485609 
L 283.986733 60.022019 
L 286.804915 58.558429 
L 289.623097 57.094839 
L 292.441278 55.631249 
L 295.25946 54.167659 
L 298.077642 52.704069 
L 300.895824 51.240479 
L 303.714006 49.776888 
L 306.532188 48.313298 
L 309.350369 46.849708 
L 312.168551 45.386118 
L 314.986733 43.922528 
L 317.804915 42.458938 
L 320.623097 40.995348 
L 323.441278 39.531758 
L 326.25946 38.068168 
L 329.077642 36.604578 
L 331.895824 35.140988 
L 334.714006 33.677398 
L 337.532188 32.213808 
" clip-path="url(#p63f6e7e639)" style="fill: none; stroke: #ff0000; stroke-opacity: 0.7; stroke-width: 3; stroke-linecap: square"/>
   </g>
   <g id="patch_3">
    <path d="M 44.582188 201.24 
L 44.582188 7.2 
" style="fill: none; stroke: #ffffff; stroke-linejoin: miter; stroke-linecap: square"/>
   </g>
   <g id="patch_4">
    <path d="M 351.482188 201.24 
L 351.482188 7.2 
" style="fill: none; stroke: #ffffff; stroke-linejoin: miter; stroke-linecap: square"/>
   </g>
   <g id="patch_5">
    <path d="M 44.582187 201.24 
L 351.482188 201.24 
" style="fill: none; stroke: #ffffff; stroke-linejoin: miter; stroke-linecap: square"/>
   </g>
   <g id="patch_6">
    <path d="M 44.582187 7.2 
L 351.482188 7.2 
" style="fill: none; stroke: #ffffff; stroke-linejoin: miter; stroke-linecap: square"/>
   </g>
   <g id="legend_1">
    <g id="patch_7">
     <path d="M 51.582188 56.175937 
L 277.482188 56.175937 
Q 279.482188 56.175937 279.482188 54.175937 
L 279.482188 14.2 
Q 279.482188 12.2 277.482188 12.2 
L 51.582188 12.2 
Q 49.582188 12.2 49.582188 14.2 
L 49.582188 54.175937 
Q 49.582188 56.175937 51.582188 56.175937 
z
" style="fill: #e5e5e5; opacity: 0.8; stroke: #cccccc; stroke-width: 0.5; stroke-linejoin: miter"/>
    </g>
    <g id="PathCollection_2">
     <g>
      <use xlink:href="#m88d505ed79" x="63.582188" y="21.173437" style="fill: #0000ff; fill-opacity: 0.5; stroke: #ffffff; stroke-opacity: 0.5"/>
     </g>
    </g>
    <g id="text_16">
     <!-- Data -->
     <g transform="translate(81.582188 23.798437) scale(0.1 -0.1)">
      <defs>
       <path id="DejaVuSans-44" d="M 1259 4147 
L 1259 519 
L 2022 519 
Q 2988 519 3436 956 
Q 3884 1394 3884 2338 
Q 3884 3275 3436 3711 
Q 2988 4147 2022 4147 
L 1259 4147 
z
M 628 4666 
L 1925 4666 
Q 3281 4666 3915 4102 
Q 4550 3538 4550 2338 
Q 4550 1131 3912 565 
Q 3275 0 1925 0 
L 628 0 
L 628 4666 
z
" transform="scale(0.015625)"/>
      </defs>
      <use xlink:href="#DejaVuSans-44"/>
      <use xlink:href="#DejaVuSans-61" x="77.001953"/>
      <use xlink:href="#DejaVuSans-74" x="138.28125"/>
      <use xlink:href="#DejaVuSans-61" x="177.490234"/>
     </g>
    </g>
    <g id="line2d_28">
     <path d="M 53.582188 41.82625 
L 63.582188 41.82625 
L 73.582188 41.82625 
" style="fill: none; stroke: #ff0000; stroke-opacity: 0.7; stroke-width: 3; stroke-linecap: square"/>
    </g>
    <g id="text_17">
     <!-- $log_{10}(R1_{HEC})=$0.89$\cdot log_{10}(a_{26,LVG})$$-0.38$ -->
     <g transform="translate(81.582188 38.478125) scale(0.1 -0.1)">
      <defs>
       <path id="DejaVuSans-Oblique-6c" d="M 1172 4863 
L 1747 4863 
L 800 0 
L 225 0 
L 1172 4863 
z
" transform="scale(0.015625)"/>
       <path id="DejaVuSans-Oblique-6f" d="M 1625 -91 
Q 1009 -91 651 289 
Q 294 669 294 1325 
Q 294 1706 417 2101 
Q 541 2497 738 2766 
Q 1047 3184 1428 3384 
Q 1809 3584 2291 3584 
Q 2888 3584 3255 3212 
Q 3622 2841 3622 2241 
Q 3622 1825 3500 1412 
Q 3378 1000 3181 728 
Q 2875 309 2494 109 
Q 2113 -91 1625 -91 
z
M 891 1344 
Q 891 869 1089 633 
Q 1288 397 1691 397 
Q 2269 397 2648 901 
Q 3028 1406 3028 2181 
Q 3028 2634 2825 2865 
Q 2622 3097 2228 3097 
Q 1903 3097 1650 2945 
Q 1397 2794 1197 2484 
Q 1050 2253 970 1956 
Q 891 1659 891 1344 
z
" transform="scale(0.015625)"/>
       <path id="DejaVuSans-Oblique-67" d="M 3816 3500 
L 3219 434 
Q 3047 -456 2561 -893 
Q 2075 -1331 1253 -1331 
Q 950 -1331 690 -1286 
Q 431 -1241 206 -1147 
L 313 -588 
Q 525 -725 762 -790 
Q 1000 -856 1269 -856 
Q 1816 -856 2167 -557 
Q 2519 -259 2631 300 
L 2681 563 
Q 2441 288 2122 144 
Q 1803 0 1434 0 
Q 903 0 598 351 
Q 294 703 294 1319 
Q 294 1803 478 2267 
Q 663 2731 997 3091 
Q 1219 3328 1514 3456 
Q 1809 3584 2131 3584 
Q 2484 3584 2746 3420 
Q 3009 3256 3138 2956 
L 3238 3500 
L 3816 3500 
z
M 2950 2216 
Q 2950 2641 2750 2872 
Q 2550 3103 2181 3103 
Q 1953 3103 1747 3012 
Q 1541 2922 1394 2759 
Q 1156 2491 1023 2127 
Q 891 1763 891 1375 
Q 891 944 1092 712 
Q 1294 481 1672 481 
Q 2219 481 2584 976 
Q 2950 1472 2950 2216 
z
" transform="scale(0.015625)"/>
       <path id="DejaVuSans-Oblique-52" d="M 1613 4147 
L 1294 2491 
L 2106 2491 
Q 2584 2491 2879 2755 
Q 3175 3019 3175 3444 
Q 3175 3784 2976 3965 
Q 2778 4147 2406 4147 
L 1613 4147 
z
M 2772 2241 
Q 2972 2194 3105 2009 
Q 3238 1825 3413 1275 
L 3809 0 
L 3144 0 
L 2778 1197 
Q 2638 1659 2453 1815 
Q 2269 1972 1888 1972 
L 1191 1972 
L 806 0 
L 172 0 
L 1081 4666 
L 2503 4666 
Q 3150 4666 3495 4373 
Q 3841 4081 3841 3531 
Q 3841 3044 3547 2687 
Q 3253 2331 2772 2241 
z
" transform="scale(0.015625)"/>
       <path id="DejaVuSans-3d" d="M 678 2906 
L 4684 2906 
L 4684 2381 
L 678 2381 
L 678 2906 
z
M 678 1631 
L 4684 1631 
L 4684 1100 
L 678 1100 
L 678 1631 
z
" transform="scale(0.015625)"/>
       <path id="DejaVuSans-38" d="M 2034 2216 
Q 1584 2216 1326 1975 
Q 1069 1734 1069 1313 
Q 1069 891 1326 650 
Q 1584 409 2034 409 
Q 2484 409 2743 651 
Q 3003 894 3003 1313 
Q 3003 1734 2745 1975 
Q 2488 2216 2034 2216 
z
M 1403 2484 
Q 997 2584 770 2862 
Q 544 3141 544 3541 
Q 544 4100 942 4425 
Q 1341 4750 2034 4750 
Q 2731 4750 3128 4425 
Q 3525 4100 3525 3541 
Q 3525 3141 3298 2862 
Q 3072 2584 2669 2484 
Q 3125 2378 3379 2068 
Q 3634 1759 3634 1313 
Q 3634 634 3220 271 
Q 2806 -91 2034 -91 
Q 1263 -91 848 271 
Q 434 634 434 1313 
Q 434 1759 690 2068 
Q 947 2378 1403 2484 
z
M 1172 3481 
Q 1172 3119 1398 2916 
Q 1625 2713 2034 2713 
Q 2441 2713 2670 2916 
Q 2900 3119 2900 3481 
Q 2900 3844 2670 4047 
Q 2441 4250 2034 4250 
Q 1625 4250 1398 4047 
Q 1172 3844 1172 3481 
z
" transform="scale(0.015625)"/>
       <path id="DejaVuSans-39" d="M 703 97 
L 703 672 
Q 941 559 1184 500 
Q 1428 441 1663 441 
Q 2288 441 2617 861 
Q 2947 1281 2994 2138 
Q 2813 1869 2534 1725 
Q 2256 1581 1919 1581 
Q 1219 1581 811 2004 
Q 403 2428 403 3163 
Q 403 3881 828 4315 
Q 1253 4750 1959 4750 
Q 2769 4750 3195 4129 
Q 3622 3509 3622 2328 
Q 3622 1225 3098 567 
Q 2575 -91 1691 -91 
Q 1453 -91 1209 -44 
Q 966 3 703 97 
z
M 1959 2075 
Q 2384 2075 2632 2365 
Q 2881 2656 2881 3163 
Q 2881 3666 2632 3958 
Q 2384 4250 1959 4250 
Q 1534 4250 1286 3958 
Q 1038 3666 1038 3163 
Q 1038 2656 1286 2365 
Q 1534 2075 1959 2075 
z
" transform="scale(0.015625)"/>
       <path id="DejaVuSans-22c5" d="M 684 2619 
L 1344 2619 
L 1344 1825 
L 684 1825 
L 684 2619 
z
" transform="scale(0.015625)"/>
       <path id="DejaVuSans-Oblique-61" d="M 3438 1997 
L 3047 0 
L 2472 0 
L 2578 531 
Q 2325 219 2001 64 
Q 1678 -91 1281 -91 
Q 834 -91 548 182 
Q 263 456 263 884 
Q 263 1497 752 1853 
Q 1241 2209 2100 2209 
L 2900 2209 
L 2931 2363 
Q 2938 2388 2941 2417 
Q 2944 2447 2944 2509 
Q 2944 2788 2717 2942 
Q 2491 3097 2081 3097 
Q 1800 3097 1504 3025 
Q 1209 2953 897 2809 
L 997 3341 
Q 1322 3463 1633 3523 
Q 1944 3584 2234 3584 
Q 2853 3584 3176 3315 
Q 3500 3047 3500 2534 
Q 3500 2431 3484 2292 
Q 3469 2153 3438 1997 
z
M 2816 1759 
L 2241 1759 
Q 1534 1759 1195 1570 
Q 856 1381 856 984 
Q 856 709 1029 553 
Q 1203 397 1509 397 
Q 1978 397 2328 733 
Q 2678 1069 2791 1631 
L 2816 1759 
z
" transform="scale(0.015625)"/>
       <path id="DejaVuSans-36" d="M 2113 2584 
Q 1688 2584 1439 2293 
Q 1191 2003 1191 1497 
Q 1191 994 1439 701 
Q 1688 409 2113 409 
Q 2538 409 2786 701 
Q 3034 994 3034 1497 
Q 3034 2003 2786 2293 
Q 2538 2584 2113 2584 
z
M 3366 4563 
L 3366 3988 
Q 3128 4100 2886 4159 
Q 2644 4219 2406 4219 
Q 1781 4219 1451 3797 
Q 1122 3375 1075 2522 
Q 1259 2794 1537 2939 
Q 1816 3084 2150 3084 
Q 2853 3084 3261 2657 
Q 3669 2231 3669 1497 
Q 3669 778 3244 343 
Q 2819 -91 2113 -91 
Q 1303 -91 875 529 
Q 447 1150 447 2328 
Q 447 3434 972 4092 
Q 1497 4750 2381 4750 
Q 2619 4750 2861 4703 
Q 3103 4656 3366 4563 
z
" transform="scale(0.015625)"/>
       <path id="DejaVuSans-2c" d="M 750 794 
L 1409 794 
L 1409 256 
L 897 -744 
L 494 -744 
L 750 256 
L 750 794 
z
" transform="scale(0.015625)"/>
      </defs>
      <use xlink:href="#DejaVuSans-Oblique-6c" transform="translate(0 0.015625)"/>
      <use xlink:href="#DejaVuSans-Oblique-6f" transform="translate(27.783203 0.015625)"/>
      <use xlink:href="#DejaVuSans-Oblique-67" transform="translate(88.964844 0.015625)"/>
      <use xlink:href="#DejaVuSans-31" transform="translate(152.441406 -16.390625) scale(0.7)"/>
      <use xlink:href="#DejaVuSans-30" transform="translate(196.977539 -16.390625) scale(0.7)"/>
      <use xlink:href="#DejaVuSans-28" transform="translate(244.248047 0.015625)"/>
      <use xlink:href="#DejaVuSans-Oblique-52" transform="translate(283.261719 0.015625)"/>
      <use xlink:href="#DejaVuSans-31" transform="translate(352.744141 0.015625)"/>
      <use xlink:href="#DejaVuSans-Oblique-48" transform="translate(417.324219 -16.390625) scale(0.7)"/>
      <use xlink:href="#DejaVuSans-Oblique-45" transform="translate(469.960938 -16.390625) scale(0.7)"/>
      <use xlink:href="#DejaVuSans-Oblique-43" transform="translate(514.189453 -16.390625) scale(0.7)"/>
      <use xlink:href="#DejaVuSans-29" transform="translate(565.800781 0.015625)"/>
      <use xlink:href="#DejaVuSans-3d" transform="translate(624.296875 0.015625)"/>
      <use xlink:href="#DejaVuSans-30" transform="translate(727.568359 0.015625)"/>
      <use xlink:href="#DejaVuSans-2e" transform="translate(791.191406 0.015625)"/>
      <use xlink:href="#DejaVuSans-38" transform="translate(820.353516 0.015625)"/>
      <use xlink:href="#DejaVuSans-39" transform="translate(883.976562 0.015625)"/>
      <use xlink:href="#DejaVuSans-22c5" transform="translate(947.599609 0.015625)"/>
      <use xlink:href="#DejaVuSans-Oblique-6c" transform="translate(979.386719 0.015625)"/>
      <use xlink:href="#DejaVuSans-Oblique-6f" transform="translate(1007.169922 0.015625)"/>
      <use xlink:href="#DejaVuSans-Oblique-67" transform="translate(1068.351562 0.015625)"/>
      <use xlink:href="#DejaVuSans-31" transform="translate(1131.828125 -16.390625) scale(0.7)"/>
      <use xlink:href="#DejaVuSans-30" transform="translate(1176.364258 -16.390625) scale(0.7)"/>
      <use xlink:href="#DejaVuSans-28" transform="translate(1223.634766 0.015625)"/>
      <use xlink:href="#DejaVuSans-Oblique-61" transform="translate(1262.648438 0.015625)"/>
      <use xlink:href="#DejaVuSans-32" transform="translate(1323.927734 -16.390625) scale(0.7)"/>
      <use xlink:href="#DejaVuSans-36" transform="translate(1368.463867 -16.390625) scale(0.7)"/>
      <use xlink:href="#DejaVuSans-2c" transform="translate(1413 -16.390625) scale(0.7)"/>
      <use xlink:href="#DejaVuSans-Oblique-4c" transform="translate(1448.888672 -16.390625) scale(0.7)"/>
      <use xlink:href="#DejaVuSans-Oblique-56" transform="translate(1487.887695 -16.390625) scale(0.7)"/>
      <use xlink:href="#DejaVuSans-Oblique-47" transform="translate(1535.773438 -16.390625) scale(0.7)"/>
      <use xlink:href="#DejaVuSans-29" transform="translate(1592.750977 0.015625)"/>
      <use xlink:href="#DejaVuSans-2212" transform="translate(1631.764648 0.015625)"/>
      <use xlink:href="#DejaVuSans-30" transform="translate(1715.553711 0.015625)"/>
      <use xlink:href="#DejaVuSans-2e" transform="translate(1779.176758 0.015625)"/>
      <use xlink:href="#DejaVuSans-33" transform="translate(1810.963867 0.015625)"/>
      <use xlink:href="#DejaVuSans-38" transform="translate(1874.586914 0.015625)"/>
     </g>
     <!--  $R^2 = 80\%$ -->
     <g transform="translate(81.582188 50.09625) scale(0.1 -0.1)">
      <defs>
       <path id="DejaVuSans-25" d="M 4653 2053 
Q 4381 2053 4226 1822 
Q 4072 1591 4072 1178 
Q 4072 772 4226 539 
Q 4381 306 4653 306 
Q 4919 306 5073 539 
Q 5228 772 5228 1178 
Q 5228 1588 5073 1820 
Q 4919 2053 4653 2053 
z
M 4653 2450 
Q 5147 2450 5437 2106 
Q 5728 1763 5728 1178 
Q 5728 594 5436 251 
Q 5144 -91 4653 -91 
Q 4153 -91 3862 251 
Q 3572 594 3572 1178 
Q 3572 1766 3864 2108 
Q 4156 2450 4653 2450 
z
M 1428 4353 
Q 1159 4353 1004 4120 
Q 850 3888 850 3481 
Q 850 3069 1003 2837 
Q 1156 2606 1428 2606 
Q 1700 2606 1854 2837 
Q 2009 3069 2009 3481 
Q 2009 3884 1853 4118 
Q 1697 4353 1428 4353 
z
M 4250 4750 
L 4750 4750 
L 1831 -91 
L 1331 -91 
L 4250 4750 
z
M 1428 4750 
Q 1922 4750 2215 4408 
Q 2509 4066 2509 3481 
Q 2509 2891 2217 2550 
Q 1925 2209 1428 2209 
Q 931 2209 642 2551 
Q 353 2894 353 3481 
Q 353 4063 643 4406 
Q 934 4750 1428 4750 
z
" transform="scale(0.015625)"/>
      </defs>
      <use xlink:href="#DejaVuSans-20" transform="translate(0 0.765625)"/>
      <use xlink:href="#DejaVuSans-Oblique-52" transform="translate(31.787109 0.765625)"/>
      <use xlink:href="#DejaVuSans-32" transform="translate(108.286302 39.046875) scale(0.7)"/>
      <use xlink:href="#DejaVuSans-3d" transform="translate(175.039232 0.765625)"/>
      <use xlink:href="#DejaVuSans-38" transform="translate(278.310716 0.765625)"/>
      <use xlink:href="#DejaVuSans-30" transform="translate(341.933763 0.765625)"/>
      <use xlink:href="#DejaVuSans-25" transform="translate(405.55681 0.765625)"/>
     </g>
    </g>
   </g>
  </g>
 </g>
 <defs>
  <clipPath id="p63f6e7e639">
   <rect x="44.582188" y="7.2" width="306.9" height="194.04"/>
  </clipPath>
 </defs>
</svg>
