<?xml version="1.0" encoding="utf-8" standalone="no"?>
<!DOCTYPE svg PUBLIC "-//W3C//DTD SVG 1.1//EN"
  "http://www.w3.org/Graphics/SVG/1.1/DTD/svg11.dtd">
<svg xmlns:xlink="http://www.w3.org/1999/xlink" width="358.682187pt" height="240.758125pt" viewBox="0 0 358.682187 240.758125" xmlns="http://www.w3.org/2000/svg" version="1.1">
 <metadata>
  <rdf:RDF xmlns:dc="http://purl.org/dc/elements/1.1/" xmlns:cc="http://creativecommons.org/ns#" xmlns:rdf="http://www.w3.org/1999/02/22-rdf-syntax-ns#">
   <cc:Work>
    <dc:type rdf:resource="http://purl.org/dc/dcmitype/StillImage"/>
    <dc:date>2024-10-27T18:40:42.669874</dc:date>
    <dc:format>image/svg+xml</dc:format>
    <dc:creator>
     <cc:Agent>
      <dc:title>Matplotlib v3.8.4, https://matplotlib.org/</dc:title>
     </cc:Agent>
    </dc:creator>
   </cc:Work>
  </rdf:RDF>
 </metadata>
 <defs>
  <style type="text/css">*{stroke-linejoin: round; stroke-linecap: butt}</style>
 </defs>
 <g id="figure_1">
  <g id="patch_1">
   <path d="M 0 240.758125 
L 358.682187 240.758125 
L 358.682187 -0 
L 0 -0 
z
" style="fill: #ffffff"/>
  </g>
  <g id="axes_1">
   <g id="patch_2">
    <path d="M 44.582188 201.24 
L 351.482188 201.24 
L 351.482188 7.2 
L 44.582188 7.2 
z
" style="fill: #e5e5e5"/>
   </g>
   <g id="matplotlib.axis_1">
    <g id="xtick_1">
     <g id="line2d_1">
      <path d="M 54.908417 201.24 
L 54.908417 7.2 
" clip-path="url(#p129fd0c071)" style="fill: none; stroke: #ffffff; stroke-width: 0.8; stroke-linecap: square"/>
     </g>
     <g id="line2d_2">
      <defs>
       <path id="m0823f728d1" d="M 0 0 
L 0 3.5 
" style="stroke: #555555; stroke-width: 0.8"/>
      </defs>
      <g>
       <use xlink:href="#m0823f728d1" x="54.908417" y="201.24" style="fill: #555555; stroke: #555555; stroke-width: 0.8"/>
      </g>
     </g>
     <g id="text_1">
      <!-- −3.0 -->
      <g style="fill: #555555" transform="translate(42.76701 215.838437) scale(0.1 -0.1)">
       <defs>
        <path id="DejaVuSans-2212" d="M 678 2272 
L 4684 2272 
L 4684 1741 
L 678 1741 
L 678 2272 
z
" transform="scale(0.015625)"/>
        <path id="DejaVuSans-33" d="M 2597 2516 
Q 3050 2419 3304 2112 
Q 3559 1806 3559 1356 
Q 3559 666 3084 287 
Q 2609 -91 1734 -91 
Q 1441 -91 1130 -33 
Q 819 25 488 141 
L 488 750 
Q 750 597 1062 519 
Q 1375 441 1716 441 
Q 2309 441 2620 675 
Q 2931 909 2931 1356 
Q 2931 1769 2642 2001 
Q 2353 2234 1838 2234 
L 1294 2234 
L 1294 2753 
L 1863 2753 
Q 2328 2753 2575 2939 
Q 2822 3125 2822 3475 
Q 2822 3834 2567 4026 
Q 2313 4219 1838 4219 
Q 1578 4219 1281 4162 
Q 984 4106 628 3988 
L 628 4550 
Q 988 4650 1302 4700 
Q 1616 4750 1894 4750 
Q 2613 4750 3031 4423 
Q 3450 4097 3450 3541 
Q 3450 3153 3228 2886 
Q 3006 2619 2597 2516 
z
" transform="scale(0.015625)"/>
        <path id="DejaVuSans-2e" d="M 684 794 
L 1344 794 
L 1344 0 
L 684 0 
L 684 794 
z
" transform="scale(0.015625)"/>
        <path id="DejaVuSans-30" d="M 2034 4250 
Q 1547 4250 1301 3770 
Q 1056 3291 1056 2328 
Q 1056 1369 1301 889 
Q 1547 409 2034 409 
Q 2525 409 2770 889 
Q 3016 1369 3016 2328 
Q 3016 3291 2770 3770 
Q 2525 4250 2034 4250 
z
M 2034 4750 
Q 2819 4750 3233 4129 
Q 3647 3509 3647 2328 
Q 3647 1150 3233 529 
Q 2819 -91 2034 -91 
Q 1250 -91 836 529 
Q 422 1150 422 2328 
Q 422 3509 836 4129 
Q 1250 4750 2034 4750 
z
" transform="scale(0.015625)"/>
       </defs>
       <use xlink:href="#DejaVuSans-2212"/>
       <use xlink:href="#DejaVuSans-33" x="83.789062"/>
       <use xlink:href="#DejaVuSans-2e" x="147.412109"/>
       <use xlink:href="#DejaVuSans-30" x="179.199219"/>
      </g>
     </g>
    </g>
    <g id="xtick_2">
     <g id="line2d_3">
      <path d="M 95.805454 201.24 
L 95.805454 7.2 
" clip-path="url(#p129fd0c071)" style="fill: none; stroke: #ffffff; stroke-width: 0.8; stroke-linecap: square"/>
     </g>
     <g id="line2d_4">
      <g>
       <use xlink:href="#m0823f728d1" x="95.805454" y="201.24" style="fill: #555555; stroke: #555555; stroke-width: 0.8"/>
      </g>
     </g>
     <g id="text_2">
      <!-- −2.5 -->
      <g style="fill: #555555" transform="translate(83.664048 215.838437) scale(0.1 -0.1)">
       <defs>
        <path id="DejaVuSans-32" d="M 1228 531 
L 3431 531 
L 3431 0 
L 469 0 
L 469 531 
Q 828 903 1448 1529 
Q 2069 2156 2228 2338 
Q 2531 2678 2651 2914 
Q 2772 3150 2772 3378 
Q 2772 3750 2511 3984 
Q 2250 4219 1831 4219 
Q 1534 4219 1204 4116 
Q 875 4013 500 3803 
L 500 4441 
Q 881 4594 1212 4672 
Q 1544 4750 1819 4750 
Q 2544 4750 2975 4387 
Q 3406 4025 3406 3419 
Q 3406 3131 3298 2873 
Q 3191 2616 2906 2266 
Q 2828 2175 2409 1742 
Q 1991 1309 1228 531 
z
" transform="scale(0.015625)"/>
        <path id="DejaVuSans-35" d="M 691 4666 
L 3169 4666 
L 3169 4134 
L 1269 4134 
L 1269 2991 
Q 1406 3038 1543 3061 
Q 1681 3084 1819 3084 
Q 2600 3084 3056 2656 
Q 3513 2228 3513 1497 
Q 3513 744 3044 326 
Q 2575 -91 1722 -91 
Q 1428 -91 1123 -41 
Q 819 9 494 109 
L 494 744 
Q 775 591 1075 516 
Q 1375 441 1709 441 
Q 2250 441 2565 725 
Q 2881 1009 2881 1497 
Q 2881 1984 2565 2268 
Q 2250 2553 1709 2553 
Q 1456 2553 1204 2497 
Q 953 2441 691 2322 
L 691 4666 
z
" transform="scale(0.015625)"/>
       </defs>
       <use xlink:href="#DejaVuSans-2212"/>
       <use xlink:href="#DejaVuSans-32" x="83.789062"/>
       <use xlink:href="#DejaVuSans-2e" x="147.412109"/>
       <use xlink:href="#DejaVuSans-35" x="179.199219"/>
      </g>
     </g>
    </g>
    <g id="xtick_3">
     <g id="line2d_5">
      <path d="M 136.702492 201.24 
L 136.702492 7.2 
" clip-path="url(#p129fd0c071)" style="fill: none; stroke: #ffffff; stroke-width: 0.8; stroke-linecap: square"/>
     </g>
     <g id="line2d_6">
      <g>
       <use xlink:href="#m0823f728d1" x="136.702492" y="201.24" style="fill: #555555; stroke: #555555; stroke-width: 0.8"/>
      </g>
     </g>
     <g id="text_3">
      <!-- −2.0 -->
      <g style="fill: #555555" transform="translate(124.561086 215.838437) scale(0.1 -0.1)">
       <use xlink:href="#DejaVuSans-2212"/>
       <use xlink:href="#DejaVuSans-32" x="83.789062"/>
       <use xlink:href="#DejaVuSans-2e" x="147.412109"/>
       <use xlink:href="#DejaVuSans-30" x="179.199219"/>
      </g>
     </g>
    </g>
    <g id="xtick_4">
     <g id="line2d_7">
      <path d="M 177.599529 201.24 
L 177.599529 7.2 
" clip-path="url(#p129fd0c071)" style="fill: none; stroke: #ffffff; stroke-width: 0.8; stroke-linecap: square"/>
     </g>
     <g id="line2d_8">
      <g>
       <use xlink:href="#m0823f728d1" x="177.599529" y="201.24" style="fill: #555555; stroke: #555555; stroke-width: 0.8"/>
      </g>
     </g>
     <g id="text_4">
      <!-- −1.5 -->
      <g style="fill: #555555" transform="translate(165.458123 215.838437) scale(0.1 -0.1)">
       <defs>
        <path id="DejaVuSans-31" d="M 794 531 
L 1825 531 
L 1825 4091 
L 703 3866 
L 703 4441 
L 1819 4666 
L 2450 4666 
L 2450 531 
L 3481 531 
L 3481 0 
L 794 0 
L 794 531 
z
" transform="scale(0.015625)"/>
       </defs>
       <use xlink:href="#DejaVuSans-2212"/>
       <use xlink:href="#DejaVuSans-31" x="83.789062"/>
       <use xlink:href="#DejaVuSans-2e" x="147.412109"/>
       <use xlink:href="#DejaVuSans-35" x="179.199219"/>
      </g>
     </g>
    </g>
    <g id="xtick_5">
     <g id="line2d_9">
      <path d="M 218.496567 201.24 
L 218.496567 7.2 
" clip-path="url(#p129fd0c071)" style="fill: none; stroke: #ffffff; stroke-width: 0.8; stroke-linecap: square"/>
     </g>
     <g id="line2d_10">
      <g>
       <use xlink:href="#m0823f728d1" x="218.496567" y="201.24" style="fill: #555555; stroke: #555555; stroke-width: 0.8"/>
      </g>
     </g>
     <g id="text_5">
      <!-- −1.0 -->
      <g style="fill: #555555" transform="translate(206.355161 215.838437) scale(0.1 -0.1)">
       <use xlink:href="#DejaVuSans-2212"/>
       <use xlink:href="#DejaVuSans-31" x="83.789062"/>
       <use xlink:href="#DejaVuSans-2e" x="147.412109"/>
       <use xlink:href="#DejaVuSans-30" x="179.199219"/>
      </g>
     </g>
    </g>
    <g id="xtick_6">
     <g id="line2d_11">
      <path d="M 259.393605 201.24 
L 259.393605 7.2 
" clip-path="url(#p129fd0c071)" style="fill: none; stroke: #ffffff; stroke-width: 0.8; stroke-linecap: square"/>
     </g>
     <g id="line2d_12">
      <g>
       <use xlink:href="#m0823f728d1" x="259.393605" y="201.24" style="fill: #555555; stroke: #555555; stroke-width: 0.8"/>
      </g>
     </g>
     <g id="text_6">
      <!-- −0.5 -->
      <g style="fill: #555555" transform="translate(247.252198 215.838437) scale(0.1 -0.1)">
       <use xlink:href="#DejaVuSans-2212"/>
       <use xlink:href="#DejaVuSans-30" x="83.789062"/>
       <use xlink:href="#DejaVuSans-2e" x="147.412109"/>
       <use xlink:href="#DejaVuSans-35" x="179.199219"/>
      </g>
     </g>
    </g>
    <g id="xtick_7">
     <g id="line2d_13">
      <path d="M 300.290642 201.24 
L 300.290642 7.2 
" clip-path="url(#p129fd0c071)" style="fill: none; stroke: #ffffff; stroke-width: 0.8; stroke-linecap: square"/>
     </g>
     <g id="line2d_14">
      <g>
       <use xlink:href="#m0823f728d1" x="300.290642" y="201.24" style="fill: #555555; stroke: #555555; stroke-width: 0.8"/>
      </g>
     </g>
     <g id="text_7">
      <!-- 0.0 -->
      <g style="fill: #555555" transform="translate(292.33908 215.838437) scale(0.1 -0.1)">
       <use xlink:href="#DejaVuSans-30"/>
       <use xlink:href="#DejaVuSans-2e" x="63.623047"/>
       <use xlink:href="#DejaVuSans-30" x="95.410156"/>
      </g>
     </g>
    </g>
    <g id="xtick_8">
     <g id="line2d_15">
      <path d="M 341.18768 201.24 
L 341.18768 7.2 
" clip-path="url(#p129fd0c071)" style="fill: none; stroke: #ffffff; stroke-width: 0.8; stroke-linecap: square"/>
     </g>
     <g id="line2d_16">
      <g>
       <use xlink:href="#m0823f728d1" x="341.18768" y="201.24" style="fill: #555555; stroke: #555555; stroke-width: 0.8"/>
      </g>
     </g>
     <g id="text_8">
      <!-- 0.5 -->
      <g style="fill: #555555" transform="translate(333.236117 215.838437) scale(0.1 -0.1)">
       <use xlink:href="#DejaVuSans-30"/>
       <use xlink:href="#DejaVuSans-2e" x="63.623047"/>
       <use xlink:href="#DejaVuSans-35" x="95.410156"/>
      </g>
     </g>
    </g>
    <g id="text_9">
     <!-- $log(SFR_{LVG})$ [log(Msol/yr)] -->
     <g style="fill: #555555" transform="translate(122.012188 231.038125) scale(0.12 -0.12)">
      <defs>
       <path id="DejaVuSans-Oblique-6c" d="M 1172 4863 
L 1747 4863 
L 800 0 
L 225 0 
L 1172 4863 
z
" transform="scale(0.015625)"/>
       <path id="DejaVuSans-Oblique-6f" d="M 1625 -91 
Q 1009 -91 651 289 
Q 294 669 294 1325 
Q 294 1706 417 2101 
Q 541 2497 738 2766 
Q 1047 3184 1428 3384 
Q 1809 3584 2291 3584 
Q 2888 3584 3255 3212 
Q 3622 2841 3622 2241 
Q 3622 1825 3500 1412 
Q 3378 1000 3181 728 
Q 2875 309 2494 109 
Q 2113 -91 1625 -91 
z
M 891 1344 
Q 891 869 1089 633 
Q 1288 397 1691 397 
Q 2269 397 2648 901 
Q 3028 1406 3028 2181 
Q 3028 2634 2825 2865 
Q 2622 3097 2228 3097 
Q 1903 3097 1650 2945 
Q 1397 2794 1197 2484 
Q 1050 2253 970 1956 
Q 891 1659 891 1344 
z
" transform="scale(0.015625)"/>
       <path id="DejaVuSans-Oblique-67" d="M 3816 3500 
L 3219 434 
Q 3047 -456 2561 -893 
Q 2075 -1331 1253 -1331 
Q 950 -1331 690 -1286 
Q 431 -1241 206 -1147 
L 313 -588 
Q 525 -725 762 -790 
Q 1000 -856 1269 -856 
Q 1816 -856 2167 -557 
Q 2519 -259 2631 300 
L 2681 563 
Q 2441 288 2122 144 
Q 1803 0 1434 0 
Q 903 0 598 351 
Q 294 703 294 1319 
Q 294 1803 478 2267 
Q 663 2731 997 3091 
Q 1219 3328 1514 3456 
Q 1809 3584 2131 3584 
Q 2484 3584 2746 3420 
Q 3009 3256 3138 2956 
L 3238 3500 
L 3816 3500 
z
M 2950 2216 
Q 2950 2641 2750 2872 
Q 2550 3103 2181 3103 
Q 1953 3103 1747 3012 
Q 1541 2922 1394 2759 
Q 1156 2491 1023 2127 
Q 891 1763 891 1375 
Q 891 944 1092 712 
Q 1294 481 1672 481 
Q 2219 481 2584 976 
Q 2950 1472 2950 2216 
z
" transform="scale(0.015625)"/>
       <path id="DejaVuSans-28" d="M 1984 4856 
Q 1566 4138 1362 3434 
Q 1159 2731 1159 2009 
Q 1159 1288 1364 580 
Q 1569 -128 1984 -844 
L 1484 -844 
Q 1016 -109 783 600 
Q 550 1309 550 2009 
Q 550 2706 781 3412 
Q 1013 4119 1484 4856 
L 1984 4856 
z
" transform="scale(0.015625)"/>
       <path id="DejaVuSans-Oblique-53" d="M 3859 4513 
L 3738 3897 
Q 3422 4066 3111 4152 
Q 2800 4238 2509 4238 
Q 1944 4238 1609 3991 
Q 1275 3744 1275 3334 
Q 1275 3109 1398 2989 
Q 1522 2869 2034 2731 
L 2413 2638 
Q 3053 2472 3303 2217 
Q 3553 1963 3553 1503 
Q 3553 797 2998 353 
Q 2444 -91 1538 -91 
Q 1166 -91 791 -17 
Q 416 56 38 206 
L 166 856 
Q 513 641 861 531 
Q 1209 422 1556 422 
Q 2147 422 2503 684 
Q 2859 947 2859 1369 
Q 2859 1650 2717 1795 
Q 2575 1941 2106 2059 
L 1728 2156 
Q 1081 2325 845 2545 
Q 609 2766 609 3163 
Q 609 3859 1145 4304 
Q 1681 4750 2541 4750 
Q 2875 4750 3203 4690 
Q 3531 4631 3859 4513 
z
" transform="scale(0.015625)"/>
       <path id="DejaVuSans-Oblique-46" d="M 1081 4666 
L 3756 4666 
L 3653 4134 
L 1606 4134 
L 1338 2759 
L 3188 2759 
L 3084 2228 
L 1234 2228 
L 800 0 
L 172 0 
L 1081 4666 
z
" transform="scale(0.015625)"/>
       <path id="DejaVuSans-Oblique-52" d="M 1613 4147 
L 1294 2491 
L 2106 2491 
Q 2584 2491 2879 2755 
Q 3175 3019 3175 3444 
Q 3175 3784 2976 3965 
Q 2778 4147 2406 4147 
L 1613 4147 
z
M 2772 2241 
Q 2972 2194 3105 2009 
Q 3238 1825 3413 1275 
L 3809 0 
L 3144 0 
L 2778 1197 
Q 2638 1659 2453 1815 
Q 2269 1972 1888 1972 
L 1191 1972 
L 806 0 
L 172 0 
L 1081 4666 
L 2503 4666 
Q 3150 4666 3495 4373 
Q 3841 4081 3841 3531 
Q 3841 3044 3547 2687 
Q 3253 2331 2772 2241 
z
" transform="scale(0.015625)"/>
       <path id="DejaVuSans-Oblique-4c" d="M 1075 4666 
L 1709 4666 
L 909 525 
L 3181 525 
L 3078 0 
L 172 0 
L 1075 4666 
z
" transform="scale(0.015625)"/>
       <path id="DejaVuSans-Oblique-56" d="M 1319 0 
L 500 4666 
L 1119 4666 
L 1797 653 
L 4063 4666 
L 4750 4666 
L 2053 0 
L 1319 0 
z
" transform="scale(0.015625)"/>
       <path id="DejaVuSans-Oblique-47" d="M 3494 697 
L 3738 1919 
L 2700 1919 
L 2797 2438 
L 4453 2438 
L 4050 384 
Q 3634 156 3143 32 
Q 2653 -91 2156 -91 
Q 1278 -91 783 396 
Q 288 884 288 1753 
Q 288 2475 589 3126 
Q 891 3778 1422 4213 
Q 1756 4484 2153 4617 
Q 2550 4750 3034 4750 
Q 3472 4750 3873 4639 
Q 4275 4528 4641 4306 
L 4513 3634 
Q 4231 3928 3853 4083 
Q 3475 4238 3047 4238 
Q 2550 4238 2172 4048 
Q 1794 3859 1497 3463 
Q 1244 3125 1098 2667 
Q 953 2209 953 1734 
Q 953 1081 1287 751 
Q 1622 422 2284 422 
Q 2616 422 2925 492 
Q 3234 563 3494 697 
z
" transform="scale(0.015625)"/>
       <path id="DejaVuSans-29" d="M 513 4856 
L 1013 4856 
Q 1481 4119 1714 3412 
Q 1947 2706 1947 2009 
Q 1947 1309 1714 600 
Q 1481 -109 1013 -844 
L 513 -844 
Q 928 -128 1133 580 
Q 1338 1288 1338 2009 
Q 1338 2731 1133 3434 
Q 928 4138 513 4856 
z
" transform="scale(0.015625)"/>
       <path id="DejaVuSans-20" transform="scale(0.015625)"/>
       <path id="DejaVuSans-5b" d="M 550 4863 
L 1875 4863 
L 1875 4416 
L 1125 4416 
L 1125 -397 
L 1875 -397 
L 1875 -844 
L 550 -844 
L 550 4863 
z
" transform="scale(0.015625)"/>
       <path id="DejaVuSans-6c" d="M 603 4863 
L 1178 4863 
L 1178 0 
L 603 0 
L 603 4863 
z
" transform="scale(0.015625)"/>
       <path id="DejaVuSans-6f" d="M 1959 3097 
Q 1497 3097 1228 2736 
Q 959 2375 959 1747 
Q 959 1119 1226 758 
Q 1494 397 1959 397 
Q 2419 397 2687 759 
Q 2956 1122 2956 1747 
Q 2956 2369 2687 2733 
Q 2419 3097 1959 3097 
z
M 1959 3584 
Q 2709 3584 3137 3096 
Q 3566 2609 3566 1747 
Q 3566 888 3137 398 
Q 2709 -91 1959 -91 
Q 1206 -91 779 398 
Q 353 888 353 1747 
Q 353 2609 779 3096 
Q 1206 3584 1959 3584 
z
" transform="scale(0.015625)"/>
       <path id="DejaVuSans-67" d="M 2906 1791 
Q 2906 2416 2648 2759 
Q 2391 3103 1925 3103 
Q 1463 3103 1205 2759 
Q 947 2416 947 1791 
Q 947 1169 1205 825 
Q 1463 481 1925 481 
Q 2391 481 2648 825 
Q 2906 1169 2906 1791 
z
M 3481 434 
Q 3481 -459 3084 -895 
Q 2688 -1331 1869 -1331 
Q 1566 -1331 1297 -1286 
Q 1028 -1241 775 -1147 
L 775 -588 
Q 1028 -725 1275 -790 
Q 1522 -856 1778 -856 
Q 2344 -856 2625 -561 
Q 2906 -266 2906 331 
L 2906 616 
Q 2728 306 2450 153 
Q 2172 0 1784 0 
Q 1141 0 747 490 
Q 353 981 353 1791 
Q 353 2603 747 3093 
Q 1141 3584 1784 3584 
Q 2172 3584 2450 3431 
Q 2728 3278 2906 2969 
L 2906 3500 
L 3481 3500 
L 3481 434 
z
" transform="scale(0.015625)"/>
       <path id="DejaVuSans-4d" d="M 628 4666 
L 1569 4666 
L 2759 1491 
L 3956 4666 
L 4897 4666 
L 4897 0 
L 4281 0 
L 4281 4097 
L 3078 897 
L 2444 897 
L 1241 4097 
L 1241 0 
L 628 0 
L 628 4666 
z
" transform="scale(0.015625)"/>
       <path id="DejaVuSans-73" d="M 2834 3397 
L 2834 2853 
Q 2591 2978 2328 3040 
Q 2066 3103 1784 3103 
Q 1356 3103 1142 2972 
Q 928 2841 928 2578 
Q 928 2378 1081 2264 
Q 1234 2150 1697 2047 
L 1894 2003 
Q 2506 1872 2764 1633 
Q 3022 1394 3022 966 
Q 3022 478 2636 193 
Q 2250 -91 1575 -91 
Q 1294 -91 989 -36 
Q 684 19 347 128 
L 347 722 
Q 666 556 975 473 
Q 1284 391 1588 391 
Q 1994 391 2212 530 
Q 2431 669 2431 922 
Q 2431 1156 2273 1281 
Q 2116 1406 1581 1522 
L 1381 1569 
Q 847 1681 609 1914 
Q 372 2147 372 2553 
Q 372 3047 722 3315 
Q 1072 3584 1716 3584 
Q 2034 3584 2315 3537 
Q 2597 3491 2834 3397 
z
" transform="scale(0.015625)"/>
       <path id="DejaVuSans-2f" d="M 1625 4666 
L 2156 4666 
L 531 -594 
L 0 -594 
L 1625 4666 
z
" transform="scale(0.015625)"/>
       <path id="DejaVuSans-79" d="M 2059 -325 
Q 1816 -950 1584 -1140 
Q 1353 -1331 966 -1331 
L 506 -1331 
L 506 -850 
L 844 -850 
Q 1081 -850 1212 -737 
Q 1344 -625 1503 -206 
L 1606 56 
L 191 3500 
L 800 3500 
L 1894 763 
L 2988 3500 
L 3597 3500 
L 2059 -325 
z
" transform="scale(0.015625)"/>
       <path id="DejaVuSans-72" d="M 2631 2963 
Q 2534 3019 2420 3045 
Q 2306 3072 2169 3072 
Q 1681 3072 1420 2755 
Q 1159 2438 1159 1844 
L 1159 0 
L 581 0 
L 581 3500 
L 1159 3500 
L 1159 2956 
Q 1341 3275 1631 3429 
Q 1922 3584 2338 3584 
Q 2397 3584 2469 3576 
Q 2541 3569 2628 3553 
L 2631 2963 
z
" transform="scale(0.015625)"/>
       <path id="DejaVuSans-5d" d="M 1947 4863 
L 1947 -844 
L 622 -844 
L 622 -397 
L 1369 -397 
L 1369 4416 
L 622 4416 
L 622 4863 
L 1947 4863 
z
" transform="scale(0.015625)"/>
      </defs>
      <use xlink:href="#DejaVuSans-Oblique-6c" transform="translate(0 0.015625)"/>
      <use xlink:href="#DejaVuSans-Oblique-6f" transform="translate(27.783203 0.015625)"/>
      <use xlink:href="#DejaVuSans-Oblique-67" transform="translate(88.964844 0.015625)"/>
      <use xlink:href="#DejaVuSans-28" transform="translate(152.441406 0.015625)"/>
      <use xlink:href="#DejaVuSans-Oblique-53" transform="translate(191.455078 0.015625)"/>
      <use xlink:href="#DejaVuSans-Oblique-46" transform="translate(254.931641 0.015625)"/>
      <use xlink:href="#DejaVuSans-Oblique-52" transform="translate(312.451172 0.015625)"/>
      <use xlink:href="#DejaVuSans-Oblique-4c" transform="translate(381.933594 -16.390625) scale(0.7)"/>
      <use xlink:href="#DejaVuSans-Oblique-56" transform="translate(420.932617 -16.390625) scale(0.7)"/>
      <use xlink:href="#DejaVuSans-Oblique-47" transform="translate(468.818359 -16.390625) scale(0.7)"/>
      <use xlink:href="#DejaVuSans-29" transform="translate(525.795898 0.015625)"/>
      <use xlink:href="#DejaVuSans-20" transform="translate(564.80957 0.015625)"/>
      <use xlink:href="#DejaVuSans-5b" transform="translate(596.59668 0.015625)"/>
      <use xlink:href="#DejaVuSans-6c" transform="translate(635.610352 0.015625)"/>
      <use xlink:href="#DejaVuSans-6f" transform="translate(663.393555 0.015625)"/>
      <use xlink:href="#DejaVuSans-67" transform="translate(724.575195 0.015625)"/>
      <use xlink:href="#DejaVuSans-28" transform="translate(788.051758 0.015625)"/>
      <use xlink:href="#DejaVuSans-4d" transform="translate(827.06543 0.015625)"/>
      <use xlink:href="#DejaVuSans-73" transform="translate(913.344727 0.015625)"/>
      <use xlink:href="#DejaVuSans-6f" transform="translate(965.444336 0.015625)"/>
      <use xlink:href="#DejaVuSans-6c" transform="translate(1026.625977 0.015625)"/>
      <use xlink:href="#DejaVuSans-2f" transform="translate(1054.40918 0.015625)"/>
      <use xlink:href="#DejaVuSans-79" transform="translate(1088.100586 0.015625)"/>
      <use xlink:href="#DejaVuSans-72" transform="translate(1147.280273 0.015625)"/>
      <use xlink:href="#DejaVuSans-29" transform="translate(1188.393555 0.015625)"/>
      <use xlink:href="#DejaVuSans-5d" transform="translate(1227.407227 0.015625)"/>
     </g>
    </g>
   </g>
   <g id="matplotlib.axis_2">
    <g id="ytick_1">
     <g id="line2d_17">
      <path d="M 44.582188 163.677103 
L 351.482188 163.677103 
" clip-path="url(#p129fd0c071)" style="fill: none; stroke: #ffffff; stroke-width: 0.8; stroke-linecap: square"/>
     </g>
     <g id="line2d_18">
      <defs>
       <path id="m454db0a1ab" d="M 0 0 
L -3.5 0 
" style="stroke: #555555; stroke-width: 0.8"/>
      </defs>
      <g>
       <use xlink:href="#m454db0a1ab" x="44.582188" y="163.677103" style="fill: #555555; stroke: #555555; stroke-width: 0.8"/>
      </g>
     </g>
     <g id="text_10">
      <!-- −3 -->
      <g style="fill: #555555" transform="translate(22.84 167.476321) scale(0.1 -0.1)">
       <use xlink:href="#DejaVuSans-2212"/>
       <use xlink:href="#DejaVuSans-33" x="83.789062"/>
      </g>
     </g>
    </g>
    <g id="ytick_2">
     <g id="line2d_19">
      <path d="M 44.582188 121.283447 
L 351.482188 121.283447 
" clip-path="url(#p129fd0c071)" style="fill: none; stroke: #ffffff; stroke-width: 0.8; stroke-linecap: square"/>
     </g>
     <g id="line2d_20">
      <g>
       <use xlink:href="#m454db0a1ab" x="44.582188" y="121.283447" style="fill: #555555; stroke: #555555; stroke-width: 0.8"/>
      </g>
     </g>
     <g id="text_11">
      <!-- −2 -->
      <g style="fill: #555555" transform="translate(22.84 125.082666) scale(0.1 -0.1)">
       <use xlink:href="#DejaVuSans-2212"/>
       <use xlink:href="#DejaVuSans-32" x="83.789062"/>
      </g>
     </g>
    </g>
    <g id="ytick_3">
     <g id="line2d_21">
      <path d="M 44.582188 78.889792 
L 351.482188 78.889792 
" clip-path="url(#p129fd0c071)" style="fill: none; stroke: #ffffff; stroke-width: 0.8; stroke-linecap: square"/>
     </g>
     <g id="line2d_22">
      <g>
       <use xlink:href="#m454db0a1ab" x="44.582188" y="78.889792" style="fill: #555555; stroke: #555555; stroke-width: 0.8"/>
      </g>
     </g>
     <g id="text_12">
      <!-- −1 -->
      <g style="fill: #555555" transform="translate(22.84 82.68901) scale(0.1 -0.1)">
       <use xlink:href="#DejaVuSans-2212"/>
       <use xlink:href="#DejaVuSans-31" x="83.789062"/>
      </g>
     </g>
    </g>
    <g id="ytick_4">
     <g id="line2d_23">
      <path d="M 44.582188 36.496136 
L 351.482188 36.496136 
" clip-path="url(#p129fd0c071)" style="fill: none; stroke: #ffffff; stroke-width: 0.8; stroke-linecap: square"/>
     </g>
     <g id="line2d_24">
      <g>
       <use xlink:href="#m454db0a1ab" x="44.582188" y="36.496136" style="fill: #555555; stroke: #555555; stroke-width: 0.8"/>
      </g>
     </g>
     <g id="text_13">
      <!-- 0 -->
      <g style="fill: #555555" transform="translate(31.219688 40.295355) scale(0.1 -0.1)">
       <use xlink:href="#DejaVuSans-30"/>
      </g>
     </g>
    </g>
    <g id="text_14">
     <!-- $log(SFR_{HECATE})$ [log(Msol/yr)] -->
     <g style="fill: #555555" transform="translate(16.32 188.58) rotate(-90) scale(0.12 -0.12)">
      <defs>
       <path id="DejaVuSans-Oblique-48" d="M 1081 4666 
L 1716 4666 
L 1344 2753 
L 3634 2753 
L 4006 4666 
L 4641 4666 
L 3731 0 
L 3097 0 
L 3531 2222 
L 1241 2222 
L 806 0 
L 172 0 
L 1081 4666 
z
" transform="scale(0.015625)"/>
       <path id="DejaVuSans-Oblique-45" d="M 1081 4666 
L 4031 4666 
L 3928 4134 
L 1606 4134 
L 1338 2753 
L 3566 2753 
L 3463 2222 
L 1234 2222 
L 909 531 
L 3284 531 
L 3181 0 
L 172 0 
L 1081 4666 
z
" transform="scale(0.015625)"/>
       <path id="DejaVuSans-Oblique-43" d="M 4447 4306 
L 4319 3641 
Q 4019 3944 3683 4091 
Q 3347 4238 2956 4238 
Q 2422 4238 2017 3981 
Q 1613 3725 1319 3200 
Q 1131 2863 1032 2486 
Q 934 2109 934 1728 
Q 934 1091 1264 756 
Q 1594 422 2222 422 
Q 2656 422 3056 561 
Q 3456 700 3834 978 
L 3688 231 
Q 3316 72 2936 -9 
Q 2556 -91 2175 -91 
Q 1278 -91 773 396 
Q 269 884 269 1753 
Q 269 2309 461 2846 
Q 653 3384 1013 3828 
Q 1394 4300 1883 4525 
Q 2372 4750 3022 4750 
Q 3422 4750 3780 4639 
Q 4138 4528 4447 4306 
z
" transform="scale(0.015625)"/>
       <path id="DejaVuSans-Oblique-41" d="M 2356 4666 
L 3072 4666 
L 3938 0 
L 3278 0 
L 3084 1197 
L 984 1197 
L 325 0 
L -341 0 
L 2356 4666 
z
M 2584 4044 
L 1275 1722 
L 2988 1722 
L 2584 4044 
z
" transform="scale(0.015625)"/>
       <path id="DejaVuSans-Oblique-54" d="M 378 4666 
L 4325 4666 
L 4225 4134 
L 2559 4134 
L 1759 0 
L 1125 0 
L 1925 4134 
L 275 4134 
L 378 4666 
z
" transform="scale(0.015625)"/>
      </defs>
      <use xlink:href="#DejaVuSans-Oblique-6c" transform="translate(0 0.015625)"/>
      <use xlink:href="#DejaVuSans-Oblique-6f" transform="translate(27.783203 0.015625)"/>
      <use xlink:href="#DejaVuSans-Oblique-67" transform="translate(88.964844 0.015625)"/>
      <use xlink:href="#DejaVuSans-28" transform="translate(152.441406 0.015625)"/>
      <use xlink:href="#DejaVuSans-Oblique-53" transform="translate(191.455078 0.015625)"/>
      <use xlink:href="#DejaVuSans-Oblique-46" transform="translate(254.931641 0.015625)"/>
      <use xlink:href="#DejaVuSans-Oblique-52" transform="translate(312.451172 0.015625)"/>
      <use xlink:href="#DejaVuSans-Oblique-48" transform="translate(381.933594 -16.390625) scale(0.7)"/>
      <use xlink:href="#DejaVuSans-Oblique-45" transform="translate(434.570312 -16.390625) scale(0.7)"/>
      <use xlink:href="#DejaVuSans-Oblique-43" transform="translate(478.798828 -16.390625) scale(0.7)"/>
      <use xlink:href="#DejaVuSans-Oblique-41" transform="translate(527.675781 -16.390625) scale(0.7)"/>
      <use xlink:href="#DejaVuSans-Oblique-54" transform="translate(575.561523 -16.390625) scale(0.7)"/>
      <use xlink:href="#DejaVuSans-Oblique-45" transform="translate(618.320312 -16.390625) scale(0.7)"/>
      <use xlink:href="#DejaVuSans-29" transform="translate(665.283203 0.015625)"/>
      <use xlink:href="#DejaVuSans-20" transform="translate(704.296875 0.015625)"/>
      <use xlink:href="#DejaVuSans-5b" transform="translate(736.083984 0.015625)"/>
      <use xlink:href="#DejaVuSans-6c" transform="translate(775.097656 0.015625)"/>
      <use xlink:href="#DejaVuSans-6f" transform="translate(802.880859 0.015625)"/>
      <use xlink:href="#DejaVuSans-67" transform="translate(864.0625 0.015625)"/>
      <use xlink:href="#DejaVuSans-28" transform="translate(927.539062 0.015625)"/>
      <use xlink:href="#DejaVuSans-4d" transform="translate(966.552734 0.015625)"/>
      <use xlink:href="#DejaVuSans-73" transform="translate(1052.832031 0.015625)"/>
      <use xlink:href="#DejaVuSans-6f" transform="translate(1104.931641 0.015625)"/>
      <use xlink:href="#DejaVuSans-6c" transform="translate(1166.113281 0.015625)"/>
      <use xlink:href="#DejaVuSans-2f" transform="translate(1193.896484 0.015625)"/>
      <use xlink:href="#DejaVuSans-79" transform="translate(1227.587891 0.015625)"/>
      <use xlink:href="#DejaVuSans-72" transform="translate(1286.767578 0.015625)"/>
      <use xlink:href="#DejaVuSans-29" transform="translate(1327.880859 0.015625)"/>
      <use xlink:href="#DejaVuSans-5d" transform="translate(1366.894531 0.015625)"/>
     </g>
    </g>
   </g>
   <g id="PathCollection_1">
    <defs>
     <path id="mad9acc027d" d="M 0 3 
C 0.795609 3 1.55874 2.683901 2.12132 2.12132 
C 2.683901 1.55874 3 0.795609 3 0 
C 3 -0.795609 2.683901 -1.55874 2.12132 -2.12132 
C 1.55874 -2.683901 0.795609 -3 0 -3 
C -0.795609 -3 -1.55874 -2.683901 -2.12132 -2.12132 
C -2.683901 -1.55874 -3 -0.795609 -3 0 
C -3 0.795609 -2.683901 1.55874 -2.12132 2.12132 
C -1.55874 2.683901 -0.795609 3 0 3 
z
" style="stroke: #ffffff; stroke-opacity: 0.5"/>
    </defs>
    <g clip-path="url(#p129fd0c071)">
     <use xlink:href="#mad9acc027d" x="87.626047" y="141.844366" style="fill: #0000ff; fill-opacity: 0.5; stroke: #ffffff; stroke-opacity: 0.5"/>
     <use xlink:href="#mad9acc027d" x="182.202934" y="107.675085" style="fill: #0000ff; fill-opacity: 0.5; stroke: #ffffff; stroke-opacity: 0.5"/>
     <use xlink:href="#mad9acc027d" x="202.077181" y="130.822016" style="fill: #0000ff; fill-opacity: 0.5; stroke: #ffffff; stroke-opacity: 0.5"/>
     <use xlink:href="#mad9acc027d" x="102.044741" y="192.42" style="fill: #0000ff; fill-opacity: 0.5; stroke: #ffffff; stroke-opacity: 0.5"/>
     <use xlink:href="#mad9acc027d" x="206.231641" y="122.258501" style="fill: #0000ff; fill-opacity: 0.5; stroke: #ffffff; stroke-opacity: 0.5"/>
     <use xlink:href="#mad9acc027d" x="165.854621" y="122.216111" style="fill: #0000ff; fill-opacity: 0.5; stroke: #ffffff; stroke-opacity: 0.5"/>
     <use xlink:href="#mad9acc027d" x="171.280604" y="115.729876" style="fill: #0000ff; fill-opacity: 0.5; stroke: #ffffff; stroke-opacity: 0.5"/>
     <use xlink:href="#mad9acc027d" x="152.252782" y="115.30594" style="fill: #0000ff; fill-opacity: 0.5; stroke: #ffffff; stroke-opacity: 0.5"/>
     <use xlink:href="#mad9acc027d" x="229.129797" y="111.363333" style="fill: #0000ff; fill-opacity: 0.5; stroke: #ffffff; stroke-opacity: 0.5"/>
     <use xlink:href="#mad9acc027d" x="186.292638" y="110.218701" style="fill: #0000ff; fill-opacity: 0.5; stroke: #ffffff; stroke-opacity: 0.5"/>
     <use xlink:href="#mad9acc027d" x="215.224804" y="100.510556" style="fill: #0000ff; fill-opacity: 0.5; stroke: #ffffff; stroke-opacity: 0.5"/>
     <use xlink:href="#mad9acc027d" x="229.541121" y="98.263693" style="fill: #0000ff; fill-opacity: 0.5; stroke: #ffffff; stroke-opacity: 0.5"/>
     <use xlink:href="#mad9acc027d" x="198.035465" y="95.380926" style="fill: #0000ff; fill-opacity: 0.5; stroke: #ffffff; stroke-opacity: 0.5"/>
     <use xlink:href="#mad9acc027d" x="274.103955" y="96.652735" style="fill: #0000ff; fill-opacity: 0.5; stroke: #ffffff; stroke-opacity: 0.5"/>
     <use xlink:href="#mad9acc027d" x="106.083113" y="140.402985" style="fill: #0000ff; fill-opacity: 0.5; stroke: #ffffff; stroke-opacity: 0.5"/>
     <use xlink:href="#mad9acc027d" x="257.757723" y="87.495702" style="fill: #0000ff; fill-opacity: 0.5; stroke: #ffffff; stroke-opacity: 0.5"/>
     <use xlink:href="#mad9acc027d" x="138.862576" y="152.866716" style="fill: #0000ff; fill-opacity: 0.5; stroke: #ffffff; stroke-opacity: 0.5"/>
     <use xlink:href="#mad9acc027d" x="59.115703" y="134.807023" style="fill: #0000ff; fill-opacity: 0.5; stroke: #ffffff; stroke-opacity: 0.5"/>
     <use xlink:href="#mad9acc027d" x="275.987324" y="63.585682" style="fill: #0000ff; fill-opacity: 0.5; stroke: #ffffff; stroke-opacity: 0.5"/>
     <use xlink:href="#mad9acc027d" x="238.26508" y="89.488205" style="fill: #0000ff; fill-opacity: 0.5; stroke: #ffffff; stroke-opacity: 0.5"/>
     <use xlink:href="#mad9acc027d" x="259.992927" y="117.764776" style="fill: #0000ff; fill-opacity: 0.5; stroke: #ffffff; stroke-opacity: 0.5"/>
     <use xlink:href="#mad9acc027d" x="294.511364" y="67.570685" style="fill: #0000ff; fill-opacity: 0.5; stroke: #ffffff; stroke-opacity: 0.5"/>
     <use xlink:href="#mad9acc027d" x="159.042999" y="121.113875" style="fill: #0000ff; fill-opacity: 0.5; stroke: #ffffff; stroke-opacity: 0.5"/>
     <use xlink:href="#mad9acc027d" x="195.037277" y="88.004429" style="fill: #0000ff; fill-opacity: 0.5; stroke: #ffffff; stroke-opacity: 0.5"/>
     <use xlink:href="#mad9acc027d" x="252.546851" y="80.797504" style="fill: #0000ff; fill-opacity: 0.5; stroke: #ffffff; stroke-opacity: 0.5"/>
     <use xlink:href="#mad9acc027d" x="279.490411" y="65.747758" style="fill: #0000ff; fill-opacity: 0.5; stroke: #ffffff; stroke-opacity: 0.5"/>
     <use xlink:href="#mad9acc027d" x="209.941305" y="116.196208" style="fill: #0000ff; fill-opacity: 0.5; stroke: #ffffff; stroke-opacity: 0.5"/>
     <use xlink:href="#mad9acc027d" x="197.641432" y="99.747469" style="fill: #0000ff; fill-opacity: 0.5; stroke: #ffffff; stroke-opacity: 0.5"/>
     <use xlink:href="#mad9acc027d" x="232.40156" y="82.705222" style="fill: #0000ff; fill-opacity: 0.5; stroke: #ffffff; stroke-opacity: 0.5"/>
     <use xlink:href="#mad9acc027d" x="114.605508" y="105.852158" style="fill: #0000ff; fill-opacity: 0.5; stroke: #ffffff; stroke-opacity: 0.5"/>
     <use xlink:href="#mad9acc027d" x="283.58168" y="77.575588" style="fill: #0000ff; fill-opacity: 0.5; stroke: #ffffff; stroke-opacity: 0.5"/>
     <use xlink:href="#mad9acc027d" x="176.58293" y="116.492963" style="fill: #0000ff; fill-opacity: 0.5; stroke: #ffffff; stroke-opacity: 0.5"/>
     <use xlink:href="#mad9acc027d" x="279.960241" y="33.06225" style="fill: #0000ff; fill-opacity: 0.5; stroke: #ffffff; stroke-opacity: 0.5"/>
     <use xlink:href="#mad9acc027d" x="264.240679" y="39.294117" style="fill: #0000ff; fill-opacity: 0.5; stroke: #ffffff; stroke-opacity: 0.5"/>
     <use xlink:href="#mad9acc027d" x="303.203908" y="22.887772" style="fill: #0000ff; fill-opacity: 0.5; stroke: #ffffff; stroke-opacity: 0.5"/>
     <use xlink:href="#mad9acc027d" x="294.565057" y="16.104787" style="fill: #0000ff; fill-opacity: 0.5; stroke: #ffffff; stroke-opacity: 0.5"/>
     <use xlink:href="#mad9acc027d" x="214.716388" y="81.730168" style="fill: #0000ff; fill-opacity: 0.5; stroke: #ffffff; stroke-opacity: 0.5"/>
     <use xlink:href="#mad9acc027d" x="111.461871" y="150.450281" style="fill: #0000ff; fill-opacity: 0.5; stroke: #ffffff; stroke-opacity: 0.5"/>
     <use xlink:href="#mad9acc027d" x="212.037726" y="98.433265" style="fill: #0000ff; fill-opacity: 0.5; stroke: #ffffff; stroke-opacity: 0.5"/>
     <use xlink:href="#mad9acc027d" x="315.947059" y="21.912718" style="fill: #0000ff; fill-opacity: 0.5; stroke: #ffffff; stroke-opacity: 0.5"/>
     <use xlink:href="#mad9acc027d" x="274.494771" y="51.50349" style="fill: #0000ff; fill-opacity: 0.5; stroke: #ffffff; stroke-opacity: 0.5"/>
     <use xlink:href="#mad9acc027d" x="313.845488" y="48.917478" style="fill: #0000ff; fill-opacity: 0.5; stroke: #ffffff; stroke-opacity: 0.5"/>
     <use xlink:href="#mad9acc027d" x="241.048761" y="91.5231" style="fill: #0000ff; fill-opacity: 0.5; stroke: #ffffff; stroke-opacity: 0.5"/>
     <use xlink:href="#mad9acc027d" x="119.949043" y="121.156265" style="fill: #0000ff; fill-opacity: 0.5; stroke: #ffffff; stroke-opacity: 0.5"/>
     <use xlink:href="#mad9acc027d" x="254.523614" y="77.194044" style="fill: #0000ff; fill-opacity: 0.5; stroke: #ffffff; stroke-opacity: 0.5"/>
     <use xlink:href="#mad9acc027d" x="171.88336" y="83.383517" style="fill: #0000ff; fill-opacity: 0.5; stroke: #ffffff; stroke-opacity: 0.5"/>
     <use xlink:href="#mad9acc027d" x="313.612598" y="16.02" style="fill: #0000ff; fill-opacity: 0.5; stroke: #ffffff; stroke-opacity: 0.5"/>
     <use xlink:href="#mad9acc027d" x="184.130472" y="114.458068" style="fill: #0000ff; fill-opacity: 0.5; stroke: #ffffff; stroke-opacity: 0.5"/>
     <use xlink:href="#mad9acc027d" x="138.768527" y="143.116184" style="fill: #0000ff; fill-opacity: 0.5; stroke: #ffffff; stroke-opacity: 0.5"/>
     <use xlink:href="#mad9acc027d" x="172.567017" y="124.123818" style="fill: #0000ff; fill-opacity: 0.5; stroke: #ffffff; stroke-opacity: 0.5"/>
     <use xlink:href="#mad9acc027d" x="337.532188" y="27.169532" style="fill: #0000ff; fill-opacity: 0.5; stroke: #ffffff; stroke-opacity: 0.5"/>
     <use xlink:href="#mad9acc027d" x="72.903113" y="147.567509" style="fill: #0000ff; fill-opacity: 0.5; stroke: #ffffff; stroke-opacity: 0.5"/>
     <use xlink:href="#mad9acc027d" x="190.686581" y="116.577754" style="fill: #0000ff; fill-opacity: 0.5; stroke: #ffffff; stroke-opacity: 0.5"/>
     <use xlink:href="#mad9acc027d" x="130.2969" y="184.365203" style="fill: #0000ff; fill-opacity: 0.5; stroke: #ffffff; stroke-opacity: 0.5"/>
     <use xlink:href="#mad9acc027d" x="157.266553" y="135.570105" style="fill: #0000ff; fill-opacity: 0.5; stroke: #ffffff; stroke-opacity: 0.5"/>
     <use xlink:href="#mad9acc027d" x="223.404211" y="116.32339" style="fill: #0000ff; fill-opacity: 0.5; stroke: #ffffff; stroke-opacity: 0.5"/>
     <use xlink:href="#mad9acc027d" x="85.464996" y="125.395627" style="fill: #0000ff; fill-opacity: 0.5; stroke: #ffffff; stroke-opacity: 0.5"/>
     <use xlink:href="#mad9acc027d" x="145.116803" y="124.378182" style="fill: #0000ff; fill-opacity: 0.5; stroke: #ffffff; stroke-opacity: 0.5"/>
     <use xlink:href="#mad9acc027d" x="135.376135" y="131.033989" style="fill: #0000ff; fill-opacity: 0.5; stroke: #ffffff; stroke-opacity: 0.5"/>
     <use xlink:href="#mad9acc027d" x="75.557809" y="130.228507" style="fill: #0000ff; fill-opacity: 0.5; stroke: #ffffff; stroke-opacity: 0.5"/>
     <use xlink:href="#mad9acc027d" x="196.416352" y="108.946893" style="fill: #0000ff; fill-opacity: 0.5; stroke: #ffffff; stroke-opacity: 0.5"/>
     <use xlink:href="#mad9acc027d" x="176.114106" y="108.692529" style="fill: #0000ff; fill-opacity: 0.5; stroke: #ffffff; stroke-opacity: 0.5"/>
     <use xlink:href="#mad9acc027d" x="158.93735" y="123.742283" style="fill: #0000ff; fill-opacity: 0.5; stroke: #ffffff; stroke-opacity: 0.5"/>
     <use xlink:href="#mad9acc027d" x="95.455307" y="177.751797" style="fill: #0000ff; fill-opacity: 0.5; stroke: #ffffff; stroke-opacity: 0.5"/>
     <use xlink:href="#mad9acc027d" x="165.929721" y="115.899454" style="fill: #0000ff; fill-opacity: 0.5; stroke: #ffffff; stroke-opacity: 0.5"/>
     <use xlink:href="#mad9acc027d" x="77.846254" y="132.772124" style="fill: #0000ff; fill-opacity: 0.5; stroke: #ffffff; stroke-opacity: 0.5"/>
     <use xlink:href="#mad9acc027d" x="65.970087" y="157.190868" style="fill: #0000ff; fill-opacity: 0.5; stroke: #ffffff; stroke-opacity: 0.5"/>
     <use xlink:href="#mad9acc027d" x="121.101047" y="128.151217" style="fill: #0000ff; fill-opacity: 0.5; stroke: #ffffff; stroke-opacity: 0.5"/>
     <use xlink:href="#mad9acc027d" x="58.532188" y="154.223315" style="fill: #0000ff; fill-opacity: 0.5; stroke: #ffffff; stroke-opacity: 0.5"/>
    </g>
   </g>
   <g id="PolyCollection_1">
    <path d="M 58.532188 155.509752 
L 58.532188 178.876488 
L 61.350369 177.355498 
L 64.168551 175.833471 
L 66.986733 174.311444 
L 69.804915 172.789417 
L 72.623097 171.251995 
L 75.441278 169.744861 
L 78.25946 168.226371 
L 81.077642 166.756605 
L 83.895824 165.263535 
L 86.714006 163.768044 
L 89.532188 162.215893 
L 92.350369 160.64019 
L 95.168551 159.102287 
L 97.986733 157.579231 
L 100.804915 156.058009 
L 103.623097 154.538947 
L 106.441278 153.026504 
L 109.25946 151.619013 
L 112.077642 150.209599 
L 114.895824 148.680526 
L 117.714006 147.131272 
L 120.532188 145.58313 
L 123.350369 144.036078 
L 126.168551 142.517309 
L 128.986733 140.955649 
L 131.804915 139.512749 
L 134.623097 137.987899 
L 137.441278 136.515916 
L 140.25946 135.073167 
L 143.077642 133.617482 
L 145.895824 132.15924 
L 148.714006 130.640818 
L 151.532188 129.179398 
L 154.350369 127.720793 
L 157.168551 126.260086 
L 159.986733 124.8178 
L 162.804915 123.416268 
L 165.623097 121.926539 
L 168.441278 120.55072 
L 171.25946 119.137602 
L 174.077642 117.777396 
L 176.895824 116.448167 
L 179.714006 115.10483 
L 182.532188 113.750178 
L 185.350369 112.329943 
L 188.168551 111.009042 
L 190.986733 109.674195 
L 193.804915 108.395463 
L 196.623097 107.1197 
L 199.441278 105.859371 
L 202.25946 104.640316 
L 205.077642 103.360457 
L 207.895824 102.192829 
L 210.714006 100.915113 
L 213.532188 99.718602 
L 216.350369 98.628908 
L 219.168551 97.426626 
L 221.986733 96.237953 
L 224.804915 95.034905 
L 227.623097 93.831727 
L 230.441278 92.666893 
L 233.25946 91.526905 
L 236.077642 90.376981 
L 238.895824 89.260449 
L 241.714006 88.030847 
L 244.532188 86.8861 
L 247.350369 85.742813 
L 250.168551 84.620286 
L 252.986733 83.548328 
L 255.804915 82.476371 
L 258.623097 81.298316 
L 261.441278 80.108946 
L 264.25946 78.935982 
L 267.077642 77.82853 
L 269.895824 76.741491 
L 272.714006 75.673821 
L 275.532188 74.606151 
L 278.350369 73.524481 
L 281.168551 72.404657 
L 283.986733 71.317487 
L 286.804915 70.241968 
L 289.623097 69.110039 
L 292.441278 68.007931 
L 295.25946 66.905823 
L 298.077642 65.83295 
L 300.895824 64.777561 
L 303.714006 63.715011 
L 306.532188 62.553745 
L 309.350369 61.390972 
L 312.168551 60.284483 
L 314.986733 59.180286 
L 317.804915 58.079248 
L 320.623097 56.993829 
L 323.441278 55.869924 
L 326.25946 54.765423 
L 329.077642 53.660984 
L 331.895824 52.557316 
L 334.714006 51.45488 
L 337.532188 50.350507 
L 337.532188 26.356234 
L 337.532188 26.356234 
L 334.714006 27.846431 
L 331.895824 29.294633 
L 329.077642 30.783951 
L 326.25946 32.273682 
L 323.441278 33.776947 
L 320.623097 35.280212 
L 317.804915 36.783477 
L 314.986733 38.2623 
L 312.168551 39.627742 
L 309.350369 41.072828 
L 306.532188 42.453329 
L 303.714006 43.923966 
L 300.895824 45.481287 
L 298.077642 46.949401 
L 295.25946 48.401901 
L 292.441278 49.830486 
L 289.623097 51.259071 
L 286.804915 52.68437 
L 283.986733 54.154698 
L 281.168551 55.712585 
L 278.350369 57.242078 
L 275.532188 58.714982 
L 272.714006 60.187098 
L 269.895824 61.656449 
L 267.077642 63.173101 
L 264.25946 64.595829 
L 261.441278 66.066993 
L 258.623097 67.536645 
L 255.804915 68.93298 
L 252.986733 70.335364 
L 250.168551 71.712146 
L 247.350369 73.088964 
L 244.532188 74.470285 
L 241.714006 75.959513 
L 238.895824 77.412 
L 236.077642 78.831053 
L 233.25946 80.252399 
L 230.441278 81.640236 
L 227.623097 82.984479 
L 224.804915 84.384304 
L 221.986733 85.727942 
L 219.168551 87.138374 
L 216.350369 88.509461 
L 213.532188 89.776994 
L 210.714006 91.178451 
L 207.895824 92.633782 
L 205.077642 93.964062 
L 202.25946 95.359634 
L 199.441278 96.751307 
L 196.623097 98.063452 
L 193.804915 99.342387 
L 190.986733 100.643408 
L 188.168551 101.954733 
L 185.350369 103.191716 
L 182.532188 104.561843 
L 179.714006 105.851613 
L 176.895824 107.140613 
L 174.077642 108.329475 
L 171.25946 109.532877 
L 168.441278 110.733882 
L 165.623097 112.027573 
L 162.804915 113.250446 
L 159.986733 114.470926 
L 157.168551 115.713601 
L 154.350369 117.010027 
L 151.532188 118.197993 
L 148.714006 119.371456 
L 145.895824 120.581562 
L 143.077642 121.78844 
L 140.25946 123.026497 
L 137.441278 124.193919 
L 134.623097 125.362445 
L 131.804915 126.589839 
L 128.986733 127.819813 
L 126.168551 129.043377 
L 123.350369 130.131423 
L 120.532188 131.282488 
L 117.714006 132.480842 
L 114.895824 133.62367 
L 112.077642 134.711259 
L 109.25946 135.87797 
L 106.441278 137.045157 
L 103.623097 138.168503 
L 100.804915 139.245947 
L 97.986733 140.322014 
L 95.168551 141.398081 
L 92.350369 142.470627 
L 89.532188 143.541585 
L 86.714006 144.614044 
L 83.895824 145.706416 
L 81.077642 146.783087 
L 78.25946 147.859942 
L 75.441278 148.931098 
L 72.623097 149.980745 
L 69.804915 151.123792 
L 66.986733 152.219923 
L 64.168551 153.316054 
L 61.350369 154.400378 
L 58.532188 155.509752 
z
" clip-path="url(#p129fd0c071)" style="fill: #ff0000; fill-opacity: 0.15"/>
   </g>
   <g id="line2d_25">
    <path d="M 58.532188 166.127706 
L 61.350369 164.829567 
L 64.168551 163.531429 
L 66.986733 162.233291 
L 69.804915 160.935153 
L 72.623097 159.637015 
L 75.441278 158.338877 
L 78.25946 157.040739 
L 81.077642 155.742601 
L 83.895824 154.444463 
L 86.714006 153.146325 
L 89.532188 151.848187 
L 92.350369 150.550049 
L 95.168551 149.251911 
L 97.986733 147.953773 
L 100.804915 146.655635 
L 103.623097 145.357497 
L 106.441278 144.059359 
L 109.25946 142.761221 
L 112.077642 141.463083 
L 114.895824 140.164945 
L 117.714006 138.866807 
L 120.532188 137.568669 
L 123.350369 136.270531 
L 126.168551 134.972393 
L 128.986733 133.674255 
L 131.804915 132.376117 
L 134.623097 131.077979 
L 137.441278 129.779841 
L 140.25946 128.481703 
L 143.077642 127.183565 
L 145.895824 125.885427 
L 148.714006 124.587289 
L 151.532188 123.289151 
L 154.350369 121.991013 
L 157.168551 120.692875 
L 159.986733 119.394737 
L 162.804915 118.096599 
L 165.623097 116.798461 
L 168.441278 115.500323 
L 171.25946 114.202185 
L 174.077642 112.904047 
L 176.895824 111.605909 
L 179.714006 110.307771 
L 182.532188 109.009633 
L 185.350369 107.711495 
L 188.168551 106.413357 
L 190.986733 105.115219 
L 193.804915 103.817081 
L 196.623097 102.518943 
L 199.441278 101.220805 
L 202.25946 99.922667 
L 205.077642 98.624529 
L 207.895824 97.326391 
L 210.714006 96.028253 
L 213.532188 94.730115 
L 216.350369 93.431977 
L 219.168551 92.133839 
L 221.986733 90.835701 
L 224.804915 89.537563 
L 227.623097 88.239425 
L 230.441278 86.941287 
L 233.25946 85.643149 
L 236.077642 84.345011 
L 238.895824 83.046873 
L 241.714006 81.748735 
L 244.532188 80.450597 
L 247.350369 79.152459 
L 250.168551 77.854321 
L 252.986733 76.556183 
L 255.804915 75.258045 
L 258.623097 73.959907 
L 261.441278 72.661769 
L 264.25946 71.363631 
L 267.077642 70.065493 
L 269.895824 68.767355 
L 272.714006 67.469217 
L 275.532188 66.171079 
L 278.350369 64.872941 
L 281.168551 63.574803 
L 283.986733 62.276665 
L 286.804915 60.978527 
L 289.623097 59.680389 
L 292.441278 58.382251 
L 295.25946 57.084113 
L 298.077642 55.785975 
L 300.895824 54.487837 
L 303.714006 53.189699 
L 306.532188 51.891561 
L 309.350369 50.593423 
L 312.168551 49.295285 
L 314.986733 47.997147 
L 317.804915 46.699009 
L 320.623097 45.400871 
L 323.441278 44.102733 
L 326.25946 42.804595 
L 329.077642 41.506457 
L 331.895824 40.208319 
L 334.714006 38.91018 
L 337.532188 37.612042 
" clip-path="url(#p129fd0c071)" style="fill: none; stroke: #ff0000; stroke-opacity: 0.7; stroke-width: 3; stroke-linecap: square"/>
   </g>
   <g id="patch_3">
    <path d="M 44.582188 201.24 
L 44.582188 7.2 
" style="fill: none; stroke: #ffffff; stroke-linejoin: miter; stroke-linecap: square"/>
   </g>
   <g id="patch_4">
    <path d="M 351.482188 201.24 
L 351.482188 7.2 
" style="fill: none; stroke: #ffffff; stroke-linejoin: miter; stroke-linecap: square"/>
   </g>
   <g id="patch_5">
    <path d="M 44.582188 201.24 
L 351.482188 201.24 
" style="fill: none; stroke: #ffffff; stroke-linejoin: miter; stroke-linecap: square"/>
   </g>
   <g id="patch_6">
    <path d="M 44.582188 7.2 
L 351.482188 7.2 
" style="fill: none; stroke: #ffffff; stroke-linejoin: miter; stroke-linecap: square"/>
   </g>
   <g id="legend_1">
    <g id="patch_7">
     <path d="M 51.582188 55.775937 
L 265.182188 55.775937 
Q 267.182188 55.775937 267.182188 53.775937 
L 267.182188 14.2 
Q 267.182188 12.2 265.182188 12.2 
L 51.582188 12.2 
Q 49.582188 12.2 49.582188 14.2 
L 49.582188 53.775937 
Q 49.582188 55.775937 51.582188 55.775937 
z
" style="fill: #e5e5e5; opacity: 0.8; stroke: #cccccc; stroke-width: 0.5; stroke-linejoin: miter"/>
    </g>
    <g id="PathCollection_2">
     <g>
      <use xlink:href="#mad9acc027d" x="63.582188" y="21.173437" style="fill: #0000ff; fill-opacity: 0.5; stroke: #ffffff; stroke-opacity: 0.5"/>
     </g>
    </g>
    <g id="text_15">
     <!-- Data -->
     <g transform="translate(81.582188 23.798437) scale(0.1 -0.1)">
      <defs>
       <path id="DejaVuSans-44" d="M 1259 4147 
L 1259 519 
L 2022 519 
Q 2988 519 3436 956 
Q 3884 1394 3884 2338 
Q 3884 3275 3436 3711 
Q 2988 4147 2022 4147 
L 1259 4147 
z
M 628 4666 
L 1925 4666 
Q 3281 4666 3915 4102 
Q 4550 3538 4550 2338 
Q 4550 1131 3912 565 
Q 3275 0 1925 0 
L 628 0 
L 628 4666 
z
" transform="scale(0.015625)"/>
       <path id="DejaVuSans-61" d="M 2194 1759 
Q 1497 1759 1228 1600 
Q 959 1441 959 1056 
Q 959 750 1161 570 
Q 1363 391 1709 391 
Q 2188 391 2477 730 
Q 2766 1069 2766 1631 
L 2766 1759 
L 2194 1759 
z
M 3341 1997 
L 3341 0 
L 2766 0 
L 2766 531 
Q 2569 213 2275 61 
Q 1981 -91 1556 -91 
Q 1019 -91 701 211 
Q 384 513 384 1019 
Q 384 1609 779 1909 
Q 1175 2209 1959 2209 
L 2766 2209 
L 2766 2266 
Q 2766 2663 2505 2880 
Q 2244 3097 1772 3097 
Q 1472 3097 1187 3025 
Q 903 2953 641 2809 
L 641 3341 
Q 956 3463 1253 3523 
Q 1550 3584 1831 3584 
Q 2591 3584 2966 3190 
Q 3341 2797 3341 1997 
z
" transform="scale(0.015625)"/>
       <path id="DejaVuSans-74" d="M 1172 4494 
L 1172 3500 
L 2356 3500 
L 2356 3053 
L 1172 3053 
L 1172 1153 
Q 1172 725 1289 603 
Q 1406 481 1766 481 
L 2356 481 
L 2356 0 
L 1766 0 
Q 1100 0 847 248 
Q 594 497 594 1153 
L 594 3053 
L 172 3053 
L 172 3500 
L 594 3500 
L 594 4494 
L 1172 4494 
z
" transform="scale(0.015625)"/>
      </defs>
      <use xlink:href="#DejaVuSans-44"/>
      <use xlink:href="#DejaVuSans-61" x="77.001953"/>
      <use xlink:href="#DejaVuSans-74" x="138.28125"/>
      <use xlink:href="#DejaVuSans-61" x="177.490234"/>
     </g>
    </g>
    <g id="line2d_26">
     <path d="M 53.582188 41.62625 
L 63.582188 41.62625 
L 73.582188 41.62625 
" style="fill: none; stroke: #ff0000; stroke-opacity: 0.7; stroke-width: 3; stroke-linecap: square"/>
    </g>
    <g id="text_16">
     <!-- $log(SFR_{HEC})=$0.89$\cdot log(SFR_{LVG})$$-0.43$ -->
     <g transform="translate(81.582188 38.478125) scale(0.1 -0.1)">
      <defs>
       <path id="DejaVuSans-3d" d="M 678 2906 
L 4684 2906 
L 4684 2381 
L 678 2381 
L 678 2906 
z
M 678 1631 
L 4684 1631 
L 4684 1100 
L 678 1100 
L 678 1631 
z
" transform="scale(0.015625)"/>
       <path id="DejaVuSans-38" d="M 2034 2216 
Q 1584 2216 1326 1975 
Q 1069 1734 1069 1313 
Q 1069 891 1326 650 
Q 1584 409 2034 409 
Q 2484 409 2743 651 
Q 3003 894 3003 1313 
Q 3003 1734 2745 1975 
Q 2488 2216 2034 2216 
z
M 1403 2484 
Q 997 2584 770 2862 
Q 544 3141 544 3541 
Q 544 4100 942 4425 
Q 1341 4750 2034 4750 
Q 2731 4750 3128 4425 
Q 3525 4100 3525 3541 
Q 3525 3141 3298 2862 
Q 3072 2584 2669 2484 
Q 3125 2378 3379 2068 
Q 3634 1759 3634 1313 
Q 3634 634 3220 271 
Q 2806 -91 2034 -91 
Q 1263 -91 848 271 
Q 434 634 434 1313 
Q 434 1759 690 2068 
Q 947 2378 1403 2484 
z
M 1172 3481 
Q 1172 3119 1398 2916 
Q 1625 2713 2034 2713 
Q 2441 2713 2670 2916 
Q 2900 3119 2900 3481 
Q 2900 3844 2670 4047 
Q 2441 4250 2034 4250 
Q 1625 4250 1398 4047 
Q 1172 3844 1172 3481 
z
" transform="scale(0.015625)"/>
       <path id="DejaVuSans-39" d="M 703 97 
L 703 672 
Q 941 559 1184 500 
Q 1428 441 1663 441 
Q 2288 441 2617 861 
Q 2947 1281 2994 2138 
Q 2813 1869 2534 1725 
Q 2256 1581 1919 1581 
Q 1219 1581 811 2004 
Q 403 2428 403 3163 
Q 403 3881 828 4315 
Q 1253 4750 1959 4750 
Q 2769 4750 3195 4129 
Q 3622 3509 3622 2328 
Q 3622 1225 3098 567 
Q 2575 -91 1691 -91 
Q 1453 -91 1209 -44 
Q 966 3 703 97 
z
M 1959 2075 
Q 2384 2075 2632 2365 
Q 2881 2656 2881 3163 
Q 2881 3666 2632 3958 
Q 2384 4250 1959 4250 
Q 1534 4250 1286 3958 
Q 1038 3666 1038 3163 
Q 1038 2656 1286 2365 
Q 1534 2075 1959 2075 
z
" transform="scale(0.015625)"/>
       <path id="DejaVuSans-22c5" d="M 684 2619 
L 1344 2619 
L 1344 1825 
L 684 1825 
L 684 2619 
z
" transform="scale(0.015625)"/>
       <path id="DejaVuSans-34" d="M 2419 4116 
L 825 1625 
L 2419 1625 
L 2419 4116 
z
M 2253 4666 
L 3047 4666 
L 3047 1625 
L 3713 1625 
L 3713 1100 
L 3047 1100 
L 3047 0 
L 2419 0 
L 2419 1100 
L 313 1100 
L 313 1709 
L 2253 4666 
z
" transform="scale(0.015625)"/>
      </defs>
      <use xlink:href="#DejaVuSans-Oblique-6c" transform="translate(0 0.015625)"/>
      <use xlink:href="#DejaVuSans-Oblique-6f" transform="translate(27.783203 0.015625)"/>
      <use xlink:href="#DejaVuSans-Oblique-67" transform="translate(88.964844 0.015625)"/>
      <use xlink:href="#DejaVuSans-28" transform="translate(152.441406 0.015625)"/>
      <use xlink:href="#DejaVuSans-Oblique-53" transform="translate(191.455078 0.015625)"/>
      <use xlink:href="#DejaVuSans-Oblique-46" transform="translate(254.931641 0.015625)"/>
      <use xlink:href="#DejaVuSans-Oblique-52" transform="translate(312.451172 0.015625)"/>
      <use xlink:href="#DejaVuSans-Oblique-48" transform="translate(381.933594 -16.390625) scale(0.7)"/>
      <use xlink:href="#DejaVuSans-Oblique-45" transform="translate(434.570312 -16.390625) scale(0.7)"/>
      <use xlink:href="#DejaVuSans-Oblique-43" transform="translate(478.798828 -16.390625) scale(0.7)"/>
      <use xlink:href="#DejaVuSans-29" transform="translate(530.410156 0.015625)"/>
      <use xlink:href="#DejaVuSans-3d" transform="translate(588.90625 0.015625)"/>
      <use xlink:href="#DejaVuSans-30" transform="translate(692.177734 0.015625)"/>
      <use xlink:href="#DejaVuSans-2e" transform="translate(755.800781 0.015625)"/>
      <use xlink:href="#DejaVuSans-38" transform="translate(784.962891 0.015625)"/>
      <use xlink:href="#DejaVuSans-39" transform="translate(848.585938 0.015625)"/>
      <use xlink:href="#DejaVuSans-22c5" transform="translate(912.208984 0.015625)"/>
      <use xlink:href="#DejaVuSans-Oblique-6c" transform="translate(943.996094 0.015625)"/>
      <use xlink:href="#DejaVuSans-Oblique-6f" transform="translate(971.779297 0.015625)"/>
      <use xlink:href="#DejaVuSans-Oblique-67" transform="translate(1032.960938 0.015625)"/>
      <use xlink:href="#DejaVuSans-28" transform="translate(1096.4375 0.015625)"/>
      <use xlink:href="#DejaVuSans-Oblique-53" transform="translate(1135.451172 0.015625)"/>
      <use xlink:href="#DejaVuSans-Oblique-46" transform="translate(1198.927734 0.015625)"/>
      <use xlink:href="#DejaVuSans-Oblique-52" transform="translate(1256.447266 0.015625)"/>
      <use xlink:href="#DejaVuSans-Oblique-4c" transform="translate(1325.929688 -16.390625) scale(0.7)"/>
      <use xlink:href="#DejaVuSans-Oblique-56" transform="translate(1364.928711 -16.390625) scale(0.7)"/>
      <use xlink:href="#DejaVuSans-Oblique-47" transform="translate(1412.814453 -16.390625) scale(0.7)"/>
      <use xlink:href="#DejaVuSans-29" transform="translate(1469.791992 0.015625)"/>
      <use xlink:href="#DejaVuSans-2212" transform="translate(1508.805664 0.015625)"/>
      <use xlink:href="#DejaVuSans-30" transform="translate(1592.594727 0.015625)"/>
      <use xlink:href="#DejaVuSans-2e" transform="translate(1656.217773 0.015625)"/>
      <use xlink:href="#DejaVuSans-34" transform="translate(1688.004883 0.015625)"/>
      <use xlink:href="#DejaVuSans-33" transform="translate(1751.62793 0.015625)"/>
     </g>
     <!--  $R^2 = 73.88\%$ -->
     <g transform="translate(81.582188 49.69625) scale(0.1 -0.1)">
      <defs>
       <path id="DejaVuSans-37" d="M 525 4666 
L 3525 4666 
L 3525 4397 
L 1831 0 
L 1172 0 
L 2766 4134 
L 525 4134 
L 525 4666 
z
" transform="scale(0.015625)"/>
       <path id="DejaVuSans-25" d="M 4653 2053 
Q 4381 2053 4226 1822 
Q 4072 1591 4072 1178 
Q 4072 772 4226 539 
Q 4381 306 4653 306 
Q 4919 306 5073 539 
Q 5228 772 5228 1178 
Q 5228 1588 5073 1820 
Q 4919 2053 4653 2053 
z
M 4653 2450 
Q 5147 2450 5437 2106 
Q 5728 1763 5728 1178 
Q 5728 594 5436 251 
Q 5144 -91 4653 -91 
Q 4153 -91 3862 251 
Q 3572 594 3572 1178 
Q 3572 1766 3864 2108 
Q 4156 2450 4653 2450 
z
M 1428 4353 
Q 1159 4353 1004 4120 
Q 850 3888 850 3481 
Q 850 3069 1003 2837 
Q 1156 2606 1428 2606 
Q 1700 2606 1854 2837 
Q 2009 3069 2009 3481 
Q 2009 3884 1853 4118 
Q 1697 4353 1428 4353 
z
M 4250 4750 
L 4750 4750 
L 1831 -91 
L 1331 -91 
L 4250 4750 
z
M 1428 4750 
Q 1922 4750 2215 4408 
Q 2509 4066 2509 3481 
Q 2509 2891 2217 2550 
Q 1925 2209 1428 2209 
Q 931 2209 642 2551 
Q 353 2894 353 3481 
Q 353 4063 643 4406 
Q 934 4750 1428 4750 
z
" transform="scale(0.015625)"/>
      </defs>
      <use xlink:href="#DejaVuSans-20" transform="translate(0 0.765625)"/>
      <use xlink:href="#DejaVuSans-Oblique-52" transform="translate(31.787109 0.765625)"/>
      <use xlink:href="#DejaVuSans-32" transform="translate(108.286302 39.046875) scale(0.7)"/>
      <use xlink:href="#DejaVuSans-3d" transform="translate(175.039232 0.765625)"/>
      <use xlink:href="#DejaVuSans-37" transform="translate(278.310716 0.765625)"/>
      <use xlink:href="#DejaVuSans-33" transform="translate(341.933763 0.765625)"/>
      <use xlink:href="#DejaVuSans-2e" transform="translate(405.55681 0.765625)"/>
      <use xlink:href="#DejaVuSans-38" transform="translate(434.718919 0.765625)"/>
      <use xlink:href="#DejaVuSans-38" transform="translate(498.341966 0.765625)"/>
      <use xlink:href="#DejaVuSans-25" transform="translate(561.965013 0.765625)"/>
     </g>
    </g>
   </g>
  </g>
 </g>
 <defs>
  <clipPath id="p129fd0c071">
   <rect x="44.582188" y="7.2" width="306.9" height="194.04"/>
  </clipPath>
 </defs>
</svg>
