<?xml version="1.0" encoding="utf-8" standalone="no"?>
<!DOCTYPE svg PUBLIC "-//W3C//DTD SVG 1.1//EN"
  "http://www.w3.org/Graphics/SVG/1.1/DTD/svg11.dtd">
<svg xmlns:xlink="http://www.w3.org/1999/xlink" width="366.140313pt" height="257.673625pt" viewBox="0 0 366.140313 257.673625" xmlns="http://www.w3.org/2000/svg" version="1.1">
 <metadata>
  <rdf:RDF xmlns:dc="http://purl.org/dc/elements/1.1/" xmlns:cc="http://creativecommons.org/ns#" xmlns:rdf="http://www.w3.org/1999/02/22-rdf-syntax-ns#">
   <cc:Work>
    <dc:type rdf:resource="http://purl.org/dc/dcmitype/StillImage"/>
    <dc:date>2024-10-27T18:40:24.350924</dc:date>
    <dc:format>image/svg+xml</dc:format>
    <dc:creator>
     <cc:Agent>
      <dc:title>Matplotlib v3.8.4, https://matplotlib.org/</dc:title>
     </cc:Agent>
    </dc:creator>
   </cc:Work>
  </rdf:RDF>
 </metadata>
 <defs>
  <style type="text/css">*{stroke-linejoin: round; stroke-linecap: butt}</style>
 </defs>
 <g id="figure_1">
  <g id="patch_1">
   <path d="M 0 257.673625 
L 366.140313 257.673625 
L 366.140313 -0 
L 0 -0 
z
" style="fill: #ffffff"/>
  </g>
  <g id="axes_1">
   <g id="patch_2">
    <path d="M 52.040313 112.34175 
L 358.940313 112.34175 
L 358.940313 24.14175 
L 52.040313 24.14175 
z
" style="fill: #e5e5e5"/>
   </g>
   <g id="matplotlib.axis_1">
    <g id="xtick_1">
     <g id="line2d_1">
      <path d="M 65.736445 112.34175 
L 65.736445 24.14175 
" clip-path="url(#pf2d7dfa8e0)" style="fill: none; stroke: #ffffff; stroke-width: 0.8; stroke-linecap: square"/>
     </g>
     <g id="line2d_2">
      <defs>
       <path id="m9730b54e24" d="M 0 0 
L 0 3.5 
" style="stroke: #555555; stroke-width: 0.8"/>
      </defs>
      <g>
       <use xlink:href="#m9730b54e24" x="65.736445" y="112.34175" style="fill: #555555; stroke: #555555; stroke-width: 0.8"/>
      </g>
     </g>
     <g id="text_1">
      <!-- 0 -->
      <g style="fill: #555555" transform="translate(62.555195 126.940187) scale(0.1 -0.1)">
       <defs>
        <path id="DejaVuSans-30" d="M 2034 4250 
Q 1547 4250 1301 3770 
Q 1056 3291 1056 2328 
Q 1056 1369 1301 889 
Q 1547 409 2034 409 
Q 2525 409 2770 889 
Q 3016 1369 3016 2328 
Q 3016 3291 2770 3770 
Q 2525 4250 2034 4250 
z
M 2034 4750 
Q 2819 4750 3233 4129 
Q 3647 3509 3647 2328 
Q 3647 1150 3233 529 
Q 2819 -91 2034 -91 
Q 1250 -91 836 529 
Q 422 1150 422 2328 
Q 422 3509 836 4129 
Q 1250 4750 2034 4750 
z
" transform="scale(0.015625)"/>
       </defs>
       <use xlink:href="#DejaVuSans-30"/>
      </g>
     </g>
    </g>
    <g id="xtick_2">
     <g id="line2d_3">
      <path d="M 116.509876 112.34175 
L 116.509876 24.14175 
" clip-path="url(#pf2d7dfa8e0)" style="fill: none; stroke: #ffffff; stroke-width: 0.8; stroke-linecap: square"/>
     </g>
     <g id="line2d_4">
      <g>
       <use xlink:href="#m9730b54e24" x="116.509876" y="112.34175" style="fill: #555555; stroke: #555555; stroke-width: 0.8"/>
      </g>
     </g>
     <g id="text_2">
      <!-- 2 -->
      <g style="fill: #555555" transform="translate(113.328626 126.940187) scale(0.1 -0.1)">
       <defs>
        <path id="DejaVuSans-32" d="M 1228 531 
L 3431 531 
L 3431 0 
L 469 0 
L 469 531 
Q 828 903 1448 1529 
Q 2069 2156 2228 2338 
Q 2531 2678 2651 2914 
Q 2772 3150 2772 3378 
Q 2772 3750 2511 3984 
Q 2250 4219 1831 4219 
Q 1534 4219 1204 4116 
Q 875 4013 500 3803 
L 500 4441 
Q 881 4594 1212 4672 
Q 1544 4750 1819 4750 
Q 2544 4750 2975 4387 
Q 3406 4025 3406 3419 
Q 3406 3131 3298 2873 
Q 3191 2616 2906 2266 
Q 2828 2175 2409 1742 
Q 1991 1309 1228 531 
z
" transform="scale(0.015625)"/>
       </defs>
       <use xlink:href="#DejaVuSans-32"/>
      </g>
     </g>
    </g>
    <g id="xtick_3">
     <g id="line2d_5">
      <path d="M 167.283306 112.34175 
L 167.283306 24.14175 
" clip-path="url(#pf2d7dfa8e0)" style="fill: none; stroke: #ffffff; stroke-width: 0.8; stroke-linecap: square"/>
     </g>
     <g id="line2d_6">
      <g>
       <use xlink:href="#m9730b54e24" x="167.283306" y="112.34175" style="fill: #555555; stroke: #555555; stroke-width: 0.8"/>
      </g>
     </g>
     <g id="text_3">
      <!-- 4 -->
      <g style="fill: #555555" transform="translate(164.102056 126.940187) scale(0.1 -0.1)">
       <defs>
        <path id="DejaVuSans-34" d="M 2419 4116 
L 825 1625 
L 2419 1625 
L 2419 4116 
z
M 2253 4666 
L 3047 4666 
L 3047 1625 
L 3713 1625 
L 3713 1100 
L 3047 1100 
L 3047 0 
L 2419 0 
L 2419 1100 
L 313 1100 
L 313 1709 
L 2253 4666 
z
" transform="scale(0.015625)"/>
       </defs>
       <use xlink:href="#DejaVuSans-34"/>
      </g>
     </g>
    </g>
    <g id="xtick_4">
     <g id="line2d_7">
      <path d="M 218.056737 112.34175 
L 218.056737 24.14175 
" clip-path="url(#pf2d7dfa8e0)" style="fill: none; stroke: #ffffff; stroke-width: 0.8; stroke-linecap: square"/>
     </g>
     <g id="line2d_8">
      <g>
       <use xlink:href="#m9730b54e24" x="218.056737" y="112.34175" style="fill: #555555; stroke: #555555; stroke-width: 0.8"/>
      </g>
     </g>
     <g id="text_4">
      <!-- 6 -->
      <g style="fill: #555555" transform="translate(214.875487 126.940187) scale(0.1 -0.1)">
       <defs>
        <path id="DejaVuSans-36" d="M 2113 2584 
Q 1688 2584 1439 2293 
Q 1191 2003 1191 1497 
Q 1191 994 1439 701 
Q 1688 409 2113 409 
Q 2538 409 2786 701 
Q 3034 994 3034 1497 
Q 3034 2003 2786 2293 
Q 2538 2584 2113 2584 
z
M 3366 4563 
L 3366 3988 
Q 3128 4100 2886 4159 
Q 2644 4219 2406 4219 
Q 1781 4219 1451 3797 
Q 1122 3375 1075 2522 
Q 1259 2794 1537 2939 
Q 1816 3084 2150 3084 
Q 2853 3084 3261 2657 
Q 3669 2231 3669 1497 
Q 3669 778 3244 343 
Q 2819 -91 2113 -91 
Q 1303 -91 875 529 
Q 447 1150 447 2328 
Q 447 3434 972 4092 
Q 1497 4750 2381 4750 
Q 2619 4750 2861 4703 
Q 3103 4656 3366 4563 
z
" transform="scale(0.015625)"/>
       </defs>
       <use xlink:href="#DejaVuSans-36"/>
      </g>
     </g>
    </g>
    <g id="xtick_5">
     <g id="line2d_9">
      <path d="M 268.830167 112.34175 
L 268.830167 24.14175 
" clip-path="url(#pf2d7dfa8e0)" style="fill: none; stroke: #ffffff; stroke-width: 0.8; stroke-linecap: square"/>
     </g>
     <g id="line2d_10">
      <g>
       <use xlink:href="#m9730b54e24" x="268.830167" y="112.34175" style="fill: #555555; stroke: #555555; stroke-width: 0.8"/>
      </g>
     </g>
     <g id="text_5">
      <!-- 8 -->
      <g style="fill: #555555" transform="translate(265.648917 126.940187) scale(0.1 -0.1)">
       <defs>
        <path id="DejaVuSans-38" d="M 2034 2216 
Q 1584 2216 1326 1975 
Q 1069 1734 1069 1313 
Q 1069 891 1326 650 
Q 1584 409 2034 409 
Q 2484 409 2743 651 
Q 3003 894 3003 1313 
Q 3003 1734 2745 1975 
Q 2488 2216 2034 2216 
z
M 1403 2484 
Q 997 2584 770 2862 
Q 544 3141 544 3541 
Q 544 4100 942 4425 
Q 1341 4750 2034 4750 
Q 2731 4750 3128 4425 
Q 3525 4100 3525 3541 
Q 3525 3141 3298 2862 
Q 3072 2584 2669 2484 
Q 3125 2378 3379 2068 
Q 3634 1759 3634 1313 
Q 3634 634 3220 271 
Q 2806 -91 2034 -91 
Q 1263 -91 848 271 
Q 434 634 434 1313 
Q 434 1759 690 2068 
Q 947 2378 1403 2484 
z
M 1172 3481 
Q 1172 3119 1398 2916 
Q 1625 2713 2034 2713 
Q 2441 2713 2670 2916 
Q 2900 3119 2900 3481 
Q 2900 3844 2670 4047 
Q 2441 4250 2034 4250 
Q 1625 4250 1398 4047 
Q 1172 3844 1172 3481 
z
" transform="scale(0.015625)"/>
       </defs>
       <use xlink:href="#DejaVuSans-38"/>
      </g>
     </g>
    </g>
    <g id="xtick_6">
     <g id="line2d_11">
      <path d="M 319.603597 112.34175 
L 319.603597 24.14175 
" clip-path="url(#pf2d7dfa8e0)" style="fill: none; stroke: #ffffff; stroke-width: 0.8; stroke-linecap: square"/>
     </g>
     <g id="line2d_12">
      <g>
       <use xlink:href="#m9730b54e24" x="319.603597" y="112.34175" style="fill: #555555; stroke: #555555; stroke-width: 0.8"/>
      </g>
     </g>
     <g id="text_6">
      <!-- 10 -->
      <g style="fill: #555555" transform="translate(313.241097 126.940187) scale(0.1 -0.1)">
       <defs>
        <path id="DejaVuSans-31" d="M 794 531 
L 1825 531 
L 1825 4091 
L 703 3866 
L 703 4441 
L 1819 4666 
L 2450 4666 
L 2450 531 
L 3481 531 
L 3481 0 
L 794 0 
L 794 531 
z
" transform="scale(0.015625)"/>
       </defs>
       <use xlink:href="#DejaVuSans-31"/>
       <use xlink:href="#DejaVuSans-30" x="63.623047"/>
      </g>
     </g>
    </g>
   </g>
   <g id="matplotlib.axis_2">
    <g id="ytick_1">
     <g id="line2d_13">
      <path d="M 52.040313 112.34175 
L 358.940313 112.34175 
" clip-path="url(#pf2d7dfa8e0)" style="fill: none; stroke: #ffffff; stroke-width: 0.8; stroke-linecap: square"/>
     </g>
     <g id="line2d_14">
      <defs>
       <path id="mac770e30c9" d="M 0 0 
L -3.5 0 
" style="stroke: #555555; stroke-width: 0.8"/>
      </defs>
      <g>
       <use xlink:href="#mac770e30c9" x="52.040313" y="112.34175" style="fill: #555555; stroke: #555555; stroke-width: 0.8"/>
      </g>
     </g>
     <g id="text_7">
      <!-- 0 -->
      <g style="fill: #555555" transform="translate(38.677813 116.140969) scale(0.1 -0.1)">
       <use xlink:href="#DejaVuSans-30"/>
      </g>
     </g>
    </g>
    <g id="ytick_2">
     <g id="line2d_15">
      <path d="M 52.040313 79.909318 
L 358.940313 79.909318 
" clip-path="url(#pf2d7dfa8e0)" style="fill: none; stroke: #ffffff; stroke-width: 0.8; stroke-linecap: square"/>
     </g>
     <g id="line2d_16">
      <g>
       <use xlink:href="#mac770e30c9" x="52.040313" y="79.909318" style="fill: #555555; stroke: #555555; stroke-width: 0.8"/>
      </g>
     </g>
     <g id="text_8">
      <!-- 100 -->
      <g style="fill: #555555" transform="translate(25.952813 83.708536) scale(0.1 -0.1)">
       <use xlink:href="#DejaVuSans-31"/>
       <use xlink:href="#DejaVuSans-30" x="63.623047"/>
       <use xlink:href="#DejaVuSans-30" x="127.246094"/>
      </g>
     </g>
    </g>
    <g id="ytick_3">
     <g id="line2d_17">
      <path d="M 52.040313 47.476885 
L 358.940313 47.476885 
" clip-path="url(#pf2d7dfa8e0)" style="fill: none; stroke: #ffffff; stroke-width: 0.8; stroke-linecap: square"/>
     </g>
     <g id="line2d_18">
      <g>
       <use xlink:href="#mac770e30c9" x="52.040313" y="47.476885" style="fill: #555555; stroke: #555555; stroke-width: 0.8"/>
      </g>
     </g>
     <g id="text_9">
      <!-- 200 -->
      <g style="fill: #555555" transform="translate(25.952813 51.276104) scale(0.1 -0.1)">
       <use xlink:href="#DejaVuSans-32"/>
       <use xlink:href="#DejaVuSans-30" x="63.623047"/>
       <use xlink:href="#DejaVuSans-30" x="127.246094"/>
      </g>
     </g>
    </g>
    <g id="text_10">
     <!-- Count -->
     <g style="fill: #555555" transform="translate(19.457188 86.059875) rotate(-90) scale(0.12 -0.12)">
      <defs>
       <path id="DejaVuSans-43" d="M 4122 4306 
L 4122 3641 
Q 3803 3938 3442 4084 
Q 3081 4231 2675 4231 
Q 1875 4231 1450 3742 
Q 1025 3253 1025 2328 
Q 1025 1406 1450 917 
Q 1875 428 2675 428 
Q 3081 428 3442 575 
Q 3803 722 4122 1019 
L 4122 359 
Q 3791 134 3420 21 
Q 3050 -91 2638 -91 
Q 1578 -91 968 557 
Q 359 1206 359 2328 
Q 359 3453 968 4101 
Q 1578 4750 2638 4750 
Q 3056 4750 3426 4639 
Q 3797 4528 4122 4306 
z
" transform="scale(0.015625)"/>
       <path id="DejaVuSans-6f" d="M 1959 3097 
Q 1497 3097 1228 2736 
Q 959 2375 959 1747 
Q 959 1119 1226 758 
Q 1494 397 1959 397 
Q 2419 397 2687 759 
Q 2956 1122 2956 1747 
Q 2956 2369 2687 2733 
Q 2419 3097 1959 3097 
z
M 1959 3584 
Q 2709 3584 3137 3096 
Q 3566 2609 3566 1747 
Q 3566 888 3137 398 
Q 2709 -91 1959 -91 
Q 1206 -91 779 398 
Q 353 888 353 1747 
Q 353 2609 779 3096 
Q 1206 3584 1959 3584 
z
" transform="scale(0.015625)"/>
       <path id="DejaVuSans-75" d="M 544 1381 
L 544 3500 
L 1119 3500 
L 1119 1403 
Q 1119 906 1312 657 
Q 1506 409 1894 409 
Q 2359 409 2629 706 
Q 2900 1003 2900 1516 
L 2900 3500 
L 3475 3500 
L 3475 0 
L 2900 0 
L 2900 538 
Q 2691 219 2414 64 
Q 2138 -91 1772 -91 
Q 1169 -91 856 284 
Q 544 659 544 1381 
z
M 1991 3584 
L 1991 3584 
z
" transform="scale(0.015625)"/>
       <path id="DejaVuSans-6e" d="M 3513 2113 
L 3513 0 
L 2938 0 
L 2938 2094 
Q 2938 2591 2744 2837 
Q 2550 3084 2163 3084 
Q 1697 3084 1428 2787 
Q 1159 2491 1159 1978 
L 1159 0 
L 581 0 
L 581 3500 
L 1159 3500 
L 1159 2956 
Q 1366 3272 1645 3428 
Q 1925 3584 2291 3584 
Q 2894 3584 3203 3211 
Q 3513 2838 3513 2113 
z
" transform="scale(0.015625)"/>
       <path id="DejaVuSans-74" d="M 1172 4494 
L 1172 3500 
L 2356 3500 
L 2356 3053 
L 1172 3053 
L 1172 1153 
Q 1172 725 1289 603 
Q 1406 481 1766 481 
L 2356 481 
L 2356 0 
L 1766 0 
Q 1100 0 847 248 
Q 594 497 594 1153 
L 594 3053 
L 172 3053 
L 172 3500 
L 594 3500 
L 594 4494 
L 1172 4494 
z
" transform="scale(0.015625)"/>
      </defs>
      <use xlink:href="#DejaVuSans-43"/>
      <use xlink:href="#DejaVuSans-6f" x="69.824219"/>
      <use xlink:href="#DejaVuSans-75" x="131.005859"/>
      <use xlink:href="#DejaVuSans-6e" x="194.384766"/>
      <use xlink:href="#DejaVuSans-74" x="257.763672"/>
     </g>
    </g>
   </g>
   <g id="patch_3">
    <path d="M 65.990313 112.34175 
L 93.890313 112.34175 
L 93.890313 72.449858 
L 65.990313 72.449858 
z
" clip-path="url(#pf2d7dfa8e0)" style="fill: #e24a33; fill-opacity: 0.5; stroke: #eeeeee; stroke-width: 0.5; stroke-linejoin: miter"/>
   </g>
   <g id="patch_4">
    <path d="M 93.890313 112.34175 
L 121.790313 112.34175 
L 121.790313 105.855264 
L 93.890313 105.855264 
z
" clip-path="url(#pf2d7dfa8e0)" style="fill: #e24a33; fill-opacity: 0.5; stroke: #eeeeee; stroke-width: 0.5; stroke-linejoin: miter"/>
   </g>
   <g id="patch_5">
    <path d="M 121.790312 112.34175 
L 149.690313 112.34175 
L 149.690313 97.098507 
L 121.790312 97.098507 
z
" clip-path="url(#pf2d7dfa8e0)" style="fill: #e24a33; fill-opacity: 0.5; stroke: #eeeeee; stroke-width: 0.5; stroke-linejoin: miter"/>
   </g>
   <g id="patch_6">
    <path d="M 149.690313 112.34175 
L 177.590313 112.34175 
L 177.590313 52.34175 
L 149.690313 52.34175 
z
" clip-path="url(#pf2d7dfa8e0)" style="fill: #e24a33; fill-opacity: 0.5; stroke: #eeeeee; stroke-width: 0.5; stroke-linejoin: miter"/>
   </g>
   <g id="patch_7">
    <path d="M 177.590313 112.34175 
L 205.490313 112.34175 
L 205.490313 77.639047 
L 177.590313 77.639047 
z
" clip-path="url(#pf2d7dfa8e0)" style="fill: #e24a33; fill-opacity: 0.5; stroke: #eeeeee; stroke-width: 0.5; stroke-linejoin: miter"/>
   </g>
   <g id="patch_8">
    <path d="M 205.490313 112.34175 
L 233.390312 112.34175 
L 233.390312 89.314723 
L 205.490313 89.314723 
z
" clip-path="url(#pf2d7dfa8e0)" style="fill: #e24a33; fill-opacity: 0.5; stroke: #eeeeee; stroke-width: 0.5; stroke-linejoin: miter"/>
   </g>
   <g id="patch_9">
    <path d="M 233.390313 112.34175 
L 261.290313 112.34175 
L 261.290313 64.34175 
L 233.390313 64.34175 
z
" clip-path="url(#pf2d7dfa8e0)" style="fill: #e24a33; fill-opacity: 0.5; stroke: #eeeeee; stroke-width: 0.5; stroke-linejoin: miter"/>
   </g>
   <g id="patch_10">
    <path d="M 261.290313 112.34175 
L 289.190313 112.34175 
L 289.190313 69.530939 
L 261.290313 69.530939 
z
" clip-path="url(#pf2d7dfa8e0)" style="fill: #e24a33; fill-opacity: 0.5; stroke: #eeeeee; stroke-width: 0.5; stroke-linejoin: miter"/>
   </g>
   <g id="patch_11">
    <path d="M 289.190313 112.34175 
L 317.090313 112.34175 
L 317.090313 28.34175 
L 289.190313 28.34175 
z
" clip-path="url(#pf2d7dfa8e0)" style="fill: #e24a33; fill-opacity: 0.5; stroke: #eeeeee; stroke-width: 0.5; stroke-linejoin: miter"/>
   </g>
   <g id="patch_12">
    <path d="M 317.090313 112.34175 
L 344.990313 112.34175 
L 344.990313 39.693101 
L 317.090313 39.693101 
z
" clip-path="url(#pf2d7dfa8e0)" style="fill: #e24a33; fill-opacity: 0.5; stroke: #eeeeee; stroke-width: 0.5; stroke-linejoin: miter"/>
   </g>
   <g id="patch_13">
    <path d="M 65.990313 112.34175 
L 93.890313 112.34175 
L 93.890313 85.747155 
L 65.990313 85.747155 
z
" clip-path="url(#pf2d7dfa8e0)" style="fill: #348abd; fill-opacity: 0.5; stroke: #eeeeee; stroke-width: 0.5; stroke-linejoin: miter"/>
   </g>
   <g id="patch_14">
    <path d="M 93.890313 112.34175 
L 121.790313 112.34175 
L 121.790313 108.125534 
L 93.890313 108.125534 
z
" clip-path="url(#pf2d7dfa8e0)" style="fill: #348abd; fill-opacity: 0.5; stroke: #eeeeee; stroke-width: 0.5; stroke-linejoin: miter"/>
   </g>
   <g id="patch_15">
    <path d="M 121.790312 112.34175 
L 149.690313 112.34175 
L 149.690313 101.639047 
L 121.790312 101.639047 
z
" clip-path="url(#pf2d7dfa8e0)" style="fill: #348abd; fill-opacity: 0.5; stroke: #eeeeee; stroke-width: 0.5; stroke-linejoin: miter"/>
   </g>
   <g id="patch_16">
    <path d="M 149.690313 112.34175 
L 177.590313 112.34175 
L 177.590313 61.098507 
L 149.690313 61.098507 
z
" clip-path="url(#pf2d7dfa8e0)" style="fill: #348abd; fill-opacity: 0.5; stroke: #eeeeee; stroke-width: 0.5; stroke-linejoin: miter"/>
   </g>
   <g id="patch_17">
    <path d="M 177.590313 112.34175 
L 205.490313 112.34175 
L 205.490313 85.098507 
L 177.590313 85.098507 
z
" clip-path="url(#pf2d7dfa8e0)" style="fill: #348abd; fill-opacity: 0.5; stroke: #eeeeee; stroke-width: 0.5; stroke-linejoin: miter"/>
   </g>
   <g id="patch_18">
    <path d="M 205.490313 112.34175 
L 233.390312 112.34175 
L 233.390312 95.152561 
L 205.490313 95.152561 
z
" clip-path="url(#pf2d7dfa8e0)" style="fill: #348abd; fill-opacity: 0.5; stroke: #eeeeee; stroke-width: 0.5; stroke-linejoin: miter"/>
   </g>
   <g id="patch_19">
    <path d="M 233.390313 112.34175 
L 261.290313 112.34175 
L 261.290313 73.422831 
L 233.390313 73.422831 
z
" clip-path="url(#pf2d7dfa8e0)" style="fill: #348abd; fill-opacity: 0.5; stroke: #eeeeee; stroke-width: 0.5; stroke-linejoin: miter"/>
   </g>
   <g id="patch_20">
    <path d="M 261.290313 112.34175 
L 289.190313 112.34175 
L 289.190313 83.152561 
L 261.290313 83.152561 
z
" clip-path="url(#pf2d7dfa8e0)" style="fill: #348abd; fill-opacity: 0.5; stroke: #eeeeee; stroke-width: 0.5; stroke-linejoin: miter"/>
   </g>
   <g id="patch_21">
    <path d="M 289.190313 112.34175 
L 317.090313 112.34175 
L 317.090313 44.557966 
L 289.190313 44.557966 
z
" clip-path="url(#pf2d7dfa8e0)" style="fill: #348abd; fill-opacity: 0.5; stroke: #eeeeee; stroke-width: 0.5; stroke-linejoin: miter"/>
   </g>
   <g id="patch_22">
    <path d="M 317.090313 112.34175 
L 344.990313 112.34175 
L 344.990313 52.017426 
L 317.090313 52.017426 
z
" clip-path="url(#pf2d7dfa8e0)" style="fill: #348abd; fill-opacity: 0.5; stroke: #eeeeee; stroke-width: 0.5; stroke-linejoin: miter"/>
   </g>
   <g id="line2d_19">
    <path d="M 65.990313 93.742075 
L 68.794333 92.475073 
L 71.598353 91.458331 
L 74.402373 90.729231 
L 77.206393 90.310755 
L 80.010413 90.209559 
L 82.814433 90.415231 
L 85.618453 90.900796 
L 88.422473 91.624363 
L 92.628503 93.034869 
L 102.442574 96.676582 
L 105.246594 97.500289 
L 108.050614 98.114979 
L 110.854634 98.470857 
L 113.658654 98.527086 
L 116.462674 98.252423 
L 119.266694 97.625767 
L 122.070715 96.636806 
L 124.874735 95.286883 
L 127.678755 93.590048 
L 130.482775 91.574125 
L 133.286795 89.281495 
L 137.492825 85.452384 
L 147.306895 76.091618 
L 150.110916 73.714123 
L 152.914936 71.626868 
L 155.718956 69.897179 
L 158.522976 68.573105 
L 161.326996 67.680417 
L 164.131016 67.221673 
L 166.935036 67.177415 
L 169.739056 67.509288 
L 172.543076 68.164586 
L 175.347096 69.081568 
L 179.553127 70.804816 
L 186.563177 74.095584 
L 192.171217 76.662447 
L 196.377247 78.366042 
L 200.583277 79.790569 
L 203.387297 80.554382 
L 206.191318 81.150903 
L 208.995338 81.566036 
L 211.799358 81.787705 
L 214.603378 81.806724 
L 217.407398 81.617981 
L 220.211418 81.22172 
L 223.015438 80.624679 
L 225.819458 79.840871 
L 230.025488 78.363972 
L 234.231519 76.617793 
L 249.653629 69.903639 
L 253.859659 68.393226 
L 259.467699 66.612428 
L 266.47775 64.406438 
L 270.68378 62.825346 
L 273.4878 61.568831 
L 276.29182 60.108269 
L 279.09584 58.421318 
L 281.89986 56.501567 
L 284.70388 54.360977 
L 288.90991 50.810886 
L 298.723981 42.125358 
L 301.528001 39.964685 
L 304.332021 38.148033 
L 305.734031 37.403448 
L 307.136041 36.785643 
L 308.538051 36.306911 
L 309.940061 35.978568 
L 311.342071 35.810761 
L 312.744081 35.81229 
L 314.146091 35.990446 
L 315.548101 36.350867 
L 316.950111 36.897418 
L 318.352122 37.632101 
L 319.754132 38.554984 
L 321.156142 39.664176 
L 322.558152 40.955816 
L 323.960162 42.424113 
L 326.764182 45.858266 
L 329.568202 49.884897 
L 332.372222 54.398658 
L 336.578252 61.810788 
L 344.990313 77.288055 
L 344.990313 77.288055 
" clip-path="url(#pf2d7dfa8e0)" style="fill: none; stroke: #e24a33; stroke-width: 1.5; stroke-linecap: square"/>
   </g>
   <g id="line2d_20">
    <path d="M 65.990313 100.489667 
L 70.196343 99.205853 
L 73.000363 98.543949 
L 75.804383 98.066855 
L 78.608403 97.789821 
L 81.412423 97.717372 
L 84.216443 97.842562 
L 87.020463 98.147064 
L 91.226493 98.874504 
L 98.236544 100.461629 
L 103.844584 101.62954 
L 106.648604 102.044065 
L 109.452624 102.286385 
L 112.256644 102.318635 
L 115.060664 102.109508 
L 117.864684 101.635145 
L 120.668704 100.880006 
L 123.472725 99.837802 
L 126.276745 98.51249 
L 129.080765 96.919252 
L 131.884785 95.08527 
L 136.090815 91.972599 
L 143.100865 86.301744 
L 147.306895 82.997553 
L 150.110916 80.991317 
L 152.914936 79.222134 
L 155.718956 77.746466 
L 158.522976 76.605998 
L 161.326996 75.825128 
L 164.131016 75.409975 
L 166.935036 75.348955 
L 169.739056 75.614816 
L 172.543076 76.167778 
L 175.347096 76.959349 
L 179.553127 78.4773 
L 185.161167 80.838967 
L 192.171217 83.809641 
L 196.377247 85.382942 
L 200.583277 86.689075 
L 203.387297 87.378461 
L 206.191318 87.905085 
L 208.995338 88.257954 
L 211.799358 88.430129 
L 214.603378 88.41927 
L 217.407398 88.228241 
L 220.211418 87.865619 
L 224.417448 87.033385 
L 228.623478 85.922356 
L 234.231519 84.176952 
L 242.643579 81.514316 
L 248.251619 80.012476 
L 253.859659 78.816853 
L 266.47775 76.447958 
L 269.28177 75.721682 
L 272.08579 74.829251 
L 274.88981 73.735162 
L 277.69383 72.414126 
L 280.49785 70.854183 
L 283.30187 69.059172 
L 286.10589 67.050376 
L 290.311921 63.727361 
L 298.723981 56.814609 
L 301.528001 54.758576 
L 304.332021 52.993443 
L 307.136041 51.617638 
L 308.538051 51.104142 
L 309.940061 50.720418 
L 311.342071 50.475261 
L 312.744081 50.376218 
L 314.146091 50.429455 
L 315.548101 50.639641 
L 316.950111 51.009856 
L 318.352122 51.541525 
L 319.754132 52.234377 
L 321.156142 53.086438 
L 322.558152 54.094041 
L 325.362172 56.553071 
L 328.166192 59.550787 
L 330.970212 63.005165 
L 333.774232 66.81777 
L 337.980262 72.968654 
L 344.990313 83.444889 
L 344.990313 83.444889 
" clip-path="url(#pf2d7dfa8e0)" style="fill: none; stroke: #348abd; stroke-width: 1.5; stroke-linecap: square"/>
   </g>
   <g id="patch_23">
    <path d="M 52.040313 112.34175 
L 52.040313 24.14175 
" style="fill: none; stroke: #ffffff; stroke-linejoin: miter; stroke-linecap: square"/>
   </g>
   <g id="patch_24">
    <path d="M 358.940313 112.34175 
L 358.940313 24.14175 
" style="fill: none; stroke: #ffffff; stroke-linejoin: miter; stroke-linecap: square"/>
   </g>
   <g id="patch_25">
    <path d="M 52.040313 112.34175 
L 358.940313 112.34175 
" style="fill: none; stroke: #ffffff; stroke-linejoin: miter; stroke-linecap: square"/>
   </g>
   <g id="patch_26">
    <path d="M 52.040313 24.14175 
L 358.940313 24.14175 
" style="fill: none; stroke: #ffffff; stroke-linejoin: miter; stroke-linecap: square"/>
   </g>
   <g id="text_11">
    <!-- Completenes of Distance for LVG -->
    <g transform="translate(86.846688 18.14175) scale(0.144 -0.144)">
     <defs>
      <path id="DejaVuSans-6d" d="M 3328 2828 
Q 3544 3216 3844 3400 
Q 4144 3584 4550 3584 
Q 5097 3584 5394 3201 
Q 5691 2819 5691 2113 
L 5691 0 
L 5113 0 
L 5113 2094 
Q 5113 2597 4934 2840 
Q 4756 3084 4391 3084 
Q 3944 3084 3684 2787 
Q 3425 2491 3425 1978 
L 3425 0 
L 2847 0 
L 2847 2094 
Q 2847 2600 2669 2842 
Q 2491 3084 2119 3084 
Q 1678 3084 1418 2786 
Q 1159 2488 1159 1978 
L 1159 0 
L 581 0 
L 581 3500 
L 1159 3500 
L 1159 2956 
Q 1356 3278 1631 3431 
Q 1906 3584 2284 3584 
Q 2666 3584 2933 3390 
Q 3200 3197 3328 2828 
z
" transform="scale(0.015625)"/>
      <path id="DejaVuSans-70" d="M 1159 525 
L 1159 -1331 
L 581 -1331 
L 581 3500 
L 1159 3500 
L 1159 2969 
Q 1341 3281 1617 3432 
Q 1894 3584 2278 3584 
Q 2916 3584 3314 3078 
Q 3713 2572 3713 1747 
Q 3713 922 3314 415 
Q 2916 -91 2278 -91 
Q 1894 -91 1617 61 
Q 1341 213 1159 525 
z
M 3116 1747 
Q 3116 2381 2855 2742 
Q 2594 3103 2138 3103 
Q 1681 3103 1420 2742 
Q 1159 2381 1159 1747 
Q 1159 1113 1420 752 
Q 1681 391 2138 391 
Q 2594 391 2855 752 
Q 3116 1113 3116 1747 
z
" transform="scale(0.015625)"/>
      <path id="DejaVuSans-6c" d="M 603 4863 
L 1178 4863 
L 1178 0 
L 603 0 
L 603 4863 
z
" transform="scale(0.015625)"/>
      <path id="DejaVuSans-65" d="M 3597 1894 
L 3597 1613 
L 953 1613 
Q 991 1019 1311 708 
Q 1631 397 2203 397 
Q 2534 397 2845 478 
Q 3156 559 3463 722 
L 3463 178 
Q 3153 47 2828 -22 
Q 2503 -91 2169 -91 
Q 1331 -91 842 396 
Q 353 884 353 1716 
Q 353 2575 817 3079 
Q 1281 3584 2069 3584 
Q 2775 3584 3186 3129 
Q 3597 2675 3597 1894 
z
M 3022 2063 
Q 3016 2534 2758 2815 
Q 2500 3097 2075 3097 
Q 1594 3097 1305 2825 
Q 1016 2553 972 2059 
L 3022 2063 
z
" transform="scale(0.015625)"/>
      <path id="DejaVuSans-73" d="M 2834 3397 
L 2834 2853 
Q 2591 2978 2328 3040 
Q 2066 3103 1784 3103 
Q 1356 3103 1142 2972 
Q 928 2841 928 2578 
Q 928 2378 1081 2264 
Q 1234 2150 1697 2047 
L 1894 2003 
Q 2506 1872 2764 1633 
Q 3022 1394 3022 966 
Q 3022 478 2636 193 
Q 2250 -91 1575 -91 
Q 1294 -91 989 -36 
Q 684 19 347 128 
L 347 722 
Q 666 556 975 473 
Q 1284 391 1588 391 
Q 1994 391 2212 530 
Q 2431 669 2431 922 
Q 2431 1156 2273 1281 
Q 2116 1406 1581 1522 
L 1381 1569 
Q 847 1681 609 1914 
Q 372 2147 372 2553 
Q 372 3047 722 3315 
Q 1072 3584 1716 3584 
Q 2034 3584 2315 3537 
Q 2597 3491 2834 3397 
z
" transform="scale(0.015625)"/>
      <path id="DejaVuSans-20" transform="scale(0.015625)"/>
      <path id="DejaVuSans-66" d="M 2375 4863 
L 2375 4384 
L 1825 4384 
Q 1516 4384 1395 4259 
Q 1275 4134 1275 3809 
L 1275 3500 
L 2222 3500 
L 2222 3053 
L 1275 3053 
L 1275 0 
L 697 0 
L 697 3053 
L 147 3053 
L 147 3500 
L 697 3500 
L 697 3744 
Q 697 4328 969 4595 
Q 1241 4863 1831 4863 
L 2375 4863 
z
" transform="scale(0.015625)"/>
      <path id="DejaVuSans-44" d="M 1259 4147 
L 1259 519 
L 2022 519 
Q 2988 519 3436 956 
Q 3884 1394 3884 2338 
Q 3884 3275 3436 3711 
Q 2988 4147 2022 4147 
L 1259 4147 
z
M 628 4666 
L 1925 4666 
Q 3281 4666 3915 4102 
Q 4550 3538 4550 2338 
Q 4550 1131 3912 565 
Q 3275 0 1925 0 
L 628 0 
L 628 4666 
z
" transform="scale(0.015625)"/>
      <path id="DejaVuSans-69" d="M 603 3500 
L 1178 3500 
L 1178 0 
L 603 0 
L 603 3500 
z
M 603 4863 
L 1178 4863 
L 1178 4134 
L 603 4134 
L 603 4863 
z
" transform="scale(0.015625)"/>
      <path id="DejaVuSans-61" d="M 2194 1759 
Q 1497 1759 1228 1600 
Q 959 1441 959 1056 
Q 959 750 1161 570 
Q 1363 391 1709 391 
Q 2188 391 2477 730 
Q 2766 1069 2766 1631 
L 2766 1759 
L 2194 1759 
z
M 3341 1997 
L 3341 0 
L 2766 0 
L 2766 531 
Q 2569 213 2275 61 
Q 1981 -91 1556 -91 
Q 1019 -91 701 211 
Q 384 513 384 1019 
Q 384 1609 779 1909 
Q 1175 2209 1959 2209 
L 2766 2209 
L 2766 2266 
Q 2766 2663 2505 2880 
Q 2244 3097 1772 3097 
Q 1472 3097 1187 3025 
Q 903 2953 641 2809 
L 641 3341 
Q 956 3463 1253 3523 
Q 1550 3584 1831 3584 
Q 2591 3584 2966 3190 
Q 3341 2797 3341 1997 
z
" transform="scale(0.015625)"/>
      <path id="DejaVuSans-63" d="M 3122 3366 
L 3122 2828 
Q 2878 2963 2633 3030 
Q 2388 3097 2138 3097 
Q 1578 3097 1268 2742 
Q 959 2388 959 1747 
Q 959 1106 1268 751 
Q 1578 397 2138 397 
Q 2388 397 2633 464 
Q 2878 531 3122 666 
L 3122 134 
Q 2881 22 2623 -34 
Q 2366 -91 2075 -91 
Q 1284 -91 818 406 
Q 353 903 353 1747 
Q 353 2603 823 3093 
Q 1294 3584 2113 3584 
Q 2378 3584 2631 3529 
Q 2884 3475 3122 3366 
z
" transform="scale(0.015625)"/>
      <path id="DejaVuSans-72" d="M 2631 2963 
Q 2534 3019 2420 3045 
Q 2306 3072 2169 3072 
Q 1681 3072 1420 2755 
Q 1159 2438 1159 1844 
L 1159 0 
L 581 0 
L 581 3500 
L 1159 3500 
L 1159 2956 
Q 1341 3275 1631 3429 
Q 1922 3584 2338 3584 
Q 2397 3584 2469 3576 
Q 2541 3569 2628 3553 
L 2631 2963 
z
" transform="scale(0.015625)"/>
      <path id="DejaVuSans-4c" d="M 628 4666 
L 1259 4666 
L 1259 531 
L 3531 531 
L 3531 0 
L 628 0 
L 628 4666 
z
" transform="scale(0.015625)"/>
      <path id="DejaVuSans-56" d="M 1831 0 
L 50 4666 
L 709 4666 
L 2188 738 
L 3669 4666 
L 4325 4666 
L 2547 0 
L 1831 0 
z
" transform="scale(0.015625)"/>
      <path id="DejaVuSans-47" d="M 3809 666 
L 3809 1919 
L 2778 1919 
L 2778 2438 
L 4434 2438 
L 4434 434 
Q 4069 175 3628 42 
Q 3188 -91 2688 -91 
Q 1594 -91 976 548 
Q 359 1188 359 2328 
Q 359 3472 976 4111 
Q 1594 4750 2688 4750 
Q 3144 4750 3555 4637 
Q 3966 4525 4313 4306 
L 4313 3634 
Q 3963 3931 3569 4081 
Q 3175 4231 2741 4231 
Q 1884 4231 1454 3753 
Q 1025 3275 1025 2328 
Q 1025 1384 1454 906 
Q 1884 428 2741 428 
Q 3075 428 3337 486 
Q 3600 544 3809 666 
z
" transform="scale(0.015625)"/>
     </defs>
     <use xlink:href="#DejaVuSans-43"/>
     <use xlink:href="#DejaVuSans-6f" x="69.824219"/>
     <use xlink:href="#DejaVuSans-6d" x="131.005859"/>
     <use xlink:href="#DejaVuSans-70" x="228.417969"/>
     <use xlink:href="#DejaVuSans-6c" x="291.894531"/>
     <use xlink:href="#DejaVuSans-65" x="319.677734"/>
     <use xlink:href="#DejaVuSans-74" x="381.201172"/>
     <use xlink:href="#DejaVuSans-65" x="420.410156"/>
     <use xlink:href="#DejaVuSans-6e" x="481.933594"/>
     <use xlink:href="#DejaVuSans-65" x="545.3125"/>
     <use xlink:href="#DejaVuSans-73" x="606.835938"/>
     <use xlink:href="#DejaVuSans-20" x="658.935547"/>
     <use xlink:href="#DejaVuSans-6f" x="690.722656"/>
     <use xlink:href="#DejaVuSans-66" x="751.904297"/>
     <use xlink:href="#DejaVuSans-20" x="787.109375"/>
     <use xlink:href="#DejaVuSans-44" x="818.896484"/>
     <use xlink:href="#DejaVuSans-69" x="895.898438"/>
     <use xlink:href="#DejaVuSans-73" x="923.681641"/>
     <use xlink:href="#DejaVuSans-74" x="975.78125"/>
     <use xlink:href="#DejaVuSans-61" x="1014.990234"/>
     <use xlink:href="#DejaVuSans-6e" x="1076.269531"/>
     <use xlink:href="#DejaVuSans-63" x="1139.648438"/>
     <use xlink:href="#DejaVuSans-65" x="1194.628906"/>
     <use xlink:href="#DejaVuSans-20" x="1256.152344"/>
     <use xlink:href="#DejaVuSans-66" x="1287.939453"/>
     <use xlink:href="#DejaVuSans-6f" x="1323.144531"/>
     <use xlink:href="#DejaVuSans-72" x="1384.326172"/>
     <use xlink:href="#DejaVuSans-20" x="1425.439453"/>
     <use xlink:href="#DejaVuSans-4c" x="1457.226562"/>
     <use xlink:href="#DejaVuSans-56" x="1501.939453"/>
     <use xlink:href="#DejaVuSans-47" x="1570.347656"/>
    </g>
   </g>
   <g id="legend_1">
    <g id="patch_27">
     <path d="M 59.040313 61.498 
L 165.480938 61.498 
Q 167.480938 61.498 167.480938 59.498 
L 167.480938 31.14175 
Q 167.480938 29.14175 165.480938 29.14175 
L 59.040313 29.14175 
Q 57.040313 29.14175 57.040313 31.14175 
L 57.040313 59.498 
Q 57.040313 61.498 59.040313 61.498 
z
" style="fill: #e5e5e5; opacity: 0.8; stroke: #cccccc; stroke-width: 0.5; stroke-linejoin: miter"/>
    </g>
    <g id="patch_28">
     <path d="M 61.040313 40.740187 
L 81.040312 40.740187 
L 81.040312 33.740187 
L 61.040313 33.740187 
z
" style="fill: #e24a33; fill-opacity: 0.5; stroke: #eeeeee; stroke-width: 0.5; stroke-linejoin: miter"/>
    </g>
    <g id="text_12">
     <!-- LVG -->
     <g transform="translate(89.040312 40.740187) scale(0.1 -0.1)">
      <use xlink:href="#DejaVuSans-4c"/>
      <use xlink:href="#DejaVuSans-56" x="44.712891"/>
      <use xlink:href="#DejaVuSans-47" x="113.121094"/>
     </g>
    </g>
    <g id="patch_29">
     <path d="M 61.040313 55.418312 
L 81.040312 55.418312 
L 81.040312 48.418312 
L 61.040313 48.418312 
z
" style="fill: #348abd; fill-opacity: 0.5; stroke: #eeeeee; stroke-width: 0.5; stroke-linejoin: miter"/>
    </g>
    <g id="text_13">
     <!-- Unique for LVG -->
     <g transform="translate(89.040312 55.418312) scale(0.1 -0.1)">
      <defs>
       <path id="DejaVuSans-55" d="M 556 4666 
L 1191 4666 
L 1191 1831 
Q 1191 1081 1462 751 
Q 1734 422 2344 422 
Q 2950 422 3222 751 
Q 3494 1081 3494 1831 
L 3494 4666 
L 4128 4666 
L 4128 1753 
Q 4128 841 3676 375 
Q 3225 -91 2344 -91 
Q 1459 -91 1007 375 
Q 556 841 556 1753 
L 556 4666 
z
" transform="scale(0.015625)"/>
       <path id="DejaVuSans-71" d="M 947 1747 
Q 947 1113 1208 752 
Q 1469 391 1925 391 
Q 2381 391 2643 752 
Q 2906 1113 2906 1747 
Q 2906 2381 2643 2742 
Q 2381 3103 1925 3103 
Q 1469 3103 1208 2742 
Q 947 2381 947 1747 
z
M 2906 525 
Q 2725 213 2448 61 
Q 2172 -91 1784 -91 
Q 1150 -91 751 415 
Q 353 922 353 1747 
Q 353 2572 751 3078 
Q 1150 3584 1784 3584 
Q 2172 3584 2448 3432 
Q 2725 3281 2906 2969 
L 2906 3500 
L 3481 3500 
L 3481 -1331 
L 2906 -1331 
L 2906 525 
z
" transform="scale(0.015625)"/>
      </defs>
      <use xlink:href="#DejaVuSans-55"/>
      <use xlink:href="#DejaVuSans-6e" x="73.193359"/>
      <use xlink:href="#DejaVuSans-69" x="136.572266"/>
      <use xlink:href="#DejaVuSans-71" x="164.355469"/>
      <use xlink:href="#DejaVuSans-75" x="227.832031"/>
      <use xlink:href="#DejaVuSans-65" x="291.210938"/>
      <use xlink:href="#DejaVuSans-20" x="352.734375"/>
      <use xlink:href="#DejaVuSans-66" x="384.521484"/>
      <use xlink:href="#DejaVuSans-6f" x="419.726562"/>
      <use xlink:href="#DejaVuSans-72" x="480.908203"/>
      <use xlink:href="#DejaVuSans-20" x="522.021484"/>
      <use xlink:href="#DejaVuSans-4c" x="553.808594"/>
      <use xlink:href="#DejaVuSans-56" x="598.521484"/>
      <use xlink:href="#DejaVuSans-47" x="666.929688"/>
     </g>
    </g>
   </g>
  </g>
  <g id="axes_2">
   <g id="patch_30">
    <path d="M 52.040313 218.18175 
L 358.940313 218.18175 
L 358.940313 129.98175 
L 52.040313 129.98175 
z
" style="fill: #e5e5e5"/>
   </g>
   <g id="matplotlib.axis_3">
    <g id="xtick_7">
     <g id="line2d_21">
      <path d="M 65.736445 218.18175 
L 65.736445 129.98175 
" clip-path="url(#p0201e37239)" style="fill: none; stroke: #ffffff; stroke-width: 0.8; stroke-linecap: square"/>
     </g>
     <g id="line2d_22">
      <g>
       <use xlink:href="#m9730b54e24" x="65.736445" y="218.18175" style="fill: #555555; stroke: #555555; stroke-width: 0.8"/>
      </g>
     </g>
     <g id="text_14">
      <!-- 0 -->
      <g style="fill: #555555" transform="translate(62.555195 232.780188) scale(0.1 -0.1)">
       <use xlink:href="#DejaVuSans-30"/>
      </g>
     </g>
    </g>
    <g id="xtick_8">
     <g id="line2d_23">
      <path d="M 116.509876 218.18175 
L 116.509876 129.98175 
" clip-path="url(#p0201e37239)" style="fill: none; stroke: #ffffff; stroke-width: 0.8; stroke-linecap: square"/>
     </g>
     <g id="line2d_24">
      <g>
       <use xlink:href="#m9730b54e24" x="116.509876" y="218.18175" style="fill: #555555; stroke: #555555; stroke-width: 0.8"/>
      </g>
     </g>
     <g id="text_15">
      <!-- 2 -->
      <g style="fill: #555555" transform="translate(113.328626 232.780188) scale(0.1 -0.1)">
       <use xlink:href="#DejaVuSans-32"/>
      </g>
     </g>
    </g>
    <g id="xtick_9">
     <g id="line2d_25">
      <path d="M 167.283306 218.18175 
L 167.283306 129.98175 
" clip-path="url(#p0201e37239)" style="fill: none; stroke: #ffffff; stroke-width: 0.8; stroke-linecap: square"/>
     </g>
     <g id="line2d_26">
      <g>
       <use xlink:href="#m9730b54e24" x="167.283306" y="218.18175" style="fill: #555555; stroke: #555555; stroke-width: 0.8"/>
      </g>
     </g>
     <g id="text_16">
      <!-- 4 -->
      <g style="fill: #555555" transform="translate(164.102056 232.780188) scale(0.1 -0.1)">
       <use xlink:href="#DejaVuSans-34"/>
      </g>
     </g>
    </g>
    <g id="xtick_10">
     <g id="line2d_27">
      <path d="M 218.056737 218.18175 
L 218.056737 129.98175 
" clip-path="url(#p0201e37239)" style="fill: none; stroke: #ffffff; stroke-width: 0.8; stroke-linecap: square"/>
     </g>
     <g id="line2d_28">
      <g>
       <use xlink:href="#m9730b54e24" x="218.056737" y="218.18175" style="fill: #555555; stroke: #555555; stroke-width: 0.8"/>
      </g>
     </g>
     <g id="text_17">
      <!-- 6 -->
      <g style="fill: #555555" transform="translate(214.875487 232.780188) scale(0.1 -0.1)">
       <use xlink:href="#DejaVuSans-36"/>
      </g>
     </g>
    </g>
    <g id="xtick_11">
     <g id="line2d_29">
      <path d="M 268.830167 218.18175 
L 268.830167 129.98175 
" clip-path="url(#p0201e37239)" style="fill: none; stroke: #ffffff; stroke-width: 0.8; stroke-linecap: square"/>
     </g>
     <g id="line2d_30">
      <g>
       <use xlink:href="#m9730b54e24" x="268.830167" y="218.18175" style="fill: #555555; stroke: #555555; stroke-width: 0.8"/>
      </g>
     </g>
     <g id="text_18">
      <!-- 8 -->
      <g style="fill: #555555" transform="translate(265.648917 232.780188) scale(0.1 -0.1)">
       <use xlink:href="#DejaVuSans-38"/>
      </g>
     </g>
    </g>
    <g id="xtick_12">
     <g id="line2d_31">
      <path d="M 319.603597 218.18175 
L 319.603597 129.98175 
" clip-path="url(#p0201e37239)" style="fill: none; stroke: #ffffff; stroke-width: 0.8; stroke-linecap: square"/>
     </g>
     <g id="line2d_32">
      <g>
       <use xlink:href="#m9730b54e24" x="319.603597" y="218.18175" style="fill: #555555; stroke: #555555; stroke-width: 0.8"/>
      </g>
     </g>
     <g id="text_19">
      <!-- 10 -->
      <g style="fill: #555555" transform="translate(313.241097 232.780188) scale(0.1 -0.1)">
       <use xlink:href="#DejaVuSans-31"/>
       <use xlink:href="#DejaVuSans-30" x="63.623047"/>
      </g>
     </g>
    </g>
    <g id="text_20">
     <!-- Distance [Mpc] -->
     <g style="fill: #555555" transform="translate(160.381563 247.978) scale(0.12 -0.12)">
      <defs>
       <path id="DejaVuSans-5b" d="M 550 4863 
L 1875 4863 
L 1875 4416 
L 1125 4416 
L 1125 -397 
L 1875 -397 
L 1875 -844 
L 550 -844 
L 550 4863 
z
" transform="scale(0.015625)"/>
       <path id="DejaVuSans-4d" d="M 628 4666 
L 1569 4666 
L 2759 1491 
L 3956 4666 
L 4897 4666 
L 4897 0 
L 4281 0 
L 4281 4097 
L 3078 897 
L 2444 897 
L 1241 4097 
L 1241 0 
L 628 0 
L 628 4666 
z
" transform="scale(0.015625)"/>
       <path id="DejaVuSans-5d" d="M 1947 4863 
L 1947 -844 
L 622 -844 
L 622 -397 
L 1369 -397 
L 1369 4416 
L 622 4416 
L 622 4863 
L 1947 4863 
z
" transform="scale(0.015625)"/>
      </defs>
      <use xlink:href="#DejaVuSans-44"/>
      <use xlink:href="#DejaVuSans-69" x="77.001953"/>
      <use xlink:href="#DejaVuSans-73" x="104.785156"/>
      <use xlink:href="#DejaVuSans-74" x="156.884766"/>
      <use xlink:href="#DejaVuSans-61" x="196.09375"/>
      <use xlink:href="#DejaVuSans-6e" x="257.373047"/>
      <use xlink:href="#DejaVuSans-63" x="320.751953"/>
      <use xlink:href="#DejaVuSans-65" x="375.732422"/>
      <use xlink:href="#DejaVuSans-20" x="437.255859"/>
      <use xlink:href="#DejaVuSans-5b" x="469.042969"/>
      <use xlink:href="#DejaVuSans-4d" x="508.056641"/>
      <use xlink:href="#DejaVuSans-70" x="594.335938"/>
      <use xlink:href="#DejaVuSans-63" x="657.8125"/>
      <use xlink:href="#DejaVuSans-5d" x="712.792969"/>
     </g>
    </g>
   </g>
   <g id="matplotlib.axis_4">
    <g id="ytick_4">
     <g id="line2d_33">
      <path d="M 52.040313 214.172659 
L 358.940313 214.172659 
" clip-path="url(#p0201e37239)" style="fill: none; stroke: #ffffff; stroke-width: 0.8; stroke-linecap: square"/>
     </g>
     <g id="line2d_34">
      <g>
       <use xlink:href="#mac770e30c9" x="52.040313" y="214.172659" style="fill: #555555; stroke: #555555; stroke-width: 0.8"/>
      </g>
     </g>
     <g id="text_21">
      <!-- 65% -->
      <g style="fill: #555555" transform="translate(22.81375 217.971878) scale(0.1 -0.1)">
       <defs>
        <path id="DejaVuSans-35" d="M 691 4666 
L 3169 4666 
L 3169 4134 
L 1269 4134 
L 1269 2991 
Q 1406 3038 1543 3061 
Q 1681 3084 1819 3084 
Q 2600 3084 3056 2656 
Q 3513 2228 3513 1497 
Q 3513 744 3044 326 
Q 2575 -91 1722 -91 
Q 1428 -91 1123 -41 
Q 819 9 494 109 
L 494 744 
Q 775 591 1075 516 
Q 1375 441 1709 441 
Q 2250 441 2565 725 
Q 2881 1009 2881 1497 
Q 2881 1984 2565 2268 
Q 2250 2553 1709 2553 
Q 1456 2553 1204 2497 
Q 953 2441 691 2322 
L 691 4666 
z
" transform="scale(0.015625)"/>
        <path id="DejaVuSans-25" d="M 4653 2053 
Q 4381 2053 4226 1822 
Q 4072 1591 4072 1178 
Q 4072 772 4226 539 
Q 4381 306 4653 306 
Q 4919 306 5073 539 
Q 5228 772 5228 1178 
Q 5228 1588 5073 1820 
Q 4919 2053 4653 2053 
z
M 4653 2450 
Q 5147 2450 5437 2106 
Q 5728 1763 5728 1178 
Q 5728 594 5436 251 
Q 5144 -91 4653 -91 
Q 4153 -91 3862 251 
Q 3572 594 3572 1178 
Q 3572 1766 3864 2108 
Q 4156 2450 4653 2450 
z
M 1428 4353 
Q 1159 4353 1004 4120 
Q 850 3888 850 3481 
Q 850 3069 1003 2837 
Q 1156 2606 1428 2606 
Q 1700 2606 1854 2837 
Q 2009 3069 2009 3481 
Q 2009 3884 1853 4118 
Q 1697 4353 1428 4353 
z
M 4250 4750 
L 4750 4750 
L 1831 -91 
L 1331 -91 
L 4250 4750 
z
M 1428 4750 
Q 1922 4750 2215 4408 
Q 2509 4066 2509 3481 
Q 2509 2891 2217 2550 
Q 1925 2209 1428 2209 
Q 931 2209 642 2551 
Q 353 2894 353 3481 
Q 353 4063 643 4406 
Q 934 4750 1428 4750 
z
" transform="scale(0.015625)"/>
       </defs>
       <use xlink:href="#DejaVuSans-36"/>
       <use xlink:href="#DejaVuSans-35" x="63.623047"/>
       <use xlink:href="#DejaVuSans-25" x="127.246094"/>
      </g>
     </g>
    </g>
    <g id="ytick_5">
     <g id="line2d_35">
      <path d="M 52.040313 194.525459 
L 358.940313 194.525459 
" clip-path="url(#p0201e37239)" style="fill: none; stroke: #ffffff; stroke-width: 0.8; stroke-linecap: square"/>
     </g>
     <g id="line2d_36">
      <g>
       <use xlink:href="#mac770e30c9" x="52.040313" y="194.525459" style="fill: #555555; stroke: #555555; stroke-width: 0.8"/>
      </g>
     </g>
     <g id="text_22">
      <!-- 70% -->
      <g style="fill: #555555" transform="translate(22.81375 198.324677) scale(0.1 -0.1)">
       <defs>
        <path id="DejaVuSans-37" d="M 525 4666 
L 3525 4666 
L 3525 4397 
L 1831 0 
L 1172 0 
L 2766 4134 
L 525 4134 
L 525 4666 
z
" transform="scale(0.015625)"/>
       </defs>
       <use xlink:href="#DejaVuSans-37"/>
       <use xlink:href="#DejaVuSans-30" x="63.623047"/>
       <use xlink:href="#DejaVuSans-25" x="127.246094"/>
      </g>
     </g>
    </g>
    <g id="ytick_6">
     <g id="line2d_37">
      <path d="M 52.040313 174.878258 
L 358.940313 174.878258 
" clip-path="url(#p0201e37239)" style="fill: none; stroke: #ffffff; stroke-width: 0.8; stroke-linecap: square"/>
     </g>
     <g id="line2d_38">
      <g>
       <use xlink:href="#mac770e30c9" x="52.040313" y="174.878258" style="fill: #555555; stroke: #555555; stroke-width: 0.8"/>
      </g>
     </g>
     <g id="text_23">
      <!-- 75% -->
      <g style="fill: #555555" transform="translate(22.81375 178.677477) scale(0.1 -0.1)">
       <use xlink:href="#DejaVuSans-37"/>
       <use xlink:href="#DejaVuSans-35" x="63.623047"/>
       <use xlink:href="#DejaVuSans-25" x="127.246094"/>
      </g>
     </g>
    </g>
    <g id="ytick_7">
     <g id="line2d_39">
      <path d="M 52.040313 155.231058 
L 358.940313 155.231058 
" clip-path="url(#p0201e37239)" style="fill: none; stroke: #ffffff; stroke-width: 0.8; stroke-linecap: square"/>
     </g>
     <g id="line2d_40">
      <g>
       <use xlink:href="#mac770e30c9" x="52.040313" y="155.231058" style="fill: #555555; stroke: #555555; stroke-width: 0.8"/>
      </g>
     </g>
     <g id="text_24">
      <!-- 80% -->
      <g style="fill: #555555" transform="translate(22.81375 159.030276) scale(0.1 -0.1)">
       <use xlink:href="#DejaVuSans-38"/>
       <use xlink:href="#DejaVuSans-30" x="63.623047"/>
       <use xlink:href="#DejaVuSans-25" x="127.246094"/>
      </g>
     </g>
    </g>
    <g id="ytick_8">
     <g id="line2d_41">
      <path d="M 52.040313 135.583857 
L 358.940313 135.583857 
" clip-path="url(#p0201e37239)" style="fill: none; stroke: #ffffff; stroke-width: 0.8; stroke-linecap: square"/>
     </g>
     <g id="line2d_42">
      <g>
       <use xlink:href="#mac770e30c9" x="52.040313" y="135.583857" style="fill: #555555; stroke: #555555; stroke-width: 0.8"/>
      </g>
     </g>
     <g id="text_25">
      <!-- 85% -->
      <g style="fill: #555555" transform="translate(22.81375 139.383076) scale(0.1 -0.1)">
       <use xlink:href="#DejaVuSans-38"/>
       <use xlink:href="#DejaVuSans-35" x="63.623047"/>
       <use xlink:href="#DejaVuSans-25" x="127.246094"/>
      </g>
     </g>
    </g>
    <g id="text_26">
     <!-- Completeness % -->
     <g style="fill: #555555" transform="translate(16.318125 224.352375) rotate(-90) scale(0.12 -0.12)">
      <use xlink:href="#DejaVuSans-43"/>
      <use xlink:href="#DejaVuSans-6f" x="69.824219"/>
      <use xlink:href="#DejaVuSans-6d" x="131.005859"/>
      <use xlink:href="#DejaVuSans-70" x="228.417969"/>
      <use xlink:href="#DejaVuSans-6c" x="291.894531"/>
      <use xlink:href="#DejaVuSans-65" x="319.677734"/>
      <use xlink:href="#DejaVuSans-74" x="381.201172"/>
      <use xlink:href="#DejaVuSans-65" x="420.410156"/>
      <use xlink:href="#DejaVuSans-6e" x="481.933594"/>
      <use xlink:href="#DejaVuSans-65" x="545.3125"/>
      <use xlink:href="#DejaVuSans-73" x="606.835938"/>
      <use xlink:href="#DejaVuSans-73" x="658.935547"/>
      <use xlink:href="#DejaVuSans-20" x="711.035156"/>
      <use xlink:href="#DejaVuSans-25" x="742.822266"/>
     </g>
    </g>
   </g>
   <g id="PolyCollection_1"/>
   <g id="line2d_43">
    <path d="M 93.890313 207.623592 
L 121.790313 214.172659 
L 149.690313 193.689408 
L 177.590313 133.990841 
L 205.490313 161.106856 
L 233.390313 176.261864 
L 261.290313 150.983014 
L 289.190313 201.669895 
L 317.090313 152.500173 
L 344.990313 143.3024 
" clip-path="url(#p0201e37239)" style="fill: none; stroke: #e24a33; stroke-width: 1.5; stroke-linecap: square"/>
    <defs>
     <path id="mc1010c8e6d" d="M 0 3 
C 0.795609 3 1.55874 2.683901 2.12132 2.12132 
C 2.683901 1.55874 3 0.795609 3 0 
C 3 -0.795609 2.683901 -1.55874 2.12132 -2.12132 
C 1.55874 -2.683901 0.795609 -3 0 -3 
C -0.795609 -3 -1.55874 -2.683901 -2.12132 -2.12132 
C -2.683901 -1.55874 -3 -0.795609 -3 0 
C -3 0.795609 -2.683901 1.55874 -2.12132 2.12132 
C -1.55874 2.683901 -0.795609 3 0 3 
z
" style="stroke: #ffffff; stroke-width: 0.75"/>
    </defs>
    <g clip-path="url(#p0201e37239)">
     <use xlink:href="#mc1010c8e6d" x="93.890313" y="207.623592" style="fill: #e24a33; stroke: #ffffff; stroke-width: 0.75"/>
     <use xlink:href="#mc1010c8e6d" x="121.790313" y="214.172659" style="fill: #e24a33; stroke: #ffffff; stroke-width: 0.75"/>
     <use xlink:href="#mc1010c8e6d" x="149.690313" y="193.689408" style="fill: #e24a33; stroke: #ffffff; stroke-width: 0.75"/>
     <use xlink:href="#mc1010c8e6d" x="177.590313" y="133.990841" style="fill: #e24a33; stroke: #ffffff; stroke-width: 0.75"/>
     <use xlink:href="#mc1010c8e6d" x="205.490313" y="161.106856" style="fill: #e24a33; stroke: #ffffff; stroke-width: 0.75"/>
     <use xlink:href="#mc1010c8e6d" x="233.390313" y="176.261864" style="fill: #e24a33; stroke: #ffffff; stroke-width: 0.75"/>
     <use xlink:href="#mc1010c8e6d" x="261.290313" y="150.983014" style="fill: #e24a33; stroke: #ffffff; stroke-width: 0.75"/>
     <use xlink:href="#mc1010c8e6d" x="289.190313" y="201.669895" style="fill: #e24a33; stroke: #ffffff; stroke-width: 0.75"/>
     <use xlink:href="#mc1010c8e6d" x="317.090313" y="152.500173" style="fill: #e24a33; stroke: #ffffff; stroke-width: 0.75"/>
     <use xlink:href="#mc1010c8e6d" x="344.990313" y="143.3024" style="fill: #e24a33; stroke: #ffffff; stroke-width: 0.75"/>
    </g>
   </g>
   <g id="patch_31">
    <path d="M 52.040313 218.18175 
L 52.040313 129.98175 
" style="fill: none; stroke: #ffffff; stroke-linejoin: miter; stroke-linecap: square"/>
   </g>
   <g id="patch_32">
    <path d="M 358.940313 218.18175 
L 358.940313 129.98175 
" style="fill: none; stroke: #ffffff; stroke-linejoin: miter; stroke-linecap: square"/>
   </g>
   <g id="patch_33">
    <path d="M 52.040313 218.18175 
L 358.940313 218.18175 
" style="fill: none; stroke: #ffffff; stroke-linejoin: miter; stroke-linecap: square"/>
   </g>
   <g id="patch_34">
    <path d="M 52.040313 129.98175 
L 358.940313 129.98175 
" style="fill: none; stroke: #ffffff; stroke-linejoin: miter; stroke-linecap: square"/>
   </g>
  </g>
 </g>
 <defs>
  <clipPath id="pf2d7dfa8e0">
   <rect x="52.040313" y="24.14175" width="306.9" height="88.2"/>
  </clipPath>
  <clipPath id="p0201e37239">
   <rect x="52.040313" y="129.98175" width="306.9" height="88.2"/>
  </clipPath>
 </defs>
</svg>
