<?xml version="1.0" encoding="utf-8" standalone="no"?>
<!DOCTYPE svg PUBLIC "-//W3C//DTD SVG 1.1//EN"
  "http://www.w3.org/Graphics/SVG/1.1/DTD/svg11.dtd">
<svg xmlns:xlink="http://www.w3.org/1999/xlink" width="356.6625pt" height="247.118125pt" viewBox="0 0 356.6625 247.118125" xmlns="http://www.w3.org/2000/svg" version="1.1">
 <metadata>
  <rdf:RDF xmlns:dc="http://purl.org/dc/elements/1.1/" xmlns:cc="http://creativecommons.org/ns#" xmlns:rdf="http://www.w3.org/1999/02/22-rdf-syntax-ns#">
   <cc:Work>
    <dc:type rdf:resource="http://purl.org/dc/dcmitype/StillImage"/>
    <dc:date>2024-10-27T18:40:42.460947</dc:date>
    <dc:format>image/svg+xml</dc:format>
    <dc:creator>
     <cc:Agent>
      <dc:title>Matplotlib v3.8.4, https://matplotlib.org/</dc:title>
     </cc:Agent>
    </dc:creator>
   </cc:Work>
  </rdf:RDF>
 </metadata>
 <defs>
  <style type="text/css">*{stroke-linejoin: round; stroke-linecap: butt}</style>
 </defs>
 <g id="figure_1">
  <g id="patch_1">
   <path d="M 0 247.118125 
L 356.6625 247.118125 
L 356.6625 0 
L 0 0 
z
" style="fill: #ffffff"/>
  </g>
  <g id="axes_1">
   <g id="patch_2">
    <path d="M 42.5625 201.24 
L 349.4625 201.24 
L 349.4625 7.2 
L 42.5625 7.2 
z
" style="fill: #e5e5e5"/>
   </g>
   <g id="matplotlib.axis_1">
    <g id="xtick_1">
     <g id="line2d_1">
      <path d="M 56.404165 201.24 
L 56.404165 7.2 
" clip-path="url(#paad27e8de6)" style="fill: none; stroke: #ffffff; stroke-width: 0.8; stroke-linecap: square"/>
     </g>
     <g id="line2d_2">
      <defs>
       <path id="md6a155e873" d="M 0 0 
L 0 3.5 
" style="stroke: #555555; stroke-width: 0.8"/>
      </defs>
      <g>
       <use xlink:href="#md6a155e873" x="56.404165" y="201.24" style="fill: #555555; stroke: #555555; stroke-width: 0.8"/>
      </g>
     </g>
     <g id="text_1">
      <!-- 0.0 -->
      <g style="fill: #555555" transform="translate(48.452603 215.838437) scale(0.1 -0.1)">
       <defs>
        <path id="DejaVuSans-30" d="M 2034 4250 
Q 1547 4250 1301 3770 
Q 1056 3291 1056 2328 
Q 1056 1369 1301 889 
Q 1547 409 2034 409 
Q 2525 409 2770 889 
Q 3016 1369 3016 2328 
Q 3016 3291 2770 3770 
Q 2525 4250 2034 4250 
z
M 2034 4750 
Q 2819 4750 3233 4129 
Q 3647 3509 3647 2328 
Q 3647 1150 3233 529 
Q 2819 -91 2034 -91 
Q 1250 -91 836 529 
Q 422 1150 422 2328 
Q 422 3509 836 4129 
Q 1250 4750 2034 4750 
z
" transform="scale(0.015625)"/>
        <path id="DejaVuSans-2e" d="M 684 794 
L 1344 794 
L 1344 0 
L 684 0 
L 684 794 
z
" transform="scale(0.015625)"/>
       </defs>
       <use xlink:href="#DejaVuSans-30"/>
       <use xlink:href="#DejaVuSans-2e" x="63.623047"/>
       <use xlink:href="#DejaVuSans-30" x="95.410156"/>
      </g>
     </g>
    </g>
    <g id="xtick_2">
     <g id="line2d_3">
      <path d="M 105.318282 201.24 
L 105.318282 7.2 
" clip-path="url(#paad27e8de6)" style="fill: none; stroke: #ffffff; stroke-width: 0.8; stroke-linecap: square"/>
     </g>
     <g id="line2d_4">
      <g>
       <use xlink:href="#md6a155e873" x="105.318282" y="201.24" style="fill: #555555; stroke: #555555; stroke-width: 0.8"/>
      </g>
     </g>
     <g id="text_2">
      <!-- 0.5 -->
      <g style="fill: #555555" transform="translate(97.366719 215.838437) scale(0.1 -0.1)">
       <defs>
        <path id="DejaVuSans-35" d="M 691 4666 
L 3169 4666 
L 3169 4134 
L 1269 4134 
L 1269 2991 
Q 1406 3038 1543 3061 
Q 1681 3084 1819 3084 
Q 2600 3084 3056 2656 
Q 3513 2228 3513 1497 
Q 3513 744 3044 326 
Q 2575 -91 1722 -91 
Q 1428 -91 1123 -41 
Q 819 9 494 109 
L 494 744 
Q 775 591 1075 516 
Q 1375 441 1709 441 
Q 2250 441 2565 725 
Q 2881 1009 2881 1497 
Q 2881 1984 2565 2268 
Q 2250 2553 1709 2553 
Q 1456 2553 1204 2497 
Q 953 2441 691 2322 
L 691 4666 
z
" transform="scale(0.015625)"/>
       </defs>
       <use xlink:href="#DejaVuSans-30"/>
       <use xlink:href="#DejaVuSans-2e" x="63.623047"/>
       <use xlink:href="#DejaVuSans-35" x="95.410156"/>
      </g>
     </g>
    </g>
    <g id="xtick_3">
     <g id="line2d_5">
      <path d="M 154.232399 201.24 
L 154.232399 7.2 
" clip-path="url(#paad27e8de6)" style="fill: none; stroke: #ffffff; stroke-width: 0.8; stroke-linecap: square"/>
     </g>
     <g id="line2d_6">
      <g>
       <use xlink:href="#md6a155e873" x="154.232399" y="201.24" style="fill: #555555; stroke: #555555; stroke-width: 0.8"/>
      </g>
     </g>
     <g id="text_3">
      <!-- 1.0 -->
      <g style="fill: #555555" transform="translate(146.280836 215.838437) scale(0.1 -0.1)">
       <defs>
        <path id="DejaVuSans-31" d="M 794 531 
L 1825 531 
L 1825 4091 
L 703 3866 
L 703 4441 
L 1819 4666 
L 2450 4666 
L 2450 531 
L 3481 531 
L 3481 0 
L 794 0 
L 794 531 
z
" transform="scale(0.015625)"/>
       </defs>
       <use xlink:href="#DejaVuSans-31"/>
       <use xlink:href="#DejaVuSans-2e" x="63.623047"/>
       <use xlink:href="#DejaVuSans-30" x="95.410156"/>
      </g>
     </g>
    </g>
    <g id="xtick_4">
     <g id="line2d_7">
      <path d="M 203.146515 201.24 
L 203.146515 7.2 
" clip-path="url(#paad27e8de6)" style="fill: none; stroke: #ffffff; stroke-width: 0.8; stroke-linecap: square"/>
     </g>
     <g id="line2d_8">
      <g>
       <use xlink:href="#md6a155e873" x="203.146515" y="201.24" style="fill: #555555; stroke: #555555; stroke-width: 0.8"/>
      </g>
     </g>
     <g id="text_4">
      <!-- 1.5 -->
      <g style="fill: #555555" transform="translate(195.194953 215.838437) scale(0.1 -0.1)">
       <use xlink:href="#DejaVuSans-31"/>
       <use xlink:href="#DejaVuSans-2e" x="63.623047"/>
       <use xlink:href="#DejaVuSans-35" x="95.410156"/>
      </g>
     </g>
    </g>
    <g id="xtick_5">
     <g id="line2d_9">
      <path d="M 252.060632 201.24 
L 252.060632 7.2 
" clip-path="url(#paad27e8de6)" style="fill: none; stroke: #ffffff; stroke-width: 0.8; stroke-linecap: square"/>
     </g>
     <g id="line2d_10">
      <g>
       <use xlink:href="#md6a155e873" x="252.060632" y="201.24" style="fill: #555555; stroke: #555555; stroke-width: 0.8"/>
      </g>
     </g>
     <g id="text_5">
      <!-- 2.0 -->
      <g style="fill: #555555" transform="translate(244.10907 215.838437) scale(0.1 -0.1)">
       <defs>
        <path id="DejaVuSans-32" d="M 1228 531 
L 3431 531 
L 3431 0 
L 469 0 
L 469 531 
Q 828 903 1448 1529 
Q 2069 2156 2228 2338 
Q 2531 2678 2651 2914 
Q 2772 3150 2772 3378 
Q 2772 3750 2511 3984 
Q 2250 4219 1831 4219 
Q 1534 4219 1204 4116 
Q 875 4013 500 3803 
L 500 4441 
Q 881 4594 1212 4672 
Q 1544 4750 1819 4750 
Q 2544 4750 2975 4387 
Q 3406 4025 3406 3419 
Q 3406 3131 3298 2873 
Q 3191 2616 2906 2266 
Q 2828 2175 2409 1742 
Q 1991 1309 1228 531 
z
" transform="scale(0.015625)"/>
       </defs>
       <use xlink:href="#DejaVuSans-32"/>
       <use xlink:href="#DejaVuSans-2e" x="63.623047"/>
       <use xlink:href="#DejaVuSans-30" x="95.410156"/>
      </g>
     </g>
    </g>
    <g id="xtick_6">
     <g id="line2d_11">
      <path d="M 300.974749 201.24 
L 300.974749 7.2 
" clip-path="url(#paad27e8de6)" style="fill: none; stroke: #ffffff; stroke-width: 0.8; stroke-linecap: square"/>
     </g>
     <g id="line2d_12">
      <g>
       <use xlink:href="#md6a155e873" x="300.974749" y="201.24" style="fill: #555555; stroke: #555555; stroke-width: 0.8"/>
      </g>
     </g>
     <g id="text_6">
      <!-- 2.5 -->
      <g style="fill: #555555" transform="translate(293.023186 215.838437) scale(0.1 -0.1)">
       <use xlink:href="#DejaVuSans-32"/>
       <use xlink:href="#DejaVuSans-2e" x="63.623047"/>
       <use xlink:href="#DejaVuSans-35" x="95.410156"/>
      </g>
     </g>
    </g>
    <g id="text_7">
     <!-- $SFR_{LVG}$ [$\mathrm{\frac{M_{\odot}}{yr}}$] -->
     <g style="fill: #555555" transform="translate(162.3525 234.878125) scale(0.12 -0.12)">
      <defs>
       <path id="DejaVuSans-Oblique-53" d="M 3859 4513 
L 3738 3897 
Q 3422 4066 3111 4152 
Q 2800 4238 2509 4238 
Q 1944 4238 1609 3991 
Q 1275 3744 1275 3334 
Q 1275 3109 1398 2989 
Q 1522 2869 2034 2731 
L 2413 2638 
Q 3053 2472 3303 2217 
Q 3553 1963 3553 1503 
Q 3553 797 2998 353 
Q 2444 -91 1538 -91 
Q 1166 -91 791 -17 
Q 416 56 38 206 
L 166 856 
Q 513 641 861 531 
Q 1209 422 1556 422 
Q 2147 422 2503 684 
Q 2859 947 2859 1369 
Q 2859 1650 2717 1795 
Q 2575 1941 2106 2059 
L 1728 2156 
Q 1081 2325 845 2545 
Q 609 2766 609 3163 
Q 609 3859 1145 4304 
Q 1681 4750 2541 4750 
Q 2875 4750 3203 4690 
Q 3531 4631 3859 4513 
z
" transform="scale(0.015625)"/>
       <path id="DejaVuSans-Oblique-46" d="M 1081 4666 
L 3756 4666 
L 3653 4134 
L 1606 4134 
L 1338 2759 
L 3188 2759 
L 3084 2228 
L 1234 2228 
L 800 0 
L 172 0 
L 1081 4666 
z
" transform="scale(0.015625)"/>
       <path id="DejaVuSans-Oblique-52" d="M 1613 4147 
L 1294 2491 
L 2106 2491 
Q 2584 2491 2879 2755 
Q 3175 3019 3175 3444 
Q 3175 3784 2976 3965 
Q 2778 4147 2406 4147 
L 1613 4147 
z
M 2772 2241 
Q 2972 2194 3105 2009 
Q 3238 1825 3413 1275 
L 3809 0 
L 3144 0 
L 2778 1197 
Q 2638 1659 2453 1815 
Q 2269 1972 1888 1972 
L 1191 1972 
L 806 0 
L 172 0 
L 1081 4666 
L 2503 4666 
Q 3150 4666 3495 4373 
Q 3841 4081 3841 3531 
Q 3841 3044 3547 2687 
Q 3253 2331 2772 2241 
z
" transform="scale(0.015625)"/>
       <path id="DejaVuSans-Oblique-4c" d="M 1075 4666 
L 1709 4666 
L 909 525 
L 3181 525 
L 3078 0 
L 172 0 
L 1075 4666 
z
" transform="scale(0.015625)"/>
       <path id="DejaVuSans-Oblique-56" d="M 1319 0 
L 500 4666 
L 1119 4666 
L 1797 653 
L 4063 4666 
L 4750 4666 
L 2053 0 
L 1319 0 
z
" transform="scale(0.015625)"/>
       <path id="DejaVuSans-Oblique-47" d="M 3494 697 
L 3738 1919 
L 2700 1919 
L 2797 2438 
L 4453 2438 
L 4050 384 
Q 3634 156 3143 32 
Q 2653 -91 2156 -91 
Q 1278 -91 783 396 
Q 288 884 288 1753 
Q 288 2475 589 3126 
Q 891 3778 1422 4213 
Q 1756 4484 2153 4617 
Q 2550 4750 3034 4750 
Q 3472 4750 3873 4639 
Q 4275 4528 4641 4306 
L 4513 3634 
Q 4231 3928 3853 4083 
Q 3475 4238 3047 4238 
Q 2550 4238 2172 4048 
Q 1794 3859 1497 3463 
Q 1244 3125 1098 2667 
Q 953 2209 953 1734 
Q 953 1081 1287 751 
Q 1622 422 2284 422 
Q 2616 422 2925 492 
Q 3234 563 3494 697 
z
" transform="scale(0.015625)"/>
       <path id="DejaVuSans-20" transform="scale(0.015625)"/>
       <path id="DejaVuSans-5b" d="M 550 4863 
L 1875 4863 
L 1875 4416 
L 1125 4416 
L 1125 -397 
L 1875 -397 
L 1875 -844 
L 550 -844 
L 550 4863 
z
" transform="scale(0.015625)"/>
       <path id="DejaVuSans-4d" d="M 628 4666 
L 1569 4666 
L 2759 1491 
L 3956 4666 
L 4897 4666 
L 4897 0 
L 4281 0 
L 4281 4097 
L 3078 897 
L 2444 897 
L 1241 4097 
L 1241 0 
L 628 0 
L 628 4666 
z
" transform="scale(0.015625)"/>
       <path id="DejaVuSans-2299" d="M 2350 2403 
L 3013 2403 
L 3013 1609 
L 2350 1609 
L 2350 2403 
z
M 3306 3522 
Q 3016 3644 2681 3644 
Q 2347 3644 2056 3522 
Q 1769 3400 1531 3163 
Q 1291 2922 1172 2634 
Q 1053 2347 1053 2006 
Q 1053 1675 1172 1387 
Q 1291 1100 1531 859 
Q 1769 622 2056 500 
Q 2347 378 2681 378 
Q 3016 378 3306 500 
Q 3594 622 3831 859 
Q 4072 1100 4190 1387 
Q 4309 1675 4309 2006 
Q 4309 2347 4190 2634 
Q 4072 2922 3831 3163 
Q 3594 3400 3306 3522 
z
M 1878 3956 
Q 2250 4113 2681 4113 
Q 3113 4113 3484 3956 
Q 3856 3800 4163 3494 
Q 4472 3184 4625 2813 
Q 4778 2444 4778 2006 
Q 4778 1578 4625 1206 
Q 4472 838 4163 528 
Q 3856 222 3484 65 
Q 3113 -91 2681 -91 
Q 2250 -91 1878 65 
Q 1506 222 1200 528 
Q 891 838 738 1206 
Q 584 1578 584 2006 
Q 584 2444 738 2813 
Q 891 3184 1200 3494 
Q 1506 3800 1878 3956 
z
" transform="scale(0.015625)"/>
       <path id="DejaVuSans-79" d="M 2059 -325 
Q 1816 -950 1584 -1140 
Q 1353 -1331 966 -1331 
L 506 -1331 
L 506 -850 
L 844 -850 
Q 1081 -850 1212 -737 
Q 1344 -625 1503 -206 
L 1606 56 
L 191 3500 
L 800 3500 
L 1894 763 
L 2988 3500 
L 3597 3500 
L 2059 -325 
z
" transform="scale(0.015625)"/>
       <path id="DejaVuSans-72" d="M 2631 2963 
Q 2534 3019 2420 3045 
Q 2306 3072 2169 3072 
Q 1681 3072 1420 2755 
Q 1159 2438 1159 1844 
L 1159 0 
L 581 0 
L 581 3500 
L 1159 3500 
L 1159 2956 
Q 1341 3275 1631 3429 
Q 1922 3584 2338 3584 
Q 2397 3584 2469 3576 
Q 2541 3569 2628 3553 
L 2631 2963 
z
" transform="scale(0.015625)"/>
       <path id="DejaVuSans-5d" d="M 1947 4863 
L 1947 -844 
L 622 -844 
L 622 -397 
L 1369 -397 
L 1369 4416 
L 622 4416 
L 622 4863 
L 1947 4863 
z
" transform="scale(0.015625)"/>
      </defs>
      <use xlink:href="#DejaVuSans-Oblique-53" transform="translate(0 0.987656)"/>
      <use xlink:href="#DejaVuSans-Oblique-46" transform="translate(63.476562 0.987656)"/>
      <use xlink:href="#DejaVuSans-Oblique-52" transform="translate(120.996094 0.987656)"/>
      <use xlink:href="#DejaVuSans-Oblique-4c" transform="translate(190.478516 -15.418594) scale(0.7)"/>
      <use xlink:href="#DejaVuSans-Oblique-56" transform="translate(229.477539 -15.418594) scale(0.7)"/>
      <use xlink:href="#DejaVuSans-Oblique-47" transform="translate(277.363281 -15.418594) scale(0.7)"/>
      <use xlink:href="#DejaVuSans-20" transform="translate(334.34082 0.987656)"/>
      <use xlink:href="#DejaVuSans-5b" transform="translate(366.12793 0.987656)"/>
      <use xlink:href="#DejaVuSans-4d" transform="translate(405.141602 56.965625) scale(0.7)"/>
      <use xlink:href="#DejaVuSans-2299" transform="translate(466.207031 45.48125) scale(0.49)"/>
      <use xlink:href="#DejaVuSans-79" transform="translate(422.141602 -25.665469) scale(0.7)"/>
      <use xlink:href="#DejaVuSans-72" transform="translate(463.567383 -25.665469) scale(0.7)"/>
      <use xlink:href="#DejaVuSans-5d" transform="translate(521.677734 0.987656)"/>
      <path d="M 405.141602 19.784531 
L 405.141602 26.034531 
L 509.177734 26.034531 
L 509.177734 19.784531 
L 405.141602 19.784531 
z
"/>
     </g>
    </g>
   </g>
   <g id="matplotlib.axis_2">
    <g id="ytick_1">
     <g id="line2d_13">
      <path d="M 42.5625 188.901266 
L 349.4625 188.901266 
" clip-path="url(#paad27e8de6)" style="fill: none; stroke: #ffffff; stroke-width: 0.8; stroke-linecap: square"/>
     </g>
     <g id="line2d_14">
      <defs>
       <path id="m9d916ae4b8" d="M 0 0 
L -3.5 0 
" style="stroke: #555555; stroke-width: 0.8"/>
      </defs>
      <g>
       <use xlink:href="#m9d916ae4b8" x="42.5625" y="188.901266" style="fill: #555555; stroke: #555555; stroke-width: 0.8"/>
      </g>
     </g>
     <g id="text_8">
      <!-- 0 -->
      <g style="fill: #555555" transform="translate(29.2 192.700484) scale(0.1 -0.1)">
       <use xlink:href="#DejaVuSans-30"/>
      </g>
     </g>
    </g>
    <g id="ytick_2">
     <g id="line2d_15">
      <path d="M 42.5625 154.993364 
L 349.4625 154.993364 
" clip-path="url(#paad27e8de6)" style="fill: none; stroke: #ffffff; stroke-width: 0.8; stroke-linecap: square"/>
     </g>
     <g id="line2d_16">
      <g>
       <use xlink:href="#m9d916ae4b8" x="42.5625" y="154.993364" style="fill: #555555; stroke: #555555; stroke-width: 0.8"/>
      </g>
     </g>
     <g id="text_9">
      <!-- 1 -->
      <g style="fill: #555555" transform="translate(29.2 158.792582) scale(0.1 -0.1)">
       <use xlink:href="#DejaVuSans-31"/>
      </g>
     </g>
    </g>
    <g id="ytick_3">
     <g id="line2d_17">
      <path d="M 42.5625 121.085462 
L 349.4625 121.085462 
" clip-path="url(#paad27e8de6)" style="fill: none; stroke: #ffffff; stroke-width: 0.8; stroke-linecap: square"/>
     </g>
     <g id="line2d_18">
      <g>
       <use xlink:href="#m9d916ae4b8" x="42.5625" y="121.085462" style="fill: #555555; stroke: #555555; stroke-width: 0.8"/>
      </g>
     </g>
     <g id="text_10">
      <!-- 2 -->
      <g style="fill: #555555" transform="translate(29.2 124.88468) scale(0.1 -0.1)">
       <use xlink:href="#DejaVuSans-32"/>
      </g>
     </g>
    </g>
    <g id="ytick_4">
     <g id="line2d_19">
      <path d="M 42.5625 87.17756 
L 349.4625 87.17756 
" clip-path="url(#paad27e8de6)" style="fill: none; stroke: #ffffff; stroke-width: 0.8; stroke-linecap: square"/>
     </g>
     <g id="line2d_20">
      <g>
       <use xlink:href="#m9d916ae4b8" x="42.5625" y="87.17756" style="fill: #555555; stroke: #555555; stroke-width: 0.8"/>
      </g>
     </g>
     <g id="text_11">
      <!-- 3 -->
      <g style="fill: #555555" transform="translate(29.2 90.976779) scale(0.1 -0.1)">
       <defs>
        <path id="DejaVuSans-33" d="M 2597 2516 
Q 3050 2419 3304 2112 
Q 3559 1806 3559 1356 
Q 3559 666 3084 287 
Q 2609 -91 1734 -91 
Q 1441 -91 1130 -33 
Q 819 25 488 141 
L 488 750 
Q 750 597 1062 519 
Q 1375 441 1716 441 
Q 2309 441 2620 675 
Q 2931 909 2931 1356 
Q 2931 1769 2642 2001 
Q 2353 2234 1838 2234 
L 1294 2234 
L 1294 2753 
L 1863 2753 
Q 2328 2753 2575 2939 
Q 2822 3125 2822 3475 
Q 2822 3834 2567 4026 
Q 2313 4219 1838 4219 
Q 1578 4219 1281 4162 
Q 984 4106 628 3988 
L 628 4550 
Q 988 4650 1302 4700 
Q 1616 4750 1894 4750 
Q 2613 4750 3031 4423 
Q 3450 4097 3450 3541 
Q 3450 3153 3228 2886 
Q 3006 2619 2597 2516 
z
" transform="scale(0.015625)"/>
       </defs>
       <use xlink:href="#DejaVuSans-33"/>
      </g>
     </g>
    </g>
    <g id="ytick_5">
     <g id="line2d_21">
      <path d="M 42.5625 53.269658 
L 349.4625 53.269658 
" clip-path="url(#paad27e8de6)" style="fill: none; stroke: #ffffff; stroke-width: 0.8; stroke-linecap: square"/>
     </g>
     <g id="line2d_22">
      <g>
       <use xlink:href="#m9d916ae4b8" x="42.5625" y="53.269658" style="fill: #555555; stroke: #555555; stroke-width: 0.8"/>
      </g>
     </g>
     <g id="text_12">
      <!-- 4 -->
      <g style="fill: #555555" transform="translate(29.2 57.068877) scale(0.1 -0.1)">
       <defs>
        <path id="DejaVuSans-34" d="M 2419 4116 
L 825 1625 
L 2419 1625 
L 2419 4116 
z
M 2253 4666 
L 3047 4666 
L 3047 1625 
L 3713 1625 
L 3713 1100 
L 3047 1100 
L 3047 0 
L 2419 0 
L 2419 1100 
L 313 1100 
L 313 1709 
L 2253 4666 
z
" transform="scale(0.015625)"/>
       </defs>
       <use xlink:href="#DejaVuSans-34"/>
      </g>
     </g>
    </g>
    <g id="ytick_6">
     <g id="line2d_23">
      <path d="M 42.5625 19.361756 
L 349.4625 19.361756 
" clip-path="url(#paad27e8de6)" style="fill: none; stroke: #ffffff; stroke-width: 0.8; stroke-linecap: square"/>
     </g>
     <g id="line2d_24">
      <g>
       <use xlink:href="#m9d916ae4b8" x="42.5625" y="19.361756" style="fill: #555555; stroke: #555555; stroke-width: 0.8"/>
      </g>
     </g>
     <g id="text_13">
      <!-- 5 -->
      <g style="fill: #555555" transform="translate(29.2 23.160975) scale(0.1 -0.1)">
       <use xlink:href="#DejaVuSans-35"/>
      </g>
     </g>
    </g>
    <g id="text_14">
     <!-- $SFR_{HECATE} $ [$\mathrm{\frac{M_{\odot}}{yr}}$] -->
     <g style="fill: #555555" transform="translate(20.16 146.28) rotate(-90) scale(0.12 -0.12)">
      <defs>
       <path id="DejaVuSans-Oblique-48" d="M 1081 4666 
L 1716 4666 
L 1344 2753 
L 3634 2753 
L 4006 4666 
L 4641 4666 
L 3731 0 
L 3097 0 
L 3531 2222 
L 1241 2222 
L 806 0 
L 172 0 
L 1081 4666 
z
" transform="scale(0.015625)"/>
       <path id="DejaVuSans-Oblique-45" d="M 1081 4666 
L 4031 4666 
L 3928 4134 
L 1606 4134 
L 1338 2753 
L 3566 2753 
L 3463 2222 
L 1234 2222 
L 909 531 
L 3284 531 
L 3181 0 
L 172 0 
L 1081 4666 
z
" transform="scale(0.015625)"/>
       <path id="DejaVuSans-Oblique-43" d="M 4447 4306 
L 4319 3641 
Q 4019 3944 3683 4091 
Q 3347 4238 2956 4238 
Q 2422 4238 2017 3981 
Q 1613 3725 1319 3200 
Q 1131 2863 1032 2486 
Q 934 2109 934 1728 
Q 934 1091 1264 756 
Q 1594 422 2222 422 
Q 2656 422 3056 561 
Q 3456 700 3834 978 
L 3688 231 
Q 3316 72 2936 -9 
Q 2556 -91 2175 -91 
Q 1278 -91 773 396 
Q 269 884 269 1753 
Q 269 2309 461 2846 
Q 653 3384 1013 3828 
Q 1394 4300 1883 4525 
Q 2372 4750 3022 4750 
Q 3422 4750 3780 4639 
Q 4138 4528 4447 4306 
z
" transform="scale(0.015625)"/>
       <path id="DejaVuSans-Oblique-41" d="M 2356 4666 
L 3072 4666 
L 3938 0 
L 3278 0 
L 3084 1197 
L 984 1197 
L 325 0 
L -341 0 
L 2356 4666 
z
M 2584 4044 
L 1275 1722 
L 2988 1722 
L 2584 4044 
z
" transform="scale(0.015625)"/>
       <path id="DejaVuSans-Oblique-54" d="M 378 4666 
L 4325 4666 
L 4225 4134 
L 2559 4134 
L 1759 0 
L 1125 0 
L 1925 4134 
L 275 4134 
L 378 4666 
z
" transform="scale(0.015625)"/>
      </defs>
      <use xlink:href="#DejaVuSans-Oblique-53" transform="translate(0 0.987656)"/>
      <use xlink:href="#DejaVuSans-Oblique-46" transform="translate(63.476562 0.987656)"/>
      <use xlink:href="#DejaVuSans-Oblique-52" transform="translate(120.996094 0.987656)"/>
      <use xlink:href="#DejaVuSans-Oblique-48" transform="translate(190.478516 -15.418594) scale(0.7)"/>
      <use xlink:href="#DejaVuSans-Oblique-45" transform="translate(243.115234 -15.418594) scale(0.7)"/>
      <use xlink:href="#DejaVuSans-Oblique-43" transform="translate(287.34375 -15.418594) scale(0.7)"/>
      <use xlink:href="#DejaVuSans-Oblique-41" transform="translate(336.220703 -15.418594) scale(0.7)"/>
      <use xlink:href="#DejaVuSans-Oblique-54" transform="translate(384.106445 -15.418594) scale(0.7)"/>
      <use xlink:href="#DejaVuSans-Oblique-45" transform="translate(426.865234 -15.418594) scale(0.7)"/>
      <use xlink:href="#DejaVuSans-20" transform="translate(473.828125 0.987656)"/>
      <use xlink:href="#DejaVuSans-5b" transform="translate(505.615234 0.987656)"/>
      <use xlink:href="#DejaVuSans-4d" transform="translate(544.628906 56.965625) scale(0.7)"/>
      <use xlink:href="#DejaVuSans-2299" transform="translate(605.694336 45.48125) scale(0.49)"/>
      <use xlink:href="#DejaVuSans-79" transform="translate(561.628906 -25.665469) scale(0.7)"/>
      <use xlink:href="#DejaVuSans-72" transform="translate(603.054688 -25.665469) scale(0.7)"/>
      <use xlink:href="#DejaVuSans-5d" transform="translate(661.165039 0.987656)"/>
      <path d="M 544.628906 19.784531 
L 544.628906 26.034531 
L 648.665039 26.034531 
L 648.665039 19.784531 
L 544.628906 19.784531 
z
"/>
     </g>
    </g>
   </g>
   <g id="PathCollection_1">
    <defs>
     <path id="mb2e46f54d4" d="M 0 3 
C 0.795609 3 1.55874 2.683901 2.12132 2.12132 
C 2.683901 1.55874 3 0.795609 3 0 
C 3 -0.795609 2.683901 -1.55874 2.12132 -2.12132 
C 1.55874 -2.683901 0.795609 -3 0 -3 
C -0.795609 -3 -1.55874 -2.683901 -2.12132 -2.12132 
C -2.683901 -1.55874 -3 -0.795609 -3 0 
C -3 0.795609 -2.683901 1.55874 -2.12132 2.12132 
C -1.55874 2.683901 -0.795609 3 0 3 
z
" style="stroke: #ffffff; stroke-opacity: 0.5"/>
    </defs>
    <g clip-path="url(#paad27e8de6)">
     <use xlink:href="#mb2e46f54d4" x="56.649899" y="188.790271" style="fill: #0000ff; fill-opacity: 0.5; stroke: #ffffff; stroke-opacity: 0.5"/>
     <use xlink:href="#mb2e46f54d4" x="59.925803" y="188.191196" style="fill: #0000ff; fill-opacity: 0.5; stroke: #ffffff; stroke-opacity: 0.5"/>
     <use xlink:href="#mb2e46f54d4" x="62.566194" y="188.699289" style="fill: #0000ff; fill-opacity: 0.5; stroke: #ffffff; stroke-opacity: 0.5"/>
     <use xlink:href="#mb2e46f54d4" x="56.772926" y="188.894149" style="fill: #0000ff; fill-opacity: 0.5; stroke: #ffffff; stroke-opacity: 0.5"/>
     <use xlink:href="#mb2e46f54d4" x="63.33069" y="188.579677" style="fill: #0000ff; fill-opacity: 0.5; stroke: #ffffff; stroke-opacity: 0.5"/>
     <use xlink:href="#mb2e46f54d4" x="58.626825" y="188.578936" style="fill: #0000ff; fill-opacity: 0.5; stroke: #ffffff; stroke-opacity: 0.5"/>
     <use xlink:href="#mb2e46f54d4" x="58.993631" y="188.442806" style="fill: #0000ff; fill-opacity: 0.5; stroke: #ffffff; stroke-opacity: 0.5"/>
     <use xlink:href="#mb2e46f54d4" x="57.919747" y="188.432127" style="fill: #0000ff; fill-opacity: 0.5; stroke: #ffffff; stroke-opacity: 0.5"/>
     <use xlink:href="#mb2e46f54d4" x="69.600831" y="188.320099" style="fill: #0000ff; fill-opacity: 0.5; stroke: #ffffff; stroke-opacity: 0.5"/>
     <use xlink:href="#mb2e46f54d4" x="60.355507" y="188.282821" style="fill: #0000ff; fill-opacity: 0.5; stroke: #ffffff; stroke-opacity: 0.5"/>
     <use xlink:href="#mb2e46f54d4" x="65.326206" y="187.853411" style="fill: #0000ff; fill-opacity: 0.5; stroke: #ffffff; stroke-opacity: 0.5"/>
     <use xlink:href="#mb2e46f54d4" x="69.754526" y="187.717404" style="fill: #0000ff; fill-opacity: 0.5; stroke: #ffffff; stroke-opacity: 0.5"/>
     <use xlink:href="#mb2e46f54d4" x="61.903503" y="187.51674" style="fill: #0000ff; fill-opacity: 0.5; stroke: #ffffff; stroke-opacity: 0.5"/>
     <use xlink:href="#mb2e46f54d4" x="103.211118" y="187.609151" style="fill: #0000ff; fill-opacity: 0.5; stroke: #ffffff; stroke-opacity: 0.5"/>
     <use xlink:href="#mb2e46f54d4" x="56.817324" y="188.781233" style="fill: #0000ff; fill-opacity: 0.5; stroke: #ffffff; stroke-opacity: 0.5"/>
     <use xlink:href="#mb2e46f54d4" x="85.947819" y="186.776549" style="fill: #0000ff; fill-opacity: 0.5; stroke: #ffffff; stroke-opacity: 0.5"/>
     <use xlink:href="#mb2e46f54d4" x="57.443781" y="188.84027" style="fill: #0000ff; fill-opacity: 0.5; stroke: #ffffff; stroke-opacity: 0.5"/>
     <use xlink:href="#mb2e46f54d4" x="56.514294" y="188.738598" style="fill: #0000ff; fill-opacity: 0.5; stroke: #ffffff; stroke-opacity: 0.5"/>
     <use xlink:href="#mb2e46f54d4" x="105.759728" y="181.115507" style="fill: #0000ff; fill-opacity: 0.5; stroke: #ffffff; stroke-opacity: 0.5"/>
     <use xlink:href="#mb2e46f54d4" x="73.470905" y="186.994484" style="fill: #0000ff; fill-opacity: 0.5; stroke: #ffffff; stroke-opacity: 0.5"/>
     <use xlink:href="#mb2e46f54d4" x="87.866534" y="188.490777" style="fill: #0000ff; fill-opacity: 0.5; stroke: #ffffff; stroke-opacity: 0.5"/>
     <use xlink:href="#mb2e46f54d4" x="139.543735" y="182.630784" style="fill: #0000ff; fill-opacity: 0.5; stroke: #ffffff; stroke-opacity: 0.5"/>
     <use xlink:href="#mb2e46f54d4" x="58.238993" y="188.559049" style="fill: #0000ff; fill-opacity: 0.5; stroke: #ffffff; stroke-opacity: 0.5"/>
     <use xlink:href="#mb2e46f54d4" x="61.458396" y="186.834454" style="fill: #0000ff; fill-opacity: 0.5; stroke: #ffffff; stroke-opacity: 0.5"/>
     <use xlink:href="#mb2e46f54d4" x="81.9169" y="185.844227" style="fill: #0000ff; fill-opacity: 0.5; stroke: #ffffff; stroke-opacity: 0.5"/>
     <use xlink:href="#mb2e46f54d4" x="110.875027" y="181.978161" style="fill: #0000ff; fill-opacity: 0.5; stroke: #ffffff; stroke-opacity: 0.5"/>
     <use xlink:href="#mb2e46f54d4" x="64.093151" y="188.454272" style="fill: #0000ff; fill-opacity: 0.5; stroke: #ffffff; stroke-opacity: 0.5"/>
     <use xlink:href="#mb2e46f54d4" x="61.842839" y="187.809069" style="fill: #0000ff; fill-opacity: 0.5; stroke: #ffffff; stroke-opacity: 0.5"/>
     <use xlink:href="#mb2e46f54d4" x="70.874021" y="186.145128" style="fill: #0000ff; fill-opacity: 0.5; stroke: #ffffff; stroke-opacity: 0.5"/>
     <use xlink:href="#mb2e46f54d4" x="56.929348" y="188.117293" style="fill: #0000ff; fill-opacity: 0.5; stroke: #ffffff; stroke-opacity: 0.5"/>
     <use xlink:href="#mb2e46f54d4" x="117.524169" y="185.259593" style="fill: #0000ff; fill-opacity: 0.5; stroke: #ffffff; stroke-opacity: 0.5"/>
     <use xlink:href="#mb2e46f54d4" x="59.410487" y="188.461419" style="fill: #0000ff; fill-opacity: 0.5; stroke: #ffffff; stroke-opacity: 0.5"/>
     <use xlink:href="#mb2e46f54d4" x="111.600253" y="148.041026" style="fill: #0000ff; fill-opacity: 0.5; stroke: #ffffff; stroke-opacity: 0.5"/>
     <use xlink:href="#mb2e46f54d4" x="91.862937" y="159.77392" style="fill: #0000ff; fill-opacity: 0.5; stroke: #ffffff; stroke-opacity: 0.5"/>
     <use xlink:href="#mb2e46f54d4" x="162.593594" y="117.894308" style="fill: #0000ff; fill-opacity: 0.5; stroke: #ffffff; stroke-opacity: 0.5"/>
     <use xlink:href="#mb2e46f54d4" x="139.669496" y="86.264983" style="fill: #0000ff; fill-opacity: 0.5; stroke: #ffffff; stroke-opacity: 0.5"/>
     <use xlink:href="#mb2e46f54d4" x="65.19942" y="185.99523" style="fill: #0000ff; fill-opacity: 0.5; stroke: #ffffff; stroke-opacity: 0.5"/>
     <use xlink:href="#mb2e46f54d4" x="56.884868" y="188.831715" style="fill: #0000ff; fill-opacity: 0.5; stroke: #ffffff; stroke-opacity: 0.5"/>
     <use xlink:href="#mb2e46f54d4" x="64.560585" y="187.728258" style="fill: #0000ff; fill-opacity: 0.5; stroke: #ffffff; stroke-opacity: 0.5"/>
     <use xlink:href="#mb2e46f54d4" x="208.415796" y="114.032458" style="fill: #0000ff; fill-opacity: 0.5; stroke: #ffffff; stroke-opacity: 0.5"/>
     <use xlink:href="#mb2e46f54d4" x="103.728925" y="173.894023" style="fill: #0000ff; fill-opacity: 0.5; stroke: #ffffff; stroke-opacity: 0.5"/>
     <use xlink:href="#mb2e46f54d4" x="199.683439" y="171.630924" style="fill: #0000ff; fill-opacity: 0.5; stroke: #ffffff; stroke-opacity: 0.5"/>
     <use xlink:href="#mb2e46f54d4" x="74.862111" y="187.194001" style="fill: #0000ff; fill-opacity: 0.5; stroke: #ffffff; stroke-opacity: 0.5"/>
     <use xlink:href="#mb2e46f54d4" x="57.0146" y="188.559836" style="fill: #0000ff; fill-opacity: 0.5; stroke: #ffffff; stroke-opacity: 0.5"/>
     <use xlink:href="#mb2e46f54d4" x="83.376874" y="185.183338" style="fill: #0000ff; fill-opacity: 0.5; stroke: #ffffff; stroke-opacity: 0.5"/>
     <use xlink:href="#mb2e46f54d4" x="59.037944" y="186.24482" style="fill: #0000ff; fill-opacity: 0.5; stroke: #ffffff; stroke-opacity: 0.5"/>
     <use xlink:href="#mb2e46f54d4" x="198.747163" y="85.791228" style="fill: #0000ff; fill-opacity: 0.5; stroke: #ffffff; stroke-opacity: 0.5"/>
     <use xlink:href="#mb2e46f54d4" x="60.122174" y="188.410017" style="fill: #0000ff; fill-opacity: 0.5; stroke: #ffffff; stroke-opacity: 0.5"/>
     <use xlink:href="#mb2e46f54d4" x="57.441033" y="188.79768" style="fill: #0000ff; fill-opacity: 0.5; stroke: #ffffff; stroke-opacity: 0.5"/>
     <use xlink:href="#mb2e46f54d4" x="59.089124" y="188.610662" style="fill: #0000ff; fill-opacity: 0.5; stroke: #ffffff; stroke-opacity: 0.5"/>
     <use xlink:href="#mb2e46f54d4" x="335.5125" y="132.628156" style="fill: #0000ff; fill-opacity: 0.5; stroke: #ffffff; stroke-opacity: 0.5"/>
     <use xlink:href="#mb2e46f54d4" x="56.56652" y="188.819926" style="fill: #0000ff; fill-opacity: 0.5; stroke: #ffffff; stroke-opacity: 0.5"/>
     <use xlink:href="#mb2e46f54d4" x="60.875778" y="188.46344" style="fill: #0000ff; fill-opacity: 0.5; stroke: #ffffff; stroke-opacity: 0.5"/>
     <use xlink:href="#mb2e46f54d4" x="57.221031" y="188.890243" style="fill: #0000ff; fill-opacity: 0.5; stroke: #ffffff; stroke-opacity: 0.5"/>
     <use xlink:href="#mb2e46f54d4" x="58.149492" y="188.745202" style="fill: #0000ff; fill-opacity: 0.5; stroke: #ffffff; stroke-opacity: 0.5"/>
     <use xlink:href="#mb2e46f54d4" x="67.636349" y="188.45735" style="fill: #0000ff; fill-opacity: 0.5; stroke: #ffffff; stroke-opacity: 0.5"/>
     <use xlink:href="#mb2e46f54d4" x="56.635395" y="188.630059" style="fill: #0000ff; fill-opacity: 0.5; stroke: #ffffff; stroke-opacity: 0.5"/>
     <use xlink:href="#mb2e46f54d4" x="57.643921" y="188.614649" style="fill: #0000ff; fill-opacity: 0.5; stroke: #ffffff; stroke-opacity: 0.5"/>
     <use xlink:href="#mb2e46f54d4" x="57.346594" y="188.701601" style="fill: #0000ff; fill-opacity: 0.5; stroke: #ffffff; stroke-opacity: 0.5"/>
     <use xlink:href="#mb2e46f54d4" x="56.579118" y="188.692672" style="fill: #0000ff; fill-opacity: 0.5; stroke: #ffffff; stroke-opacity: 0.5"/>
     <use xlink:href="#mb2e46f54d4" x="61.658471" y="188.23859" style="fill: #0000ff; fill-opacity: 0.5; stroke: #ffffff; stroke-opacity: 0.5"/>
     <use xlink:href="#mb2e46f54d4" x="59.371071" y="188.229371" style="fill: #0000ff; fill-opacity: 0.5; stroke: #ffffff; stroke-opacity: 0.5"/>
     <use xlink:href="#mb2e46f54d4" x="58.233544" y="188.604577" style="fill: #0000ff; fill-opacity: 0.5; stroke: #ffffff; stroke-opacity: 0.5"/>
     <use xlink:href="#mb2e46f54d4" x="56.710491" y="188.885479" style="fill: #0000ff; fill-opacity: 0.5; stroke: #ffffff; stroke-opacity: 0.5"/>
     <use xlink:href="#mb2e46f54d4" x="58.631529" y="188.447009" style="fill: #0000ff; fill-opacity: 0.5; stroke: #ffffff; stroke-opacity: 0.5"/>
     <use xlink:href="#mb2e46f54d4" x="56.590759" y="188.719588" style="fill: #0000ff; fill-opacity: 0.5; stroke: #ffffff; stroke-opacity: 0.5"/>
     <use xlink:href="#mb2e46f54d4" x="56.537733" y="188.853037" style="fill: #0000ff; fill-opacity: 0.5; stroke: #ffffff; stroke-opacity: 0.5"/>
     <use xlink:href="#mb2e46f54d4" x="57.034721" y="188.667758" style="fill: #0000ff; fill-opacity: 0.5; stroke: #ffffff; stroke-opacity: 0.5"/>
     <use xlink:href="#mb2e46f54d4" x="56.5125" y="188.844602" style="fill: #0000ff; fill-opacity: 0.5; stroke: #ffffff; stroke-opacity: 0.5"/>
    </g>
   </g>
   <g id="PolyCollection_1">
    <path d="M 56.5125 186.846867 
L 56.5125 192.42 
L 59.330682 190.779452 
L 62.148864 189.342179 
L 64.967045 187.869544 
L 67.785227 186.887706 
L 70.603409 186.04855 
L 73.421591 185.377988 
L 76.239773 184.613272 
L 79.057955 184.051421 
L 81.876136 183.473192 
L 84.694318 182.818615 
L 87.5125 182.141672 
L 90.330682 181.56341 
L 93.148864 180.941933 
L 95.967045 180.3594 
L 98.785227 179.727768 
L 101.603409 179.063925 
L 104.421591 178.456687 
L 107.239773 177.880537 
L 110.057955 177.256422 
L 112.876136 176.631652 
L 115.694318 176.006882 
L 118.5125 175.382112 
L 121.330682 174.757341 
L 124.148864 174.132571 
L 126.967045 173.507801 
L 129.785227 172.882746 
L 132.603409 172.242883 
L 135.421591 171.592421 
L 138.239773 170.941958 
L 141.057955 170.291496 
L 143.876136 169.641033 
L 146.694318 169.015603 
L 149.5125 168.405627 
L 152.330682 167.79565 
L 155.148864 167.185673 
L 157.967045 166.575697 
L 160.785227 165.96572 
L 163.603409 165.355552 
L 166.421591 164.744564 
L 169.239773 164.111779 
L 172.057955 163.478621 
L 174.876136 162.845099 
L 177.694318 162.211577 
L 180.5125 161.578055 
L 183.330682 160.944533 
L 186.148864 160.311011 
L 188.967045 159.676763 
L 191.785227 159.040891 
L 194.603409 158.410975 
L 197.421591 157.777904 
L 200.239773 157.144834 
L 203.057955 156.511764 
L 205.876136 155.878693 
L 208.694318 155.245623 
L 211.5125 154.612552 
L 214.330682 153.979482 
L 217.148864 153.346412 
L 219.967045 152.713341 
L 222.785227 152.080271 
L 225.603409 151.4472 
L 228.421591 150.81413 
L 231.239773 150.18106 
L 234.057955 149.547989 
L 236.876136 148.914919 
L 239.694318 148.281849 
L 242.5125 147.648778 
L 245.330682 147.015708 
L 248.148864 146.382608 
L 250.967045 145.749417 
L 253.785227 145.116226 
L 256.603409 144.483034 
L 259.421591 143.849843 
L 262.239773 143.216652 
L 265.057955 142.583461 
L 267.876136 141.950269 
L 270.694318 141.317078 
L 273.5125 140.683887 
L 276.330682 140.050696 
L 279.148864 139.417504 
L 281.967045 138.784313 
L 284.785227 138.151122 
L 287.603409 137.517931 
L 290.421591 136.884739 
L 293.239773 136.251548 
L 296.057955 135.618357 
L 298.876136 134.985166 
L 301.694318 134.351974 
L 304.5125 133.718783 
L 307.330682 133.085592 
L 310.148864 132.460346 
L 312.967045 131.83923 
L 315.785227 131.218114 
L 318.603409 130.596998 
L 321.421591 129.975882 
L 324.239773 129.354766 
L 327.057955 128.73365 
L 329.876136 128.112534 
L 332.694318 127.491419 
L 335.5125 126.870303 
L 335.5125 16.02 
L 335.5125 16.02 
L 332.694318 17.807955 
L 329.876136 19.595911 
L 327.057955 21.382224 
L 324.239773 23.138381 
L 321.421591 24.894537 
L 318.603409 26.650694 
L 315.785227 28.406851 
L 312.967045 30.163007 
L 310.148864 31.919164 
L 307.330682 33.683924 
L 304.5125 35.451236 
L 301.694318 37.218548 
L 298.876136 38.98586 
L 296.057955 40.753172 
L 293.239773 42.520484 
L 290.421591 44.287796 
L 287.603409 46.055576 
L 284.785227 47.823724 
L 281.967045 49.591872 
L 279.148864 51.36002 
L 276.330682 53.141713 
L 273.5125 54.930473 
L 270.694318 56.719232 
L 267.876136 58.507992 
L 265.057955 60.296752 
L 262.239773 62.085511 
L 259.421591 63.874271 
L 256.603409 65.663031 
L 253.785227 67.45179 
L 250.967045 69.24055 
L 248.148864 71.029309 
L 245.330682 72.818069 
L 242.5125 74.607106 
L 239.694318 76.396232 
L 236.876136 78.185358 
L 234.057955 79.974483 
L 231.239773 81.763609 
L 228.421591 83.552735 
L 225.603409 85.34186 
L 222.785227 87.130986 
L 219.967045 88.920112 
L 217.148864 90.709237 
L 214.330682 92.498363 
L 211.5125 94.287489 
L 208.694318 96.076615 
L 205.876136 97.86574 
L 203.057955 99.654866 
L 200.239773 101.436467 
L 197.421591 103.211752 
L 194.603409 104.987037 
L 191.785227 106.762322 
L 188.967045 108.537607 
L 186.148864 110.312893 
L 183.330682 112.088178 
L 180.5125 113.863463 
L 177.694318 115.638748 
L 174.876136 117.414033 
L 172.057955 119.189318 
L 169.239773 120.964603 
L 166.421591 122.724309 
L 163.603409 124.469377 
L 160.785227 126.214444 
L 157.967045 127.959512 
L 155.148864 129.70458 
L 152.330682 131.449648 
L 149.5125 133.194716 
L 146.694318 134.946458 
L 143.876136 136.727754 
L 141.057955 138.509049 
L 138.239773 140.290345 
L 135.421591 142.07164 
L 132.603409 143.852935 
L 129.785227 145.635086 
L 126.967045 147.4176 
L 124.148864 149.200114 
L 121.330682 150.982628 
L 118.5125 152.765141 
L 115.694318 154.547655 
L 112.876136 156.330169 
L 110.057955 158.112683 
L 107.239773 159.895205 
L 104.421591 161.633316 
L 101.603409 163.460224 
L 98.785227 165.179397 
L 95.967045 166.952693 
L 93.148864 168.771018 
L 90.330682 170.580983 
L 87.5125 172.329261 
L 84.694318 174.092951 
L 81.876136 175.78432 
L 79.057955 177.377736 
L 76.239773 179.008356 
L 73.421591 180.559962 
L 70.603409 182.011561 
L 67.785227 183.125826 
L 64.967045 184.143362 
L 62.148864 185.0753 
L 59.330682 186.016122 
L 56.5125 186.846867 
z
" clip-path="url(#paad27e8de6)" style="fill: #ff0000; fill-opacity: 0.15"/>
   </g>
   <g id="line2d_25">
    <path d="M 56.5125 188.90459 
L 59.330682 187.918803 
L 62.148864 186.933016 
L 64.967045 185.947229 
L 67.785227 184.961443 
L 70.603409 183.975656 
L 73.421591 182.989869 
L 76.239773 182.004083 
L 79.057955 181.018296 
L 81.876136 180.032509 
L 84.694318 179.046722 
L 87.5125 178.060936 
L 90.330682 177.075149 
L 93.148864 176.089362 
L 95.967045 175.103576 
L 98.785227 174.117789 
L 101.603409 173.132002 
L 104.421591 172.146215 
L 107.239773 171.160429 
L 110.057955 170.174642 
L 112.876136 169.188855 
L 115.694318 168.203069 
L 118.5125 167.217282 
L 121.330682 166.231495 
L 124.148864 165.245708 
L 126.967045 164.259922 
L 129.785227 163.274135 
L 132.603409 162.288348 
L 135.421591 161.302562 
L 138.239773 160.316775 
L 141.057955 159.330988 
L 143.876136 158.345201 
L 146.694318 157.359415 
L 149.5125 156.373628 
L 152.330682 155.387841 
L 155.148864 154.402055 
L 157.967045 153.416268 
L 160.785227 152.430481 
L 163.603409 151.444695 
L 166.421591 150.458908 
L 169.239773 149.473121 
L 172.057955 148.487334 
L 174.876136 147.501548 
L 177.694318 146.515761 
L 180.5125 145.529974 
L 183.330682 144.544188 
L 186.148864 143.558401 
L 188.967045 142.572614 
L 191.785227 141.586827 
L 194.603409 140.601041 
L 197.421591 139.615254 
L 200.239773 138.629467 
L 203.057955 137.643681 
L 205.876136 136.657894 
L 208.694318 135.672107 
L 211.5125 134.68632 
L 214.330682 133.700534 
L 217.148864 132.714747 
L 219.967045 131.72896 
L 222.785227 130.743174 
L 225.603409 129.757387 
L 228.421591 128.7716 
L 231.239773 127.785813 
L 234.057955 126.800027 
L 236.876136 125.81424 
L 239.694318 124.828453 
L 242.5125 123.842667 
L 245.330682 122.85688 
L 248.148864 121.871093 
L 250.967045 120.885306 
L 253.785227 119.89952 
L 256.603409 118.913733 
L 259.421591 117.927946 
L 262.239773 116.94216 
L 265.057955 115.956373 
L 267.876136 114.970586 
L 270.694318 113.984799 
L 273.5125 112.999013 
L 276.330682 112.013226 
L 279.148864 111.027439 
L 281.967045 110.041653 
L 284.785227 109.055866 
L 287.603409 108.070079 
L 290.421591 107.084292 
L 293.239773 106.098506 
L 296.057955 105.112719 
L 298.876136 104.126932 
L 301.694318 103.141146 
L 304.5125 102.155359 
L 307.330682 101.169572 
L 310.148864 100.183785 
L 312.967045 99.197999 
L 315.785227 98.212212 
L 318.603409 97.226425 
L 321.421591 96.240639 
L 324.239773 95.254852 
L 327.057955 94.269065 
L 329.876136 93.283278 
L 332.694318 92.297492 
L 335.5125 91.311705 
" clip-path="url(#paad27e8de6)" style="fill: none; stroke: #ff0000; stroke-opacity: 0.7; stroke-width: 3; stroke-linecap: square"/>
   </g>
   <g id="patch_3">
    <path d="M 42.5625 201.24 
L 42.5625 7.2 
" style="fill: none; stroke: #ffffff; stroke-linejoin: miter; stroke-linecap: square"/>
   </g>
   <g id="patch_4">
    <path d="M 349.4625 201.24 
L 349.4625 7.2 
" style="fill: none; stroke: #ffffff; stroke-linejoin: miter; stroke-linecap: square"/>
   </g>
   <g id="patch_5">
    <path d="M 42.5625 201.24 
L 349.4625 201.24 
" style="fill: none; stroke: #ffffff; stroke-linejoin: miter; stroke-linecap: square"/>
   </g>
   <g id="patch_6">
    <path d="M 42.5625 7.2 
L 349.4625 7.2 
" style="fill: none; stroke: #ffffff; stroke-linejoin: miter; stroke-linecap: square"/>
   </g>
   <g id="legend_1">
    <g id="patch_7">
     <path d="M 174.7625 55.754062 
L 342.4625 55.754062 
Q 344.4625 55.754062 344.4625 53.754062 
L 344.4625 14.2 
Q 344.4625 12.2 342.4625 12.2 
L 174.7625 12.2 
Q 172.7625 12.2 172.7625 14.2 
L 172.7625 53.754062 
Q 172.7625 55.754062 174.7625 55.754062 
z
" style="fill: #e5e5e5; opacity: 0.8; stroke: #cccccc; stroke-width: 0.5; stroke-linejoin: miter"/>
    </g>
    <g id="PathCollection_2">
     <g>
      <use xlink:href="#mb2e46f54d4" x="186.7625" y="21.173437" style="fill: #0000ff; fill-opacity: 0.5; stroke: #ffffff; stroke-opacity: 0.5"/>
     </g>
    </g>
    <g id="text_15">
     <!-- Data -->
     <g transform="translate(204.7625 23.798437) scale(0.1 -0.1)">
      <defs>
       <path id="DejaVuSans-44" d="M 1259 4147 
L 1259 519 
L 2022 519 
Q 2988 519 3436 956 
Q 3884 1394 3884 2338 
Q 3884 3275 3436 3711 
Q 2988 4147 2022 4147 
L 1259 4147 
z
M 628 4666 
L 1925 4666 
Q 3281 4666 3915 4102 
Q 4550 3538 4550 2338 
Q 4550 1131 3912 565 
Q 3275 0 1925 0 
L 628 0 
L 628 4666 
z
" transform="scale(0.015625)"/>
       <path id="DejaVuSans-61" d="M 2194 1759 
Q 1497 1759 1228 1600 
Q 959 1441 959 1056 
Q 959 750 1161 570 
Q 1363 391 1709 391 
Q 2188 391 2477 730 
Q 2766 1069 2766 1631 
L 2766 1759 
L 2194 1759 
z
M 3341 1997 
L 3341 0 
L 2766 0 
L 2766 531 
Q 2569 213 2275 61 
Q 1981 -91 1556 -91 
Q 1019 -91 701 211 
Q 384 513 384 1019 
Q 384 1609 779 1909 
Q 1175 2209 1959 2209 
L 2766 2209 
L 2766 2266 
Q 2766 2663 2505 2880 
Q 2244 3097 1772 3097 
Q 1472 3097 1187 3025 
Q 903 2953 641 2809 
L 641 3341 
Q 956 3463 1253 3523 
Q 1550 3584 1831 3584 
Q 2591 3584 2966 3190 
Q 3341 2797 3341 1997 
z
" transform="scale(0.015625)"/>
       <path id="DejaVuSans-74" d="M 1172 4494 
L 1172 3500 
L 2356 3500 
L 2356 3053 
L 1172 3053 
L 1172 1153 
Q 1172 725 1289 603 
Q 1406 481 1766 481 
L 2356 481 
L 2356 0 
L 1766 0 
Q 1100 0 847 248 
Q 594 497 594 1153 
L 594 3053 
L 172 3053 
L 172 3500 
L 594 3500 
L 594 4494 
L 1172 4494 
z
" transform="scale(0.015625)"/>
      </defs>
      <use xlink:href="#DejaVuSans-44"/>
      <use xlink:href="#DejaVuSans-61" x="77.001953"/>
      <use xlink:href="#DejaVuSans-74" x="138.28125"/>
      <use xlink:href="#DejaVuSans-61" x="177.490234"/>
     </g>
    </g>
    <g id="line2d_26">
     <path d="M 176.7625 41.615312 
L 186.7625 41.615312 
L 196.7625 41.615312 
" style="fill: none; stroke: #ff0000; stroke-opacity: 0.7; stroke-width: 3; stroke-linecap: square"/>
    </g>
    <g id="text_16">
     <!-- $SFR_{HEC}=$1.01$\cdot SFR_{LVG}$$-0.00$ -->
     <g transform="translate(204.7625 38.476562) scale(0.1 -0.1)">
      <defs>
       <path id="DejaVuSans-3d" d="M 678 2906 
L 4684 2906 
L 4684 2381 
L 678 2381 
L 678 2906 
z
M 678 1631 
L 4684 1631 
L 4684 1100 
L 678 1100 
L 678 1631 
z
" transform="scale(0.015625)"/>
       <path id="DejaVuSans-22c5" d="M 684 2619 
L 1344 2619 
L 1344 1825 
L 684 1825 
L 684 2619 
z
" transform="scale(0.015625)"/>
       <path id="DejaVuSans-2212" d="M 678 2272 
L 4684 2272 
L 4684 1741 
L 678 1741 
L 678 2272 
z
" transform="scale(0.015625)"/>
      </defs>
      <use xlink:href="#DejaVuSans-Oblique-53" transform="translate(0 0.78125)"/>
      <use xlink:href="#DejaVuSans-Oblique-46" transform="translate(63.476562 0.78125)"/>
      <use xlink:href="#DejaVuSans-Oblique-52" transform="translate(120.996094 0.78125)"/>
      <use xlink:href="#DejaVuSans-Oblique-48" transform="translate(190.478516 -15.625) scale(0.7)"/>
      <use xlink:href="#DejaVuSans-Oblique-45" transform="translate(243.115234 -15.625) scale(0.7)"/>
      <use xlink:href="#DejaVuSans-Oblique-43" transform="translate(287.34375 -15.625) scale(0.7)"/>
      <use xlink:href="#DejaVuSans-3d" transform="translate(358.4375 0.78125)"/>
      <use xlink:href="#DejaVuSans-31" transform="translate(461.708984 0.78125)"/>
      <use xlink:href="#DejaVuSans-2e" transform="translate(525.332031 0.78125)"/>
      <use xlink:href="#DejaVuSans-30" transform="translate(557.119141 0.78125)"/>
      <use xlink:href="#DejaVuSans-31" transform="translate(620.742188 0.78125)"/>
      <use xlink:href="#DejaVuSans-22c5" transform="translate(684.365234 0.78125)"/>
      <use xlink:href="#DejaVuSans-Oblique-53" transform="translate(716.152344 0.78125)"/>
      <use xlink:href="#DejaVuSans-Oblique-46" transform="translate(779.628906 0.78125)"/>
      <use xlink:href="#DejaVuSans-Oblique-52" transform="translate(837.148438 0.78125)"/>
      <use xlink:href="#DejaVuSans-Oblique-4c" transform="translate(906.630859 -15.625) scale(0.7)"/>
      <use xlink:href="#DejaVuSans-Oblique-56" transform="translate(945.629883 -15.625) scale(0.7)"/>
      <use xlink:href="#DejaVuSans-Oblique-47" transform="translate(993.515625 -15.625) scale(0.7)"/>
      <use xlink:href="#DejaVuSans-2212" transform="translate(1050.493164 0.78125)"/>
      <use xlink:href="#DejaVuSans-30" transform="translate(1134.282227 0.78125)"/>
      <use xlink:href="#DejaVuSans-2e" transform="translate(1197.905273 0.78125)"/>
      <use xlink:href="#DejaVuSans-30" transform="translate(1229.692383 0.78125)"/>
      <use xlink:href="#DejaVuSans-30" transform="translate(1293.31543 0.78125)"/>
     </g>
     <!--  $R^2 = 54.94\%$ -->
     <g transform="translate(204.7625 49.674375) scale(0.1 -0.1)">
      <defs>
       <path id="DejaVuSans-39" d="M 703 97 
L 703 672 
Q 941 559 1184 500 
Q 1428 441 1663 441 
Q 2288 441 2617 861 
Q 2947 1281 2994 2138 
Q 2813 1869 2534 1725 
Q 2256 1581 1919 1581 
Q 1219 1581 811 2004 
Q 403 2428 403 3163 
Q 403 3881 828 4315 
Q 1253 4750 1959 4750 
Q 2769 4750 3195 4129 
Q 3622 3509 3622 2328 
Q 3622 1225 3098 567 
Q 2575 -91 1691 -91 
Q 1453 -91 1209 -44 
Q 966 3 703 97 
z
M 1959 2075 
Q 2384 2075 2632 2365 
Q 2881 2656 2881 3163 
Q 2881 3666 2632 3958 
Q 2384 4250 1959 4250 
Q 1534 4250 1286 3958 
Q 1038 3666 1038 3163 
Q 1038 2656 1286 2365 
Q 1534 2075 1959 2075 
z
" transform="scale(0.015625)"/>
       <path id="DejaVuSans-25" d="M 4653 2053 
Q 4381 2053 4226 1822 
Q 4072 1591 4072 1178 
Q 4072 772 4226 539 
Q 4381 306 4653 306 
Q 4919 306 5073 539 
Q 5228 772 5228 1178 
Q 5228 1588 5073 1820 
Q 4919 2053 4653 2053 
z
M 4653 2450 
Q 5147 2450 5437 2106 
Q 5728 1763 5728 1178 
Q 5728 594 5436 251 
Q 5144 -91 4653 -91 
Q 4153 -91 3862 251 
Q 3572 594 3572 1178 
Q 3572 1766 3864 2108 
Q 4156 2450 4653 2450 
z
M 1428 4353 
Q 1159 4353 1004 4120 
Q 850 3888 850 3481 
Q 850 3069 1003 2837 
Q 1156 2606 1428 2606 
Q 1700 2606 1854 2837 
Q 2009 3069 2009 3481 
Q 2009 3884 1853 4118 
Q 1697 4353 1428 4353 
z
M 4250 4750 
L 4750 4750 
L 1831 -91 
L 1331 -91 
L 4250 4750 
z
M 1428 4750 
Q 1922 4750 2215 4408 
Q 2509 4066 2509 3481 
Q 2509 2891 2217 2550 
Q 1925 2209 1428 2209 
Q 931 2209 642 2551 
Q 353 2894 353 3481 
Q 353 4063 643 4406 
Q 934 4750 1428 4750 
z
" transform="scale(0.015625)"/>
      </defs>
      <use xlink:href="#DejaVuSans-20" transform="translate(0 0.765625)"/>
      <use xlink:href="#DejaVuSans-Oblique-52" transform="translate(31.787109 0.765625)"/>
      <use xlink:href="#DejaVuSans-32" transform="translate(108.286302 39.046875) scale(0.7)"/>
      <use xlink:href="#DejaVuSans-3d" transform="translate(175.039232 0.765625)"/>
      <use xlink:href="#DejaVuSans-35" transform="translate(278.310716 0.765625)"/>
      <use xlink:href="#DejaVuSans-34" transform="translate(341.933763 0.765625)"/>
      <use xlink:href="#DejaVuSans-2e" transform="translate(405.55681 0.765625)"/>
      <use xlink:href="#DejaVuSans-39" transform="translate(437.343919 0.765625)"/>
      <use xlink:href="#DejaVuSans-34" transform="translate(500.966966 0.765625)"/>
      <use xlink:href="#DejaVuSans-25" transform="translate(564.590013 0.765625)"/>
     </g>
    </g>
   </g>
  </g>
 </g>
 <defs>
  <clipPath id="paad27e8de6">
   <rect x="42.5625" y="7.2" width="306.9" height="194.04"/>
  </clipPath>
 </defs>
</svg>
