<?xml version="1.0" encoding="utf-8" standalone="no"?>
<!DOCTYPE svg PUBLIC "-//W3C//DTD SVG 1.1//EN"
  "http://www.w3.org/Graphics/SVG/1.1/DTD/svg11.dtd">
<svg xmlns:xlink="http://www.w3.org/1999/xlink" width="366.140313pt" height="257.673625pt" viewBox="0 0 366.140313 257.673625" xmlns="http://www.w3.org/2000/svg" version="1.1">
 <metadata>
  <rdf:RDF xmlns:dc="http://purl.org/dc/elements/1.1/" xmlns:cc="http://creativecommons.org/ns#" xmlns:rdf="http://www.w3.org/1999/02/22-rdf-syntax-ns#">
   <cc:Work>
    <dc:type rdf:resource="http://purl.org/dc/dcmitype/StillImage"/>
    <dc:date>2024-10-27T18:40:23.937542</dc:date>
    <dc:format>image/svg+xml</dc:format>
    <dc:creator>
     <cc:Agent>
      <dc:title>Matplotlib v3.8.4, https://matplotlib.org/</dc:title>
     </cc:Agent>
    </dc:creator>
   </cc:Work>
  </rdf:RDF>
 </metadata>
 <defs>
  <style type="text/css">*{stroke-linejoin: round; stroke-linecap: butt}</style>
 </defs>
 <g id="figure_1">
  <g id="patch_1">
   <path d="M 0 257.673625 
L 366.140313 257.673625 
L 366.140313 -0 
L 0 -0 
z
" style="fill: #ffffff"/>
  </g>
  <g id="axes_1">
   <g id="patch_2">
    <path d="M 52.040313 112.34175 
L 358.940313 112.34175 
L 358.940313 24.14175 
L 52.040313 24.14175 
z
" style="fill: #e5e5e5"/>
   </g>
   <g id="matplotlib.axis_1">
    <g id="xtick_1">
     <g id="line2d_1">
      <path d="M 65.308453 112.34175 
L 65.308453 24.14175 
" clip-path="url(#p99e4312b0f)" style="fill: none; stroke: #ffffff; stroke-width: 0.8; stroke-linecap: square"/>
     </g>
     <g id="line2d_2">
      <defs>
       <path id="ma529a730e7" d="M 0 0 
L 0 3.5 
" style="stroke: #555555; stroke-width: 0.8"/>
      </defs>
      <g>
       <use xlink:href="#ma529a730e7" x="65.308453" y="112.34175" style="fill: #555555; stroke: #555555; stroke-width: 0.8"/>
      </g>
     </g>
     <g id="text_1">
      <!-- 0 -->
      <g style="fill: #555555" transform="translate(62.127203 126.940187) scale(0.1 -0.1)">
       <defs>
        <path id="DejaVuSans-30" d="M 2034 4250 
Q 1547 4250 1301 3770 
Q 1056 3291 1056 2328 
Q 1056 1369 1301 889 
Q 1547 409 2034 409 
Q 2525 409 2770 889 
Q 3016 1369 3016 2328 
Q 3016 3291 2770 3770 
Q 2525 4250 2034 4250 
z
M 2034 4750 
Q 2819 4750 3233 4129 
Q 3647 3509 3647 2328 
Q 3647 1150 3233 529 
Q 2819 -91 2034 -91 
Q 1250 -91 836 529 
Q 422 1150 422 2328 
Q 422 3509 836 4129 
Q 1250 4750 2034 4750 
z
" transform="scale(0.015625)"/>
       </defs>
       <use xlink:href="#DejaVuSans-30"/>
      </g>
     </g>
    </g>
    <g id="xtick_2">
     <g id="line2d_3">
      <path d="M 116.19347 112.34175 
L 116.19347 24.14175 
" clip-path="url(#p99e4312b0f)" style="fill: none; stroke: #ffffff; stroke-width: 0.8; stroke-linecap: square"/>
     </g>
     <g id="line2d_4">
      <g>
       <use xlink:href="#ma529a730e7" x="116.19347" y="112.34175" style="fill: #555555; stroke: #555555; stroke-width: 0.8"/>
      </g>
     </g>
     <g id="text_2">
      <!-- 2 -->
      <g style="fill: #555555" transform="translate(113.01222 126.940187) scale(0.1 -0.1)">
       <defs>
        <path id="DejaVuSans-32" d="M 1228 531 
L 3431 531 
L 3431 0 
L 469 0 
L 469 531 
Q 828 903 1448 1529 
Q 2069 2156 2228 2338 
Q 2531 2678 2651 2914 
Q 2772 3150 2772 3378 
Q 2772 3750 2511 3984 
Q 2250 4219 1831 4219 
Q 1534 4219 1204 4116 
Q 875 4013 500 3803 
L 500 4441 
Q 881 4594 1212 4672 
Q 1544 4750 1819 4750 
Q 2544 4750 2975 4387 
Q 3406 4025 3406 3419 
Q 3406 3131 3298 2873 
Q 3191 2616 2906 2266 
Q 2828 2175 2409 1742 
Q 1991 1309 1228 531 
z
" transform="scale(0.015625)"/>
       </defs>
       <use xlink:href="#DejaVuSans-32"/>
      </g>
     </g>
    </g>
    <g id="xtick_3">
     <g id="line2d_5">
      <path d="M 167.078486 112.34175 
L 167.078486 24.14175 
" clip-path="url(#p99e4312b0f)" style="fill: none; stroke: #ffffff; stroke-width: 0.8; stroke-linecap: square"/>
     </g>
     <g id="line2d_6">
      <g>
       <use xlink:href="#ma529a730e7" x="167.078486" y="112.34175" style="fill: #555555; stroke: #555555; stroke-width: 0.8"/>
      </g>
     </g>
     <g id="text_3">
      <!-- 4 -->
      <g style="fill: #555555" transform="translate(163.897236 126.940187) scale(0.1 -0.1)">
       <defs>
        <path id="DejaVuSans-34" d="M 2419 4116 
L 825 1625 
L 2419 1625 
L 2419 4116 
z
M 2253 4666 
L 3047 4666 
L 3047 1625 
L 3713 1625 
L 3713 1100 
L 3047 1100 
L 3047 0 
L 2419 0 
L 2419 1100 
L 313 1100 
L 313 1709 
L 2253 4666 
z
" transform="scale(0.015625)"/>
       </defs>
       <use xlink:href="#DejaVuSans-34"/>
      </g>
     </g>
    </g>
    <g id="xtick_4">
     <g id="line2d_7">
      <path d="M 217.963502 112.34175 
L 217.963502 24.14175 
" clip-path="url(#p99e4312b0f)" style="fill: none; stroke: #ffffff; stroke-width: 0.8; stroke-linecap: square"/>
     </g>
     <g id="line2d_8">
      <g>
       <use xlink:href="#ma529a730e7" x="217.963502" y="112.34175" style="fill: #555555; stroke: #555555; stroke-width: 0.8"/>
      </g>
     </g>
     <g id="text_4">
      <!-- 6 -->
      <g style="fill: #555555" transform="translate(214.782252 126.940187) scale(0.1 -0.1)">
       <defs>
        <path id="DejaVuSans-36" d="M 2113 2584 
Q 1688 2584 1439 2293 
Q 1191 2003 1191 1497 
Q 1191 994 1439 701 
Q 1688 409 2113 409 
Q 2538 409 2786 701 
Q 3034 994 3034 1497 
Q 3034 2003 2786 2293 
Q 2538 2584 2113 2584 
z
M 3366 4563 
L 3366 3988 
Q 3128 4100 2886 4159 
Q 2644 4219 2406 4219 
Q 1781 4219 1451 3797 
Q 1122 3375 1075 2522 
Q 1259 2794 1537 2939 
Q 1816 3084 2150 3084 
Q 2853 3084 3261 2657 
Q 3669 2231 3669 1497 
Q 3669 778 3244 343 
Q 2819 -91 2113 -91 
Q 1303 -91 875 529 
Q 447 1150 447 2328 
Q 447 3434 972 4092 
Q 1497 4750 2381 4750 
Q 2619 4750 2861 4703 
Q 3103 4656 3366 4563 
z
" transform="scale(0.015625)"/>
       </defs>
       <use xlink:href="#DejaVuSans-36"/>
      </g>
     </g>
    </g>
    <g id="xtick_5">
     <g id="line2d_9">
      <path d="M 268.848518 112.34175 
L 268.848518 24.14175 
" clip-path="url(#p99e4312b0f)" style="fill: none; stroke: #ffffff; stroke-width: 0.8; stroke-linecap: square"/>
     </g>
     <g id="line2d_10">
      <g>
       <use xlink:href="#ma529a730e7" x="268.848518" y="112.34175" style="fill: #555555; stroke: #555555; stroke-width: 0.8"/>
      </g>
     </g>
     <g id="text_5">
      <!-- 8 -->
      <g style="fill: #555555" transform="translate(265.667268 126.940187) scale(0.1 -0.1)">
       <defs>
        <path id="DejaVuSans-38" d="M 2034 2216 
Q 1584 2216 1326 1975 
Q 1069 1734 1069 1313 
Q 1069 891 1326 650 
Q 1584 409 2034 409 
Q 2484 409 2743 651 
Q 3003 894 3003 1313 
Q 3003 1734 2745 1975 
Q 2488 2216 2034 2216 
z
M 1403 2484 
Q 997 2584 770 2862 
Q 544 3141 544 3541 
Q 544 4100 942 4425 
Q 1341 4750 2034 4750 
Q 2731 4750 3128 4425 
Q 3525 4100 3525 3541 
Q 3525 3141 3298 2862 
Q 3072 2584 2669 2484 
Q 3125 2378 3379 2068 
Q 3634 1759 3634 1313 
Q 3634 634 3220 271 
Q 2806 -91 2034 -91 
Q 1263 -91 848 271 
Q 434 634 434 1313 
Q 434 1759 690 2068 
Q 947 2378 1403 2484 
z
M 1172 3481 
Q 1172 3119 1398 2916 
Q 1625 2713 2034 2713 
Q 2441 2713 2670 2916 
Q 2900 3119 2900 3481 
Q 2900 3844 2670 4047 
Q 2441 4250 2034 4250 
Q 1625 4250 1398 4047 
Q 1172 3844 1172 3481 
z
" transform="scale(0.015625)"/>
       </defs>
       <use xlink:href="#DejaVuSans-38"/>
      </g>
     </g>
    </g>
    <g id="xtick_6">
     <g id="line2d_11">
      <path d="M 319.733535 112.34175 
L 319.733535 24.14175 
" clip-path="url(#p99e4312b0f)" style="fill: none; stroke: #ffffff; stroke-width: 0.8; stroke-linecap: square"/>
     </g>
     <g id="line2d_12">
      <g>
       <use xlink:href="#ma529a730e7" x="319.733535" y="112.34175" style="fill: #555555; stroke: #555555; stroke-width: 0.8"/>
      </g>
     </g>
     <g id="text_6">
      <!-- 10 -->
      <g style="fill: #555555" transform="translate(313.371035 126.940187) scale(0.1 -0.1)">
       <defs>
        <path id="DejaVuSans-31" d="M 794 531 
L 1825 531 
L 1825 4091 
L 703 3866 
L 703 4441 
L 1819 4666 
L 2450 4666 
L 2450 531 
L 3481 531 
L 3481 0 
L 794 0 
L 794 531 
z
" transform="scale(0.015625)"/>
       </defs>
       <use xlink:href="#DejaVuSans-31"/>
       <use xlink:href="#DejaVuSans-30" x="63.623047"/>
      </g>
     </g>
    </g>
   </g>
   <g id="matplotlib.axis_2">
    <g id="ytick_1">
     <g id="line2d_13">
      <path d="M 52.040313 112.34175 
L 358.940313 112.34175 
" clip-path="url(#p99e4312b0f)" style="fill: none; stroke: #ffffff; stroke-width: 0.8; stroke-linecap: square"/>
     </g>
     <g id="line2d_14">
      <defs>
       <path id="mffd7382200" d="M 0 0 
L -3.5 0 
" style="stroke: #555555; stroke-width: 0.8"/>
      </defs>
      <g>
       <use xlink:href="#mffd7382200" x="52.040313" y="112.34175" style="fill: #555555; stroke: #555555; stroke-width: 0.8"/>
      </g>
     </g>
     <g id="text_7">
      <!-- 0 -->
      <g style="fill: #555555" transform="translate(38.677813 116.140969) scale(0.1 -0.1)">
       <use xlink:href="#DejaVuSans-30"/>
      </g>
     </g>
    </g>
    <g id="ytick_2">
     <g id="line2d_15">
      <path d="M 52.040313 88.272982 
L 358.940313 88.272982 
" clip-path="url(#p99e4312b0f)" style="fill: none; stroke: #ffffff; stroke-width: 0.8; stroke-linecap: square"/>
     </g>
     <g id="line2d_16">
      <g>
       <use xlink:href="#mffd7382200" x="52.040313" y="88.272982" style="fill: #555555; stroke: #555555; stroke-width: 0.8"/>
      </g>
     </g>
     <g id="text_8">
      <!-- 200 -->
      <g style="fill: #555555" transform="translate(25.952813 92.072201) scale(0.1 -0.1)">
       <use xlink:href="#DejaVuSans-32"/>
       <use xlink:href="#DejaVuSans-30" x="63.623047"/>
       <use xlink:href="#DejaVuSans-30" x="127.246094"/>
      </g>
     </g>
    </g>
    <g id="ytick_3">
     <g id="line2d_17">
      <path d="M 52.040313 64.204214 
L 358.940313 64.204214 
" clip-path="url(#p99e4312b0f)" style="fill: none; stroke: #ffffff; stroke-width: 0.8; stroke-linecap: square"/>
     </g>
     <g id="line2d_18">
      <g>
       <use xlink:href="#mffd7382200" x="52.040313" y="64.204214" style="fill: #555555; stroke: #555555; stroke-width: 0.8"/>
      </g>
     </g>
     <g id="text_9">
      <!-- 400 -->
      <g style="fill: #555555" transform="translate(25.952813 68.003433) scale(0.1 -0.1)">
       <use xlink:href="#DejaVuSans-34"/>
       <use xlink:href="#DejaVuSans-30" x="63.623047"/>
       <use xlink:href="#DejaVuSans-30" x="127.246094"/>
      </g>
     </g>
    </g>
    <g id="ytick_4">
     <g id="line2d_19">
      <path d="M 52.040313 40.135446 
L 358.940313 40.135446 
" clip-path="url(#p99e4312b0f)" style="fill: none; stroke: #ffffff; stroke-width: 0.8; stroke-linecap: square"/>
     </g>
     <g id="line2d_20">
      <g>
       <use xlink:href="#mffd7382200" x="52.040313" y="40.135446" style="fill: #555555; stroke: #555555; stroke-width: 0.8"/>
      </g>
     </g>
     <g id="text_10">
      <!-- 600 -->
      <g style="fill: #555555" transform="translate(25.952813 43.934665) scale(0.1 -0.1)">
       <use xlink:href="#DejaVuSans-36"/>
       <use xlink:href="#DejaVuSans-30" x="63.623047"/>
       <use xlink:href="#DejaVuSans-30" x="127.246094"/>
      </g>
     </g>
    </g>
    <g id="text_11">
     <!-- Count -->
     <g style="fill: #555555" transform="translate(19.457188 86.059875) rotate(-90) scale(0.12 -0.12)">
      <defs>
       <path id="DejaVuSans-43" d="M 4122 4306 
L 4122 3641 
Q 3803 3938 3442 4084 
Q 3081 4231 2675 4231 
Q 1875 4231 1450 3742 
Q 1025 3253 1025 2328 
Q 1025 1406 1450 917 
Q 1875 428 2675 428 
Q 3081 428 3442 575 
Q 3803 722 4122 1019 
L 4122 359 
Q 3791 134 3420 21 
Q 3050 -91 2638 -91 
Q 1578 -91 968 557 
Q 359 1206 359 2328 
Q 359 3453 968 4101 
Q 1578 4750 2638 4750 
Q 3056 4750 3426 4639 
Q 3797 4528 4122 4306 
z
" transform="scale(0.015625)"/>
       <path id="DejaVuSans-6f" d="M 1959 3097 
Q 1497 3097 1228 2736 
Q 959 2375 959 1747 
Q 959 1119 1226 758 
Q 1494 397 1959 397 
Q 2419 397 2687 759 
Q 2956 1122 2956 1747 
Q 2956 2369 2687 2733 
Q 2419 3097 1959 3097 
z
M 1959 3584 
Q 2709 3584 3137 3096 
Q 3566 2609 3566 1747 
Q 3566 888 3137 398 
Q 2709 -91 1959 -91 
Q 1206 -91 779 398 
Q 353 888 353 1747 
Q 353 2609 779 3096 
Q 1206 3584 1959 3584 
z
" transform="scale(0.015625)"/>
       <path id="DejaVuSans-75" d="M 544 1381 
L 544 3500 
L 1119 3500 
L 1119 1403 
Q 1119 906 1312 657 
Q 1506 409 1894 409 
Q 2359 409 2629 706 
Q 2900 1003 2900 1516 
L 2900 3500 
L 3475 3500 
L 3475 0 
L 2900 0 
L 2900 538 
Q 2691 219 2414 64 
Q 2138 -91 1772 -91 
Q 1169 -91 856 284 
Q 544 659 544 1381 
z
M 1991 3584 
L 1991 3584 
z
" transform="scale(0.015625)"/>
       <path id="DejaVuSans-6e" d="M 3513 2113 
L 3513 0 
L 2938 0 
L 2938 2094 
Q 2938 2591 2744 2837 
Q 2550 3084 2163 3084 
Q 1697 3084 1428 2787 
Q 1159 2491 1159 1978 
L 1159 0 
L 581 0 
L 581 3500 
L 1159 3500 
L 1159 2956 
Q 1366 3272 1645 3428 
Q 1925 3584 2291 3584 
Q 2894 3584 3203 3211 
Q 3513 2838 3513 2113 
z
" transform="scale(0.015625)"/>
       <path id="DejaVuSans-74" d="M 1172 4494 
L 1172 3500 
L 2356 3500 
L 2356 3053 
L 1172 3053 
L 1172 1153 
Q 1172 725 1289 603 
Q 1406 481 1766 481 
L 2356 481 
L 2356 0 
L 1766 0 
Q 1100 0 847 248 
Q 594 497 594 1153 
L 594 3053 
L 172 3053 
L 172 3500 
L 594 3500 
L 594 4494 
L 1172 4494 
z
" transform="scale(0.015625)"/>
      </defs>
      <use xlink:href="#DejaVuSans-43"/>
      <use xlink:href="#DejaVuSans-6f" x="69.824219"/>
      <use xlink:href="#DejaVuSans-75" x="131.005859"/>
      <use xlink:href="#DejaVuSans-6e" x="194.384766"/>
      <use xlink:href="#DejaVuSans-74" x="257.763672"/>
     </g>
    </g>
   </g>
   <g id="patch_3">
    <path d="M 65.990313 112.34175 
L 93.890313 112.34175 
L 93.890313 65.166965 
L 65.990313 65.166965 
z
" clip-path="url(#p99e4312b0f)" style="fill: #e24a33; fill-opacity: 0.5; stroke: #eeeeee; stroke-width: 0.5; stroke-linejoin: miter"/>
   </g>
   <g id="patch_4">
    <path d="M 93.890313 112.34175 
L 121.790313 112.34175 
L 121.790313 47.115389 
L 93.890313 47.115389 
z
" clip-path="url(#p99e4312b0f)" style="fill: #e24a33; fill-opacity: 0.5; stroke: #eeeeee; stroke-width: 0.5; stroke-linejoin: miter"/>
   </g>
   <g id="patch_5">
    <path d="M 121.790312 112.34175 
L 149.690313 112.34175 
L 149.690313 49.04089 
L 121.790312 49.04089 
z
" clip-path="url(#p99e4312b0f)" style="fill: #e24a33; fill-opacity: 0.5; stroke: #eeeeee; stroke-width: 0.5; stroke-linejoin: miter"/>
   </g>
   <g id="patch_6">
    <path d="M 149.690313 112.34175 
L 177.590312 112.34175 
L 177.590312 28.34175 
L 149.690313 28.34175 
z
" clip-path="url(#p99e4312b0f)" style="fill: #e24a33; fill-opacity: 0.5; stroke: #eeeeee; stroke-width: 0.5; stroke-linejoin: miter"/>
   </g>
   <g id="patch_7">
    <path d="M 177.590312 112.34175 
L 205.490312 112.34175 
L 205.490312 95.012237 
L 177.590312 95.012237 
z
" clip-path="url(#p99e4312b0f)" style="fill: #e24a33; fill-opacity: 0.5; stroke: #eeeeee; stroke-width: 0.5; stroke-linejoin: miter"/>
   </g>
   <g id="patch_8">
    <path d="M 205.490313 112.34175 
L 233.390313 112.34175 
L 233.390313 103.676994 
L 205.490313 103.676994 
z
" clip-path="url(#p99e4312b0f)" style="fill: #e24a33; fill-opacity: 0.5; stroke: #eeeeee; stroke-width: 0.5; stroke-linejoin: miter"/>
   </g>
   <g id="patch_9">
    <path d="M 233.390312 112.34175 
L 261.290312 112.34175 
L 261.290312 101.149773 
L 233.390312 101.149773 
z
" clip-path="url(#p99e4312b0f)" style="fill: #e24a33; fill-opacity: 0.5; stroke: #eeeeee; stroke-width: 0.5; stroke-linejoin: miter"/>
   </g>
   <g id="patch_10">
    <path d="M 261.290313 112.34175 
L 289.190313 112.34175 
L 289.190313 96.817395 
L 261.290313 96.817395 
z
" clip-path="url(#p99e4312b0f)" style="fill: #e24a33; fill-opacity: 0.5; stroke: #eeeeee; stroke-width: 0.5; stroke-linejoin: miter"/>
   </g>
   <g id="patch_11">
    <path d="M 289.190313 112.34175 
L 317.090312 112.34175 
L 317.090312 96.697051 
L 289.190313 96.697051 
z
" clip-path="url(#p99e4312b0f)" style="fill: #e24a33; fill-opacity: 0.5; stroke: #eeeeee; stroke-width: 0.5; stroke-linejoin: miter"/>
   </g>
   <g id="patch_12">
    <path d="M 317.090312 112.34175 
L 344.990313 112.34175 
L 344.990313 91.281578 
L 317.090312 91.281578 
z
" clip-path="url(#p99e4312b0f)" style="fill: #e24a33; fill-opacity: 0.5; stroke: #eeeeee; stroke-width: 0.5; stroke-linejoin: miter"/>
   </g>
   <g id="patch_13">
    <path d="M 65.990313 112.34175 
L 93.890313 112.34175 
L 93.890313 68.656936 
L 65.990313 68.656936 
z
" clip-path="url(#p99e4312b0f)" style="fill: #348abd; fill-opacity: 0.5; stroke: #eeeeee; stroke-width: 0.5; stroke-linejoin: miter"/>
   </g>
   <g id="patch_14">
    <path d="M 93.890313 112.34175 
L 121.790313 112.34175 
L 121.790313 48.559515 
L 93.890313 48.559515 
z
" clip-path="url(#p99e4312b0f)" style="fill: #348abd; fill-opacity: 0.5; stroke: #eeeeee; stroke-width: 0.5; stroke-linejoin: miter"/>
   </g>
   <g id="patch_15">
    <path d="M 121.790312 112.34175 
L 149.690313 112.34175 
L 149.690313 51.447767 
L 121.790312 51.447767 
z
" clip-path="url(#p99e4312b0f)" style="fill: #348abd; fill-opacity: 0.5; stroke: #eeeeee; stroke-width: 0.5; stroke-linejoin: miter"/>
   </g>
   <g id="patch_16">
    <path d="M 149.690313 112.34175 
L 177.590312 112.34175 
L 177.590312 31.952065 
L 149.690313 31.952065 
z
" clip-path="url(#p99e4312b0f)" style="fill: #348abd; fill-opacity: 0.5; stroke: #eeeeee; stroke-width: 0.5; stroke-linejoin: miter"/>
   </g>
   <g id="patch_17">
    <path d="M 177.590312 112.34175 
L 205.490312 112.34175 
L 205.490312 97.419114 
L 177.590312 97.419114 
z
" clip-path="url(#p99e4312b0f)" style="fill: #348abd; fill-opacity: 0.5; stroke: #eeeeee; stroke-width: 0.5; stroke-linejoin: miter"/>
   </g>
   <g id="patch_18">
    <path d="M 205.490313 112.34175 
L 233.390313 112.34175 
L 233.390313 106.565246 
L 205.490313 106.565246 
z
" clip-path="url(#p99e4312b0f)" style="fill: #348abd; fill-opacity: 0.5; stroke: #eeeeee; stroke-width: 0.5; stroke-linejoin: miter"/>
   </g>
   <g id="patch_19">
    <path d="M 233.390312 112.34175 
L 261.290312 112.34175 
L 261.290312 105.12112 
L 233.390312 105.12112 
z
" clip-path="url(#p99e4312b0f)" style="fill: #348abd; fill-opacity: 0.5; stroke: #eeeeee; stroke-width: 0.5; stroke-linejoin: miter"/>
   </g>
   <g id="patch_20">
    <path d="M 261.290313 112.34175 
L 289.190313 112.34175 
L 289.190313 102.473555 
L 261.290313 102.473555 
z
" clip-path="url(#p99e4312b0f)" style="fill: #348abd; fill-opacity: 0.5; stroke: #eeeeee; stroke-width: 0.5; stroke-linejoin: miter"/>
   </g>
   <g id="patch_21">
    <path d="M 289.190313 112.34175 
L 317.090312 112.34175 
L 317.090312 100.548054 
L 289.190313 100.548054 
z
" clip-path="url(#p99e4312b0f)" style="fill: #348abd; fill-opacity: 0.5; stroke: #eeeeee; stroke-width: 0.5; stroke-linejoin: miter"/>
   </g>
   <g id="patch_22">
    <path d="M 317.090312 112.34175 
L 344.990313 112.34175 
L 344.990313 96.215676 
L 317.090312 96.215676 
z
" clip-path="url(#p99e4312b0f)" style="fill: #348abd; fill-opacity: 0.5; stroke: #eeeeee; stroke-width: 0.5; stroke-linejoin: miter"/>
   </g>
   <g id="line2d_21">
    <path d="M 65.990313 98.989384 
L 67.392323 96.855395 
L 68.794333 94.500059 
L 71.598353 89.140732 
L 74.402373 83.001233 
L 77.206393 76.272308 
L 84.216443 58.942859 
L 87.020463 52.823893 
L 88.422473 50.1295 
L 89.824483 47.73041 
L 91.226493 45.656842 
L 92.628503 43.930683 
L 94.030514 42.564749 
L 95.432524 41.562421 
L 96.834534 40.917666 
L 98.236544 40.615456 
L 99.638554 40.632525 
L 101.040564 40.938435 
L 102.442574 41.496882 
L 103.844584 42.267154 
L 106.648604 44.26756 
L 113.658654 49.937175 
L 116.462674 51.714374 
L 117.864684 52.39733 
L 119.266694 52.924684 
L 120.668704 53.288559 
L 122.070715 53.485468 
L 123.472725 53.515887 
L 124.874735 53.38378 
L 126.276745 53.096122 
L 127.678755 52.662417 
L 129.080765 52.094254 
L 131.884785 50.608847 
L 134.688805 48.759478 
L 138.894835 45.590333 
L 144.502875 41.334212 
L 147.306895 39.489701 
L 150.110916 38.002787 
L 151.512926 37.431247 
L 152.914936 36.993736 
L 154.316946 36.704202 
L 155.718956 36.575936 
L 157.120966 36.621381 
L 158.522976 36.851902 
L 159.924986 37.2775 
L 161.326996 37.906497 
L 162.729006 38.745205 
L 164.131016 39.797573 
L 165.533026 41.064861 
L 166.935036 42.545344 
L 168.337046 44.234074 
L 169.739056 46.122723 
L 172.543076 50.449327 
L 175.347096 55.391584 
L 179.553127 63.558275 
L 185.161167 74.72488 
L 187.965187 79.955476 
L 190.769207 84.725192 
L 193.573227 88.923494 
L 196.377247 92.492488 
L 199.181267 95.423248 
L 201.985287 97.746856 
L 204.789307 99.522632 
L 207.593328 100.826017 
L 210.397348 101.737992 
L 213.201368 102.337076 
L 216.005388 102.69415 
L 220.211418 102.905304 
L 224.417448 102.862506 
L 230.025488 102.583538 
L 238.437549 101.914012 
L 246.849609 101.027169 
L 258.065689 99.584894 
L 272.08579 97.772721 
L 279.09584 97.064572 
L 286.10589 96.573863 
L 309.940061 95.199949 
L 318.352122 94.553747 
L 322.558152 94.47563 
L 325.362172 94.612528 
L 328.166192 94.94938 
L 330.970212 95.51751 
L 333.774232 96.332492 
L 336.578252 97.389904 
L 339.382272 98.663687 
L 343.588302 100.874605 
L 344.990313 101.660116 
L 344.990313 101.660116 
" clip-path="url(#p99e4312b0f)" style="fill: none; stroke: #e24a33; stroke-width: 1.5; stroke-linecap: square"/>
   </g>
   <g id="line2d_22">
    <path d="M 66.532238 100.608637 
L 67.931525 98.528978 
L 69.330812 96.208289 
L 70.730098 93.64682 
L 73.528672 87.835077 
L 76.327246 81.23368 
L 80.525106 70.448273 
L 84.722966 59.782344 
L 87.52154 53.483617 
L 88.920827 50.735767 
L 90.320114 48.312992 
L 91.7194 46.247957 
L 93.118687 44.563463 
L 94.517974 43.271656 
L 95.917261 42.373707 
L 97.316548 41.859987 
L 98.715834 41.710705 
L 100.115121 41.89696 
L 101.514408 42.382149 
L 102.913695 43.123617 
L 104.312982 44.07447 
L 107.111555 46.40662 
L 112.708703 51.4639 
L 115.507276 53.557002 
L 116.906563 54.396553 
L 118.30585 55.075837 
L 119.705137 55.584926 
L 121.104423 55.918825 
L 122.50371 56.076961 
L 123.902997 56.062619 
L 125.302284 55.882378 
L 126.701571 55.545554 
L 128.100857 55.063681 
L 130.899431 53.719238 
L 133.698005 51.969126 
L 136.496578 49.944394 
L 144.892299 43.559508 
L 147.690873 41.759479 
L 150.489446 40.329673 
L 151.888733 39.790728 
L 153.28802 39.388431 
L 154.687307 39.136884 
L 156.086594 39.049704 
L 157.48588 39.139814 
L 158.885167 39.419172 
L 160.284454 39.898439 
L 161.683741 40.586599 
L 163.083028 41.490541 
L 164.482314 42.614634 
L 165.881601 43.960314 
L 167.280888 45.525713 
L 168.680175 47.305365 
L 171.478748 51.466526 
L 174.277322 56.323978 
L 177.075896 61.702161 
L 186.870903 81.381149 
L 189.669477 86.352701 
L 192.468051 90.746787 
L 195.266624 94.495807 
L 198.065198 97.587015 
L 200.863771 100.051999 
L 203.662345 101.952801 
L 206.460919 103.367911 
L 209.259492 104.380558 
L 212.058066 105.070513 
L 214.856639 105.509434 
L 217.655213 105.758999 
L 221.853073 105.888437 
L 227.450221 105.80154 
L 241.443089 105.247224 
L 254.03667 104.588644 
L 262.432391 103.922545 
L 272.227399 102.878396 
L 284.82098 101.504039 
L 293.216701 100.817548 
L 321.202437 98.903306 
L 325.400297 98.896625 
L 328.198871 99.063189 
L 330.997444 99.405005 
L 333.796018 99.944033 
L 336.594592 100.686521 
L 339.393165 101.619696 
L 343.591026 103.302161 
L 344.990313 103.913357 
L 344.990313 103.913357 
" clip-path="url(#p99e4312b0f)" style="fill: none; stroke: #348abd; stroke-width: 1.5; stroke-linecap: square"/>
   </g>
   <g id="patch_23">
    <path d="M 52.040313 112.34175 
L 52.040313 24.14175 
" style="fill: none; stroke: #ffffff; stroke-linejoin: miter; stroke-linecap: square"/>
   </g>
   <g id="patch_24">
    <path d="M 358.940313 112.34175 
L 358.940313 24.14175 
" style="fill: none; stroke: #ffffff; stroke-linejoin: miter; stroke-linecap: square"/>
   </g>
   <g id="patch_25">
    <path d="M 52.040312 112.34175 
L 358.940313 112.34175 
" style="fill: none; stroke: #ffffff; stroke-linejoin: miter; stroke-linecap: square"/>
   </g>
   <g id="patch_26">
    <path d="M 52.040312 24.14175 
L 358.940313 24.14175 
" style="fill: none; stroke: #ffffff; stroke-linejoin: miter; stroke-linecap: square"/>
   </g>
   <g id="text_12">
    <!-- Completenes of Distance for HECATE -->
    <g transform="translate(72.264438 18.14175) scale(0.144 -0.144)">
     <defs>
      <path id="DejaVuSans-6d" d="M 3328 2828 
Q 3544 3216 3844 3400 
Q 4144 3584 4550 3584 
Q 5097 3584 5394 3201 
Q 5691 2819 5691 2113 
L 5691 0 
L 5113 0 
L 5113 2094 
Q 5113 2597 4934 2840 
Q 4756 3084 4391 3084 
Q 3944 3084 3684 2787 
Q 3425 2491 3425 1978 
L 3425 0 
L 2847 0 
L 2847 2094 
Q 2847 2600 2669 2842 
Q 2491 3084 2119 3084 
Q 1678 3084 1418 2786 
Q 1159 2488 1159 1978 
L 1159 0 
L 581 0 
L 581 3500 
L 1159 3500 
L 1159 2956 
Q 1356 3278 1631 3431 
Q 1906 3584 2284 3584 
Q 2666 3584 2933 3390 
Q 3200 3197 3328 2828 
z
" transform="scale(0.015625)"/>
      <path id="DejaVuSans-70" d="M 1159 525 
L 1159 -1331 
L 581 -1331 
L 581 3500 
L 1159 3500 
L 1159 2969 
Q 1341 3281 1617 3432 
Q 1894 3584 2278 3584 
Q 2916 3584 3314 3078 
Q 3713 2572 3713 1747 
Q 3713 922 3314 415 
Q 2916 -91 2278 -91 
Q 1894 -91 1617 61 
Q 1341 213 1159 525 
z
M 3116 1747 
Q 3116 2381 2855 2742 
Q 2594 3103 2138 3103 
Q 1681 3103 1420 2742 
Q 1159 2381 1159 1747 
Q 1159 1113 1420 752 
Q 1681 391 2138 391 
Q 2594 391 2855 752 
Q 3116 1113 3116 1747 
z
" transform="scale(0.015625)"/>
      <path id="DejaVuSans-6c" d="M 603 4863 
L 1178 4863 
L 1178 0 
L 603 0 
L 603 4863 
z
" transform="scale(0.015625)"/>
      <path id="DejaVuSans-65" d="M 3597 1894 
L 3597 1613 
L 953 1613 
Q 991 1019 1311 708 
Q 1631 397 2203 397 
Q 2534 397 2845 478 
Q 3156 559 3463 722 
L 3463 178 
Q 3153 47 2828 -22 
Q 2503 -91 2169 -91 
Q 1331 -91 842 396 
Q 353 884 353 1716 
Q 353 2575 817 3079 
Q 1281 3584 2069 3584 
Q 2775 3584 3186 3129 
Q 3597 2675 3597 1894 
z
M 3022 2063 
Q 3016 2534 2758 2815 
Q 2500 3097 2075 3097 
Q 1594 3097 1305 2825 
Q 1016 2553 972 2059 
L 3022 2063 
z
" transform="scale(0.015625)"/>
      <path id="DejaVuSans-73" d="M 2834 3397 
L 2834 2853 
Q 2591 2978 2328 3040 
Q 2066 3103 1784 3103 
Q 1356 3103 1142 2972 
Q 928 2841 928 2578 
Q 928 2378 1081 2264 
Q 1234 2150 1697 2047 
L 1894 2003 
Q 2506 1872 2764 1633 
Q 3022 1394 3022 966 
Q 3022 478 2636 193 
Q 2250 -91 1575 -91 
Q 1294 -91 989 -36 
Q 684 19 347 128 
L 347 722 
Q 666 556 975 473 
Q 1284 391 1588 391 
Q 1994 391 2212 530 
Q 2431 669 2431 922 
Q 2431 1156 2273 1281 
Q 2116 1406 1581 1522 
L 1381 1569 
Q 847 1681 609 1914 
Q 372 2147 372 2553 
Q 372 3047 722 3315 
Q 1072 3584 1716 3584 
Q 2034 3584 2315 3537 
Q 2597 3491 2834 3397 
z
" transform="scale(0.015625)"/>
      <path id="DejaVuSans-20" transform="scale(0.015625)"/>
      <path id="DejaVuSans-66" d="M 2375 4863 
L 2375 4384 
L 1825 4384 
Q 1516 4384 1395 4259 
Q 1275 4134 1275 3809 
L 1275 3500 
L 2222 3500 
L 2222 3053 
L 1275 3053 
L 1275 0 
L 697 0 
L 697 3053 
L 147 3053 
L 147 3500 
L 697 3500 
L 697 3744 
Q 697 4328 969 4595 
Q 1241 4863 1831 4863 
L 2375 4863 
z
" transform="scale(0.015625)"/>
      <path id="DejaVuSans-44" d="M 1259 4147 
L 1259 519 
L 2022 519 
Q 2988 519 3436 956 
Q 3884 1394 3884 2338 
Q 3884 3275 3436 3711 
Q 2988 4147 2022 4147 
L 1259 4147 
z
M 628 4666 
L 1925 4666 
Q 3281 4666 3915 4102 
Q 4550 3538 4550 2338 
Q 4550 1131 3912 565 
Q 3275 0 1925 0 
L 628 0 
L 628 4666 
z
" transform="scale(0.015625)"/>
      <path id="DejaVuSans-69" d="M 603 3500 
L 1178 3500 
L 1178 0 
L 603 0 
L 603 3500 
z
M 603 4863 
L 1178 4863 
L 1178 4134 
L 603 4134 
L 603 4863 
z
" transform="scale(0.015625)"/>
      <path id="DejaVuSans-61" d="M 2194 1759 
Q 1497 1759 1228 1600 
Q 959 1441 959 1056 
Q 959 750 1161 570 
Q 1363 391 1709 391 
Q 2188 391 2477 730 
Q 2766 1069 2766 1631 
L 2766 1759 
L 2194 1759 
z
M 3341 1997 
L 3341 0 
L 2766 0 
L 2766 531 
Q 2569 213 2275 61 
Q 1981 -91 1556 -91 
Q 1019 -91 701 211 
Q 384 513 384 1019 
Q 384 1609 779 1909 
Q 1175 2209 1959 2209 
L 2766 2209 
L 2766 2266 
Q 2766 2663 2505 2880 
Q 2244 3097 1772 3097 
Q 1472 3097 1187 3025 
Q 903 2953 641 2809 
L 641 3341 
Q 956 3463 1253 3523 
Q 1550 3584 1831 3584 
Q 2591 3584 2966 3190 
Q 3341 2797 3341 1997 
z
" transform="scale(0.015625)"/>
      <path id="DejaVuSans-63" d="M 3122 3366 
L 3122 2828 
Q 2878 2963 2633 3030 
Q 2388 3097 2138 3097 
Q 1578 3097 1268 2742 
Q 959 2388 959 1747 
Q 959 1106 1268 751 
Q 1578 397 2138 397 
Q 2388 397 2633 464 
Q 2878 531 3122 666 
L 3122 134 
Q 2881 22 2623 -34 
Q 2366 -91 2075 -91 
Q 1284 -91 818 406 
Q 353 903 353 1747 
Q 353 2603 823 3093 
Q 1294 3584 2113 3584 
Q 2378 3584 2631 3529 
Q 2884 3475 3122 3366 
z
" transform="scale(0.015625)"/>
      <path id="DejaVuSans-72" d="M 2631 2963 
Q 2534 3019 2420 3045 
Q 2306 3072 2169 3072 
Q 1681 3072 1420 2755 
Q 1159 2438 1159 1844 
L 1159 0 
L 581 0 
L 581 3500 
L 1159 3500 
L 1159 2956 
Q 1341 3275 1631 3429 
Q 1922 3584 2338 3584 
Q 2397 3584 2469 3576 
Q 2541 3569 2628 3553 
L 2631 2963 
z
" transform="scale(0.015625)"/>
      <path id="DejaVuSans-48" d="M 628 4666 
L 1259 4666 
L 1259 2753 
L 3553 2753 
L 3553 4666 
L 4184 4666 
L 4184 0 
L 3553 0 
L 3553 2222 
L 1259 2222 
L 1259 0 
L 628 0 
L 628 4666 
z
" transform="scale(0.015625)"/>
      <path id="DejaVuSans-45" d="M 628 4666 
L 3578 4666 
L 3578 4134 
L 1259 4134 
L 1259 2753 
L 3481 2753 
L 3481 2222 
L 1259 2222 
L 1259 531 
L 3634 531 
L 3634 0 
L 628 0 
L 628 4666 
z
" transform="scale(0.015625)"/>
      <path id="DejaVuSans-41" d="M 2188 4044 
L 1331 1722 
L 3047 1722 
L 2188 4044 
z
M 1831 4666 
L 2547 4666 
L 4325 0 
L 3669 0 
L 3244 1197 
L 1141 1197 
L 716 0 
L 50 0 
L 1831 4666 
z
" transform="scale(0.015625)"/>
      <path id="DejaVuSans-54" d="M -19 4666 
L 3928 4666 
L 3928 4134 
L 2272 4134 
L 2272 0 
L 1638 0 
L 1638 4134 
L -19 4134 
L -19 4666 
z
" transform="scale(0.015625)"/>
     </defs>
     <use xlink:href="#DejaVuSans-43"/>
     <use xlink:href="#DejaVuSans-6f" x="69.824219"/>
     <use xlink:href="#DejaVuSans-6d" x="131.005859"/>
     <use xlink:href="#DejaVuSans-70" x="228.417969"/>
     <use xlink:href="#DejaVuSans-6c" x="291.894531"/>
     <use xlink:href="#DejaVuSans-65" x="319.677734"/>
     <use xlink:href="#DejaVuSans-74" x="381.201172"/>
     <use xlink:href="#DejaVuSans-65" x="420.410156"/>
     <use xlink:href="#DejaVuSans-6e" x="481.933594"/>
     <use xlink:href="#DejaVuSans-65" x="545.3125"/>
     <use xlink:href="#DejaVuSans-73" x="606.835938"/>
     <use xlink:href="#DejaVuSans-20" x="658.935547"/>
     <use xlink:href="#DejaVuSans-6f" x="690.722656"/>
     <use xlink:href="#DejaVuSans-66" x="751.904297"/>
     <use xlink:href="#DejaVuSans-20" x="787.109375"/>
     <use xlink:href="#DejaVuSans-44" x="818.896484"/>
     <use xlink:href="#DejaVuSans-69" x="895.898438"/>
     <use xlink:href="#DejaVuSans-73" x="923.681641"/>
     <use xlink:href="#DejaVuSans-74" x="975.78125"/>
     <use xlink:href="#DejaVuSans-61" x="1014.990234"/>
     <use xlink:href="#DejaVuSans-6e" x="1076.269531"/>
     <use xlink:href="#DejaVuSans-63" x="1139.648438"/>
     <use xlink:href="#DejaVuSans-65" x="1194.628906"/>
     <use xlink:href="#DejaVuSans-20" x="1256.152344"/>
     <use xlink:href="#DejaVuSans-66" x="1287.939453"/>
     <use xlink:href="#DejaVuSans-6f" x="1323.144531"/>
     <use xlink:href="#DejaVuSans-72" x="1384.326172"/>
     <use xlink:href="#DejaVuSans-20" x="1425.439453"/>
     <use xlink:href="#DejaVuSans-48" x="1457.226562"/>
     <use xlink:href="#DejaVuSans-45" x="1532.421875"/>
     <use xlink:href="#DejaVuSans-43" x="1595.605469"/>
     <use xlink:href="#DejaVuSans-41" x="1665.429688"/>
     <use xlink:href="#DejaVuSans-54" x="1726.087891"/>
     <use xlink:href="#DejaVuSans-45" x="1787.171875"/>
    </g>
   </g>
  </g>
  <g id="axes_2">
   <g id="patch_27">
    <path d="M 52.040313 218.18175 
L 358.940313 218.18175 
L 358.940313 129.98175 
L 52.040313 129.98175 
z
" style="fill: #e5e5e5"/>
   </g>
   <g id="matplotlib.axis_3">
    <g id="xtick_7">
     <g id="line2d_23">
      <path d="M 65.308453 218.18175 
L 65.308453 129.98175 
" clip-path="url(#p786103fda8)" style="fill: none; stroke: #ffffff; stroke-width: 0.8; stroke-linecap: square"/>
     </g>
     <g id="line2d_24">
      <g>
       <use xlink:href="#ma529a730e7" x="65.308453" y="218.18175" style="fill: #555555; stroke: #555555; stroke-width: 0.8"/>
      </g>
     </g>
     <g id="text_13">
      <!-- 0 -->
      <g style="fill: #555555" transform="translate(62.127203 232.780188) scale(0.1 -0.1)">
       <use xlink:href="#DejaVuSans-30"/>
      </g>
     </g>
    </g>
    <g id="xtick_8">
     <g id="line2d_25">
      <path d="M 116.19347 218.18175 
L 116.19347 129.98175 
" clip-path="url(#p786103fda8)" style="fill: none; stroke: #ffffff; stroke-width: 0.8; stroke-linecap: square"/>
     </g>
     <g id="line2d_26">
      <g>
       <use xlink:href="#ma529a730e7" x="116.19347" y="218.18175" style="fill: #555555; stroke: #555555; stroke-width: 0.8"/>
      </g>
     </g>
     <g id="text_14">
      <!-- 2 -->
      <g style="fill: #555555" transform="translate(113.01222 232.780188) scale(0.1 -0.1)">
       <use xlink:href="#DejaVuSans-32"/>
      </g>
     </g>
    </g>
    <g id="xtick_9">
     <g id="line2d_27">
      <path d="M 167.078486 218.18175 
L 167.078486 129.98175 
" clip-path="url(#p786103fda8)" style="fill: none; stroke: #ffffff; stroke-width: 0.8; stroke-linecap: square"/>
     </g>
     <g id="line2d_28">
      <g>
       <use xlink:href="#ma529a730e7" x="167.078486" y="218.18175" style="fill: #555555; stroke: #555555; stroke-width: 0.8"/>
      </g>
     </g>
     <g id="text_15">
      <!-- 4 -->
      <g style="fill: #555555" transform="translate(163.897236 232.780188) scale(0.1 -0.1)">
       <use xlink:href="#DejaVuSans-34"/>
      </g>
     </g>
    </g>
    <g id="xtick_10">
     <g id="line2d_29">
      <path d="M 217.963502 218.18175 
L 217.963502 129.98175 
" clip-path="url(#p786103fda8)" style="fill: none; stroke: #ffffff; stroke-width: 0.8; stroke-linecap: square"/>
     </g>
     <g id="line2d_30">
      <g>
       <use xlink:href="#ma529a730e7" x="217.963502" y="218.18175" style="fill: #555555; stroke: #555555; stroke-width: 0.8"/>
      </g>
     </g>
     <g id="text_16">
      <!-- 6 -->
      <g style="fill: #555555" transform="translate(214.782252 232.780188) scale(0.1 -0.1)">
       <use xlink:href="#DejaVuSans-36"/>
      </g>
     </g>
    </g>
    <g id="xtick_11">
     <g id="line2d_31">
      <path d="M 268.848518 218.18175 
L 268.848518 129.98175 
" clip-path="url(#p786103fda8)" style="fill: none; stroke: #ffffff; stroke-width: 0.8; stroke-linecap: square"/>
     </g>
     <g id="line2d_32">
      <g>
       <use xlink:href="#ma529a730e7" x="268.848518" y="218.18175" style="fill: #555555; stroke: #555555; stroke-width: 0.8"/>
      </g>
     </g>
     <g id="text_17">
      <!-- 8 -->
      <g style="fill: #555555" transform="translate(265.667268 232.780188) scale(0.1 -0.1)">
       <use xlink:href="#DejaVuSans-38"/>
      </g>
     </g>
    </g>
    <g id="xtick_12">
     <g id="line2d_33">
      <path d="M 319.733535 218.18175 
L 319.733535 129.98175 
" clip-path="url(#p786103fda8)" style="fill: none; stroke: #ffffff; stroke-width: 0.8; stroke-linecap: square"/>
     </g>
     <g id="line2d_34">
      <g>
       <use xlink:href="#ma529a730e7" x="319.733535" y="218.18175" style="fill: #555555; stroke: #555555; stroke-width: 0.8"/>
      </g>
     </g>
     <g id="text_18">
      <!-- 10 -->
      <g style="fill: #555555" transform="translate(313.371035 232.780188) scale(0.1 -0.1)">
       <use xlink:href="#DejaVuSans-31"/>
       <use xlink:href="#DejaVuSans-30" x="63.623047"/>
      </g>
     </g>
    </g>
    <g id="text_19">
     <!-- Distance [Mpc] -->
     <g style="fill: #555555" transform="translate(160.381563 247.978) scale(0.12 -0.12)">
      <defs>
       <path id="DejaVuSans-5b" d="M 550 4863 
L 1875 4863 
L 1875 4416 
L 1125 4416 
L 1125 -397 
L 1875 -397 
L 1875 -844 
L 550 -844 
L 550 4863 
z
" transform="scale(0.015625)"/>
       <path id="DejaVuSans-4d" d="M 628 4666 
L 1569 4666 
L 2759 1491 
L 3956 4666 
L 4897 4666 
L 4897 0 
L 4281 0 
L 4281 4097 
L 3078 897 
L 2444 897 
L 1241 4097 
L 1241 0 
L 628 0 
L 628 4666 
z
" transform="scale(0.015625)"/>
       <path id="DejaVuSans-5d" d="M 1947 4863 
L 1947 -844 
L 622 -844 
L 622 -397 
L 1369 -397 
L 1369 4416 
L 622 4416 
L 622 4863 
L 1947 4863 
z
" transform="scale(0.015625)"/>
      </defs>
      <use xlink:href="#DejaVuSans-44"/>
      <use xlink:href="#DejaVuSans-69" x="77.001953"/>
      <use xlink:href="#DejaVuSans-73" x="104.785156"/>
      <use xlink:href="#DejaVuSans-74" x="156.884766"/>
      <use xlink:href="#DejaVuSans-61" x="196.09375"/>
      <use xlink:href="#DejaVuSans-6e" x="257.373047"/>
      <use xlink:href="#DejaVuSans-63" x="320.751953"/>
      <use xlink:href="#DejaVuSans-65" x="375.732422"/>
      <use xlink:href="#DejaVuSans-20" x="437.255859"/>
      <use xlink:href="#DejaVuSans-5b" x="469.042969"/>
      <use xlink:href="#DejaVuSans-4d" x="508.056641"/>
      <use xlink:href="#DejaVuSans-70" x="594.335938"/>
      <use xlink:href="#DejaVuSans-63" x="657.8125"/>
      <use xlink:href="#DejaVuSans-5d" x="712.792969"/>
     </g>
    </g>
   </g>
   <g id="matplotlib.axis_4">
    <g id="ytick_5">
     <g id="line2d_35">
      <path d="M 52.040313 214.172659 
L 358.940313 214.172659 
" clip-path="url(#p786103fda8)" style="fill: none; stroke: #ffffff; stroke-width: 0.8; stroke-linecap: square"/>
     </g>
     <g id="line2d_36">
      <g>
       <use xlink:href="#mffd7382200" x="52.040313" y="214.172659" style="fill: #555555; stroke: #555555; stroke-width: 0.8"/>
      </g>
     </g>
     <g id="text_20">
      <!-- 64% -->
      <g style="fill: #555555" transform="translate(22.81375 217.971878) scale(0.1 -0.1)">
       <defs>
        <path id="DejaVuSans-25" d="M 4653 2053 
Q 4381 2053 4226 1822 
Q 4072 1591 4072 1178 
Q 4072 772 4226 539 
Q 4381 306 4653 306 
Q 4919 306 5073 539 
Q 5228 772 5228 1178 
Q 5228 1588 5073 1820 
Q 4919 2053 4653 2053 
z
M 4653 2450 
Q 5147 2450 5437 2106 
Q 5728 1763 5728 1178 
Q 5728 594 5436 251 
Q 5144 -91 4653 -91 
Q 4153 -91 3862 251 
Q 3572 594 3572 1178 
Q 3572 1766 3864 2108 
Q 4156 2450 4653 2450 
z
M 1428 4353 
Q 1159 4353 1004 4120 
Q 850 3888 850 3481 
Q 850 3069 1003 2837 
Q 1156 2606 1428 2606 
Q 1700 2606 1854 2837 
Q 2009 3069 2009 3481 
Q 2009 3884 1853 4118 
Q 1697 4353 1428 4353 
z
M 4250 4750 
L 4750 4750 
L 1831 -91 
L 1331 -91 
L 4250 4750 
z
M 1428 4750 
Q 1922 4750 2215 4408 
Q 2509 4066 2509 3481 
Q 2509 2891 2217 2550 
Q 1925 2209 1428 2209 
Q 931 2209 642 2551 
Q 353 2894 353 3481 
Q 353 4063 643 4406 
Q 934 4750 1428 4750 
z
" transform="scale(0.015625)"/>
       </defs>
       <use xlink:href="#DejaVuSans-36"/>
       <use xlink:href="#DejaVuSans-34" x="63.623047"/>
       <use xlink:href="#DejaVuSans-25" x="127.246094"/>
      </g>
     </g>
    </g>
    <g id="ytick_6">
     <g id="line2d_37">
      <path d="M 52.040313 202.457052 
L 358.940313 202.457052 
" clip-path="url(#p786103fda8)" style="fill: none; stroke: #ffffff; stroke-width: 0.8; stroke-linecap: square"/>
     </g>
     <g id="line2d_38">
      <g>
       <use xlink:href="#mffd7382200" x="52.040313" y="202.457052" style="fill: #555555; stroke: #555555; stroke-width: 0.8"/>
      </g>
     </g>
     <g id="text_21">
      <!-- 69% -->
      <g style="fill: #555555" transform="translate(22.81375 206.256271) scale(0.1 -0.1)">
       <defs>
        <path id="DejaVuSans-39" d="M 703 97 
L 703 672 
Q 941 559 1184 500 
Q 1428 441 1663 441 
Q 2288 441 2617 861 
Q 2947 1281 2994 2138 
Q 2813 1869 2534 1725 
Q 2256 1581 1919 1581 
Q 1219 1581 811 2004 
Q 403 2428 403 3163 
Q 403 3881 828 4315 
Q 1253 4750 1959 4750 
Q 2769 4750 3195 4129 
Q 3622 3509 3622 2328 
Q 3622 1225 3098 567 
Q 2575 -91 1691 -91 
Q 1453 -91 1209 -44 
Q 966 3 703 97 
z
M 1959 2075 
Q 2384 2075 2632 2365 
Q 2881 2656 2881 3163 
Q 2881 3666 2632 3958 
Q 2384 4250 1959 4250 
Q 1534 4250 1286 3958 
Q 1038 3666 1038 3163 
Q 1038 2656 1286 2365 
Q 1534 2075 1959 2075 
z
" transform="scale(0.015625)"/>
       </defs>
       <use xlink:href="#DejaVuSans-36"/>
       <use xlink:href="#DejaVuSans-39" x="63.623047"/>
       <use xlink:href="#DejaVuSans-25" x="127.246094"/>
      </g>
     </g>
    </g>
    <g id="ytick_7">
     <g id="line2d_39">
      <path d="M 52.040313 190.741445 
L 358.940313 190.741445 
" clip-path="url(#p786103fda8)" style="fill: none; stroke: #ffffff; stroke-width: 0.8; stroke-linecap: square"/>
     </g>
     <g id="line2d_40">
      <g>
       <use xlink:href="#mffd7382200" x="52.040313" y="190.741445" style="fill: #555555; stroke: #555555; stroke-width: 0.8"/>
      </g>
     </g>
     <g id="text_22">
      <!-- 74% -->
      <g style="fill: #555555" transform="translate(22.81375 194.540663) scale(0.1 -0.1)">
       <defs>
        <path id="DejaVuSans-37" d="M 525 4666 
L 3525 4666 
L 3525 4397 
L 1831 0 
L 1172 0 
L 2766 4134 
L 525 4134 
L 525 4666 
z
" transform="scale(0.015625)"/>
       </defs>
       <use xlink:href="#DejaVuSans-37"/>
       <use xlink:href="#DejaVuSans-34" x="63.623047"/>
       <use xlink:href="#DejaVuSans-25" x="127.246094"/>
      </g>
     </g>
    </g>
    <g id="ytick_8">
     <g id="line2d_41">
      <path d="M 52.040313 179.025837 
L 358.940313 179.025837 
" clip-path="url(#p786103fda8)" style="fill: none; stroke: #ffffff; stroke-width: 0.8; stroke-linecap: square"/>
     </g>
     <g id="line2d_42">
      <g>
       <use xlink:href="#mffd7382200" x="52.040313" y="179.025837" style="fill: #555555; stroke: #555555; stroke-width: 0.8"/>
      </g>
     </g>
     <g id="text_23">
      <!-- 79% -->
      <g style="fill: #555555" transform="translate(22.81375 182.825056) scale(0.1 -0.1)">
       <use xlink:href="#DejaVuSans-37"/>
       <use xlink:href="#DejaVuSans-39" x="63.623047"/>
       <use xlink:href="#DejaVuSans-25" x="127.246094"/>
      </g>
     </g>
    </g>
    <g id="ytick_9">
     <g id="line2d_43">
      <path d="M 52.040313 167.31023 
L 358.940313 167.31023 
" clip-path="url(#p786103fda8)" style="fill: none; stroke: #ffffff; stroke-width: 0.8; stroke-linecap: square"/>
     </g>
     <g id="line2d_44">
      <g>
       <use xlink:href="#mffd7382200" x="52.040313" y="167.31023" style="fill: #555555; stroke: #555555; stroke-width: 0.8"/>
      </g>
     </g>
     <g id="text_24">
      <!-- 84% -->
      <g style="fill: #555555" transform="translate(22.81375 171.109449) scale(0.1 -0.1)">
       <use xlink:href="#DejaVuSans-38"/>
       <use xlink:href="#DejaVuSans-34" x="63.623047"/>
       <use xlink:href="#DejaVuSans-25" x="127.246094"/>
      </g>
     </g>
    </g>
    <g id="ytick_10">
     <g id="line2d_45">
      <path d="M 52.040313 155.594623 
L 358.940313 155.594623 
" clip-path="url(#p786103fda8)" style="fill: none; stroke: #ffffff; stroke-width: 0.8; stroke-linecap: square"/>
     </g>
     <g id="line2d_46">
      <g>
       <use xlink:href="#mffd7382200" x="52.040313" y="155.594623" style="fill: #555555; stroke: #555555; stroke-width: 0.8"/>
      </g>
     </g>
     <g id="text_25">
      <!-- 89% -->
      <g style="fill: #555555" transform="translate(22.81375 159.393842) scale(0.1 -0.1)">
       <use xlink:href="#DejaVuSans-38"/>
       <use xlink:href="#DejaVuSans-39" x="63.623047"/>
       <use xlink:href="#DejaVuSans-25" x="127.246094"/>
      </g>
     </g>
    </g>
    <g id="ytick_11">
     <g id="line2d_47">
      <path d="M 52.040313 143.879016 
L 358.940313 143.879016 
" clip-path="url(#p786103fda8)" style="fill: none; stroke: #ffffff; stroke-width: 0.8; stroke-linecap: square"/>
     </g>
     <g id="line2d_48">
      <g>
       <use xlink:href="#mffd7382200" x="52.040313" y="143.879016" style="fill: #555555; stroke: #555555; stroke-width: 0.8"/>
      </g>
     </g>
     <g id="text_26">
      <!-- 94% -->
      <g style="fill: #555555" transform="translate(22.81375 147.678235) scale(0.1 -0.1)">
       <use xlink:href="#DejaVuSans-39"/>
       <use xlink:href="#DejaVuSans-34" x="63.623047"/>
       <use xlink:href="#DejaVuSans-25" x="127.246094"/>
      </g>
     </g>
    </g>
    <g id="ytick_12">
     <g id="line2d_49">
      <path d="M 52.040313 132.163409 
L 358.940313 132.163409 
" clip-path="url(#p786103fda8)" style="fill: none; stroke: #ffffff; stroke-width: 0.8; stroke-linecap: square"/>
     </g>
     <g id="line2d_50">
      <g>
       <use xlink:href="#mffd7382200" x="52.040313" y="132.163409" style="fill: #555555; stroke: #555555; stroke-width: 0.8"/>
      </g>
     </g>
     <g id="text_27">
      <!-- 99% -->
      <g style="fill: #555555" transform="translate(22.81375 135.962627) scale(0.1 -0.1)">
       <use xlink:href="#DejaVuSans-39"/>
       <use xlink:href="#DejaVuSans-39" x="63.623047"/>
       <use xlink:href="#DejaVuSans-25" x="127.246094"/>
      </g>
     </g>
    </g>
    <g id="text_28">
     <!-- Completeness % -->
     <g style="fill: #555555" transform="translate(16.318125 224.352375) rotate(-90) scale(0.12 -0.12)">
      <use xlink:href="#DejaVuSans-43"/>
      <use xlink:href="#DejaVuSans-6f" x="69.824219"/>
      <use xlink:href="#DejaVuSans-6d" x="131.005859"/>
      <use xlink:href="#DejaVuSans-70" x="228.417969"/>
      <use xlink:href="#DejaVuSans-6c" x="291.894531"/>
      <use xlink:href="#DejaVuSans-65" x="319.677734"/>
      <use xlink:href="#DejaVuSans-74" x="381.201172"/>
      <use xlink:href="#DejaVuSans-65" x="420.410156"/>
      <use xlink:href="#DejaVuSans-6e" x="481.933594"/>
      <use xlink:href="#DejaVuSans-65" x="545.3125"/>
      <use xlink:href="#DejaVuSans-73" x="606.835938"/>
      <use xlink:href="#DejaVuSans-73" x="658.935547"/>
      <use xlink:href="#DejaVuSans-20" x="711.035156"/>
      <use xlink:href="#DejaVuSans-25" x="742.822266"/>
     </g>
    </g>
   </g>
   <g id="PolyCollection_1"/>
   <g id="line2d_51">
    <path d="M 93.890312 146.137435 
L 121.790312 133.990841 
L 149.690313 137.712325 
L 177.590312 138.873841 
L 205.490312 161.346472 
L 233.390312 206.907166 
L 261.290313 211.946137 
L 289.190313 214.172659 
L 317.090312 186.479954 
L 344.990313 183.699106 
" clip-path="url(#p786103fda8)" style="fill: none; stroke: #e24a33; stroke-width: 1.5; stroke-linecap: square"/>
    <defs>
     <path id="me60261d319" d="M 0 3 
C 0.795609 3 1.55874 2.683901 2.12132 2.12132 
C 2.683901 1.55874 3 0.795609 3 0 
C 3 -0.795609 2.683901 -1.55874 2.12132 -2.12132 
C 1.55874 -2.683901 0.795609 -3 0 -3 
C -0.795609 -3 -1.55874 -2.683901 -2.12132 -2.12132 
C -2.683901 -1.55874 -3 -0.795609 -3 0 
C -3 0.795609 -2.683901 1.55874 -2.12132 2.12132 
C -1.55874 2.683901 -0.795609 3 0 3 
z
" style="stroke: #ffffff; stroke-width: 0.75"/>
    </defs>
    <g clip-path="url(#p786103fda8)">
     <use xlink:href="#me60261d319" x="93.890312" y="146.137435" style="fill: #e24a33; stroke: #ffffff; stroke-width: 0.75"/>
     <use xlink:href="#me60261d319" x="121.790312" y="133.990841" style="fill: #e24a33; stroke: #ffffff; stroke-width: 0.75"/>
     <use xlink:href="#me60261d319" x="149.690313" y="137.712325" style="fill: #e24a33; stroke: #ffffff; stroke-width: 0.75"/>
     <use xlink:href="#me60261d319" x="177.590312" y="138.873841" style="fill: #e24a33; stroke: #ffffff; stroke-width: 0.75"/>
     <use xlink:href="#me60261d319" x="205.490312" y="161.346472" style="fill: #e24a33; stroke: #ffffff; stroke-width: 0.75"/>
     <use xlink:href="#me60261d319" x="233.390312" y="206.907166" style="fill: #e24a33; stroke: #ffffff; stroke-width: 0.75"/>
     <use xlink:href="#me60261d319" x="261.290313" y="211.946137" style="fill: #e24a33; stroke: #ffffff; stroke-width: 0.75"/>
     <use xlink:href="#me60261d319" x="289.190313" y="214.172659" style="fill: #e24a33; stroke: #ffffff; stroke-width: 0.75"/>
     <use xlink:href="#me60261d319" x="317.090312" y="186.479954" style="fill: #e24a33; stroke: #ffffff; stroke-width: 0.75"/>
     <use xlink:href="#me60261d319" x="344.990313" y="183.699106" style="fill: #e24a33; stroke: #ffffff; stroke-width: 0.75"/>
    </g>
   </g>
   <g id="patch_28">
    <path d="M 52.040313 218.18175 
L 52.040313 129.98175 
" style="fill: none; stroke: #ffffff; stroke-linejoin: miter; stroke-linecap: square"/>
   </g>
   <g id="patch_29">
    <path d="M 358.940313 218.18175 
L 358.940313 129.98175 
" style="fill: none; stroke: #ffffff; stroke-linejoin: miter; stroke-linecap: square"/>
   </g>
   <g id="patch_30">
    <path d="M 52.040312 218.18175 
L 358.940313 218.18175 
" style="fill: none; stroke: #ffffff; stroke-linejoin: miter; stroke-linecap: square"/>
   </g>
   <g id="patch_31">
    <path d="M 52.040312 129.98175 
L 358.940313 129.98175 
" style="fill: none; stroke: #ffffff; stroke-linejoin: miter; stroke-linecap: square"/>
   </g>
  </g>
 </g>
 <defs>
  <clipPath id="p99e4312b0f">
   <rect x="52.040313" y="24.14175" width="306.9" height="88.2"/>
  </clipPath>
  <clipPath id="p786103fda8">
   <rect x="52.040313" y="129.98175" width="306.9" height="88.2"/>
  </clipPath>
 </defs>
</svg>
